<svg xmlns="http://www.w3.org/2000/svg" width="452" height="297.693" viewBox="0 0 452 297.693">
  <g id="Grupo_1100523" data-name="Grupo 1100523" transform="translate(-201.195 -1090.85)">
    <g id="Grupo_1100522" data-name="Grupo 1100522" transform="translate(-51.844 -6.305)">
      <path id="Trazado_875092" data-name="Trazado 875092" d="M147.5,0A147.5,147.5,0,1,1,0,147.5,147.5,147.5,0,0,1,147.5,0Z" transform="translate(253.693 1392.154) rotate(-90)" fill="#1b5333"/>
      <path id="Trazado_874530" data-name="Trazado 874530" d="M3795.668-9757v137.758L3683.71-9507.284s-73.912-68.372-31.017-161.864S3795.668-9757,3795.668-9757Z" transform="translate(10010.693 5034.154) rotate(-90)" fill="#32324a"/>
      <path id="Trazado_874531" data-name="Trazado 874531" d="M3795.668-9617.961v-139.328s-26.392-.642-50.823,7.056-46.9,23.733-46.9,23.733Z" transform="translate(10010.693 5034.154) rotate(-90)" fill="#484a90"/>
      <path id="Trazado_876096" data-name="Trazado 876096" d="M99.924-.443l6.457,156.389S76.6,157.7,50,149.088s-50-27.6-50-27.6Z" transform="matrix(0.105, -0.995, 0.995, 0.105, 382.467, 1338.211)" fill="#00883c"/>
      <path id="Trazado_876898" data-name="Trazado 876898" d="M10.169,0H6.5V-14.162L2.12-12.81v-2.958L9.775-18.51h.394ZM16.72-9.09l1.066-9.395H28.146v3.06H20.795l-.457,3.974a5.817,5.817,0,0,1,2.78-.7,5.328,5.328,0,0,1,4.139,1.638,6.542,6.542,0,0,1,1.5,4.583A6.7,6.7,0,0,1,28-2.723a5.332,5.332,0,0,1-2.165,2.2,6.757,6.757,0,0,1-3.326.781A7.176,7.176,0,0,1,19.4-.425a5.517,5.517,0,0,1-2.266-1.911,5.207,5.207,0,0,1-.882-2.806h3.631a2.712,2.712,0,0,0,.806,1.8A2.556,2.556,0,0,0,22.5-2.7a2.256,2.256,0,0,0,1.917-.9,4.146,4.146,0,0,0,.673-2.533,3.429,3.429,0,0,0-.774-2.412,2.842,2.842,0,0,0-2.2-.838A3.176,3.176,0,0,0,20-8.7l-.355.33Zm14.32-5.84a3.655,3.655,0,0,1,1.1-2.761,4.006,4.006,0,0,1,2.895-1.06,4.069,4.069,0,0,1,2.92,1.047,3.724,3.724,0,0,1,1.1,2.837v.914a3.608,3.608,0,0,1-1.1,2.755,4.048,4.048,0,0,1-2.895,1.041A4.074,4.074,0,0,1,32.151-11.2a3.7,3.7,0,0,1-1.111-2.825Zm2.438.993a1.726,1.726,0,0,0,.438,1.232,1.5,1.5,0,0,0,1.149.466,1.434,1.434,0,0,0,1.13-.473,1.836,1.836,0,0,0,.419-1.264v-.945a1.8,1.8,0,0,0-.419-1.239,1.464,1.464,0,0,0-1.155-.473,1.468,1.468,0,0,0-1.13.466,1.835,1.835,0,0,0-.432,1.3Zm6.4,9.4a3.608,3.608,0,0,1,1.117-2.761,4.062,4.062,0,0,1,2.895-1.047A4.1,4.1,0,0,1,46.8-7.306a3.7,3.7,0,0,1,1.111,2.85v.914A3.635,3.635,0,0,1,46.82-.793,4.024,4.024,0,0,1,43.913.254,4.072,4.072,0,0,1,40.98-.8a3.681,3.681,0,0,1-1.1-2.793Zm2.438,1.006a1.712,1.712,0,0,0,.457,1.2,1.486,1.486,0,0,0,1.143.5q1.549,0,1.549-1.724v-.971a1.741,1.741,0,0,0-.432-1.232,1.483,1.483,0,0,0-1.143-.466,1.483,1.483,0,0,0-1.143.466,1.8,1.8,0,0,0-.432,1.271ZM35.788-1.384,34-2.349,43.024-16.8l1.79.965Z" transform="translate(273.193 1283.654)" fill="#fff"/>
      <path id="Trazado_876897" data-name="Trazado 876897" d="M13.927,0H1.257V-2.514L7.236-8.887a14.751,14.751,0,0,0,1.822-2.349,3.773,3.773,0,0,0,.59-1.9,2.823,2.823,0,0,0-.622-1.936,2.245,2.245,0,0,0-1.777-.7,2.422,2.422,0,0,0-1.961.857A3.394,3.394,0,0,0,4.57-12.67H.889a6.06,6.06,0,0,1,.806-3.085,5.682,5.682,0,0,1,2.279-2.19,6.926,6.926,0,0,1,3.339-.793,6.558,6.558,0,0,1,4.437,1.371A4.851,4.851,0,0,1,13.33-13.5a6.215,6.215,0,0,1-.711,2.793,15.521,15.521,0,0,1-2.437,3.313l-4.2,4.431h7.947ZM16.72-9.09l1.066-9.395H28.146v3.06H20.795l-.457,3.974a5.817,5.817,0,0,1,2.78-.7,5.328,5.328,0,0,1,4.139,1.638,6.542,6.542,0,0,1,1.5,4.583A6.7,6.7,0,0,1,28-2.723a5.332,5.332,0,0,1-2.165,2.2,6.757,6.757,0,0,1-3.326.781A7.176,7.176,0,0,1,19.4-.425a5.517,5.517,0,0,1-2.266-1.911,5.207,5.207,0,0,1-.882-2.806h3.631a2.712,2.712,0,0,0,.806,1.8A2.556,2.556,0,0,0,22.5-2.7a2.256,2.256,0,0,0,1.917-.9,4.146,4.146,0,0,0,.673-2.533,3.429,3.429,0,0,0-.774-2.412,2.842,2.842,0,0,0-2.2-.838A3.176,3.176,0,0,0,20-8.7l-.355.33Zm14.32-5.84a3.655,3.655,0,0,1,1.1-2.761,4.006,4.006,0,0,1,2.895-1.06,4.069,4.069,0,0,1,2.92,1.047,3.724,3.724,0,0,1,1.1,2.837v.914a3.608,3.608,0,0,1-1.1,2.755,4.048,4.048,0,0,1-2.895,1.041A4.074,4.074,0,0,1,32.151-11.2a3.7,3.7,0,0,1-1.111-2.825Zm2.438.993a1.726,1.726,0,0,0,.438,1.232,1.5,1.5,0,0,0,1.149.466,1.434,1.434,0,0,0,1.13-.473,1.836,1.836,0,0,0,.419-1.264v-.945a1.8,1.8,0,0,0-.419-1.239,1.464,1.464,0,0,0-1.155-.473,1.468,1.468,0,0,0-1.13.466,1.835,1.835,0,0,0-.432,1.3Zm6.4,9.4a3.608,3.608,0,0,1,1.117-2.761,4.062,4.062,0,0,1,2.895-1.047A4.1,4.1,0,0,1,46.8-7.306a3.7,3.7,0,0,1,1.111,2.85v.914A3.635,3.635,0,0,1,46.82-.793,4.024,4.024,0,0,1,43.913.254,4.072,4.072,0,0,1,40.98-.8a3.681,3.681,0,0,1-1.1-2.793Zm2.438,1.006a1.712,1.712,0,0,0,.457,1.2,1.486,1.486,0,0,0,1.143.5q1.549,0,1.549-1.724v-.971a1.741,1.741,0,0,0-.432-1.232,1.483,1.483,0,0,0-1.143-.466,1.483,1.483,0,0,0-1.143.466,1.8,1.8,0,0,0-.432,1.271ZM35.788-1.384,34-2.349,43.024-16.8l1.79.965Z" transform="translate(362.193 1339.654)" fill="#fff"/>
      <path id="Trazado_876895" data-name="Trazado 876895" d="M13.927,0H1.257V-2.514L7.236-8.887a14.751,14.751,0,0,0,1.822-2.349,3.773,3.773,0,0,0,.59-1.9,2.823,2.823,0,0,0-.622-1.936,2.245,2.245,0,0,0-1.777-.7,2.422,2.422,0,0,0-1.961.857A3.394,3.394,0,0,0,4.57-12.67H.889a6.06,6.06,0,0,1,.806-3.085,5.682,5.682,0,0,1,2.279-2.19,6.926,6.926,0,0,1,3.339-.793,6.558,6.558,0,0,1,4.437,1.371A4.851,4.851,0,0,1,13.33-13.5a6.215,6.215,0,0,1-.711,2.793,15.521,15.521,0,0,1-2.437,3.313l-4.2,4.431h7.947ZM28.615-7.643a9.364,9.364,0,0,1-1.587,5.865A5.539,5.539,0,0,1,22.382.254a5.578,5.578,0,0,1-4.621-1.993,9.09,9.09,0,0,1-1.638-5.713v-3.4a9.241,9.241,0,0,1,1.606-5.878,5.581,5.581,0,0,1,4.627-2.006,5.586,5.586,0,0,1,4.621,1.987,9.062,9.062,0,0,1,1.638,5.707Zm-3.669-3.741a6.769,6.769,0,0,0-.628-3.349,2.124,2.124,0,0,0-1.961-1.048,2.086,2.086,0,0,0-1.911,1,6.334,6.334,0,0,0-.654,3.12v4.5A7.105,7.105,0,0,0,20.408-3.8a2.1,2.1,0,0,0,1.974,1.1,2.06,2.06,0,0,0,1.942-1.055,6.935,6.935,0,0,0,.622-3.228ZM31.04-14.93a3.655,3.655,0,0,1,1.1-2.761,4.006,4.006,0,0,1,2.895-1.06,4.069,4.069,0,0,1,2.92,1.047,3.724,3.724,0,0,1,1.1,2.837v.914a3.608,3.608,0,0,1-1.1,2.755,4.048,4.048,0,0,1-2.895,1.041A4.074,4.074,0,0,1,32.151-11.2a3.7,3.7,0,0,1-1.111-2.825Zm2.438.993a1.726,1.726,0,0,0,.438,1.232,1.5,1.5,0,0,0,1.149.466,1.434,1.434,0,0,0,1.13-.473,1.836,1.836,0,0,0,.419-1.264v-.945a1.8,1.8,0,0,0-.419-1.239,1.464,1.464,0,0,0-1.155-.473,1.468,1.468,0,0,0-1.13.466,1.835,1.835,0,0,0-.432,1.3Zm6.4,9.4a3.608,3.608,0,0,1,1.117-2.761,4.062,4.062,0,0,1,2.895-1.047A4.1,4.1,0,0,1,46.8-7.306a3.7,3.7,0,0,1,1.111,2.85v.914A3.635,3.635,0,0,1,46.82-.793,4.024,4.024,0,0,1,43.913.254,4.072,4.072,0,0,1,40.98-.8a3.681,3.681,0,0,1-1.1-2.793Zm2.438,1.006a1.712,1.712,0,0,0,.457,1.2,1.486,1.486,0,0,0,1.143.5q1.549,0,1.549-1.724v-.971a1.741,1.741,0,0,0-.432-1.232,1.483,1.483,0,0,0-1.143-.466,1.483,1.483,0,0,0-1.143.466,1.8,1.8,0,0,0-.432,1.271ZM35.788-1.384,34-2.349,43.024-16.8l1.79.965Z" transform="translate(419.193 1193.654)" fill="#fff"/>
      <path id="Trazado_876896" data-name="Trazado 876896" d="M10.169,0H6.5V-14.162L2.12-12.81v-2.958L9.775-18.51h.394ZM16.72-9.09l1.066-9.395H28.146v3.06H20.795l-.457,3.974a5.817,5.817,0,0,1,2.78-.7,5.328,5.328,0,0,1,4.139,1.638,6.542,6.542,0,0,1,1.5,4.583A6.7,6.7,0,0,1,28-2.723a5.332,5.332,0,0,1-2.165,2.2,6.757,6.757,0,0,1-3.326.781A7.176,7.176,0,0,1,19.4-.425a5.517,5.517,0,0,1-2.266-1.911,5.207,5.207,0,0,1-.882-2.806h3.631a2.712,2.712,0,0,0,.806,1.8A2.556,2.556,0,0,0,22.5-2.7a2.256,2.256,0,0,0,1.917-.9,4.146,4.146,0,0,0,.673-2.533,3.429,3.429,0,0,0-.774-2.412,2.842,2.842,0,0,0-2.2-.838A3.176,3.176,0,0,0,20-8.7l-.355.33Zm14.32-5.84a3.655,3.655,0,0,1,1.1-2.761,4.006,4.006,0,0,1,2.895-1.06,4.069,4.069,0,0,1,2.92,1.047,3.724,3.724,0,0,1,1.1,2.837v.914a3.608,3.608,0,0,1-1.1,2.755,4.048,4.048,0,0,1-2.895,1.041A4.074,4.074,0,0,1,32.151-11.2a3.7,3.7,0,0,1-1.111-2.825Zm2.438.993a1.726,1.726,0,0,0,.438,1.232,1.5,1.5,0,0,0,1.149.466,1.434,1.434,0,0,0,1.13-.473,1.836,1.836,0,0,0,.419-1.264v-.945a1.8,1.8,0,0,0-.419-1.239,1.464,1.464,0,0,0-1.155-.473,1.468,1.468,0,0,0-1.13.466,1.835,1.835,0,0,0-.432,1.3Zm6.4,9.4a3.608,3.608,0,0,1,1.117-2.761,4.062,4.062,0,0,1,2.895-1.047A4.1,4.1,0,0,1,46.8-7.306a3.7,3.7,0,0,1,1.111,2.85v.914A3.635,3.635,0,0,1,46.82-.793,4.024,4.024,0,0,1,43.913.254,4.072,4.072,0,0,1,40.98-.8a3.681,3.681,0,0,1-1.1-2.793Zm2.438,1.006a1.712,1.712,0,0,0,.457,1.2,1.486,1.486,0,0,0,1.143.5q1.549,0,1.549-1.724v-.971a1.741,1.741,0,0,0-.432-1.232,1.483,1.483,0,0,0-1.143-.466,1.483,1.483,0,0,0-1.143.466,1.8,1.8,0,0,0-.432,1.271ZM35.788-1.384,34-2.349,43.024-16.8l1.79.965Z" transform="translate(468.193 1280.004)" fill="#fff"/>
      <path id="Trazado_876095" data-name="Trazado 876095" d="M7164.355-10460.727h140.762l35.1-139.614a187.715,187.715,0,0,0-66.145,2.051c-24.922,5.375-52.9,17.957-71.861,41.669C7156.52-10499.484,7164.355-10460.727,7164.355-10460.727Z" transform="translate(-6910.805 11700)" fill="#fca651"/>
      <path id="Trazado_876894" data-name="Trazado 876894" d="M13.927,0H1.257V-2.514L7.236-8.887a14.751,14.751,0,0,0,1.822-2.349,3.773,3.773,0,0,0,.59-1.9,2.823,2.823,0,0,0-.622-1.936,2.245,2.245,0,0,0-1.777-.7,2.422,2.422,0,0,0-1.961.857A3.394,3.394,0,0,0,4.57-12.67H.889a6.06,6.06,0,0,1,.806-3.085,5.682,5.682,0,0,1,2.279-2.19,6.926,6.926,0,0,1,3.339-.793,6.558,6.558,0,0,1,4.437,1.371A4.851,4.851,0,0,1,13.33-13.5a6.215,6.215,0,0,1-.711,2.793,15.521,15.521,0,0,1-2.437,3.313l-4.2,4.431h7.947ZM16.72-9.09l1.066-9.395H28.146v3.06H20.795l-.457,3.974a5.817,5.817,0,0,1,2.78-.7,5.328,5.328,0,0,1,4.139,1.638,6.542,6.542,0,0,1,1.5,4.583A6.7,6.7,0,0,1,28-2.723a5.332,5.332,0,0,1-2.165,2.2,6.757,6.757,0,0,1-3.326.781A7.176,7.176,0,0,1,19.4-.425a5.517,5.517,0,0,1-2.266-1.911,5.207,5.207,0,0,1-.882-2.806h3.631a2.712,2.712,0,0,0,.806,1.8A2.556,2.556,0,0,0,22.5-2.7a2.256,2.256,0,0,0,1.917-.9,4.146,4.146,0,0,0,.673-2.533,3.429,3.429,0,0,0-.774-2.412,2.842,2.842,0,0,0-2.2-.838A3.176,3.176,0,0,0,20-8.7l-.355.33Zm14.32-5.84a3.655,3.655,0,0,1,1.1-2.761,4.006,4.006,0,0,1,2.895-1.06,4.069,4.069,0,0,1,2.92,1.047,3.724,3.724,0,0,1,1.1,2.837v.914a3.608,3.608,0,0,1-1.1,2.755,4.048,4.048,0,0,1-2.895,1.041A4.074,4.074,0,0,1,32.151-11.2a3.7,3.7,0,0,1-1.111-2.825Zm2.438.993a1.726,1.726,0,0,0,.438,1.232,1.5,1.5,0,0,0,1.149.466,1.434,1.434,0,0,0,1.13-.473,1.836,1.836,0,0,0,.419-1.264v-.945a1.8,1.8,0,0,0-.419-1.239,1.464,1.464,0,0,0-1.155-.473,1.468,1.468,0,0,0-1.13.466,1.835,1.835,0,0,0-.432,1.3Zm6.4,9.4a3.608,3.608,0,0,1,1.117-2.761,4.062,4.062,0,0,1,2.895-1.047A4.1,4.1,0,0,1,46.8-7.306a3.7,3.7,0,0,1,1.111,2.85v.914A3.635,3.635,0,0,1,46.82-.793,4.024,4.024,0,0,1,43.913.254,4.072,4.072,0,0,1,40.98-.8a3.681,3.681,0,0,1-1.1-2.793Zm2.438,1.006a1.712,1.712,0,0,0,.457,1.2,1.486,1.486,0,0,0,1.143.5q1.549,0,1.549-1.724v-.971a1.741,1.741,0,0,0-.432-1.232,1.483,1.483,0,0,0-1.143-.466,1.483,1.483,0,0,0-1.143.466,1.8,1.8,0,0,0-.432,1.271ZM35.788-1.384,34-2.349,43.024-16.8l1.79.965Z" transform="translate(313.193 1193.654)" fill="#12263f"/>
    </g>
    <g id="Grupo_1100521" data-name="Grupo 1100521" transform="translate(-418 -95.15)">
      <rect id="Rectángulo_402361" data-name="Rectángulo 402361" width="137" height="20" transform="translate(934.195 1260)" fill="#1b5333"/>
      <rect id="Rectángulo_402362" data-name="Rectángulo 402362" width="137" height="20" transform="translate(934.195 1292)" fill="#11883c"/>
      <rect id="Rectángulo_402363" data-name="Rectángulo 402363" width="137" height="20" transform="translate(934.195 1325)" fill="#32324a"/>
      <rect id="Rectángulo_402364" data-name="Rectángulo 402364" width="137" height="20" transform="translate(934.195 1359)" fill="#484a90"/>
      <rect id="Rectángulo_402365" data-name="Rectángulo 402365" width="137" height="20" transform="translate(934.195 1391)" fill="#fca651"/>
      <path id="Trazado_876899" data-name="Trazado 876899" d="M1.32,15V3.625H4.531a5.169,5.169,0,0,1,2.625.656A4.438,4.438,0,0,1,8.918,6.148,6.078,6.078,0,0,1,9.547,8.93v.727a6.1,6.1,0,0,1-.621,2.82,4.369,4.369,0,0,1-1.773,1.859A5.5,5.5,0,0,1,4.469,15ZM2.82,4.852v8.922H4.4a3.434,3.434,0,0,0,2.7-1.079,4.458,4.458,0,0,0,.965-3.073V8.957a4.529,4.529,0,0,0-.91-3.014A3.239,3.239,0,0,0,4.57,4.852Zm12.273,10.3a3.693,3.693,0,0,1-2.8-1.129,4.19,4.19,0,0,1-1.078-3.02v-.266A5.073,5.073,0,0,1,11.7,8.5a3.748,3.748,0,0,1,1.344-1.547,3.378,3.378,0,0,1,1.871-.559,3.166,3.166,0,0,1,2.563,1.086,4.7,4.7,0,0,1,.914,3.109v.6H12.664a3,3,0,0,0,.73,2.02,2.3,2.3,0,0,0,1.777.77,2.517,2.517,0,0,0,1.3-.312,3.259,3.259,0,0,0,.93-.828l.883.688A3.55,3.55,0,0,1,15.094,15.156Zm-.18-7.578a1.928,1.928,0,0,0-1.469.637A3.1,3.1,0,0,0,12.711,10h4.234V9.891a2.753,2.753,0,0,0-.594-1.707A1.815,1.815,0,0,0,14.914,7.578Zm10.07,5.18a1.064,1.064,0,0,0-.441-.91A4.249,4.249,0,0,0,23,11.289a7.277,7.277,0,0,1-1.742-.562,2.479,2.479,0,0,1-.953-.781A1.869,1.869,0,0,1,20,8.867a2.193,2.193,0,0,1,.879-1.758,3.432,3.432,0,0,1,2.246-.719,3.532,3.532,0,0,1,2.332.742,2.357,2.357,0,0,1,.895,1.9H24.9a1.3,1.3,0,0,0-.5-1.023,1.888,1.888,0,0,0-1.27-.43,1.976,1.976,0,0,0-1.234.344,1.082,1.082,0,0,0-.445.9.877.877,0,0,0,.414.789,5.1,5.1,0,0,0,1.5.508,7.8,7.8,0,0,1,1.754.578,2.558,2.558,0,0,1,1,.809,1.988,1.988,0,0,1,.324,1.152,2.163,2.163,0,0,1-.906,1.816,3.8,3.8,0,0,1-2.352.684,4.257,4.257,0,0,1-1.8-.359,2.922,2.922,0,0,1-1.223-1,2.42,2.42,0,0,1-.441-1.395h1.445a1.5,1.5,0,0,0,.582,1.152,2.258,2.258,0,0,0,1.434.426,2.331,2.331,0,0,0,1.316-.332A1.02,1.02,0,0,0,24.984,12.758ZM33.531,15a3.036,3.036,0,0,1-.2-.891,3.225,3.225,0,0,1-2.406,1.047,2.984,2.984,0,0,1-2.051-.707,2.287,2.287,0,0,1-.8-1.793,2.39,2.39,0,0,1,1-2.051,4.733,4.733,0,0,1,2.824-.73H33.3V9.211A1.623,1.623,0,0,0,32.852,8a1.821,1.821,0,0,0-1.336-.449,2.108,2.108,0,0,0-1.3.391,1.151,1.151,0,0,0-.523.945H28.242a2,2,0,0,1,.449-1.223,3.066,3.066,0,0,1,1.219-.934A4.1,4.1,0,0,1,31.6,6.391a3.342,3.342,0,0,1,2.289.73,2.635,2.635,0,0,1,.859,2.012v3.891a4.757,4.757,0,0,0,.3,1.852V15Zm-2.4-1.1a2.54,2.54,0,0,0,1.289-.352,2.127,2.127,0,0,0,.883-.914V10.9H32.172q-2.656,0-2.656,1.555a1.316,1.316,0,0,0,.453,1.063A1.742,1.742,0,0,0,31.133,13.9Zm8.531-1.016,1.969-6.336H43.18l-3.4,9.758q-.789,2.109-2.508,2.109L37,18.391l-.539-.1V17.117l.391.031a1.923,1.923,0,0,0,1.145-.3,2.148,2.148,0,0,0,.676-1.086l.32-.859L35.977,6.547h1.578Zm10.023,1.281a3.07,3.07,0,0,1-2.477.992,2.628,2.628,0,0,1-2.059-.785,3.4,3.4,0,0,1-.715-2.324v-5.5h1.445v5.461q0,1.922,1.563,1.922a2.163,2.163,0,0,0,2.2-1.234V6.547h1.445V15H49.719Zm4.969-7.617L54.7,7.609a3.08,3.08,0,0,1,2.531-1.219q2.68,0,2.7,3.023V15H58.492V9.406a1.946,1.946,0,0,0-.418-1.352A1.675,1.675,0,0,0,56.8,7.617a2.086,2.086,0,0,0-1.234.375,2.546,2.546,0,0,0-.828.984V15H53.289V6.547ZM61.734,10.7a4.993,4.993,0,0,1,.488-2.234A3.643,3.643,0,0,1,63.582,6.93a3.7,3.7,0,0,1,1.988-.539,3.565,3.565,0,0,1,2.793,1.2,4.6,4.6,0,0,1,1.066,3.18v.1a5.036,5.036,0,0,1-.473,2.215,3.589,3.589,0,0,1-1.352,1.527,3.743,3.743,0,0,1-2.02.547,3.556,3.556,0,0,1-2.785-1.2A4.575,4.575,0,0,1,61.734,10.8Zm1.453.172a3.616,3.616,0,0,0,.652,2.258,2.211,2.211,0,0,0,3.5-.012,3.955,3.955,0,0,0,.648-2.418,3.61,3.61,0,0,0-.66-2.254,2.1,2.1,0,0,0-1.754-.863,2.075,2.075,0,0,0-1.727.852A3.925,3.925,0,0,0,63.188,10.867ZM3.258,36.625l3.719,9.281L10.7,36.625h1.945V48h-1.5V43.57l.141-4.781L7.547,48H6.4L2.672,38.813,2.82,43.57V48H1.32V36.625ZM18.57,48.156a3.693,3.693,0,0,1-2.8-1.129,4.19,4.19,0,0,1-1.078-3.02v-.266a5.073,5.073,0,0,1,.48-2.246,3.748,3.748,0,0,1,1.344-1.547,3.378,3.378,0,0,1,1.871-.559,3.166,3.166,0,0,1,2.563,1.086,4.7,4.7,0,0,1,.914,3.109v.6H16.141a3,3,0,0,0,.73,2.02,2.3,2.3,0,0,0,1.777.77,2.517,2.517,0,0,0,1.3-.312,3.259,3.259,0,0,0,.93-.828l.883.688A3.55,3.55,0,0,1,18.57,48.156Zm-.18-7.578a1.928,1.928,0,0,0-1.469.637A3.1,3.1,0,0,0,16.188,43h4.234v-.109a2.753,2.753,0,0,0-.594-1.707A1.815,1.815,0,0,0,18.391,40.578Zm4.8,3.125a4.952,4.952,0,0,1,.922-3.129,3.137,3.137,0,0,1,4.766-.168V36H30.32V48H28.992l-.07-.906a2.943,2.943,0,0,1-2.414,1.063,2.887,2.887,0,0,1-2.395-1.2,5.008,5.008,0,0,1-.926-3.141Zm1.445.164a3.749,3.749,0,0,0,.594,2.25,1.92,1.92,0,0,0,1.641.813A2.108,2.108,0,0,0,28.875,45.7V41.813a2.125,2.125,0,0,0-1.992-1.2,1.929,1.929,0,0,0-1.656.82A4.128,4.128,0,0,0,24.633,43.867ZM34.133,48H32.688V39.547h1.445ZM32.57,37.3a.863.863,0,0,1,.215-.594.807.807,0,0,1,.637-.242.819.819,0,0,1,.641.242.854.854,0,0,1,.219.594.826.826,0,0,1-.219.586.834.834,0,0,1-.641.234.821.821,0,0,1-.637-.234A.834.834,0,0,1,32.57,37.3ZM41.664,48a3.036,3.036,0,0,1-.2-.891,3.225,3.225,0,0,1-2.406,1.047A2.984,2.984,0,0,1,37,47.449a2.287,2.287,0,0,1-.8-1.793,2.39,2.39,0,0,1,1-2.051,4.733,4.733,0,0,1,2.824-.73h1.406v-.664A1.623,1.623,0,0,0,40.984,41a1.821,1.821,0,0,0-1.336-.449,2.107,2.107,0,0,0-1.3.391,1.151,1.151,0,0,0-.523.945H36.375a2,2,0,0,1,.449-1.223,3.066,3.066,0,0,1,1.219-.934,4.1,4.1,0,0,1,1.691-.344,3.342,3.342,0,0,1,2.289.73,2.635,2.635,0,0,1,.859,2.012v3.891a4.757,4.757,0,0,0,.3,1.852V48Zm-2.4-1.1a2.54,2.54,0,0,0,1.289-.352,2.127,2.127,0,0,0,.883-.914V43.9H40.3q-2.656,0-2.656,1.555a1.316,1.316,0,0,0,.453,1.063A1.742,1.742,0,0,0,39.266,46.9Zm11.2-7.352.039.938a3.122,3.122,0,0,1,2.508-1.094A2.417,2.417,0,0,1,55.43,40.75a3.2,3.2,0,0,1,1.1-.984,3.242,3.242,0,0,1,1.6-.375q2.781,0,2.828,2.945V48H59.508V42.422a1.941,1.941,0,0,0-.414-1.355,1.823,1.823,0,0,0-1.391-.449,1.916,1.916,0,0,0-1.336.48,1.949,1.949,0,0,0-.617,1.293V48H54.3V42.461a1.613,1.613,0,0,0-1.8-1.844,1.934,1.934,0,0,0-1.945,1.211V48H49.1V39.547ZM68.352,48a3.036,3.036,0,0,1-.2-.891,3.225,3.225,0,0,1-2.406,1.047,2.984,2.984,0,0,1-2.051-.707,2.287,2.287,0,0,1-.8-1.793,2.39,2.39,0,0,1,1-2.051,4.733,4.733,0,0,1,2.824-.73h1.406v-.664A1.623,1.623,0,0,0,67.672,41a1.821,1.821,0,0,0-1.336-.449,2.107,2.107,0,0,0-1.3.391,1.151,1.151,0,0,0-.523.945H63.063a2,2,0,0,1,.449-1.223,3.066,3.066,0,0,1,1.219-.934,4.1,4.1,0,0,1,1.691-.344,3.342,3.342,0,0,1,2.289.73,2.635,2.635,0,0,1,.859,2.012v3.891a4.757,4.757,0,0,0,.3,1.852V48Zm-2.4-1.1a2.54,2.54,0,0,0,1.289-.352,2.127,2.127,0,0,0,.883-.914V43.9H66.992q-2.656,0-2.656,1.555a1.316,1.316,0,0,0,.453,1.063A1.742,1.742,0,0,0,65.953,46.9Zm7.25-7.352.047,1.063a3.08,3.08,0,0,1,2.531-1.219q2.68,0,2.7,3.023V48H77.039V42.406a1.946,1.946,0,0,0-.418-1.352,1.675,1.675,0,0,0-1.277-.437,2.086,2.086,0,0,0-1.234.375,2.546,2.546,0,0,0-.828.984V48H71.836V39.547Zm4.781-3.3a1.942,1.942,0,0,1-.48,1.367,1.561,1.561,0,0,1-1.2.523,1.76,1.76,0,0,1-.555-.078,2.993,2.993,0,0,1-.613-.32,2.656,2.656,0,0,0-.547-.293A1.338,1.338,0,0,0,74.2,37.4a.717.717,0,0,0-.547.246.892.892,0,0,0-.227.629l-.969-.055a2.039,2.039,0,0,1,.473-1.383,1.516,1.516,0,0,1,1.2-.547,1.457,1.457,0,0,1,.492.078,3.587,3.587,0,0,1,.594.3,3.494,3.494,0,0,0,.574.3,1.319,1.319,0,0,0,.441.07.7.7,0,0,0,.559-.266.932.932,0,0,0,.223-.617ZM85.883,48a3.036,3.036,0,0,1-.2-.891,3.225,3.225,0,0,1-2.406,1.047,2.984,2.984,0,0,1-2.051-.707,2.288,2.288,0,0,1-.8-1.793,2.39,2.39,0,0,1,1-2.051,4.733,4.733,0,0,1,2.824-.73h1.406v-.664A1.623,1.623,0,0,0,85.2,41a1.821,1.821,0,0,0-1.336-.449,2.107,2.107,0,0,0-1.3.391,1.151,1.151,0,0,0-.523.945H80.594a2,2,0,0,1,.449-1.223,3.066,3.066,0,0,1,1.219-.934,4.1,4.1,0,0,1,1.691-.344,3.342,3.342,0,0,1,2.289.73,2.635,2.635,0,0,1,.859,2.012v3.891a4.757,4.757,0,0,0,.3,1.852V48Zm-2.4-1.1a2.54,2.54,0,0,0,1.289-.352,2.127,2.127,0,0,0,.883-.914V43.9H84.523q-2.656,0-2.656,1.555a1.316,1.316,0,0,0,.453,1.063A1.742,1.742,0,0,0,83.484,46.9Zm7.25-7.352.047,1.063a3.08,3.08,0,0,1,2.531-1.219q2.68,0,2.7,3.023V48H94.57V42.406a1.946,1.946,0,0,0-.418-1.352,1.675,1.675,0,0,0-1.277-.437,2.086,2.086,0,0,0-1.234.375,2.546,2.546,0,0,0-.828.984V48H89.367V39.547ZM103.414,48a3.036,3.036,0,0,1-.2-.891,3.225,3.225,0,0,1-2.406,1.047,2.984,2.984,0,0,1-2.051-.707,2.288,2.288,0,0,1-.8-1.793,2.39,2.39,0,0,1,1-2.051,4.733,4.733,0,0,1,2.824-.73h1.406v-.664A1.623,1.623,0,0,0,102.734,41a1.821,1.821,0,0,0-1.336-.449,2.107,2.107,0,0,0-1.3.391,1.151,1.151,0,0,0-.523.945H98.125a2,2,0,0,1,.449-1.223,3.066,3.066,0,0,1,1.219-.934,4.1,4.1,0,0,1,1.691-.344,3.342,3.342,0,0,1,2.289.73,2.635,2.635,0,0,1,.859,2.012v3.891a4.757,4.757,0,0,0,.3,1.852V48Zm-2.4-1.1a2.54,2.54,0,0,0,1.289-.352,2.127,2.127,0,0,0,.883-.914V43.9h-1.133q-2.656,0-2.656,1.555a1.316,1.316,0,0,0,.453,1.063A1.742,1.742,0,0,0,101.016,46.9ZM7.6,78.023H2.836L1.766,81H.219L4.563,69.625H5.875L10.227,81H8.688ZM3.289,76.8H7.156l-1.937-5.32ZM13.1,81H11.656V69H13.1Zm3.672-8.453.039.938a3.122,3.122,0,0,1,2.508-1.094,2.417,2.417,0,0,1,2.414,1.359,3.2,3.2,0,0,1,1.1-.984,3.242,3.242,0,0,1,1.6-.375q2.781,0,2.828,2.945V81H25.813V75.422a1.941,1.941,0,0,0-.414-1.355,1.823,1.823,0,0,0-1.391-.449,1.916,1.916,0,0,0-1.336.48,1.949,1.949,0,0,0-.617,1.293V81H20.6V75.461a1.613,1.613,0,0,0-1.8-1.844,1.934,1.934,0,0,0-1.945,1.211V81H15.406V72.547Zm17.883,7.617a3.07,3.07,0,0,1-2.477.992,2.628,2.628,0,0,1-2.059-.785,3.4,3.4,0,0,1-.715-2.324v-5.5h1.445v5.461q0,1.922,1.563,1.922a2.163,2.163,0,0,0,2.2-1.234V72.547h1.445V81H34.688Zm7.109.992a3.693,3.693,0,0,1-2.8-1.129,4.19,4.19,0,0,1-1.078-3.02v-.266a5.073,5.073,0,0,1,.48-2.246,3.748,3.748,0,0,1,1.344-1.547,3.378,3.378,0,0,1,1.871-.559,3.166,3.166,0,0,1,2.563,1.086,4.7,4.7,0,0,1,.914,3.109v.6H39.336a3,3,0,0,0,.73,2.02,2.3,2.3,0,0,0,1.777.77,2.517,2.517,0,0,0,1.3-.312,3.259,3.259,0,0,0,.93-.828l.883.688A3.55,3.55,0,0,1,41.766,81.156Zm-.18-7.578a1.928,1.928,0,0,0-1.469.637A3.1,3.1,0,0,0,39.383,76h4.234v-.109a2.753,2.753,0,0,0-.594-1.707A1.815,1.815,0,0,0,41.586,73.578Zm9.234.266a4.331,4.331,0,0,0-.711-.055A1.9,1.9,0,0,0,48.18,75v6H46.734V72.547h1.406l.023.977a2.251,2.251,0,0,1,2.016-1.133,1.477,1.477,0,0,1,.641.109Zm2.688,5.977h4.945V81H51.742V79.938l4.664-6.2H51.813v-1.2h6.406V73.57ZM59.57,76.7a4.993,4.993,0,0,1,.488-2.234,3.642,3.642,0,0,1,1.359-1.531,3.7,3.7,0,0,1,1.988-.539,3.565,3.565,0,0,1,2.793,1.2,4.6,4.6,0,0,1,1.066,3.18v.1a5.036,5.036,0,0,1-.473,2.215,3.589,3.589,0,0,1-1.352,1.527,3.743,3.743,0,0,1-2.02.547,3.556,3.556,0,0,1-2.785-1.2A4.575,4.575,0,0,1,59.57,76.8Zm1.453.172a3.616,3.616,0,0,0,.652,2.258,2.211,2.211,0,0,0,3.5-.012A3.955,3.955,0,0,0,65.82,76.7a3.61,3.61,0,0,0-.66-2.254,2.1,2.1,0,0,0-1.754-.863,2.075,2.075,0,0,0-1.727.852A3.925,3.925,0,0,0,61.023,76.867ZM3.258,102.625l3.719,9.281,3.719-9.281h1.945V114h-1.5v-4.43l.141-4.781L7.547,114H6.4l-3.727-9.187.148,4.758V114H1.32V102.625ZM18.57,114.156a3.693,3.693,0,0,1-2.8-1.129,4.19,4.19,0,0,1-1.078-3.02v-.266a5.073,5.073,0,0,1,.48-2.246,3.748,3.748,0,0,1,1.344-1.547,3.378,3.378,0,0,1,1.871-.559,3.166,3.166,0,0,1,2.563,1.086,4.7,4.7,0,0,1,.914,3.109v.6H16.141a3,3,0,0,0,.73,2.02,2.3,2.3,0,0,0,1.777.77,2.517,2.517,0,0,0,1.3-.312,3.259,3.259,0,0,0,.93-.828l.883.688A3.55,3.55,0,0,1,18.57,114.156Zm-.18-7.578a1.928,1.928,0,0,0-1.469.637A3.1,3.1,0,0,0,16.188,109h4.234v-.109a2.753,2.753,0,0,0-.594-1.707A1.815,1.815,0,0,0,18.391,106.578Zm9.234.266a4.331,4.331,0,0,0-.711-.055A1.9,1.9,0,0,0,24.984,108v6H23.539v-8.453h1.406l.023.977a2.251,2.251,0,0,1,2.016-1.133,1.477,1.477,0,0,1,.641.109Zm2.9,7.156H29.078v-8.453h1.445Zm-1.562-10.7a.863.863,0,0,1,.215-.594.807.807,0,0,1,.637-.242.819.819,0,0,1,.641.242.854.854,0,0,1,.219.594.826.826,0,0,1-.219.586.834.834,0,0,1-.641.234.821.821,0,0,1-.637-.234A.834.834,0,0,1,28.961,103.3Zm7.383,10.852a3.693,3.693,0,0,1-2.8-1.129,4.19,4.19,0,0,1-1.078-3.02v-.266a5.073,5.073,0,0,1,.48-2.246,3.748,3.748,0,0,1,1.344-1.547,3.378,3.378,0,0,1,1.871-.559,3.166,3.166,0,0,1,2.563,1.086,4.7,4.7,0,0,1,.914,3.109v.6H33.914a3,3,0,0,0,.73,2.02,2.3,2.3,0,0,0,1.777.77,2.517,2.517,0,0,0,1.3-.312,3.259,3.259,0,0,0,.93-.828l.883.688A3.55,3.55,0,0,1,36.344,114.156Zm-.18-7.578a1.928,1.928,0,0,0-1.469.637A3.1,3.1,0,0,0,33.961,109H38.2v-.109a2.753,2.753,0,0,0-.594-1.707A1.815,1.815,0,0,0,36.164,106.578Zm6.516-1.031.047,1.063a3.08,3.08,0,0,1,2.531-1.219q2.68,0,2.7,3.023V114H46.516v-5.594a1.946,1.946,0,0,0-.418-1.352,1.675,1.675,0,0,0-1.277-.437,2.086,2.086,0,0,0-1.234.375,2.546,2.546,0,0,0-.828.984V114H41.313v-8.453Zm7.109,4.156a4.952,4.952,0,0,1,.922-3.129,3.137,3.137,0,0,1,4.766-.168V102h1.445v12H55.594l-.07-.906a2.943,2.943,0,0,1-2.414,1.063,2.887,2.887,0,0,1-2.395-1.2,5.008,5.008,0,0,1-.926-3.141Zm1.445.164a3.749,3.749,0,0,0,.594,2.25,1.92,1.92,0,0,0,1.641.813,2.109,2.109,0,0,0,2.008-1.234v-3.883a2.125,2.125,0,0,0-1.992-1.2,1.929,1.929,0,0,0-1.656.82A4.128,4.128,0,0,0,51.234,109.867ZM64.383,114a3.036,3.036,0,0,1-.2-.891,3.225,3.225,0,0,1-2.406,1.047,2.984,2.984,0,0,1-2.051-.707,2.287,2.287,0,0,1-.8-1.793,2.39,2.39,0,0,1,1-2.051,4.733,4.733,0,0,1,2.824-.73h1.406v-.664A1.623,1.623,0,0,0,63.7,107a1.821,1.821,0,0,0-1.336-.449,2.108,2.108,0,0,0-1.3.391,1.151,1.151,0,0,0-.523.945H59.094a2,2,0,0,1,.449-1.223,3.066,3.066,0,0,1,1.219-.934,4.1,4.1,0,0,1,1.691-.344,3.342,3.342,0,0,1,2.289.73,2.635,2.635,0,0,1,.859,2.012v3.891a4.757,4.757,0,0,0,.3,1.852V114Zm-2.4-1.1a2.54,2.54,0,0,0,1.289-.352,2.127,2.127,0,0,0,.883-.914V109.9H63.023q-2.656,0-2.656,1.555a1.316,1.316,0,0,0,.453,1.063A1.742,1.742,0,0,0,61.984,112.9Zm-52.3,30.492a4.185,4.185,0,0,1-1.332,2.785,4.365,4.365,0,0,1-2.98.98,4.008,4.008,0,0,1-3.23-1.445A5.815,5.815,0,0,1,.93,141.844V140.75a6.481,6.481,0,0,1,.566-2.789A4.231,4.231,0,0,1,3.1,136.113a4.47,4.47,0,0,1,2.406-.645,4.11,4.11,0,0,1,2.906,1.012,4.235,4.235,0,0,1,1.273,2.8H8.18a3.268,3.268,0,0,0-.848-1.975,2.565,2.565,0,0,0-1.824-.611,2.684,2.684,0,0,0-2.254,1.063,4.882,4.882,0,0,0-.816,3.026v1.1a5.018,5.018,0,0,0,.773,2.948,2.5,2.5,0,0,0,2.164,1.095,2.886,2.886,0,0,0,1.918-.566,3.143,3.143,0,0,0,.887-1.973Zm1.438-.7a4.993,4.993,0,0,1,.488-2.234,3.643,3.643,0,0,1,1.359-1.531,3.7,3.7,0,0,1,1.988-.539,3.565,3.565,0,0,1,2.793,1.2,4.6,4.6,0,0,1,1.066,3.18v.1a5.036,5.036,0,0,1-.473,2.215A3.589,3.589,0,0,1,17,146.609a3.743,3.743,0,0,1-2.02.547,3.556,3.556,0,0,1-2.785-1.2,4.575,4.575,0,0,1-1.066-3.164Zm1.453.172a3.616,3.616,0,0,0,.652,2.258,2.211,2.211,0,0,0,3.5-.012,3.955,3.955,0,0,0,.648-2.418,3.61,3.61,0,0,0-.66-2.254,2.1,2.1,0,0,0-1.754-.863,2.075,2.075,0,0,0-1.727.852A3.925,3.925,0,0,0,12.578,142.867Zm9.414-4.32.039.938a3.122,3.122,0,0,1,2.508-1.094,2.417,2.417,0,0,1,2.414,1.359,3.2,3.2,0,0,1,1.1-.984,3.242,3.242,0,0,1,1.6-.375q2.781,0,2.828,2.945V147H31.031v-5.578a1.941,1.941,0,0,0-.414-1.355,1.823,1.823,0,0,0-1.391-.449,1.916,1.916,0,0,0-1.336.48,1.949,1.949,0,0,0-.617,1.293V147H25.82v-5.539a1.613,1.613,0,0,0-1.8-1.844,1.934,1.934,0,0,0-1.945,1.211V147H20.625v-8.453ZM36.227,147H34.781v-8.453h1.445Zm-1.562-10.7a.863.863,0,0,1,.215-.594.807.807,0,0,1,.637-.242.819.819,0,0,1,.641.242.854.854,0,0,1,.219.594.826.826,0,0,1-.219.586.834.834,0,0,1-.641.234.821.821,0,0,1-.637-.234A.834.834,0,0,1,34.664,136.3Zm3.523,6.4a4.952,4.952,0,0,1,.922-3.129,3.137,3.137,0,0,1,4.766-.168V135H45.32v12H43.992l-.07-.906a2.943,2.943,0,0,1-2.414,1.063,2.887,2.887,0,0,1-2.395-1.2,5.008,5.008,0,0,1-.926-3.141Zm1.445.164a3.749,3.749,0,0,0,.594,2.25,1.919,1.919,0,0,0,1.641.813,2.108,2.108,0,0,0,2.008-1.234v-3.883a2.125,2.125,0,0,0-1.992-1.2,1.929,1.929,0,0,0-1.656.82A4.128,4.128,0,0,0,39.633,142.867ZM52.781,147a3.036,3.036,0,0,1-.2-.891,3.225,3.225,0,0,1-2.406,1.047,2.984,2.984,0,0,1-2.051-.707,2.288,2.288,0,0,1-.8-1.793,2.39,2.39,0,0,1,1-2.051,4.733,4.733,0,0,1,2.824-.73h1.406v-.664A1.623,1.623,0,0,0,52.1,140a1.821,1.821,0,0,0-1.336-.449,2.107,2.107,0,0,0-1.3.391,1.151,1.151,0,0,0-.523.945H47.492a2,2,0,0,1,.449-1.223,3.066,3.066,0,0,1,1.219-.934,4.1,4.1,0,0,1,1.691-.344,3.342,3.342,0,0,1,2.289.73A2.635,2.635,0,0,1,54,141.133v3.891a4.757,4.757,0,0,0,.3,1.852V147Zm-2.4-1.1a2.54,2.54,0,0,0,1.289-.352,2.127,2.127,0,0,0,.883-.914V142.9H51.422q-2.656,0-2.656,1.555a1.316,1.316,0,0,0,.453,1.063A1.742,1.742,0,0,0,50.383,145.9Z" transform="translate(945.195 1260)" fill="#fff"/>
    </g>
  </g>
</svg>
