<svg xmlns="http://www.w3.org/2000/svg" width="170" height="84" viewBox="0 0 170 84">
  <g id="Grupo_1099177" data-name="Grupo 1099177" transform="translate(-200 -566)">
    <rect id="Rectángulo_400989" data-name="Rectángulo 400989" width="170" height="84" rx="10" transform="translate(200 566)" fill="#f1ebe0"/>
    <circle id="Elipse_11491" data-name="Elipse 11491" cx="27.5" cy="27.5" r="27.5" transform="translate(238 577)" fill="#d3d3d3" opacity="0.5"/>
    <g id="Grupo_1099176" data-name="Grupo 1099176" transform="translate(251.757 572.328)">
      <path id="Trazado_873329" data-name="Trazado 873329" d="M13.122,68.365A1.122,1.122,0,0,1,12,67.242V11.122A1.122,1.122,0,0,1,13.122,10H25.469a1.122,1.122,0,1,1,0,2.245H14.245v55A1.122,1.122,0,0,1,13.122,68.365Z" transform="translate(0.979 0.979)" fill="#77af8f"/>
      <path id="Trazado_873330" data-name="Trazado 873330" d="M52.469,68.365a1.122,1.122,0,0,1-1.122-1.122v-55H40.122a1.122,1.122,0,1,1,0-2.245H52.469a1.122,1.122,0,0,1,1.122,1.122v56.12A1.122,1.122,0,0,1,52.469,68.365Z" transform="translate(4.284 0.979)" fill="#77af8f"/>
      <path id="Trazado_873331" data-name="Trazado 873331" d="M62.365,62.245H5.122a1.122,1.122,0,0,1,0-2.245H62.365a1.122,1.122,0,0,1,0,2.245Z" transform="translate(0 7.099)" fill="#77af8f"/>
      <path id="Trazado_873332" data-name="Trazado 873332" d="M49.549,64.57a1.122,1.122,0,0,1-1.122-1.122v-20.2H19.245v20.2a1.122,1.122,0,1,1-2.245,0V42.122A1.122,1.122,0,0,1,18.122,41H49.549a1.122,1.122,0,0,1,1.122,1.122V63.448A1.122,1.122,0,0,1,49.549,64.57Z" transform="translate(1.591 4.773)" fill="#77af8f"/>
      <path id="Trazado_873333" data-name="Trazado 873333" d="M49.549,46.245H18.122a1.122,1.122,0,0,1,0-2.245H49.549a1.122,1.122,0,0,1,0,2.245Z" transform="translate(1.591 5.141)" fill="#77af8f"/>
      <path id="Trazado_873334" data-name="Trazado 873334" d="M21.122,64.2A1.122,1.122,0,0,1,20,63.081V45.122a1.122,1.122,0,0,1,2.245,0V63.081A1.122,1.122,0,0,1,21.122,64.2Z" transform="translate(1.958 5.141)" fill="#77af8f"/>
      <path id="Trazado_873335" data-name="Trazado 873335" d="M43.122,64.2A1.122,1.122,0,0,1,42,63.081V45.122a1.122,1.122,0,0,1,2.245,0V63.081A1.122,1.122,0,0,1,43.122,64.2Z" transform="translate(4.651 5.141)" fill="#77af8f"/>
      <path id="Trazado_873336" data-name="Trazado 873336" d="M32.122,64.2A1.122,1.122,0,0,1,31,63.081V45.122a1.122,1.122,0,0,1,2.245,0V63.081A1.122,1.122,0,0,1,32.122,64.2Z" transform="translate(3.305 5.141)" fill="#77af8f"/>
      <path id="Trazado_873337" data-name="Trazado 873337" d="M35.122,55.49A1.122,1.122,0,0,1,34,54.367V52.122a1.122,1.122,0,0,1,2.245,0v2.245A1.122,1.122,0,0,1,35.122,55.49Z" transform="translate(3.672 5.997)" fill="#77af8f"/>
      <path id="Trazado_873338" data-name="Trazado 873338" d="M29.122,55.49A1.122,1.122,0,0,1,28,54.367V52.122a1.122,1.122,0,0,1,2.245,0v2.245A1.122,1.122,0,0,1,29.122,55.49Z" transform="translate(2.938 5.997)" fill="#77af8f"/>
      <path id="Trazado_873339" data-name="Trazado 873339" d="M48.3,39.836H19.122A1.122,1.122,0,0,1,18,38.714V24.122A1.122,1.122,0,0,1,19.122,23H48.3a1.122,1.122,0,0,1,1.122,1.122V38.714A1.122,1.122,0,0,1,48.3,39.836Zm-28.06-2.245H47.182V25.245H20.245Z" transform="translate(1.714 2.57)" fill="#77af8f"/>
      <path id="Trazado_873340" data-name="Trazado 873340" d="M36.469,22.2H29.734a1.122,1.122,0,0,1-1.122-1.122v-4.49h-4.49A1.122,1.122,0,0,1,23,15.469V8.734a1.122,1.122,0,0,1,1.122-1.122h4.49V3.122A1.122,1.122,0,0,1,29.734,2h6.734a1.122,1.122,0,0,1,1.122,1.122v4.49h4.49A1.122,1.122,0,0,1,43.2,8.734v6.734a1.122,1.122,0,0,1-1.122,1.122h-4.49v4.49A1.122,1.122,0,0,1,36.469,22.2Zm-5.612-2.245h4.49v-4.49a1.122,1.122,0,0,1,1.122-1.122h4.49V9.857h-4.49a1.122,1.122,0,0,1-1.122-1.122V4.245h-4.49v4.49a1.122,1.122,0,0,1-1.122,1.122h-4.49v4.49h4.49a1.122,1.122,0,0,1,1.122,1.122Z" transform="translate(2.326)" fill="#77af8f"/>
    </g>
  </g>
</svg>
