<svg xmlns="http://www.w3.org/2000/svg" width="295.333" height="91" viewBox="0 0 295.333 91">
  <g id="Grupo_1099183" data-name="Grupo 1099183" transform="translate(-1124.667 -391)">
    <rect id="Rectángulo_400990" data-name="Rectángulo 400990" width="295" height="91" rx="10" transform="translate(1124.667 391)" fill="#f1ebe0"/>
    <path id="Rectángulo_401147" data-name="Rectángulo 401147" d="M0,0H295a0,0,0,0,1,0,0V18a10,10,0,0,1-10,10H10A10,10,0,0,1,0,18V0A0,0,0,0,1,0,0Z" transform="translate(1125 454)" fill="#e5e4da"/>
    <path id="Rectángulo_401148" data-name="Rectángulo 401148" d="M10,0h4a91,91,0,0,1,91,91v0a0,0,0,0,1,0,0H10A10,10,0,0,1,0,81V10A10,10,0,0,1,10,0Z" transform="translate(1125 391)" fill="#daf2e4" opacity="0.4"/>
    <g id="Grupo_1099182" data-name="Grupo 1099182" transform="translate(-63.247)">
      <g id="Grupo_1099180" data-name="Grupo 1099180" transform="translate(1199.595 399)">
        <path id="Trazado_873353" data-name="Trazado 873353" d="M95.629,8.483V4.241H91.387V0H38.319V6.362H40.44V2.121H89.267V53.3H80.784v8.483H40.44V8.483H38.319V63.9H42.56v4.241H46.8v4.241H87.146V70.265H48.922V68.145H95.629V10.6h2.121V70.265H93.508v2.121H99.87V8.483ZM87.767,55.421,82.9,60.283V55.421Zm5.741,10.6H44.681V63.9h37.6l9.1-9.1V6.362h2.121Z" fill="#77af8f"/>
        <path id="Trazado_873354" data-name="Trazado 873354" d="M398.681,497H400.8v2.121h-2.121Z" transform="translate(-309.415 -426.735)" fill="#77af8f"/>
        <path id="Trazado_873355" data-name="Trazado 873355" d="M184.181,45v3.181H181v6.362h3.181v3.181h6.362V54.543h3.181V48.181h-3.181V45Zm7.423,5.3v2.121h-3.181V55.6H186.3V52.422h-3.181V50.3H186.3V47.121h2.121V50.3Z" transform="translate(-122.509 -38.638)" fill="#77af8f"/>
        <path id="Trazado_873356" data-name="Trazado 873356" d="M166,167h24.388v2.121H166Z" transform="translate(-109.63 -143.392)" fill="#77af8f"/>
        <path id="Trazado_873357" data-name="Trazado 873357" d="M106,278.364h6.362V272H106Zm2.121-4.241h2.121v2.121h-2.121Z" transform="translate(-58.112 -233.547)" fill="#77af8f"/>
        <path id="Trazado_873358" data-name="Trazado 873358" d="M106,218.365h6.362V212H106Zm2.121-4.241h2.121v2.121h-2.121Z" transform="translate(-58.112 -182.03)" fill="#77af8f"/>
        <path id="Trazado_873359" data-name="Trazado 873359" d="M106,338.363h6.362V332H106Zm2.121-4.241h2.121v2.121h-2.121Z" transform="translate(-58.112 -285.063)" fill="#77af8f"/>
        <path id="Trazado_873360" data-name="Trazado 873360" d="M166,227h24.388v2.121H166Z" transform="translate(-109.63 -194.91)" fill="#77af8f"/>
        <path id="Trazado_873361" data-name="Trazado 873361" d="M112.362,152H106v6.362h6.362Zm-2.121,4.242h-2.121v-2.121h2.121Z" transform="translate(-58.112 -130.513)" fill="#77af8f"/>
        <path id="Trazado_873362" data-name="Trazado 873362" d="M166,287h24.388v2.121H166Z" transform="translate(-109.63 -246.426)" fill="#77af8f"/>
        <path id="Trazado_873363" data-name="Trazado 873363" d="M166,347h24.388v2.121H166Z" transform="translate(-109.63 -297.942)" fill="#77af8f"/>
        <path id="Trazado_873364" data-name="Trazado 873364" d="M368.682,30H370.8v2.121h-2.121Z" transform="translate(-283.657 -25.759)" fill="#77af8f"/>
        <path id="Trazado_873365" data-name="Trazado 873365" d="M368.682,60H370.8v2.121h-2.121Z" transform="translate(-283.657 -51.517)" fill="#77af8f"/>
      </g>
      <g id="Grupo_1099181" data-name="Grupo 1099181" transform="translate(1300.834 399)">
        <path id="Trazado_873366" data-name="Trazado 873366" d="M200.241,116.741H196v8.483h4.241v4.241h8.483v-4.241h4.241v-8.483h-4.241V112.5h-8.483Zm2.121-2.121H206.6v4.241h4.241V123.1H206.6v4.241h-4.241V123.1h-4.241v-4.241h4.241Z" transform="translate(-96.595 -96.595)" fill="#77af8f"/>
        <path id="Trazado_873367" data-name="Trazado 873367" d="M126.393,43.291a19.074,19.074,0,1,0,1.655-1.516l1.339,1.645a16.982,16.982,0,1,1-1.472,1.348Z" transform="translate(-32.198 -32.198)" fill="#77af8f"/>
        <path id="Trazado_873368" data-name="Trazado 873368" d="M342.342,309.336l1.679,1.295q.62-.8,1.294-1.684l-1.684-1.29Q342.959,308.536,342.342,309.336Z" transform="translate(-222.247 -264.161)" fill="#77af8f"/>
        <path id="Trazado_873369" data-name="Trazado 873369" d="M107.888,0A24.389,24.389,0,0,0,88.22,38.81c2.545,3.464,4.558,6.074,6.334,8.376a98,98,0,0,1,6.638,9.283C96.842,57.937,94.1,60.763,94.1,63.9c0,4.757,6.055,8.483,13.784,8.483s13.784-3.726,13.784-8.483c0-3.139-2.739-5.966-7.088-7.434a87.749,87.749,0,0,1,5.9-8.32l-1.68-1.294a72,72,0,0,0-9.75,15.536l-.055.117c-.492,1.047-.721,1.4-1.106,1.4s-.614-.348-1.106-1.4l-.055-.117c-3.52-7.46-6-10.671-10.493-16.5-1.769-2.293-3.774-4.892-6.3-8.336a22.267,22.267,0,1,1,35.918,0c-1.047,1.426-2.087,2.819-3.179,4.259l1.69,1.281c1.1-1.449,2.145-2.851,3.2-4.285A24.389,24.389,0,0,0,107.888,0Zm-3.025,63.41c.519,1.1,1.229,2.614,3.025,2.614s2.507-1.511,3.026-2.614l.054-.115c.892-1.89,1.717-3.5,2.525-4.95,3.656,1.125,6.059,3.3,6.059,5.558,0,3.449-5.341,6.362-11.664,6.362S96.224,67.352,96.224,63.9c0-2.257,2.4-4.433,6.059-5.558.809,1.45,1.633,3.06,2.525,4.95Z" fill="#77af8f"/>
        <path id="Trazado_873370" data-name="Trazado 873370" d="M301,90h2.121V92.12H301Z" transform="translate(-186.75 -77.275)" fill="#77af8f"/>
        <path id="Trazado_873371" data-name="Trazado 873371" d="M271,75h2.121v2.121H271Z" transform="translate(-160.992 -64.397)" fill="#77af8f"/>
      </g>
      <path id="Trazado_873372" data-name="Trazado 873372" d="M1314.761,435.193h63.486" fill="none" stroke="#59836b" stroke-linecap="round" stroke-width="2" stroke-dasharray="5"/>
    </g>
  </g>
</svg>
