<svg xmlns="http://www.w3.org/2000/svg" width="63" height="63" viewBox="0 0 63 63">
  <g id="Grupo_1098955" data-name="Grupo 1098955" transform="translate(-1019 -6769)">
    <g id="Grupo_1098797" data-name="Grupo 1098797" transform="translate(0 5)">
      <g id="Grupo_1098742" data-name="Grupo 1098742" transform="translate(1019.445 6764.445)">
        <rect id="Rect치ngulo_400898" data-name="Rect치ngulo 400898" width="63" height="63" rx="31.5" transform="translate(-0.445 -0.445)" fill="#fff" opacity="0.859"/>
        <rect id="Rect치ngulo_400907" data-name="Rect치ngulo 400907" width="63" height="63" rx="31.5" transform="translate(-0.446 -0.445)" fill="none"/>
      </g>
    </g>
    <g id="seguro-de-salud" transform="translate(1024.249 6779)">
      <g id="Grupo_1098905" data-name="Grupo 1098905" transform="translate(5.386 0.635)">
        <g id="Grupo_1098903" data-name="Grupo 1098903" transform="translate(0)">
          <g id="Grupo_1098902" data-name="Grupo 1098902">
            <path id="Trazado_873045" data-name="Trazado 873045" d="M32.873,49.535c21.22-8.69,20.613-33.143,20.613-33.143C46.817,9.723,32.873,7.5,32.873,7.5S18.929,9.723,12.26,16.392c0,0-.606,24.453,20.613,33.143Z" transform="translate(-12.258 -7.5)" fill="#a2c6fe"/>
            <path id="Trazado_873046" data-name="Trazado 873046" d="M32.873,49.577C11.653,40.886,12.26,16.433,12.26,16.433,18.784,9.909,32.272,7.64,32.854,7.545c-.452.088-8.788,1.749-14.662,6.262a6.854,6.854,0,0,0-2.643,6.015C16.14,26.843,19.02,42.884,32.873,49.577Z" transform="translate(-12.258 -7.541)" fill="#7898d5"/>
            <path id="Trazado_873047" data-name="Trazado 873047" d="M82.529,94.167c-6.562-3.194-11.236-8.6-13.907-16.1A39.38,39.38,0,0,1,66.5,67.941c4.668-3.58,12.433-5.62,16.023-6.288,3.591.674,11.374,2.726,16.031,6.29a39.384,39.384,0,0,1-2.12,10.122C93.765,85.564,89.091,90.973,82.529,94.167Z" transform="translate(-61.914 -57.073)" fill="#f5f0f0"/>
            <path id="Trazado_873048" data-name="Trazado 873048" d="M82.529,94.167c-6.561-3.195-11.235-8.6-13.907-16.1A39.366,39.366,0,0,1,66.5,67.94c4.669-3.579,12.434-5.62,16.023-6.288a42.144,42.144,0,0,0-7.9,2.606A9,9,0,0,0,69.5,74.321c.25,1.188.566,2.449.966,3.743C72.78,85.564,76.836,90.972,82.529,94.167Z" transform="translate(-61.914 -57.072)" fill="#e8ded8"/>
          </g>
        </g>
        <g id="Grupo_1098904" data-name="Grupo 1098904" transform="translate(12.627 11.64)">
          <path id="Trazado_873049" data-name="Trazado 873049" d="M176.391,149.776q-1.252-.054-2.5-.087a.948.948,0,0,1-.923-.923q-.034-1.252-.087-2.5a.941.941,0,0,0-.752-.885,13.217,13.217,0,0,0-5.166,0,.941.941,0,0,0-.752.885q-.054,1.252-.087,2.5a.948.948,0,0,1-.923.923q-1.252.034-2.5.087a.941.941,0,0,0-.885.752,13.217,13.217,0,0,0,0,5.166.941.941,0,0,0,.885.752q1.252.054,2.5.087a.948.948,0,0,1,.923.923q.034,1.252.087,2.5a.941.941,0,0,0,.752.885,13.217,13.217,0,0,0,5.166,0,.941.941,0,0,0,.752-.885q.054-1.252.087-2.5a.948.948,0,0,1,.923-.923q1.252-.034,2.5-.087a.941.941,0,0,0,.885-.752,13.217,13.217,0,0,0,0-5.166A.941.941,0,0,0,176.391,149.776Z" transform="translate(-161.555 -145.123)" fill="#dd636e"/>
        </g>
      </g>
      <g id="Grupo_1098906" data-name="Grupo 1098906" transform="translate(4.751 0)">
        <path id="Trazado_873050" data-name="Trazado 873050" d="M47.248,9.511a.635.635,0,0,0-.186-.433C44.225,6.24,39.83,3.851,34,1.976A58.531,58.531,0,0,0,26.1.008a.633.633,0,0,0-.2,0A58.531,58.531,0,0,0,18,1.976C12.171,3.851,7.777,6.24,4.939,9.078a.635.635,0,0,0-.186.433A42.086,42.086,0,0,0,7.138,23.047a35.63,35.63,0,0,0,6.2,11.183,31.484,31.484,0,0,0,12.42,9.026.634.634,0,0,0,.481,0,31.486,31.486,0,0,0,12.42-9.026,35.631,35.631,0,0,0,6.2-11.183A42.081,42.081,0,0,0,47.248,9.511Zm-3.6,13.161A34.341,34.341,0,0,1,37.67,33.439,30.194,30.194,0,0,1,26,41.983a30.2,30.2,0,0,1-11.669-8.544A34.344,34.344,0,0,1,8.35,22.672,42.294,42.294,0,0,1,6.021,9.793C12.24,3.777,24.753,1.493,26,1.278c1.248.215,13.761,2.5,19.98,8.516A42.3,42.3,0,0,1,43.652,22.672Z" transform="translate(-4.751 0)"/>
        <path id="Trazado_873051" data-name="Trazado 873051" d="M75.539,54.161c-1.073.2-10.643,2.076-16.293,6.409a.634.634,0,0,0-.247.55,39.762,39.762,0,0,0,2.156,10.291c2.727,7.653,7.513,13.191,14.227,16.459a.634.634,0,0,0,.555,0c6.713-3.269,11.5-8.806,14.227-16.459A39.763,39.763,0,0,0,92.319,61.12a.634.634,0,0,0-.247-.55,23.857,23.857,0,0,0-3.791-2.319.634.634,0,1,0-.568,1.134,23.28,23.28,0,0,1,3.315,1.987,38.471,38.471,0,0,1-2.058,9.611c-2.574,7.223-7.051,12.472-13.31,15.607-6.259-3.135-10.736-8.385-13.31-15.607a39.093,39.093,0,0,1-2.058-9.613,30.7,30.7,0,0,1,7.966-3.936,53.4,53.4,0,0,1,7.4-2.005,53.232,53.232,0,0,1,9.793,2.924.634.634,0,1,0,.486-1.172,54.519,54.519,0,0,0-10.162-3.022A.637.637,0,0,0,75.539,54.161Z" transform="translate(-54.409 -49.57)"/>
        <path id="Trazado_873052" data-name="Trazado 873052" d="M169.5,148.961c-.794.035-1.633.064-2.493.088a1.582,1.582,0,0,0-1.54,1.539c-.023.843-.052,1.682-.087,2.494a.308.308,0,0,1-.241.29,12.64,12.64,0,0,1-4.92,0,.308.308,0,0,1-.241-.289c-.035-.812-.064-1.651-.087-2.494a1.583,1.583,0,0,0-1.54-1.539q-.615-.017-1.231-.038a.634.634,0,0,0-.044,1.268q.62.022,1.242.038a.314.314,0,0,1,.306.305c.023.849.053,1.695.087,2.514a1.569,1.569,0,0,0,1.263,1.48,13.9,13.9,0,0,0,5.412,0,1.569,1.569,0,0,0,1.263-1.48c.035-.818.064-1.664.087-2.513a.314.314,0,0,1,.306-.3c.867-.024,1.713-.053,2.513-.088a1.569,1.569,0,0,0,1.48-1.263,13.9,13.9,0,0,0,0-5.411,1.569,1.569,0,0,0-1.479-1.263c-.819-.036-1.665-.065-2.513-.087a.315.315,0,0,1-.307-.306c-.023-.849-.053-1.695-.087-2.513a1.57,1.57,0,0,0-1.263-1.48,13.9,13.9,0,0,0-5.412,0,1.569,1.569,0,0,0-1.263,1.48c-.035.818-.064,1.664-.087,2.514a.315.315,0,0,1-.305.306c-.85.022-1.7.052-2.514.087a1.569,1.569,0,0,0-1.48,1.263,13.884,13.884,0,0,0-.027,5.273.634.634,0,1,0,1.247-.234,12.623,12.623,0,0,1,.024-4.793.308.308,0,0,1,.29-.241c.812-.035,1.65-.065,2.494-.087a1.584,1.584,0,0,0,1.539-1.54c.023-.843.052-1.682.087-2.494a.308.308,0,0,1,.241-.29,12.64,12.64,0,0,1,4.92,0,.308.308,0,0,1,.241.289c.035.812.064,1.651.087,2.494a1.585,1.585,0,0,0,1.54,1.54c.842.022,1.681.051,2.493.087a.308.308,0,0,1,.29.241,12.632,12.632,0,0,1,0,4.919.308.308,0,0,1-.29.241Z" transform="translate(-141.434 -125.998)"/>
      </g>
    </g>
  </g>
</svg>
