<svg xmlns="http://www.w3.org/2000/svg" xmlns:xlink="http://www.w3.org/1999/xlink" width="210" height="130" viewBox="0 0 210 130">
  <defs>
    <clipPath id="clip-path">
      <rect id="Rect치ngulo_401017" data-name="Rect치ngulo 401017" width="210" height="130" transform="translate(1105 1912)" fill="#f1ebe0"/>
    </clipPath>
    <clipPath id="clip-path-2">
      <rect id="Rect치ngulo_401016" data-name="Rect치ngulo 401016" width="210" height="170.159" fill="none"/>
    </clipPath>
  </defs>
  <g id="Enmascarar_grupo_1098671" data-name="Enmascarar grupo 1098671" transform="translate(-1105 -1912)" opacity="0.5" clip-path="url(#clip-path)">
    <g id="Grupo_1098989" data-name="Grupo 1098989" transform="translate(1115 1912.05)">
      <g id="Grupo_1098988" data-name="Grupo 1098988" clip-path="url(#clip-path-2)">
        <path id="Trazado_873105" data-name="Trazado 873105" d="M222.783,84.289a84.289,84.289,0,1,0-84.289,84.289,84.289,84.289,0,0,0,84.289-84.289m-130.972,0a46.683,46.683,0,1,1,46.683,46.683A46.682,46.682,0,0,1,91.811,84.289" transform="translate(-12.783)" fill="#b9e4d7"/>
        <path id="Trazado_873106" data-name="Trazado 873106" d="M77.95,174.533h-.006a.326.326,0,0,1-.326-.326.436.436,0,0,1,.836,0,.322.322,0,0,1-.322.326h-.006a.322.322,0,0,1-.086-.011.346.346,0,0,1-.089.012m-5.185-.17a.4.4,0,0,1-.086-.01.331.331,0,1,1,.086.01m10.547-.011a.325.325,0,0,1-.079-.641.336.336,0,0,1,.41.315.327.327,0,0,1-.294.325l-.037,0m-15.711-.5a.36.36,0,0,1-.086-.011.328.328,0,1,1,.086.011m20.873-.024a.326.326,0,0,1-.079-.642.338.338,0,0,1,.41.316.325.325,0,0,1-.294.324l-.037,0m-25.99-.833a.305.305,0,0,1-.064-.006.327.327,0,0,1-.267-.32.339.339,0,0,1,.435-.308.325.325,0,0,1-.1.634m31.106-.035a.33.33,0,1,1,.109-.018.385.385,0,0,1-.109.018m-36.239-1.175a.326.326,0,0,1,.158-.632Zm41.285-.035a.325.325,0,0,1-.079-.641.329.329,0,0,1,.4.224.323.323,0,0,1-.207.4l-.031.009a.346.346,0,0,1-.079.009m-46.241-1.5a.326.326,0,0,1,.158-.632Zm51.194-.047a.326.326,0,1,1,.316-.418.323.323,0,0,1-.206.4l-.031.009a.347.347,0,0,1-.079.01m-55.958-1.81a.322.322,0,0,1-.1-.016.4.4,0,0,1-.083-.041.327.327,0,1,1,.186.057m60.789-.063a.325.325,0,0,1-.18-.6.4.4,0,0,1,.083-.041.326.326,0,1,1,.1.637m-65.5-2.126a.318.318,0,0,1-.158-.041.325.325,0,0,1,.256-.6.385.385,0,0,1,.083.041.325.325,0,0,1-.181.6m70.2-.068a.33.33,0,1,1,.186-.058.426.426,0,0,1-.083.042.345.345,0,0,1-.1.016M38.366,163.7a.323.323,0,0,1-.157-.041.326.326,0,0,1,.255-.6.468.468,0,0,1,.083.041.326.326,0,0,1-.181.6m79.288-.071a.33.33,0,1,1,.186-.058.422.422,0,0,1-.083.041.324.324,0,0,1-.1.017m-83.637-2.72a.37.37,0,0,1-.2-.061.39.39,0,0,1-.055-.044.325.325,0,0,1,.46-.46.3.3,0,0,1,.068.433.315.315,0,0,1-.268.133m88-.082a.326.326,0,0,1-.23-.556.438.438,0,0,1,.054-.045.326.326,0,1,1,.176.6m-92.18-3a.37.37,0,0,1-.2-.061.392.392,0,0,1-.055-.045.325.325,0,0,1,.46-.46.3.3,0,0,1,.068.433.317.317,0,0,1-.268.133m96.348-.087a.326.326,0,0,1-.23-.556.4.4,0,0,1,.055-.045.325.325,0,0,1,.374.532.321.321,0,0,1-.2.069M25.853,154.469a.318.318,0,0,1-.18-.055.349.349,0,0,1-.1-.094.327.327,0,1,1,.275.149m104.29-.086a.326.326,0,0,1-.271-.506.339.339,0,0,1,.095-.095.325.325,0,0,1,.4.515.321.321,0,0,1-.219.086M22.119,150.859a.322.322,0,0,1-.227-.094l0,0a.325.325,0,1,1,.46-.46.326.326,0,0,1-.229.559m111.748-.089a.326.326,0,0,1-.23-.556.328.328,0,0,1,.462,0,.324.324,0,0,1,0,.459l0,0a.325.325,0,0,1-.23.1M18.641,147.012a.328.328,0,1,1,.176-.6.375.375,0,0,1,.095.1.325.325,0,0,1-.271.506m118.7-.1a.328.328,0,1,1,.186-.6.327.327,0,0,1,.09.452.375.375,0,0,1-.095.1.328.328,0,0,1-.181.054m-121.92-3.971a.328.328,0,1,1,.226-.561.387.387,0,0,1,.044.055.326.326,0,0,1-.271.506m125.134-.106a.326.326,0,0,1-.23-.556.3.3,0,0,1,.433-.068.349.349,0,0,1,.072.473.394.394,0,0,1-.045.055.325.325,0,0,1-.23.1M12.483,138.671a.325.325,0,0,1-.271-.145.368.368,0,0,1-.041-.083.327.327,0,1,1,.312.229m131.009-.115a.323.323,0,0,1-.1-.016.326.326,0,0,1-.206-.412.369.369,0,0,1,.041-.083.326.326,0,1,1,.267.511M9.836,134.212a.326.326,0,0,1-.271-.144.5.5,0,0,1-.041-.083.328.328,0,1,1,.313.228m136.3-.127a.326.326,0,0,1-.309-.429.4.4,0,0,1,.041-.083.326.326,0,1,1,.267.512m-138.643-4.5a.328.328,0,1,1,.269-.511.442.442,0,0,1,.041.083.326.326,0,0,1-.206.412.345.345,0,0,1-.1.016m140.982-.141a.329.329,0,1,1,.312-.228.467.467,0,0,1-.04.083.326.326,0,0,1-.271.145M5.466,124.818a.328.328,0,1,1,.268-.512.493.493,0,0,1,.041.083.326.326,0,0,1-.309.429m145.03-.157a.326.326,0,0,1-.291-.471.309.309,0,0,1,.4-.187.342.342,0,0,1,.2.429.391.391,0,0,1-.021.049.326.326,0,0,1-.291.18M3.761,119.915a.322.322,0,0,1-.306-.22c0-.008-.007-.022-.009-.031a.326.326,0,0,1,.632-.157.329.329,0,0,1-.224.4.355.355,0,0,1-.092.013m148.431-.166a.314.314,0,0,1-.079-.01.326.326,0,0,1-.238-.394l.632.157a.325.325,0,0,1-.316.247m.311-.229h0ZM2.392,114.912a.327.327,0,0,1-.309-.222.376.376,0,0,1-.018-.109.326.326,0,1,1,.429.316.322.322,0,0,1-.1.016m151.158-.172a.326.326,0,0,1-.326-.326.377.377,0,0,1,.018-.109.326.326,0,1,1,.307.435M1.361,109.828a.326.326,0,0,1-.309-.222.376.376,0,0,1-.018-.109.328.328,0,1,1,.326.332m153.209-.175a.325.325,0,0,1-.326-.326.375.375,0,0,1,.018-.109.326.326,0,1,1,.308.435M.673,104.685a.328.328,0,1,1,.316-.41.4.4,0,0,1,.01.086.325.325,0,0,1-.326.325m154.573-.177a.351.351,0,0,1-.079-.009.329.329,0,1,1,.4-.322.348.348,0,0,1-.011.085.325.325,0,0,1-.316.247m-154.918-5A.323.323,0,0,1,0,99.183v-.006a.325.325,0,1,1,.65,0,.328.328,0,0,1-.326.329m155.251-.174A.327.327,0,1,1,155.9,99v.006a.326.326,0,0,1-.326.326M.326,94.315A.323.323,0,0,1,0,93.993v-.007a.326.326,0,1,1,.326.329m155.244-.174a.327.327,0,1,1,.326-.332v.007a.325.325,0,0,1-.326.325m-154.906-5h0a.325.325,0,0,1-.326-.326.4.4,0,0,1,.01-.086.326.326,0,1,1,.316.411m154.556-.177a.327.327,0,0,1-.316-.247.39.39,0,0,1-.01-.085.326.326,0,1,1,.4.322.309.309,0,0,1-.079.01M1.345,84a.319.319,0,0,1-.1-.017.328.328,0,1,1,.429-.316.376.376,0,0,1-.018.109A.327.327,0,0,1,1.345,84m153.181-.175a.329.329,0,1,1,.308-.435.375.375,0,0,1,.018.109.325.325,0,0,1-.326.326M2.37,78.911A.329.329,0,1,1,2.7,78.58a.356.356,0,0,1-.018.109.326.326,0,0,1-.309.222m151.119-.173a.328.328,0,1,1,.308-.435.386.386,0,0,1,.018.11.325.325,0,0,1-.326.325m-1.376-5a.327.327,0,0,1-.092-.641.321.321,0,0,1,.4.206l.009.031a.328.328,0,0,1-.238.4.346.346,0,0,1-.079.009M4.052,73.652l-.632-.157a.326.326,0,0,1,.632.157m1.386-4.637A.356.356,0,0,1,5.325,69a.342.342,0,0,1-.2-.429c.005-.015.014-.035.021-.05a.326.326,0,0,1,.582.291.3.3,0,0,1-.29.207M150.4,68.837a.327.327,0,0,1-.291-.18.348.348,0,0,1,.2-.436.3.3,0,0,1,.4.165.326.326,0,0,1-.3.451M7.463,64.21a.346.346,0,0,1-.1-.016.326.326,0,0,1-.206-.412.365.365,0,0,1,.041-.083.326.326,0,1,1,.268.511m140.91-.141a.325.325,0,0,1-.271-.145.423.423,0,0,1-.041-.083.326.326,0,1,1,.492.173.319.319,0,0,1-.18.055M9.807,59.575a.326.326,0,0,1-.284-.484.326.326,0,0,1,.6.255.469.469,0,0,1-.041.083.327.327,0,0,1-.271.145m136.219-.128a.328.328,0,1,1,.267-.511.367.367,0,0,1,.041.083.326.326,0,0,1-.206.412.323.323,0,0,1-.1.016M12.455,55.107a.329.329,0,1,1,.312-.228.4.4,0,0,1-.041.083.324.324,0,0,1-.271.144m130.918-.115a.328.328,0,1,1,.267-.512.422.422,0,0,1,.041.083.327.327,0,0,1-.206.412.323.323,0,0,1-.1.017M15.39,50.858a.335.335,0,0,1-.266-.536.372.372,0,0,1,.044-.054.325.325,0,0,1,.46.46.281.281,0,0,1-.238.131m125.037-.136a.325.325,0,0,1-.23-.1.436.436,0,0,1-.044-.055.326.326,0,1,1,.274.151M18.612,46.753a.325.325,0,0,1-.271-.506.342.342,0,0,1,.095-.1.326.326,0,1,1,.176.6m118.595-.1a.329.329,0,0,1-.181-.055.352.352,0,0,1-.095-.1.326.326,0,1,1,.276.151M22.095,42.9a.324.324,0,0,1-.232-.552l0,0a.325.325,0,1,1,.46.46.328.328,0,0,1-.233.1m111.625-.087a.325.325,0,0,1-.23-.1.329.329,0,0,1,0-.463.324.324,0,0,1,.459,0l0,0a.326.326,0,0,1-.23.556m-107.9-3.52a.329.329,0,1,1,.275-.149.349.349,0,0,1-.095.095.327.327,0,0,1-.18.054m104.165-.085a.327.327,0,1,1,.175-.6.363.363,0,0,1,.1.095.326.326,0,0,1-.27.506M29.781,35.94a.329.329,0,1,1,.235-.1.388.388,0,0,1-.055.044.324.324,0,0,1-.18.055m96.239-.08a.328.328,0,0,1-.231-.1.3.3,0,0,1-.068-.433.348.348,0,0,1,.474-.073.442.442,0,0,1,.055.045.326.326,0,0,1-.23.556m-92.068-3a.329.329,0,1,1,.235-.1.435.435,0,0,1-.054.045.327.327,0,0,1-.18.054m87.886-.075a.327.327,0,0,1-.23-.1.3.3,0,0,1-.068-.433.347.347,0,0,1,.474-.072.378.378,0,0,1,.055.044.326.326,0,0,1-.231.556M38.319,30.06a.325.325,0,0,1-.181-.6.448.448,0,0,1,.083-.042.326.326,0,1,1,.1.638m79.143-.072a.324.324,0,0,1-.1-.017.4.4,0,0,1-.083-.041.326.326,0,1,1,.186.058m-74.6-2.427a.326.326,0,0,1-.181-.6.445.445,0,0,1,.083-.041.325.325,0,0,1,.254.6.322.322,0,0,1-.157.041m70.045-.068a.324.324,0,0,1-.1-.017.4.4,0,0,1-.083-.041.326.326,0,1,1,.186.058M47.559,25.372a.329.329,0,1,1,.186-.057.381.381,0,0,1-.083.041.324.324,0,0,1-.1.017m60.634-.063a.318.318,0,0,1-.137-.03.325.325,0,0,1,.234-.607.366.366,0,0,1,.083.04.325.325,0,0,1-.18.6M52.4,23.5a.327.327,0,0,1-.315-.233.323.323,0,0,1,.206-.4l.031-.009a.326.326,0,1,1,.158.632.359.359,0,0,1-.08.009m50.945-.057a.351.351,0,0,1-.079-.009l.157-.632a.325.325,0,0,1-.079.641m-45.99-1.484a.328.328,0,0,1-.316-.233.325.325,0,0,1,.207-.4l.03-.008a.325.325,0,1,1,.158.631.319.319,0,0,1-.079.01m41.031-.045a.313.313,0,0,1-.079-.01l.157-.632a.326.326,0,0,1-.079.642m-35.99-1.157a.325.325,0,0,1-.1-.634.337.337,0,0,1,.435.307.327.327,0,0,1-.267.321.383.383,0,0,1-.066.006m30.941-.035a.384.384,0,0,1-.109-.018.329.329,0,1,1,.109.018M67.51,19.9a.327.327,0,1,1,.086-.01.4.4,0,0,1-.086.01m20.7-.023-.037,0a.326.326,0,0,1-.294-.325.338.338,0,0,1,.411-.315.325.325,0,0,1-.079.641m-15.543-.5a.326.326,0,1,1,.086-.01.4.4,0,0,1-.086.01m10.379-.011-.037,0a.326.326,0,0,1-.294-.324.339.339,0,0,1,.41-.316.326.326,0,0,1-.079.642M77.866,19.2a.327.327,0,0,1-.329-.326.323.323,0,0,1,.322-.326h.006a.326.326,0,0,1,0,.651" transform="translate(0 -4.375)"/>
        <path id="Trazado_873107" data-name="Trazado 873107" d="M79.326,170.114a.407.407,0,0,1,.411-.4.378.378,0,0,1,.084.007.327.327,0,0,1,.085-.007.4.4,0,0,1,.41.4.417.417,0,0,1-.41.41.406.406,0,0,1-.085-.013.4.4,0,0,1-.084.013.409.409,0,0,1-.411-.41m-4.8.221h0a.4.4,0,1,1,.059-.807.4.4,0,0,1,.378.429.413.413,0,0,1-.41.384c-.007,0-.013-.006-.026-.006m10.148-.384a.408.408,0,1,1,.436.371.04.04,0,0,1-.026.006.41.41,0,0,1-.41-.377m-15.323-.17a.407.407,0,1,1,.455-.345.4.4,0,0,1-.4.345Zm20.478-.371a.4.4,0,1,1,.462.344h-.059a.4.4,0,0,1-.4-.344m-25.608-.56a.408.408,0,0,1-.313-.482.414.414,0,0,1,.488-.312.4.4,0,0,1,.313.481.416.416,0,0,1-.4.319.45.45,0,0,1-.091-.006m30.7-.345a.414.414,0,0,1,.312-.488.408.408,0,0,1,.482.313.4.4,0,0,1-.306.482.473.473,0,0,1-.092.013.409.409,0,0,1-.4-.319m-35.75-.951v-.006a.4.4,0,1,1,.507-.274.41.41,0,0,1-.39.293.677.677,0,0,1-.117-.014m40.768-.326a.408.408,0,1,1,.507.274.339.339,0,0,1-.117.014.411.411,0,0,1-.39-.287m-45.709-1.34h0a.408.408,0,0,1,.293-.762.409.409,0,0,1,.235.527.4.4,0,0,1-.378.261.412.412,0,0,1-.15-.026m50.624-.293a.407.407,0,0,1,.241-.527H105.1a.408.408,0,1,1,.293.762.39.39,0,0,1-.143.026.415.415,0,0,1-.384-.261m-55.427-1.725h0a.405.405,0,1,1,.339-.736.4.4,0,0,1,.2.54.417.417,0,0,1-.371.235.379.379,0,0,1-.17-.04m60.212-.267a.4.4,0,0,1,.2-.54.407.407,0,0,1,.54.2.4.4,0,0,1-.195.534.427.427,0,0,1-.176.038.4.4,0,0,1-.365-.234m-64.859-2.1h-.006a.406.406,0,1,1,.4-.709.412.412,0,0,1,.163.553.42.42,0,0,1-.358.209.425.425,0,0,1-.195-.052m69.481-.228a.413.413,0,0,1,.157-.56.41.41,0,0,1,.4.717.447.447,0,0,1-.2.052.4.4,0,0,1-.352-.209M40.322,158.82a.416.416,0,0,1-.123-.566.409.409,0,0,1,.566-.117.409.409,0,0,1-.221.749.437.437,0,0,1-.222-.066m78.386-.2a.407.407,0,0,1,.684-.442.4.4,0,0,1-.118.559.407.407,0,0,1-.221.065.4.4,0,0,1-.345-.182m-82.643-2.805a.407.407,0,0,1,.488-.651v.006a.4.4,0,0,1,.079.566.409.409,0,0,1-.326.163.38.38,0,0,1-.241-.084m86.888-.164a.405.405,0,0,1,.078-.572.4.4,0,0,1,.566.078.412.412,0,0,1-.072.573.453.453,0,0,1-.248.085.408.408,0,0,1-.325-.164M32.03,152.505a.406.406,0,1,1,.54-.605.409.409,0,0,1,.038.573.415.415,0,0,1-.306.137.4.4,0,0,1-.273-.1m94.939-.123a.408.408,0,0,1,.612-.54.409.409,0,0,1-.033.572.4.4,0,0,1-.274.1.418.418,0,0,1-.306-.137m-98.721-3.457h0a.407.407,0,1,1,.58-.572.407.407,0,0,1-.287.7.427.427,0,0,1-.293-.124m102.5-.1a.407.407,0,1,1,.572-.58.4.4,0,0,1,0,.573.383.383,0,0,1-.286.124.4.4,0,0,1-.287-.117m.572-.007h.007l-.007.007ZM24.733,145.078h0a.406.406,0,1,1,.617-.527.4.4,0,0,1-.045.573.4.4,0,0,1-.261.1.4.4,0,0,1-.312-.144m109.52-.059a.408.408,0,0,1-.045-.572.4.4,0,0,1,.572-.045.4.4,0,0,1,.052.572h-.006a.414.414,0,0,1-.306.143.407.407,0,0,1-.267-.1M21.5,140.991a.406.406,0,1,1,.657-.475v-.006a.414.414,0,0,1-.092.572.407.407,0,0,1-.24.078.4.4,0,0,1-.326-.169m115.984-.026a.405.405,0,1,1,.475-.657.414.414,0,0,1,.092.572v-.007a.4.4,0,0,1-.332.17.387.387,0,0,1-.234-.078M18.575,136.687h0a.416.416,0,0,1,.129-.566.409.409,0,0,1,.56.131.408.408,0,0,1-.689.436m121.836,0a.4.4,0,0,1-.125-.56.408.408,0,0,1,.56-.129.4.4,0,0,1,.124.559h.006a.419.419,0,0,1-.351.2.389.389,0,0,1-.215-.066m-124.441-4.5a.406.406,0,1,1,.547.163.395.395,0,0,1-.547-.163m127.057.032a.411.411,0,0,1-.17-.553.4.4,0,1,1,.358.6.473.473,0,0,1-.189-.046M13.693,127.5a.405.405,0,1,1,.533.209.355.355,0,0,1-.163.039.4.4,0,0,1-.371-.248m131.613.059a.406.406,0,1,1,.54-.208.4.4,0,0,1-.378.241.382.382,0,0,1-.163-.033M11.759,122.666a.412.412,0,0,1,.248-.52.4.4,0,0,1,.521.247.406.406,0,0,1-.248.52.413.413,0,0,1-.137.02.421.421,0,0,1-.384-.267m135.487.078a.408.408,0,1,1,.273-.768.409.409,0,0,1-.136.794.332.332,0,0,1-.137-.026M10.19,117.7a.405.405,0,1,1,.782-.215.412.412,0,0,1-.28.5.789.789,0,0,1-.111.012.4.4,0,0,1-.391-.3m138.644.11a.4.4,0,0,1-.287-.494.405.405,0,1,1,.781.215.41.41,0,0,1-.39.3.279.279,0,0,1-.1-.02M8.98,112.635a.405.405,0,1,1,.794-.163.4.4,0,0,1-.319.476.344.344,0,0,1-.078.012.409.409,0,0,1-.4-.326m141.071.144a.409.409,0,0,1-.319-.481v.006a.405.405,0,1,1,.4.482.3.3,0,0,1-.078-.007M8.14,107.493a.4.4,0,0,1,.352-.455.407.407,0,1,1,.1.807H8.544a.406.406,0,0,1-.4-.352m142.763.176a.406.406,0,1,1,.1-.807.4.4,0,0,1,.352.455.406.406,0,0,1-.4.358c-.013,0-.032-.006-.046-.006M7.672,102.3h0a.4.4,0,0,1,.384-.429.408.408,0,1,1,.045.814H8.081a.412.412,0,0,1-.41-.384m143.714.209a.415.415,0,1,1,.02,0ZM7.977,97.508a.413.413,0,0,1-.4-.417.407.407,0,0,1,.813.02.4.4,0,0,1-.41.4m143.1-.574h0a.407.407,0,1,1,.416.4h-.012a.408.408,0,0,1-.4-.4M8.218,92.332a.409.409,0,0,1-.371-.442.4.4,0,0,1,.442-.365.409.409,0,0,1,.371.442v-.006a.41.41,0,0,1-.41.371Zm142.574-.54a.409.409,0,0,1,.814-.078.4.4,0,0,1-.371.442c-.013,0-.02.007-.032.007a.416.416,0,0,1-.411-.371M8.83,87.19a.4.4,0,0,1-.332-.468.4.4,0,0,1,.462-.332.4.4,0,0,1,.339.462v.007a.4.4,0,0,1-.4.338.288.288,0,0,1-.072-.006m141.313-.508a.415.415,0,0,1,.339-.468.406.406,0,1,1,.131.8.24.24,0,0,1-.066.006.411.411,0,0,1-.4-.339M9.812,82.106a.433.433,0,1,1,.1.007.474.474,0,0,1-.1-.007m139.314-.475h-.006a.408.408,0,1,1,.494.3.252.252,0,0,1-.1.013.4.4,0,0,1-.39-.313M11.166,77.107a.436.436,0,1,1,.124.013.7.7,0,0,1-.124-.013m136.574-.436h0a.4.4,0,0,1,.267-.507.4.4,0,0,1,.507.261.411.411,0,0,1-.26.514.445.445,0,0,1-.124.019.4.4,0,0,1-.39-.287M12.879,72.206a.407.407,0,1,1,.527-.228.4.4,0,0,1-.378.261.454.454,0,0,1-.15-.033M146,71.822a.4.4,0,0,1,.221-.528.408.408,0,1,1,.306.756.452.452,0,0,1-.149.032.4.4,0,0,1-.378-.26M14.942,67.447a.4.4,0,0,1-.189-.54.412.412,0,0,1,.547-.189.409.409,0,0,1-.177.775.368.368,0,0,1-.182-.046m128.971-.326h0a.409.409,0,1,1,.547.189.432.432,0,0,1-.177.04.41.41,0,0,1-.371-.228M17.351,62.858a.408.408,0,0,1-.15-.56.407.407,0,0,1,.7.41.412.412,0,0,1-.352.2.428.428,0,0,1-.2-.052m124.14-.28a.406.406,0,0,1,.15-.554.4.4,0,0,1,.553.144.405.405,0,0,1-.143.559.466.466,0,0,1-.209.052.411.411,0,0,1-.352-.2M20.078,58.451a.408.408,0,1,1,.56-.111.391.391,0,0,1-.332.176.4.4,0,0,1-.228-.065m118.673-.228h0a.407.407,0,1,1,.67-.462.411.411,0,0,1-.1.566.383.383,0,0,1-.234.072.417.417,0,0,1-.332-.176M23.112,54.253a.41.41,0,0,1,.507-.644.405.405,0,0,1,.065.572.4.4,0,0,1-.319.157.422.422,0,0,1-.254-.085M135.7,54.07a.405.405,0,0,1,.638-.5.4.4,0,0,1-.319.657.4.4,0,0,1-.319-.157M26.445,50.281a.407.407,0,1,1,.579-.026h-.007a.405.405,0,0,1-.3.131.4.4,0,0,1-.274-.1m105.914-.129h0a.4.4,0,0,1,.019-.574.412.412,0,0,1,.58.027.4.4,0,0,1-.3.676.388.388,0,0,1-.3-.129m-102.3-3.587a.411.411,0,0,1,.013-.579.4.4,0,0,1,.573.012.412.412,0,0,1-.013.58.426.426,0,0,1-.28.111.393.393,0,0,1-.293-.124m98.682-.085a.4.4,0,0,1-.013-.572.408.408,0,0,1,.573-.02.4.4,0,0,1-.28.7.4.4,0,0,1-.28-.111M33.917,43.115a.4.4,0,0,1,.059-.572.412.412,0,0,1,.573.052.4.4,0,0,1-.059.572.416.416,0,0,1-.573-.052m90.957-.032v-.007a.4.4,0,0,1-.059-.566.407.407,0,1,1,.313.664.435.435,0,0,1-.254-.091M38.018,39.945a.408.408,0,0,1,.1-.567v.008a.4.4,0,0,1,.566.091.413.413,0,0,1-.1.572.426.426,0,0,1-.234.072.4.4,0,0,1-.332-.176m82.747.019h.007a.4.4,0,0,1-.1-.566.409.409,0,0,1,.67.468.422.422,0,0,1-.339.17.394.394,0,0,1-.235-.072M42.334,37.087a.41.41,0,0,1,.137-.559v.006a.4.4,0,0,1,.559.138.4.4,0,0,1-.137.552.408.408,0,0,1-.559-.137m74.116.065h0a.411.411,0,0,1-.137-.559.4.4,0,0,1,.56-.137v-.007a.412.412,0,0,1-.215.762.4.4,0,0,1-.208-.059m-69.6-2.6A.408.408,0,0,1,47.028,34a.4.4,0,0,1,.546.176.41.41,0,0,1-.183.547.362.362,0,0,1-.182.044.4.4,0,0,1-.365-.221m65.094.1v.007a.41.41,0,0,1-.177-.553.4.4,0,0,1,.54-.176.41.41,0,0,1,.183.547.4.4,0,0,1-.364.221.372.372,0,0,1-.183-.046m-60.414-2.31a.409.409,0,0,1,.222-.534.4.4,0,0,1,.533.215.409.409,0,0,1-.221.534.441.441,0,0,1-.157.032.417.417,0,0,1-.377-.247m55.734.149a.4.4,0,0,1-.222-.527.409.409,0,1,1,.378.559.339.339,0,0,1-.157-.033m-50.9-2.011a.406.406,0,1,1,.514.254.412.412,0,0,1-.129.019.406.406,0,0,1-.385-.274m46.081.195h0a.4.4,0,1,1,.514-.253.42.42,0,0,1-.39.28.279.279,0,0,1-.124-.027m-41.12-1.7a.4.4,0,1,1,.5.292.289.289,0,0,1-.1.014.4.4,0,0,1-.391-.306m36.18.247a.407.407,0,0,1-.3-.5.41.41,0,0,1,.795.2.41.41,0,0,1-.4.306.252.252,0,0,1-.1-.013M66.367,27.832a.4.4,0,0,1,.326-.475.407.407,0,1,1,.143.8.286.286,0,0,1-.072.006.4.4,0,0,1-.4-.332m26.09.293a.4.4,0,0,1-.326-.469.407.407,0,1,1,.8.144.4.4,0,0,1-.4.332.3.3,0,0,1-.078-.007M71.483,27.057a.4.4,0,0,1,.365-.449.406.406,0,1,1,.084.807h-.04a.408.408,0,0,1-.41-.358m15.877.339h0A.4.4,0,0,1,87,26.946a.406.406,0,0,1,.808.085.414.414,0,0,1-.4.371c-.012,0-.026-.006-.045-.006m-10.708-.742a.4.4,0,0,1,.39-.423.407.407,0,1,1,.026.814h-.013a.407.407,0,0,1-.4-.39m5.572.384a.407.407,0,0,1-.4-.423.416.416,0,0,1,.423-.391.407.407,0,0,1-.013.814Z" transform="translate(-1.786 -6.184)"/>
        <path id="Trazado_873108" data-name="Trazado 873108" d="M81.609,166.473a.335.335,0,0,1-.078.006.485.485,0,1,1,0-.97.335.335,0,0,1,.078.006.347.347,0,0,1,.085-.013.488.488,0,0,1,0,.977.429.429,0,0,1-.085-.006m-5.285-.2.006.007a.49.49,0,0,1,.071-.977.489.489,0,0,1-.032.977.117.117,0,0,1-.045-.007m10.05-.455a.482.482,0,0,1,.442-.528.49.49,0,1,1,.079.977h-.039a.488.488,0,0,1-.482-.449m-15.219-.144h0a.483.483,0,1,1,.078.007c-.026,0-.052-.007-.078-.007m20.355-.436a.487.487,0,0,1,.4-.559v.007a.488.488,0,1,1,.157.963c-.026,0-.052.007-.079.007a.489.489,0,0,1-.481-.417m-25.465-.578h0a.486.486,0,1,1,.228-.945.485.485,0,0,1-.117.957.362.362,0,0,1-.111-.012m30.543-.4a.482.482,0,0,1,.358-.586.492.492,0,0,1,.592.358.486.486,0,0,1-.365.585v.007a.6.6,0,0,1-.111.013.486.486,0,0,1-.475-.377m-35.555-1.009a.489.489,0,1,1,.612-.319.48.48,0,0,1-.462.339.526.526,0,0,1-.15-.02m40.534-.364a.49.49,0,1,1,.931-.306.491.491,0,0,1-.313.618.417.417,0,0,1-.149.026.5.5,0,0,1-.469-.338m-45.429-1.439h0a.488.488,0,0,1-.26-.638.482.482,0,0,1,.637-.267.488.488,0,0,1-.189.938.659.659,0,0,1-.189-.033m50.285-.326a.491.491,0,1,1,.638.261.458.458,0,0,1-.182.039.488.488,0,0,1-.456-.3m-55.017-1.862h0a.492.492,0,1,1,.221.052.457.457,0,0,1-.221-.052m59.717-.28a.494.494,0,0,1,.215-.658.488.488,0,0,1,.657.215.494.494,0,0,1-.209.658.559.559,0,0,1-.227.051.5.5,0,0,1-.436-.266m-64.261-2.272h0a.5.5,0,0,1-.163-.671.5.5,0,0,1,.677-.163.493.493,0,0,1,.156.677.484.484,0,0,1-.416.228.457.457,0,0,1-.254-.071m68.784-.235a.488.488,0,0,1,.157-.671.5.5,0,0,1,.677.157.5.5,0,0,1-.163.677.512.512,0,0,1-.254.072.493.493,0,0,1-.417-.235m-73.112-2.662a.487.487,0,1,1,.572-.788.485.485,0,0,1-.287.879.454.454,0,0,1-.286-.091m77.422-.189a.484.484,0,0,1,.111-.677.475.475,0,0,1,.677.1.483.483,0,0,1-.1.683.517.517,0,0,1-.287.091.5.5,0,0,1-.4-.2m-81.516-3.04a.492.492,0,1,1,.319.117.507.507,0,0,1-.319-.117m85.592-.137a.491.491,0,0,1,.051-.689h.007a.478.478,0,0,1,.683.051.485.485,0,0,1-.052.684.457.457,0,0,1-.319.124.494.494,0,0,1-.371-.17m-89.414-3.4a.491.491,0,0,1,0-.69.479.479,0,0,1,.69,0,.491.491,0,0,1,0,.69.511.511,0,0,1-.345.143.5.5,0,0,1-.345-.143m93.228-.1a.488.488,0,1,1,.69-.69.486.486,0,0,1,0,.69.473.473,0,0,1-.345.143.481.481,0,0,1-.345-.143m-96.762-3.73h-.007a.49.49,0,1,1,.691.052.456.456,0,0,1-.313.124.462.462,0,0,1-.371-.176m100.3-.045a.487.487,0,1,1,.69-.053.5.5,0,0,1-.371.17.484.484,0,0,1-.319-.117M27.855,139.14a.5.5,0,1,1,.4.2.464.464,0,0,1-.4-.2m106.754,0a.489.489,0,0,1-.112-.684.5.5,0,0,1,.684-.11.489.489,0,0,1,.1.683.479.479,0,0,1-.39.2.454.454,0,0,1-.286-.091M24.959,134.817a.486.486,0,1,1,.669.157.455.455,0,0,1-.254.072.475.475,0,0,1-.416-.228m112.547.04a.49.49,0,1,1,.514-.834.491.491,0,0,1-.261.906.515.515,0,0,1-.254-.072m-115.1-4.583a.489.489,0,1,1,.658.215.464.464,0,0,1-.222.052.491.491,0,0,1-.436-.267m117.658.084a.486.486,0,1,1,.442-.865.479.479,0,0,1,.215.65.5.5,0,0,1-.436.267.45.45,0,0,1-.221-.053m-119.839-4.81a.489.489,0,0,1,.261-.638.5.5,0,0,1,.638.267.486.486,0,0,1-.267.638.462.462,0,0,1-.183.039.492.492,0,0,1-.449-.306m122.033.123a.49.49,0,0,1-.267-.637v.006a.494.494,0,1,1,.267.631m-123.835-5h0a.487.487,0,1,1,.611.312.588.588,0,0,1-.149.02.483.483,0,0,1-.462-.332m125.657.156a.485.485,0,0,1-.319-.612.489.489,0,1,1,.462.638.381.381,0,0,1-.144-.026M17,115.66a.5.5,0,0,1,.365-.592.489.489,0,0,1,.228.951.676.676,0,0,1-.117.013A.493.493,0,0,1,17,115.66m128.5.2a.5.5,0,0,1-.364-.592.489.489,0,0,1,.592-.358.482.482,0,0,1,.358.585.492.492,0,0,1-.475.377.789.789,0,0,1-.111-.012M15.994,110.551h0a.484.484,0,0,1,.4-.56.488.488,0,1,1,.15.964.285.285,0,0,1-.072.006.489.489,0,0,1-.482-.41m130.539.241a.477.477,0,0,1-.4-.553.49.49,0,0,1,.554-.41.5.5,0,0,1,.41.56.488.488,0,0,1-.481.41.346.346,0,0,1-.079-.006M15.383,105.376a.49.49,0,1,1,.527.449h-.039a.489.489,0,0,1-.488-.449m131.782.287a.488.488,0,0,1-.449-.521.487.487,0,0,1,.971.072.484.484,0,0,1-.482.449ZM15.181,100.174h0a.488.488,0,0,1,.976,0,.488.488,0,1,1-.976,0m131.724-.163a.488.488,0,1,1,.488.488.487.487,0,0,1-.488-.488M15.825,95.495a.512.512,0,1,1,.039,0ZM146.7,94.882a.487.487,0,1,1,.528.449h-.04a.49.49,0,0,1-.488-.449M16.385,90.352a.48.48,0,0,1-.4-.553.486.486,0,0,1,.553-.41.5.5,0,0,1,.41.559.488.488,0,0,1-.481.41.335.335,0,0,1-.078-.006m129.706-.567a.487.487,0,0,1,.4-.559.5.5,0,0,1,.559.41.486.486,0,0,1-.4.559h-.078a.488.488,0,0,1-.482-.41M17.348,85.275a.489.489,0,1,1,.228-.951.485.485,0,0,1,.358.585v.007a.486.486,0,0,1-.475.371.367.367,0,0,1-.111-.012m127.741-.521h0a.485.485,0,1,1,.944-.228h.006a.5.5,0,0,1-.364.592.781.781,0,0,1-.118.013.484.484,0,0,1-.468-.377M18.709,80.289a.5.5,0,1,1,.15.019.587.587,0,0,1-.15-.019m124.98-.468h0a.487.487,0,1,1,.612.312.558.558,0,0,1-.15.026.481.481,0,0,1-.462-.338M20.46,75.42a.492.492,0,0,1-.267-.638.485.485,0,0,1,.638-.267.491.491,0,0,1,.267.638.486.486,0,0,1-.449.3.464.464,0,0,1-.189-.033m121.446-.41a.486.486,0,1,1,.638.267.479.479,0,0,1-.189.04.492.492,0,0,1-.449-.306M22.588,70.7a.486.486,0,1,1,.443-.865.483.483,0,0,1-.221.917.465.465,0,0,1-.222-.052m117.156-.339a.491.491,0,1,1,.657.209.444.444,0,0,1-.221.052.49.49,0,0,1-.436-.261M25.089,66.169a.482.482,0,0,1-.163-.67.488.488,0,1,1,.416.742.441.441,0,0,1-.254-.072m112.143-.28a.485.485,0,0,1,.157-.67.479.479,0,0,1,.67.163.487.487,0,0,1-.157.67.512.512,0,0,1-.253.072.482.482,0,0,1-.417-.235m-109.3-4.042a.476.476,0,0,1-.111-.676v-.007a.489.489,0,1,1,.391.774.453.453,0,0,1-.28-.091m106.435-.215h0a.489.489,0,0,1,.111-.683.5.5,0,0,1,.683.1h-.006a.483.483,0,0,1-.1.684.477.477,0,0,1-.287.091.492.492,0,0,1-.4-.2M31.1,57.766a.488.488,0,0,1-.058-.69.487.487,0,1,1,.741.631.478.478,0,0,1-.371.176.486.486,0,0,1-.313-.117m100.082-.157h0a.49.49,0,0,1,.743-.638.488.488,0,0,1-.052.691.493.493,0,0,1-.691-.053M34.579,53.939a.488.488,0,0,1,.69-.69.479.479,0,0,1,0,.69.462.462,0,0,1-.345.144.483.483,0,0,1-.345-.144m93.117-.091a.5.5,0,0,1,0-.7.488.488,0,1,1,.69.69.483.483,0,0,1-.345.143.5.5,0,0,1-.345-.136M38.348,50.4a.489.489,0,1,1,.69.052.506.506,0,0,1-.319.117.5.5,0,0,1-.371-.169m85.572-.032h0a.49.49,0,0,1,.638-.743h-.006a.488.488,0,0,1-.313.86.5.5,0,0,1-.319-.117m-81.543-3.2a.49.49,0,1,1,.794-.573.481.481,0,0,1-.111.676.47.47,0,0,1-.286.1.5.5,0,0,1-.4-.2m77.514.026a.487.487,0,1,1,.572-.788v-.007a.5.5,0,0,1,.111.684.482.482,0,0,1-.4.2.454.454,0,0,1-.286-.091M46.654,44.253a.487.487,0,1,1,.826-.514.486.486,0,0,1-.156.67.46.46,0,0,1-.254.072.476.476,0,0,1-.416-.228m68.966.084a.483.483,0,0,1-.163-.67.488.488,0,0,1,.834.507.475.475,0,0,1-.416.235.445.445,0,0,1-.254-.072M51.138,41.682a.488.488,0,0,1,.209-.658v.007a.485.485,0,0,1,.657.208.491.491,0,0,1-.208.657.462.462,0,0,1-.222.052.483.483,0,0,1-.436-.266m60,.149a.485.485,0,0,1-.209-.657.479.479,0,0,1,.65-.215.488.488,0,0,1-.221.924.558.558,0,0,1-.221-.052m-55.33-2.35a.49.49,0,1,1,.644.261.513.513,0,0,1-.189.038.487.487,0,0,1-.455-.3m50.669.2h-.006a.487.487,0,1,1,.378-.9v-.006a.492.492,0,0,1-.189.943.465.465,0,0,1-.183-.039M60.643,37.652a.487.487,0,1,1,.612.313.646.646,0,0,1-.151.025.488.488,0,0,1-.462-.339m41.009.261a.489.489,0,0,1,.3-.931.491.491,0,0,1-.149.958.415.415,0,0,1-.151-.027M65.6,36.208a.486.486,0,0,1,.365-.586v-.007a.49.49,0,0,1,.585.365.482.482,0,0,1-.358.586.36.36,0,0,1-.117.013.492.492,0,0,1-.475-.371m31.108.326h0a.491.491,0,0,1,.222-.958.488.488,0,0,1,.365.592.493.493,0,0,1-.475.378.693.693,0,0,1-.111-.012M70.667,35.159a.486.486,0,0,1,.4-.56.493.493,0,0,1,.56.41.478.478,0,0,1-.4.553.336.336,0,0,1-.078.006.488.488,0,0,1-.482-.41m21.006.384a.491.491,0,0,1,.15-.97.5.5,0,0,1,.41.56.488.488,0,0,1-.482.41ZM75.8,34.514a.487.487,0,1,1,.528.45h-.04a.49.49,0,0,1-.488-.45m10.78.436h0a.49.49,0,0,1,.077-.977.5.5,0,0,1,.449.528.488.488,0,0,1-.488.449Zm-5.618-.677a.493.493,0,0,1,.488-.494.488.488,0,1,1-.488.494" transform="translate(-3.58 -7.966)"/>
        <path id="Trazado_873109" data-name="Trazado 873109" d="M82.758,161.905a.578.578,0,0,1,.573-.572v.007H83.4c.02,0,.046-.007.072-.007a.573.573,0,0,1,.572.572.566.566,0,0,1-.566.566h-.143a.572.572,0,0,1-.573-.566m-4.628.352a.572.572,0,0,1,.1-1.139.571.571,0,0,1-.052,1.139Zm9.927-.533a.568.568,0,1,1,.618.52h-.052a.567.567,0,0,1-.566-.52m-15.089-.13a.584.584,0,1,1,.092.006.47.47,0,0,1-.092-.006m20.206-.488a.572.572,0,1,1,.664.462.634.634,0,0,1-.1.006.577.577,0,0,1-.56-.468m-25.295-.618a.6.6,0,1,1,.143.013.53.53,0,0,1-.143-.013m30.347-.443a.569.569,0,1,1,1.1-.293.574.574,0,0,1-.4.7.623.623,0,0,1-.149.019.562.562,0,0,1-.546-.423M62.9,158.937v.006a.57.57,0,1,1,.729-.345.582.582,0,0,1-.54.378.521.521,0,0,1-.189-.039m40.254-.384a.571.571,0,1,1,.729.338.5.5,0,0,1-.189.033.577.577,0,0,1-.54-.371m-45.077-1.583a.568.568,0,1,1,.234.052.5.5,0,0,1-.234-.052m49.868-.332a.567.567,0,0,1,.274-.755v-.007a.579.579,0,0,1,.761.28.568.568,0,0,1-.28.756.537.537,0,0,1-.241.052.555.555,0,0,1-.514-.326m-54.5-2.043a.569.569,0,0,1-.215-.775.568.568,0,1,1,.989.559.573.573,0,0,1-.494.287.544.544,0,0,1-.28-.072m59.105-.28a.57.57,0,0,1,.989-.567.577.577,0,0,1-.208.781.582.582,0,0,1-.781-.214m-63.519-2.487h0a.574.574,0,0,1-.15-.794.571.571,0,1,1,.469.892.577.577,0,0,1-.319-.1m67.906-.221a.576.576,0,0,1,.15-.795.571.571,0,0,1,.644.944.576.576,0,0,1-.326.1.569.569,0,0,1-.468-.248m-72.066-2.917h0a.574.574,0,0,1-.078-.8.569.569,0,1,1,.442.931.6.6,0,0,1-.365-.131m76.212-.156a.569.569,0,1,1,.8.072.555.555,0,0,1-.365.137.562.562,0,0,1-.436-.209M41,145.21a.568.568,0,1,1,.794-.814.572.572,0,0,1,.013.807.567.567,0,0,1-.41.169.558.558,0,0,1-.4-.162m83.945-.1a.568.568,0,0,1,.813-.794.575.575,0,0,1-.006.808.587.587,0,0,1-.4.163.559.559,0,0,1-.41-.177m-87.506-3.7h0a.567.567,0,1,1,.8.059.57.57,0,0,1-.371.137.552.552,0,0,1-.429-.2m91.066-.032a.575.575,0,0,1-.065-.808.57.57,0,1,1,.436.945.558.558,0,0,1-.371-.137m-94.295-4.055a.57.57,0,0,1,.13-.794.559.559,0,0,1,.794.13.573.573,0,0,1-.13.794.575.575,0,0,1-.794-.13m97.516.026a.569.569,0,1,1,.794-.131.559.559,0,0,1-.462.235.573.573,0,0,1-.332-.1M31.346,132.978a.571.571,0,0,1,.2-.782.57.57,0,1,1,.586.977.522.522,0,0,1-.287.085.592.592,0,0,1-.5-.28m103.252.084a.567.567,0,1,1,.579-.976.566.566,0,0,1,.2.775.577.577,0,0,1-.5.28.568.568,0,0,1-.286-.079M28.874,128.4h0a.569.569,0,1,1,.761.261.6.6,0,0,1-.254.059.562.562,0,0,1-.507-.319m108.212.143a.574.574,0,0,1-.267-.761h.006a.568.568,0,1,1,.508.814.537.537,0,0,1-.248-.053M26.8,123.624a.571.571,0,0,1,1.068-.4.578.578,0,0,1-.333.735.7.7,0,0,1-.2.033.575.575,0,0,1-.534-.365m112.379.2a.566.566,0,0,1-.326-.736h-.008a.576.576,0,0,1,.736-.332.568.568,0,0,1-.2,1.1.542.542,0,0,1-.2-.033M25.143,118.69h0a.58.58,0,0,1,.391-.709.57.57,0,0,1,.7.39h.006a.579.579,0,0,1-.39.709.745.745,0,0,1-.163.02.571.571,0,0,1-.547-.41m115.7.254a.572.572,0,0,1-.391-.7.569.569,0,0,1,1.094.313.57.57,0,0,1-.546.41.613.613,0,0,1-.157-.02M23.926,113.625h0a.571.571,0,1,1,.671.449.685.685,0,0,1-.111.013.572.572,0,0,1-.56-.462m118.172.313a.551.551,0,1,1,.1.013.605.605,0,0,1-.1-.013M23.145,108.476h.006a.566.566,0,1,1,.625.507h-.066a.569.569,0,0,1-.565-.507m119.753.371a.579.579,0,0,1-.508-.631.573.573,0,0,1,1.139.124h-.007a.559.559,0,0,1-.559.507ZM22.813,103.282a.567.567,0,0,1,.56-.579.561.561,0,0,1,.578.553.573.573,0,0,1-.559.585h-.007a.571.571,0,0,1-.572-.559m120.456.416a.57.57,0,1,1,.579-.553v-.007a.57.57,0,0,1-.566.56ZM23.451,98.68a.567.567,0,1,1,.605-.533v.006a.564.564,0,0,1-.566.527Zm119.142-.67a.57.57,0,1,1,.6.533h-.039a.573.573,0,0,1-.565-.533M23.952,93.551a.573.573,0,1,1,.645-.482.568.568,0,0,1-.566.488c-.026,0-.052-.006-.079-.006m118.087-.619a.576.576,0,0,1,.482-.65.568.568,0,0,1,.644.481.562.562,0,0,1-.475.645.4.4,0,0,1-.085.006.573.573,0,0,1-.566-.482M24.883,88.473a.559.559,0,0,1-.417-.683.569.569,0,0,1,.684-.424.571.571,0,0,1-.13,1.127.524.524,0,0,1-.137-.02m116.173-.553a.569.569,0,1,1,1.107-.267.564.564,0,0,1-.416.683.5.5,0,0,1-.137.02.576.576,0,0,1-.553-.436m-114.8-4.414a.572.572,0,0,1,.358-1.087.571.571,0,0,1-.182,1.113.823.823,0,0,1-.176-.027m113.381-.494a.57.57,0,0,1,1.081-.365.566.566,0,0,1-.358.723.562.562,0,0,1-.722-.358M28.053,78.664a.568.568,0,1,1,.455-1.042.567.567,0,0,1-.228,1.087.556.556,0,0,1-.228-.045M137.8,78.247h.006a.566.566,0,0,1,.293-.749.569.569,0,1,1,.228,1.094.58.58,0,0,1-.527-.345M30.26,74a.571.571,0,1,1,.546-1,.568.568,0,0,1,.228.768.574.574,0,0,1-.5.3A.6.6,0,0,1,30.26,74m105.3-.345a.565.565,0,1,1,.5.3.571.571,0,0,1-.5-.3m-102.7-4.114a.558.558,0,1,1,.313.1.555.555,0,0,1-.313-.1m100.076-.267h0a.569.569,0,0,1,.951-.624.575.575,0,0,1-.163.787.558.558,0,0,1-.313.092.579.579,0,0,1-.475-.254m-97.1-3.944a.57.57,0,0,1-.092-.8.563.563,0,0,1,.794-.1.567.567,0,0,1-.351,1.016.585.585,0,0,1-.352-.117m94.106-.2h0a.568.568,0,1,1,.892-.7.561.561,0,0,1-.091.794.551.551,0,0,1-.352.124.563.563,0,0,1-.449-.215m-90.779-3.75a.571.571,0,1,1,.807-.026.581.581,0,0,1-.807.026m87.44-.117a.571.571,0,0,1,.834-.781h-.006a.561.561,0,0,1-.02.8.575.575,0,0,1-.808-.02M42.817,57.736a.56.56,0,0,1,.038-.8.569.569,0,1,1,.384.99.536.536,0,0,1-.423-.189m80.13-.039a.57.57,0,0,1,.762-.847.567.567,0,0,1,.046.8.555.555,0,0,1-.423.2.583.583,0,0,1-.384-.15M46.761,54.416a.57.57,0,1,1,.8.111.581.581,0,0,1-.345.118.561.561,0,0,1-.456-.228m72.241.04a.57.57,0,1,1,.794-.111.573.573,0,0,1-.455.222.557.557,0,0,1-.339-.111M50.979,51.448a.569.569,0,0,1,.176-.787v.006a.571.571,0,1,1,.612.964.586.586,0,0,1-.306.085.557.557,0,0,1-.482-.267m63.812.111h0a.562.562,0,0,1-.182-.781.569.569,0,1,1,.481.872.555.555,0,0,1-.3-.091M55.432,48.85a.57.57,0,1,1,.768.248.6.6,0,0,1-.261.059.57.57,0,0,1-.507-.306m54.914.189h0a.57.57,0,1,1,.767-.247.579.579,0,0,1-.507.306.606.606,0,0,1-.26-.059M60.1,46.65a.568.568,0,1,1,.742.306A.512.512,0,0,1,60.62,47a.555.555,0,0,1-.521-.352m45.6.261a.572.572,0,0,1-.312-.743.561.561,0,0,1,.741-.313.567.567,0,0,1-.215,1.094.625.625,0,0,1-.215-.038M64.935,44.854a.562.562,0,0,1,.371-.71.57.57,0,0,1,.716.371.58.58,0,0,1-.378.717.516.516,0,0,1-.169.026.563.563,0,0,1-.54-.4m35.945.338h.006a.571.571,0,0,1,.332-1.094.58.58,0,0,1,.378.716.574.574,0,0,1-.547.4.751.751,0,0,1-.169-.02M69.9,43.486a.573.573,0,0,1,.437-.677.579.579,0,0,1,.683.436.571.571,0,0,1-.436.677.4.4,0,0,1-.124.013.577.577,0,0,1-.56-.449m26.038.41v-.006a.567.567,0,1,1,.241-1.107.559.559,0,0,1,.436.677.568.568,0,0,1-.553.449.765.765,0,0,1-.124-.013m-20.96-1.341a.567.567,0,0,1,.488-.638h.006a.571.571,0,0,1,.144,1.133c-.027,0-.046.006-.072.006a.574.574,0,0,1-.566-.5m15.928.476h0a.571.571,0,1,1,.637-.5.578.578,0,0,1-.565.5.286.286,0,0,1-.072-.006m-10.792-.964a.555.555,0,0,1,.54-.593.567.567,0,0,1,.052,1.133h-.026a.561.561,0,0,1-.566-.54m5.155-.059a.572.572,0,0,1,.592-.546v.006a.567.567,0,1,1-.046,1.133v.007a.579.579,0,0,1-.546-.6" transform="translate(-5.38 -9.778)"/>
        <path id="Trazado_873110" data-name="Trazado 873110" d="M84.476,157.8a.653.653,0,0,1,.651-.651.168.168,0,0,1,.058.007.171.171,0,0,1,.059-.007h.006a.651.651,0,0,1,0,1.3h-.123a.653.653,0,0,1-.651-.651M80,158.216a.683.683,0,1,1,.065,0Zm9.653-.6a.654.654,0,1,1,.716.586c-.026,0-.046.006-.065.006a.657.657,0,0,1-.651-.592M74.926,157.5v.007a.66.66,0,0,1-.52-.762.652.652,0,1,1,.644.768.4.4,0,0,1-.124-.013m19.756-.54a.652.652,0,1,1,.762.521.768.768,0,0,1-.117.012.655.655,0,0,1-.645-.533m-24.742-.644h0a.65.65,0,0,1,.358-1.25.65.65,0,0,1-.183,1.276.534.534,0,0,1-.175-.026m29.682-.475a.651.651,0,1,1,.808.442.887.887,0,0,1-.183.027.662.662,0,0,1-.625-.469m-34.538-1.178a.65.65,0,0,1,.475-1.21.651.651,0,0,1,.371.847.66.66,0,0,1-.605.41.6.6,0,0,1-.241-.046m39.349-.41a.657.657,0,0,1,.371-.847.65.65,0,0,1,.475,1.21.584.584,0,0,1-.235.046.663.663,0,0,1-.612-.41M60.4,152.56v.007a.674.674,0,1,1,.3.064.618.618,0,0,1-.3-.071m48.677-.339a.641.641,0,0,1,.28-.872.651.651,0,1,1,.592,1.158.677.677,0,0,1-.293.071.639.639,0,0,1-.579-.358m-53.135-2.194a.65.65,0,0,1-.2-.9.659.659,0,0,1,.9-.2.653.653,0,0,1-.344,1.2.628.628,0,0,1-.352-.1m57.562-.267a.645.645,0,0,1,.2-.892v-.007a.66.66,0,0,1,.9.2.646.646,0,0,1-.2.9.611.611,0,0,1-.345.1.658.658,0,0,1-.552-.306m-61.761-2.668h0a.646.646,0,1,1,.4.137.639.639,0,0,1-.4-.137m65.947-.189a.659.659,0,0,1,.11-.919.655.655,0,1,1,.4,1.172.65.65,0,0,1-.514-.254m-69.859-3.131a.65.65,0,1,1,.917-.033.646.646,0,0,1-.917.033m73.751-.112a.651.651,0,1,1,.918.033v-.007a.636.636,0,0,1-.443.177.645.645,0,0,1-.475-.2m-77.338-3.554a.653.653,0,1,1,.918.052.632.632,0,0,1-.429.164.651.651,0,0,1-.488-.216m80.912-.032a.657.657,0,0,1-.053-.925.653.653,0,0,1,.977.866.671.671,0,0,1-.488.222.7.7,0,0,1-.436-.163m-84.134-3.951h0a.652.652,0,1,1,1.048-.775.655.655,0,0,1-.143.912.64.64,0,0,1-.384.129.646.646,0,0,1-.52-.266m87.363.039a.645.645,0,1,1,.384.13.666.666,0,0,1-.384-.13m-90.208-4.31a.648.648,0,0,1,.222-.892.65.65,0,1,1,.67,1.113.627.627,0,0,1-.332.1.66.66,0,0,1-.56-.319m93.058.125a.652.652,0,1,1,.332.091.7.7,0,0,1-.332-.091m-95.486-4.642h0a.649.649,0,1,1,.866.306.615.615,0,0,1-.28.065.649.649,0,0,1-.586-.371m97.934.2a.662.662,0,0,1-.313-.872.652.652,0,1,1,.586.931.692.692,0,0,1-.274-.059m-99.925-4.921h0a.649.649,0,1,1,.832.384.667.667,0,0,1-.228.039.643.643,0,0,1-.6-.423m101.936.266a.652.652,0,1,1,.84-.384.659.659,0,0,1-.611.423.7.7,0,0,1-.228-.04M32.218,117.722a.651.651,0,0,1,.462-.794.653.653,0,1,1,.332,1.262.7.7,0,0,1-.163.019.652.652,0,0,1-.631-.488m105.054.345a.649.649,0,1,1,.788-.462.638.638,0,0,1-.625.481.7.7,0,0,1-.163-.019M31.144,112.709h0a.653.653,0,1,1,.749.534.614.614,0,0,1-.1.013.655.655,0,0,1-.644-.547m107.236.417a.661.661,0,1,1,.1.006c-.04,0-.072-.006-.1-.006M30.551,107.619a.65.65,0,1,1,.7.605H31.2a.65.65,0,0,1-.651-.605m108.467.475a.649.649,0,1,1,.085-1.3.651.651,0,0,1-.04,1.3.1.1,0,0,1-.045-.006M31.065,103.16a.662.662,0,0,1-.637-.67.651.651,0,0,1,1.3.033.654.654,0,0,1-.651.637Zm107.451-.761h0a.651.651,0,0,1,1.3-.033.658.658,0,0,1-.631.671h-.02a.654.654,0,0,1-.65-.638M31.353,98.1a.631.631,0,1,1,.078.007.3.3,0,0,1-.078-.007m106.813-.69h-.007a.652.652,0,1,1,1.3-.15V97.25a.662.662,0,0,1-.566.729H138.8a.641.641,0,0,1-.638-.573M32.114,93.09a.649.649,0,0,1-.5-.775v.007a.648.648,0,1,1,.637.78.519.519,0,0,1-.137-.012m105.225-.619a.653.653,0,1,1,.774.5,1.033,1.033,0,0,1-.136.012.653.653,0,0,1-.638-.514m-104-4.3a.652.652,0,0,1,.39-1.243.65.65,0,0,1-.2,1.269.684.684,0,0,1-.195-.026m102.724-.547a.649.649,0,1,1,.814.429.66.66,0,0,1-.2.026.646.646,0,0,1-.618-.455M35.024,83.39a.648.648,0,0,1-.352-.846.652.652,0,1,1,.6.9.573.573,0,0,1-.247-.053m99.308-.455a.65.65,0,1,1,.852.345.593.593,0,0,1-.254.052.648.648,0,0,1-.6-.4M37.152,78.8a.655.655,0,0,1-.267-.886.654.654,0,1,1,.267.886m95.011-.371a.651.651,0,1,1,.879.267.644.644,0,0,1-.879-.267M39.7,74.414a.651.651,0,0,1-.19-.9V73.51a.653.653,0,1,1,1.087.723.648.648,0,0,1-.54.293.656.656,0,0,1-.358-.111m89.881-.28a.642.642,0,0,1,.175-.9.65.65,0,1,1,.723,1.081.658.658,0,0,1-.358.111.64.64,0,0,1-.54-.293m-86.94-3.841a.658.658,0,0,1-.091-.918.65.65,0,1,1,1.009.82.657.657,0,0,1-.919.1m83.965-.189a.658.658,0,1,1,.507.241.664.664,0,0,1-.507-.241M45.972,66.466a.649.649,0,1,1,.919-.013.66.66,0,0,1-.468.2.633.633,0,0,1-.45-.183m77.305-.1a.652.652,0,0,1,.932-.912.652.652,0,0,1-.932.912M49.631,62.964a.65.65,0,0,1,.071-.918h.007a.642.642,0,0,1,.911.072.651.651,0,1,1-.989.846m69.982-.006h0a.649.649,0,1,1,.84-.99.649.649,0,1,1-.84.99M53.6,59.814a.65.65,0,1,1,.9.163h.006a.677.677,0,0,1-.377.117.656.656,0,0,1-.533-.28m62.041.091a.645.645,0,0,1-.157-.9.65.65,0,0,1,1.068.742.663.663,0,0,1-.54.28.629.629,0,0,1-.371-.118M57.852,57.054a.642.642,0,0,1,.241-.885.653.653,0,0,1,.893.24.661.661,0,0,1-.248.892.674.674,0,0,1-.319.079.647.647,0,0,1-.566-.326m53.553.189h.007a.659.659,0,0,1-.247-.892.65.65,0,0,1,.884-.248.65.65,0,0,1-.319,1.217.726.726,0,0,1-.326-.078M62.337,54.7a.653.653,0,1,1,.866.326.689.689,0,0,1-.274.059.654.654,0,0,1-.592-.384m44.6.274a.65.65,0,1,1,.866-.326.663.663,0,0,1-.6.384.685.685,0,0,1-.267-.059M67.024,52.784a.654.654,0,1,1,.834.4.608.608,0,0,1-.215.039.655.655,0,0,1-.619-.442m35.261.365a.655.655,0,1,1,.209.032.563.563,0,0,1-.209-.032M71.873,51.313a.658.658,0,0,1,.488-.781.649.649,0,1,1,.3,1.262.593.593,0,0,1-.15.02.666.666,0,0,1-.638-.5m25.6.455h.007a.651.651,0,1,1,.293-1.269h.006a.654.654,0,0,1-.15,1.289.641.641,0,0,1-.156-.02M76.84,50.31a.657.657,0,0,1,.552-.736.651.651,0,1,1,.183,1.289.422.422,0,0,1-.091.006.651.651,0,0,1-.644-.559m15.713.533h0A.641.641,0,0,1,92,50.114a.651.651,0,0,1,.729-.559h.006a.663.663,0,0,1,.554.736.652.652,0,0,1-.645.56.348.348,0,0,1-.092-.008M81.878,49.777a.658.658,0,0,1,.625-.684H82.5a.655.655,0,0,1,.684.619.646.646,0,0,1-.619.683h-.032a.656.656,0,0,1-.651-.618m5.689.611a.643.643,0,0,1-.618-.676.648.648,0,1,1,1.3.058.646.646,0,0,1-.644.618Z" transform="translate(-7.176 -11.576)"/>
        <path id="Trazado_873111" data-name="Trazado 873111" d="M86.182,153.682a.735.735,0,0,1,.737-.735h.1a.732.732,0,1,1,.007,1.464h-.11a.734.734,0,0,1-.737-.729m-4.374.462a.729.729,0,0,1,.151-1.451.731.731,0,0,1-.072,1.458.308.308,0,0,1-.079-.007m9.517-.657a.738.738,0,0,1,.651-.808.734.734,0,0,1,.157,1.459h-.079a.733.733,0,0,1-.729-.651m-14.567-.131a.741.741,0,1,1,.149.014,1.1,1.1,0,0,1-.149-.014m19.561-.585a.726.726,0,0,1,.559-.872.732.732,0,1,1,.306,1.431.6.6,0,0,1-.15.02.73.73,0,0,1-.716-.579m-24.508-.735h0a.739.739,0,0,1-.469-.925.732.732,0,1,1,.7.957.93.93,0,0,1-.228-.032m29.389-.5a.733.733,0,1,1,.925.468.863.863,0,0,1-.228.034.741.741,0,0,1-.7-.5M67.032,150.2a.731.731,0,1,1,.3.065.829.829,0,0,1-.3-.065m38.9-.41a.733.733,0,1,1,.964.364.689.689,0,0,1-.3.066.726.726,0,0,1-.664-.429m-43.457-1.914v-.006a.731.731,0,1,1,1-.267.732.732,0,0,1-1,.274m47.974-.319a.731.731,0,1,1,1.263-.735.725.725,0,0,1-.261,1,.71.71,0,0,1-.371.1.727.727,0,0,1-.631-.365m-52.263-2.473a.737.737,0,0,1-.163-1.022.732.732,0,1,1,.592,1.158.75.75,0,0,1-.429-.137m56.521-.222a.734.734,0,0,1,1.185-.866.731.731,0,0,1-.592,1.165.731.731,0,0,1-.593-.3m-60.5-3a.727.727,0,1,1,.488.189.753.753,0,0,1-.488-.189m64.455-.117a.733.733,0,1,1,1.035.052.758.758,0,0,1-.494.189.742.742,0,0,1-.541-.241m-68.068-3.5a.728.728,0,1,1,1.028.059.719.719,0,0,1-.488.182.708.708,0,0,1-.54-.241m71.681-.02a.732.732,0,1,1,.488.19.7.7,0,0,1-.488-.19m-74.911-3.951a.734.734,0,1,1,1.022.163.739.739,0,0,1-1.022-.163m78.133.078a.734.734,0,0,1-.163-1.022.734.734,0,1,1,.592,1.165.708.708,0,0,1-.429-.144m-80.918-4.368a.719.719,0,0,1,.267-.995.729.729,0,0,1,.729,1.262.666.666,0,0,1-.365.1.718.718,0,0,1-.631-.365m83.724.183a.736.736,0,1,1,.371.1.74.74,0,0,1-.371-.1m-86.054-4.739v.007a.734.734,0,1,1,.969.371.813.813,0,0,1-.3.059.735.735,0,0,1-.669-.436m88.41.28a.733.733,0,0,1,.593-1.341.735.735,0,0,1-.3,1.406.8.8,0,0,1-.293-.065m-90.246-5.051h0a.726.726,0,1,1,.7.507.735.735,0,0,1-.7-.507m92.114.371a.732.732,0,0,1,.449-1.392.726.726,0,0,1,.475.918.737.737,0,0,1-.7.507.673.673,0,0,1-.228-.033m-93.436-5.312a.732.732,0,1,1,1.432-.306.728.728,0,0,1-.566.866.636.636,0,0,1-.15.02.731.731,0,0,1-.716-.58m94.8.462a.735.735,0,1,1,.866-.572h.007a.75.75,0,0,1-.723.586,1.212,1.212,0,0,1-.15-.014m-95.6-5.52h0a.733.733,0,1,1,.807.651.334.334,0,0,1-.078.006.732.732,0,0,1-.729-.657m96.456.547a.731.731,0,0,1-.657-.8.733.733,0,1,1,1.458.15.734.734,0,0,1-.729.657.311.311,0,0,1-.072-.006m-96.723-5.65a.732.732,0,1,1,.736.729.735.735,0,0,1-.736-.729m96.313-.111a.732.732,0,1,1,.736.736.74.74,0,0,1-.736-.736m-94.848.1h0v0Zm-.547-4.3a.73.73,0,1,1,.15-1.452.723.723,0,0,1,.651.8.732.732,0,0,1-.722.657.346.346,0,0,1-.079-.006m95.134-.755a.733.733,0,0,1,.651-.808.733.733,0,1,1,.157,1.458.3.3,0,0,1-.079.007.734.734,0,0,1-.729-.657M39.647,96.256a.732.732,0,1,1,.3-1.432.73.73,0,0,1-.15,1.444,1.251,1.251,0,0,1-.15-.012m93.651-.671h0a.734.734,0,0,1,.565-.866.732.732,0,0,1,.306,1.432,1.194,1.194,0,0,1-.157.014.734.734,0,0,1-.715-.58M40.871,91.368a.735.735,0,0,1,.449-1.4.732.732,0,0,1,.469.925.725.725,0,0,1-.7.507.876.876,0,0,1-.221-.032m91.138-.573a.732.732,0,1,1,.924.468.677.677,0,0,1-.228.039.745.745,0,0,1-.7-.507M42.6,86.629a.729.729,0,0,1-.371-.963v-.007a.731.731,0,1,1,1.334.6.721.721,0,0,1-.663.436.683.683,0,0,1-.3-.065m87.623-.462a.731.731,0,1,1,.97.364.708.708,0,0,1-.3.066.742.742,0,0,1-.67-.429M44.822,82.1a.737.737,0,1,1,.365.1.742.742,0,0,1-.365-.1m83.138-.358a.734.734,0,1,1,1,.267.684.684,0,0,1-.365.1.736.736,0,0,1-.637-.365M47.5,77.835a.732.732,0,1,1,1.022-.163.724.724,0,0,1-1.022.163m77.749-.241h0a.731.731,0,0,1,1.178-.866.737.737,0,0,1-.155,1.029.752.752,0,0,1-.43.137.73.73,0,0,1-.592-.3M50.615,73.871a.733.733,0,1,1,1.035-.059v.007a.735.735,0,0,1-1.035.052m71.505-.13a.735.735,0,1,1,.54.241.722.722,0,0,1-.54-.241m-68-3.49a.733.733,0,1,1,1.035.053.757.757,0,0,1-.5.189.743.743,0,0,1-.54-.241m64.483-.012a.726.726,0,1,1,.488.189.732.732,0,0,1-.488-.189M57.984,67.016a.734.734,0,1,1,1.029.157h-.007a.712.712,0,0,1-.429.143.738.738,0,0,1-.592-.3m56.762.1a.723.723,0,0,1-.163-1.022.732.732,0,1,1,1.184.859.72.72,0,0,1-.593.306.707.707,0,0,1-.429-.143M62.169,64.2a.731.731,0,1,1,1,.267.752.752,0,0,1-.365.1.718.718,0,0,1-.631-.364m48.41.215h0a.733.733,0,0,1,.735-1.269.733.733,0,0,1-.371,1.367.748.748,0,0,1-.365-.1M66.615,61.835a.734.734,0,1,1,.97.371.722.722,0,0,1-.3.064.738.738,0,0,1-.671-.436m39.545.326a.723.723,0,1,1,.293.065.657.657,0,0,1-.293-.065M71.3,59.954a.73.73,0,1,1,.917.468.853.853,0,0,1-.227.033.723.723,0,0,1-.69-.5m30.223.436h.006a.732.732,0,1,1,.918-.475.724.724,0,0,1-.7.507.713.713,0,0,1-.228-.032M76.138,58.573a.732.732,0,1,1,.872.559H77a.528.528,0,0,1-.149.02.737.737,0,0,1-.717-.579m20.589.54a.746.746,0,1,1,.15.013,1.022,1.022,0,0,1-.15-.013M81.1,57.708a.732.732,0,0,1,.651-.807.733.733,0,1,1,.15,1.458c-.026,0-.052.006-.078.006a.732.732,0,0,1-.723-.657m10.714.638h0a.729.729,0,1,1,.151-1.451.73.73,0,0,1-.072,1.457.339.339,0,0,1-.079-.006m-5.689-.977a.729.729,0,0,1,.728-.735h.007a.732.732,0,1,1-.735.735" transform="translate(-8.967 -13.356)"/>
        <path id="Trazado_873112" data-name="Trazado 873112" d="M88.786,150.4a.212.212,0,0,1-.065.007.814.814,0,0,1,0-1.628h.123a.814.814,0,0,1,.007,1.628.189.189,0,0,1-.065-.007m-5.156-.293a.8.8,0,1,1,.091.007.409.409,0,0,1-.091-.007m9.4-.723a.816.816,0,1,1,.912.711c-.032,0-.065.006-.1.006a.821.821,0,0,1-.814-.717m-14.424-.175v.006a.827.827,0,1,1,.195.02.677.677,0,0,1-.195-.026m19.371-.625a.807.807,0,0,1,.593-.983h.006a.814.814,0,0,1,.384,1.581,1,1,0,0,1-.2.021.812.812,0,0,1-.788-.619m-24.253-.859a.816.816,0,0,1,.565-1.53.815.815,0,0,1,.482,1.048.826.826,0,0,1-.762.535.877.877,0,0,1-.286-.053m29.064-.52a.814.814,0,1,1,1.048.475.934.934,0,0,1-.287.051.808.808,0,0,1-.762-.527m-33.731-1.544a.8.8,0,0,1-.352-1.094.819.819,0,0,1,1.094-.351.814.814,0,0,1-.371,1.537.755.755,0,0,1-.371-.092m38.339-.4a.825.825,0,0,1,.352-1.1.817.817,0,0,1,.749,1.451.843.843,0,0,1-.371.092.824.824,0,0,1-.729-.443m-42.733-2.193a.813.813,0,0,1,.911-1.347.821.821,0,0,1,.221,1.132.836.836,0,0,1-.677.358.8.8,0,0,1-.455-.143m47.082-.28a.815.815,0,1,1,1.133.215.789.789,0,0,1-.455.136.822.822,0,0,1-.677-.352m-51.131-2.818v.005a.81.81,0,1,1,.527.2.779.779,0,0,1-.527-.2m55.16-.157a.807.807,0,0,1,.078-1.146.812.812,0,1,1,1.068,1.223v.008a.836.836,0,0,1-.533.194.81.81,0,0,1-.612-.279M56.948,136.42h0A.82.82,0,0,1,57,135.269a.811.811,0,1,1-.052,1.152m62.471-.038a.813.813,0,1,1,1.152-.053.825.825,0,0,1-.605.267.809.809,0,0,1-.547-.215m-65.685-3.919h0a.814.814,0,1,1,1.32-.951.813.813,0,0,1-.189,1.133.8.8,0,0,1-.468.154.811.811,0,0,1-.663-.337m68.908.09a.814.814,0,1,1,1.139-.189h-.006a.814.814,0,0,1-.664.339.831.831,0,0,1-.468-.15M51,128.154a.808.808,0,0,1,.319-1.107.814.814,0,1,1,.787,1.426.85.85,0,0,1-.39.1.82.82,0,0,1-.716-.416m74.383.215a.811.811,0,0,1-.319-1.107.812.812,0,0,1,1.425.78.811.811,0,0,1-.715.424.85.85,0,0,1-.391-.1M48.8,123.552h0a.815.815,0,1,1,.755.508.815.815,0,0,1-.755-.508m78.815.332a.814.814,0,1,1,1.061-.449.826.826,0,0,1-.756.508.812.812,0,0,1-.306-.06m-80.449-5.161h0a.819.819,0,0,1,.573-1,.812.812,0,0,1,.423,1.569.77.77,0,0,1-.215.032.812.812,0,0,1-.781-.6m82.135.443a.812.812,0,0,1,.423-1.569.815.815,0,0,1-.215,1.6.872.872,0,0,1-.209-.032m-83.184-5.436h0a.813.813,0,1,1,.925.684.683.683,0,0,1-.123.013.812.812,0,0,1-.8-.7m84.291.559a.821.821,0,1,1,.117.008.6.6,0,0,1-.117-.008m-84.746-5.637a.82.82,0,0,1,.794-.84.814.814,0,0,1,.046,1.628h-.026a.823.823,0,0,1-.814-.788m85.267.657a.814.814,0,1,1,.84-.795.819.819,0,0,1-.814.795Zm-84.381-4.875a.857.857,0,1,1,.071,0Zm83.437-.865a.814.814,0,1,1,.885.736c-.026,0-.052.006-.072.006a.815.815,0,0,1-.813-.742m-82.8-4.1a.814.814,0,1,1,.332-1.594.816.816,0,0,1-.163,1.614.712.712,0,0,1-.17-.02m82.071-.755h0a.815.815,0,1,1,.964.631.721.721,0,0,1-.17.013.807.807,0,0,1-.794-.644m-80.854-4.1a.814.814,0,1,1,1.029-.514.808.808,0,0,1-.768.554.886.886,0,0,1-.261-.041m79.551-.63h0a.814.814,0,1,1,1.035.508.736.736,0,0,1-.26.045.823.823,0,0,1-.775-.553M50.2,89.931a.813.813,0,1,1,.352.078.744.744,0,0,1-.352-.078m75.906-.494a.815.815,0,0,1,1.47-.7.823.823,0,0,1-.384,1.087.85.85,0,0,1-.352.079.814.814,0,0,1-.735-.462M52.528,85.5a.816.816,0,1,1,1.12-.254h.007a.825.825,0,0,1-1.126.254m71.2-.358h0a.811.811,0,1,1,1.367-.872h.007a.812.812,0,0,1-.691,1.249.8.8,0,0,1-.683-.378M55.367,81.378a.814.814,0,1,1,1.145-.117.825.825,0,0,1-.63.3.8.8,0,0,1-.514-.183m65.484-.208a.822.822,0,0,1,.118-1.146A.814.814,0,1,1,122,81.287a.8.8,0,0,1-.514.183.826.826,0,0,1-.631-.3M58.673,77.622a.82.82,0,0,1,.012-1.152h.007a.812.812,0,0,1,1.132,1.165.823.823,0,0,1-1.152-.013m58.858-.065h0a.817.817,0,1,1,.566.228.826.826,0,0,1-.566-.228M62.4,74.276a.81.81,0,1,1,.645.319.818.818,0,0,1-.645-.319m51.411.078a.815.815,0,1,1,1.139-.156.791.791,0,0,1-.645.326.824.824,0,0,1-.494-.17M66.485,71.392a.814.814,0,1,1,.7.4.814.814,0,0,1-.7-.4m43.248.221h0a.812.812,0,0,1,.827-1.4.812.812,0,1,1-.827,1.4m-38.841-2.6a.812.812,0,1,1,1.068.417.827.827,0,0,1-.326.071.806.806,0,0,1-.743-.488m34.473.365h0a.811.811,0,1,1,1.074-.417.809.809,0,0,1-1.074.417m-29.819-2.2a.814.814,0,0,1,1.555-.482.823.823,0,0,1-.54,1.022,1.042,1.042,0,0,1-.241.032.815.815,0,0,1-.774-.572m25.21.5a.823.823,0,1,1,.241.033,1.053,1.053,0,0,1-.241-.033M80.382,65.9a.813.813,0,1,1,.95.657,1.089,1.089,0,0,1-.149.013.815.815,0,0,1-.8-.67m15.6.637a.851.851,0,1,1,.144.007,1.048,1.048,0,0,1-.144-.007M85.342,65.208a.81.81,0,0,1,.761-.859.815.815,0,1,1,.1,1.627h-.046a.813.813,0,0,1-.813-.768m5.767.755a.812.812,0,0,1,.1-1.621H91.2a.814.814,0,0,1-.046,1.627.131.131,0,0,1-.045-.006" transform="translate(-10.769 -15.173)"/>
        <path id="Trazado_873113" data-name="Trazado 873113" d="M90.607,146.358a.28.28,0,0,1-.071.006.9.9,0,1,1,0-1.79h.137a.889.889,0,0,1,.9.886.9.9,0,0,1-.892.9.286.286,0,0,1-.072-.006m-5.142-.339h0a.893.893,0,1,1,.241-1.77.892.892,0,0,1-.117,1.777.785.785,0,0,1-.124-.007m9.269-.78A.9.9,0,1,1,95.75,146h-.006a.722.722,0,0,1-.125.007.9.9,0,0,1-.885-.768m-14.243-.248a.9.9,0,0,1-.625-1.1.9.9,0,1,1,.866,1.133.77.77,0,0,1-.241-.034m19.118-.657a.9.9,0,1,1,1.107.619.768.768,0,0,1-.241.032.9.9,0,0,1-.866-.651M75.7,143.292a.9.9,0,1,1,.709-1.648v.007a.9.9,0,0,1,.469,1.178.912.912,0,0,1-.827.533.95.95,0,0,1-.352-.071m28.621-.521a.895.895,0,1,1,1.178.462.907.907,0,0,1-1.178-.462m-33.139-1.823a.9.9,0,0,1-.293-1.23.89.89,0,1,1,.293,1.23m37.585-.365a.894.894,0,1,1,1.23.293.865.865,0,0,1-.468.131.893.893,0,0,1-.762-.423m-41.732-2.571h0a.893.893,0,1,1,1.126-1.386h.006a.9.9,0,0,1,.124,1.263.888.888,0,0,1-.69.326.876.876,0,0,1-.566-.2m45.839-.209a.9.9,0,1,1,.7.332.9.9,0,0,1-.7-.332M63.32,134.549a.9.9,0,1,1,.657.28.895.895,0,0,1-.657-.28m53.254-.051a.894.894,0,1,1,1.262-.046.9.9,0,0,1-.657.286.871.871,0,0,1-.605-.24m-56.463-3.887a.9.9,0,1,1,.729.378.9.9,0,0,1-.729-.378m59.677.1a.892.892,0,1,1,1.243-.215.893.893,0,0,1-1.243.215m-62.321-4.439h0a.9.9,0,1,1,1.589-.827.891.891,0,0,1-.384,1.2.848.848,0,0,1-.41.1.89.89,0,0,1-.795-.481m64.99.261a.894.894,0,1,1,1.21-.384.906.906,0,0,1-.8.482.938.938,0,0,1-.41-.1m-67.021-4.921h0a.895.895,0,1,1,1.146.54.83.83,0,0,1-.306.053.9.9,0,0,1-.84-.592m69.1.416a.889.889,0,1,1,.293.052.951.951,0,0,1-.293-.052M54.064,116.72a.893.893,0,1,1,1.061.7,1,1,0,0,1-.189.019.9.9,0,0,1-.873-.716m71.916.56a.888.888,0,1,1,.176.019.814.814,0,0,1-.176-.019m-72.606-5.591a.9.9,0,0,1,1.79-.124h-.006a.891.891,0,0,1-.826.957h-.066a.891.891,0,0,1-.892-.833m73.381.689a.825.825,0,1,1,.058.007c-.019,0-.038-.007-.058-.007m-72.547-4.817a.824.824,0,1,1,.058.007c-.019,0-.039-.007-.058-.007m71.694-.97a.9.9,0,1,1,.957.827.211.211,0,0,1-.065.006.9.9,0,0,1-.892-.833m-71.154-3.958a.9.9,0,0,1-.7-1.055v-.006a.894.894,0,1,1,.873,1.08.8.8,0,0,1-.176-.019m70.49-.834a.9.9,0,1,1,1.061.69.92.92,0,0,1-.183.02.9.9,0,0,1-.879-.71M55.958,97.817a.895.895,0,1,1,.6-1.686.9.9,0,0,1,.546,1.145.9.9,0,0,1-.846.592.794.794,0,0,1-.3-.052m67.965-.67h0a.9.9,0,1,1,1.145.54.812.812,0,0,1-.3.052.9.9,0,0,1-.846-.592m-66.1-3.932a.894.894,0,1,1,1.2-.384v.007a.889.889,0,0,1-.794.481.845.845,0,0,1-.41-.1m64.163-.494v-.006a.894.894,0,0,1,.378-1.2.9.9,0,1,1,.834,1.588.969.969,0,0,1-.417.1.9.9,0,0,1-.794-.476M60.294,88.913a.877.877,0,1,1,.514.169.9.9,0,0,1-.514-.169m59.163-.319a.894.894,0,1,1,1.25.215.912.912,0,0,1-.521.163.89.89,0,0,1-.729-.378M63.326,84.987a.894.894,0,1,1,1.263-.046.9.9,0,0,1-.657.287.875.875,0,0,1-.606-.241m53.065-.137a.9.9,0,1,1,1.269.039.908.908,0,0,1-.612.248.9.9,0,0,1-.657-.287m-49.53-3.339a.9.9,0,1,1,.7.326.9.9,0,0,1-.7-.326m45.989.046h0a.9.9,0,1,1,1.256-.13.9.9,0,0,1-.7.332.871.871,0,0,1-.56-.2M70.832,78.543a.9.9,0,1,1,1.23.3.918.918,0,0,1-.462.13.9.9,0,0,1-.768-.429m38.06.228a.891.891,0,0,1-.3-1.23.9.9,0,1,1,1.53.93.89.89,0,0,1-.769.43.863.863,0,0,1-.462-.131M75.174,76.147a.9.9,0,1,1,1.178.462.973.973,0,0,1-.358.072.9.9,0,0,1-.82-.534m29.422.4h0a.9.9,0,1,1,.352.072.821.821,0,0,1-.352-.072M79.8,74.357a.887.887,0,0,1,.619-1.1.9.9,0,1,1,.481,1.725l.008-.006a.825.825,0,0,1-.248.039.9.9,0,0,1-.859-.657m20.232.586a.894.894,0,1,1,.234.032.985.985,0,0,1-.234-.032m-15.4-1.719a.893.893,0,1,1,1.009.769.837.837,0,0,1-.123.006.891.891,0,0,1-.886-.775m10.663.749a.906.906,0,1,1,.117.006.745.745,0,0,1-.117-.006m-4.83-.319a.9.9,0,1,1,.892-.893.9.9,0,0,1-.892.893" transform="translate(-12.585 -16.947)"/>
        <path id="Trazado_873114" data-name="Trazado 873114" d="M91.363,141.365a.976.976,0,0,1,.977-.977h.051c.026,0,.052-.006.072-.006a.985.985,0,0,1,.983.977.975.975,0,0,1-.977.976h-.129v.007a.979.979,0,0,1-.977-.977m-4.192.547h0a.974.974,0,0,1-.808-1.12.977.977,0,1,1,.97,1.139.7.7,0,0,1-.163-.019m9.341-.821a.977.977,0,1,1,1.126.8.728.728,0,0,1-.163.012.977.977,0,0,1-.964-.814m-14.373-.442a.981.981,0,0,1-.605-1.243.977.977,0,0,1,1.849.632.989.989,0,0,1-.924.664,1.079,1.079,0,0,1-.319-.053m19.281-.65a.978.978,0,1,1,1.243.605,1.078,1.078,0,0,1-.319.052.984.984,0,0,1-.924-.657M77.387,138.56h0a.978.978,0,1,1,.462.117.978.978,0,0,1-.462-.117m28.693-.449a.979.979,0,1,1,.86.508.98.98,0,0,1-.86-.508m-33.035-2.389a.976.976,0,0,1,1.2-1.542.973.973,0,0,1-.6,1.744.966.966,0,0,1-.6-.2m37.318-.248a.976.976,0,1,1,1.367.17.983.983,0,0,1-.6.208.97.97,0,0,1-.768-.378m-41.139-3.267a.986.986,0,1,1,.723.312.977.977,0,0,1-.723-.312m44.934-.033a.974.974,0,1,1,1.38-.059h-.006a.974.974,0,0,1-.717.319.947.947,0,0,1-.657-.26m-48.123-4.055a.977.977,0,1,1,1.353.28.966.966,0,0,1-.533.163.979.979,0,0,1-.82-.442m51.326.176a.974.974,0,0,1,1.061-1.634.977.977,0,0,1-.533,1.8.931.931,0,0,1-.528-.163m-53.8-4.733a.974.974,0,1,1,1.288.5,1.081,1.081,0,0,1-.4.078.976.976,0,0,1-.891-.579m56.325.384a.964.964,0,1,1,.384.084,1,1,0,0,1-.384-.084m-58.012-5.293a.974.974,0,0,1,1.888-.481.978.978,0,0,1-.7,1.191,1.021,1.021,0,0,1-.241.026.973.973,0,0,1-.944-.736m59.783.579a.971.971,0,0,1-.717-1.178v-.006a.976.976,0,1,1,.951,1.217.945.945,0,0,1-.234-.034m-60.636-5.7a.973.973,0,1,1,1.048.892c-.026,0-.052.007-.078.007a.978.978,0,0,1-.97-.9m61.6.762a.934.934,0,1,1,.072.006c-.02,0-.046-.006-.072-.006m-60.713-4.9a.976.976,0,1,1,1.054-.892v-.006a.977.977,0,0,1-.976.9Zm59.8-1.022a.977.977,0,1,1,1.061.893h-.085a.983.983,0,0,1-.976-.893m-59.138-3.964a.963.963,0,1,1,.234.032.957.957,0,0,1-.234-.032m58.33-.833h0a.977.977,0,1,1,1.191.7.789.789,0,0,1-.247.034.974.974,0,0,1-.945-.736M64.036,99.608a.991.991,0,1,1,.39.079,1.035,1.035,0,0,1-.39-.079m55.265-.618h0a.978.978,0,1,1,1.288.5,1.044,1.044,0,0,1-.391.078.979.979,0,0,1-.9-.579M66.289,95.1a.964.964,0,1,1,.533.163.932.932,0,0,1-.533-.163m50.682-.384a.978.978,0,1,1,1.354.28.95.95,0,0,1-.534.163.982.982,0,0,1-.82-.442M69.244,91.041a.977.977,0,0,1-.059-1.38.975.975,0,0,1,1.439,1.315.949.949,0,0,1-.716.319.985.985,0,0,1-.664-.254m44.726-.149h0a.979.979,0,1,1,1.38.051.959.959,0,0,1-.664.261.98.98,0,0,1-.716-.312M72.83,87.507a.974.974,0,1,1,1.367.169.942.942,0,0,1-.6.209.961.961,0,0,1-.769-.377m37.553.1a.976.976,0,1,1,1.373-.175.964.964,0,0,1-.774.378.978.978,0,0,1-.6-.2M76.938,84.617a.977.977,0,1,1,1.327.39,1.022,1.022,0,0,1-.469.117.973.973,0,0,1-.858-.507m29.37.332a.976.976,0,1,1,1.32-.4.983.983,0,0,1-.866.514.951.951,0,0,1-.455-.118m-24.84-2.506a.978.978,0,1,1,1.243.6.9.9,0,0,1-.319.059.984.984,0,0,1-.925-.657m20.374.56h0a.983.983,0,1,1,.319.052.928.928,0,0,1-.319-.052M86.3,81.043a.974.974,0,1,1,1.12.8,1.2,1.2,0,0,1-.163.013.97.97,0,0,1-.957-.814m10.818.781h.007a.967.967,0,1,1,.156.014,1.416,1.416,0,0,1-.163-.014m-4.849-.384a.977.977,0,1,1,.977-.983.975.975,0,0,1-.977.983" transform="translate(-14.388 -18.745)"/>
        <path id="Trazado_873115" data-name="Trazado 873115" d="M93.042,137.258A1.062,1.062,0,0,1,94.1,136.2v.006h.032a.257.257,0,0,1,.065-.006,1.058,1.058,0,1,1,.006,2.115h-.1a1.057,1.057,0,0,1-1.062-1.055m-3.932.573a1.059,1.059,0,1,1,.209.02,1.211,1.211,0,0,1-.209-.02m8.847-.854a1.056,1.056,0,1,1,1.243.828.815.815,0,0,1-.208.026,1.058,1.058,0,0,1-1.035-.854m-13.65-.605a1.042,1.042,0,1,1,.4.085.976.976,0,0,1-.4-.085m18.3-.6a1.059,1.059,0,1,1,1.387.566,1.158,1.158,0,0,1-.41.084,1.067,1.067,0,0,1-.977-.65m-22.73-1.758h0a1.064,1.064,0,0,1-.287-1.471,1.058,1.058,0,1,1,.879,1.647,1.087,1.087,0,0,1-.592-.176m27.059-.345a1.06,1.06,0,1,1,1.471.28,1.045,1.045,0,0,1-.592.182,1.07,1.07,0,0,1-.879-.462m-30.933-2.838h0a1.06,1.06,0,1,1,.749.306,1.059,1.059,0,0,1-.749-.306m34.773-.072a1.063,1.063,0,1,1,.743.306,1.06,1.06,0,0,1-.743-.306m-37.962-3.807h0a1.058,1.058,0,1,1,1.471.292,1.1,1.1,0,0,1-.592.177,1.052,1.052,0,0,1-.879-.468m41.165.208a1.055,1.055,0,1,1,.579.176,1.054,1.054,0,0,1-.579-.176m-43.535-4.628a1.058,1.058,0,0,1,1.952-.814v.006a1.059,1.059,0,0,1-.572,1.38,1.117,1.117,0,0,1-.4.079,1.06,1.06,0,0,1-.977-.651m45.969.475a1.056,1.056,0,1,1,1.38-.572h.007a1.065,1.065,0,0,1-.983.657,1.019,1.019,0,0,1-.4-.085m-47.434-5.272v-.007a1.059,1.059,0,0,1,2.077-.41,1.05,1.05,0,0,1-.827,1.243,1.117,1.117,0,0,1-.208.02,1.065,1.065,0,0,1-1.042-.846m49.016.722a1.019,1.019,0,1,1,.2.026.73.73,0,0,1-.2-.026m-49.5-5.715a1.058,1.058,0,1,1,1.062,1.055,1.056,1.056,0,0,1-1.062-1.055m49.1-.1a1.05,1.05,0,0,1,1.055-1.061,1.058,1.058,0,1,1-1.055,1.061M69.81,108.982a1.027,1.027,0,1,1,.209.026.751.751,0,0,1-.209-.026m47.324-.931a1.055,1.055,0,1,1,2.069-.416h.007a1.071,1.071,0,0,1-.833,1.25,1.21,1.21,0,0,1-.209.019,1.05,1.05,0,0,1-1.035-.853M71,104.321a1.058,1.058,0,0,1-.579-1.379A1.059,1.059,0,1,1,71.4,104.4a1.083,1.083,0,0,1-.4-.078m44.784-.664a1.059,1.059,0,0,1,1.953-.82,1.056,1.056,0,0,1-.977,1.465,1.053,1.053,0,0,1-.977-.645M73.078,99.979a1.068,1.068,0,1,1,.586.177,1.071,1.071,0,0,1-.586-.177M113.6,99.6h.007a1.051,1.051,0,1,1-.007,0m-37.63-3.476a1.059,1.059,0,1,1,1.5,0,1.081,1.081,0,0,1-.749.306,1.04,1.04,0,0,1-.748-.306m34.7-.071a1.062,1.062,0,1,1,.749.306,1.071,1.071,0,0,1-.749-.306M79.549,92.91a1.065,1.065,0,0,1,.286-1.472h.007A1.058,1.058,0,0,1,81.02,93.2a1.1,1.1,0,0,1-.593.177,1.069,1.069,0,0,1-.878-.462m27.554.228a1.056,1.056,0,1,1,1.471-.293,1.069,1.069,0,0,1-.886.475,1.085,1.085,0,0,1-.585-.182M83.688,90.443a1.058,1.058,0,0,1,1.953-.814,1.066,1.066,0,0,1-.573,1.386,1.086,1.086,0,0,1-.4.078,1.05,1.05,0,0,1-.977-.65m19.353.533a1.061,1.061,0,1,1,.4.079,1.071,1.071,0,0,1-.4-.079M88.225,88.842a1.064,1.064,0,0,1,.834-1.243,1.058,1.058,0,1,1,.41,2.076,1.06,1.06,0,0,1-1.243-.833m10.409.814a1.063,1.063,0,0,1-.833-1.243,1.048,1.048,0,0,1,1.236-.834h.007a1.058,1.058,0,0,1-.2,2.1,1.125,1.125,0,0,1-.208-.019m-5.643-1.5a1.058,1.058,0,1,1,1.061,1.061,1.057,1.057,0,0,1-1.061-1.061" transform="translate(-16.153 -20.541)"/>
        <path id="Trazado_873116" data-name="Trazado 873116" d="M94.761,133.15a1.14,1.14,0,0,1,1.139-1.139h.071a1.139,1.139,0,0,1,.007,2.278H95.9a1.136,1.136,0,0,1-1.139-1.139m-3.977.468a1.135,1.135,0,1,1,.293.039,1.133,1.133,0,0,1-.293-.039m8.911-.82a1.139,1.139,0,1,1,1.4.8,1.216,1.216,0,0,1-.3.039,1.14,1.14,0,0,1-1.1-.84m-13.683-1.152h0a1.139,1.139,0,1,1,1.555-.416,1.148,1.148,0,0,1-.989.566,1.1,1.1,0,0,1-.566-.15M104.3,131.2a1.16,1.16,0,1,1,.99.56,1.151,1.151,0,0,1-.99-.56M81.918,128.5a1.139,1.139,0,0,1,1.608-1.615,1.139,1.139,0,0,1-.807,1.946,1.124,1.124,0,0,1-.8-.332m26.408-.052a1.14,1.14,0,1,1,.8.332,1.139,1.139,0,0,1-.8-.332m-29.559-4.042h0a1.139,1.139,0,1,1,1.556.416,1.154,1.154,0,0,1-.573.157,1.137,1.137,0,0,1-.983-.573m32.749.358a1.14,1.14,0,1,1,1.556-.423,1.154,1.154,0,0,1-.99.574,1.169,1.169,0,0,1-.566-.151m-34.728-5.123a1.139,1.139,0,1,1,1.393.8,1.141,1.141,0,0,1-1.393-.8m36.85.73a1.139,1.139,0,1,1,.293.038,1.132,1.132,0,0,1-.293-.038M76.112,114.52a1.139,1.139,0,1,1,1.139,1.139,1.14,1.14,0,0,1-1.139-1.139m37.3-.072h0a1.139,1.139,0,0,1,2.278-.007,1.151,1.151,0,0,1-1.139,1.146,1.136,1.136,0,0,1-1.139-1.139M77.582,110.8a1.136,1.136,0,1,1,.3.039,1.194,1.194,0,0,1-.3-.039m35.223-.872h0a1.137,1.137,0,1,1,1.392.8,1.1,1.1,0,0,1-.293.04,1.133,1.133,0,0,1-1.1-.84m-33.641-3.737a1.145,1.145,0,1,1,.565.151,1.127,1.127,0,0,1-.565-.151m31.876-.481h0a1.141,1.141,0,1,1,1.556.417,1.128,1.128,0,0,1-.566.149,1.142,1.142,0,0,1-.99-.566m-29.149-3.56a1.139,1.139,0,1,1,1.607-.007,1.117,1.117,0,0,1-.806.339,1.135,1.135,0,0,1-.8-.332m26.356-.053a1.138,1.138,0,1,1,.807.332,1.14,1.14,0,0,1-.807-.332M85.563,98.936a1.139,1.139,0,1,1,1.556.416,1.128,1.128,0,0,1-.573.157,1.145,1.145,0,0,1-.983-.573m19.053.384a1.142,1.142,0,0,1,1.139-1.979,1.141,1.141,0,0,1-.572,2.128,1.215,1.215,0,0,1-.566-.149M89.937,96.8a1.139,1.139,0,1,1,1.4.8,1.219,1.219,0,0,1-.3.04,1.14,1.14,0,0,1-1.1-.84m10.461.781h0a1.136,1.136,0,1,1,.287.039,1.05,1.05,0,0,1-.287-.039m-5.676-1.719A1.139,1.139,0,1,1,95.867,97a1.141,1.141,0,0,1-1.146-1.139" transform="translate(-17.949 -22.337)"/>
        <path id="Trazado_873117" data-name="Trazado 873117" d="M97.722,130.265H97.7a1.22,1.22,0,1,1,0-2.441h.045a1.22,1.22,0,0,1,.014,2.441Zm-5.37-1.061a1.22,1.22,0,1,1,1.594-.657,1.226,1.226,0,0,1-1.126.755,1.171,1.171,0,0,1-.468-.1m9.139-.67a1.221,1.221,0,1,1,1.6.651,1.247,1.247,0,0,1-.475.1,1.229,1.229,0,0,1-1.126-.748m-13.67-2.356a1.227,1.227,0,1,1,.866.358,1.224,1.224,0,0,1-.866-.358m18.057-.033a1.22,1.22,0,1,1,1.726-.007,1.209,1.209,0,0,1-.866.358,1.224,1.224,0,0,1-.86-.352m-21.084-4.492a1.206,1.206,0,1,1,1.126.756,1.217,1.217,0,0,1-1.126-.756m24.234.612a1.218,1.218,0,1,1,.462.091,1.151,1.151,0,0,1-.462-.091m-25.3-5.95a1.221,1.221,0,1,1,1.224,1.217,1.222,1.222,0,0,1-1.224-1.217m25.491-.052a1.22,1.22,0,1,1,1.23,1.217,1.221,1.221,0,0,1-1.23-1.217m-23.772-3.7a1.226,1.226,0,1,1,.468.091,1.293,1.293,0,0,1-.468-.091m22.887-.709h0a1.214,1.214,0,1,1,1.126.755,1.217,1.217,0,0,1-1.126-.755m-20.524-3.691a1.216,1.216,0,0,1-.007-1.726h.007a1.218,1.218,0,1,1,.859,2.083,1.23,1.23,0,0,1-.859-.358m18.018-.04a1.22,1.22,0,1,1,1.719-1.731,1.229,1.229,0,0,1,.006,1.731,1.243,1.243,0,0,1-.865.359,1.19,1.19,0,0,1-.86-.359M91.668,105a1.221,1.221,0,1,1,1.595.657,1.3,1.3,0,0,1-.468.092A1.221,1.221,0,0,1,91.668,105m10.415.638a1.218,1.218,0,1,1,.462.091,1.267,1.267,0,0,1-.462-.091m-5.637-2.083a1.22,1.22,0,1,1,1.224,1.217,1.221,1.221,0,0,1-1.224-1.217" transform="translate(-19.745 -24.133)"/>
        <path id="Trazado_873118" data-name="Trazado 873118" d="M99.538,126.368h-.012a1.3,1.3,0,0,1-.053-2.6h.072a1.3,1.3,0,1,1,.013,2.6h-.02Zm-5.246-1.907h0a1.3,1.3,0,0,1,1.673-1.993,1.3,1.3,0,0,1-.84,2.3,1.27,1.27,0,0,1-.833-.306m8.657-.17a1.311,1.311,0,1,1,1,.456,1.305,1.305,0,0,1-1-.456m-11.444-4.647a1.3,1.3,0,1,1,1.5,1.055,1.422,1.422,0,0,1-.228.019,1.3,1.3,0,0,1-1.275-1.074m14.541,1.029a1.3,1.3,0,1,1,1.5-1.061v-.006a1.3,1.3,0,0,1-1.282,1.087,1.432,1.432,0,0,1-.222-.019m-13.1-4.739a1.3,1.3,0,1,1,.645.177,1.277,1.277,0,0,1-.645-.177m11.372-.494h0a1.3,1.3,0,0,1,2.253-1.314v.006a1.3,1.3,0,0,1-.468,1.777,1.28,1.28,0,0,1-.657.177,1.3,1.3,0,0,1-1.127-.645m-8.364-3.2a1.3,1.3,0,1,1,1.666.776,1.324,1.324,0,0,1-.442.078,1.294,1.294,0,0,1-1.223-.854m5.455.762a1.278,1.278,0,1,1,.442.085,1.207,1.207,0,0,1-.442-.085" transform="translate(-21.574 -26.055)"/>
      </g>
    </g>
  </g>
</svg>
