<svg xmlns="http://www.w3.org/2000/svg" xmlns:xlink="http://www.w3.org/1999/xlink" width="190" height="113.217" viewBox="0 0 190 113.217">
  <defs>
    <clipPath id="clip-path">
      <rect id="Rectángulo_401107" data-name="Rectángulo 401107" width="190" height="113.217" transform="translate(-32.137)" fill="none"/>
    </clipPath>
    <clipPath id="clip-path-2">
      <rect id="Rectángulo_401103" data-name="Rectángulo 401103" width="157.863" height="113.217" transform="translate(0 0)" fill="none"/>
    </clipPath>
    <clipPath id="clip-path-3">
      <rect id="Rectángulo_401102" data-name="Rectángulo 401102" width="98.048" height="56.609" transform="translate(59.697 0)" fill="none"/>
    </clipPath>
    <clipPath id="clip-path-5">
      <rect id="Rectángulo_401104" data-name="Rectángulo 401104" width="49.024" height="84.913" transform="translate(59.697 28.304)" fill="none"/>
    </clipPath>
  </defs>
  <g id="Grupo_1099106" data-name="Grupo 1099106" transform="translate(32.137)">
    <g id="Grupo_1099105" data-name="Grupo 1099105" clip-path="url(#clip-path)">
      <path id="Trazado_873287" data-name="Trazado 873287" d="M0,0H190V56.608H0Z" transform="translate(-32.137 28.305)" fill="#d4a5ad"/>
      <path id="Trazado_873246" data-name="Trazado 873246" d="M108.721,0,59.7,28.3l49.024,28.3,49.025-28.3Z" fill="#d4a5ad"/>
      <g id="Grupo_1099097" data-name="Grupo 1099097">
        <g id="Grupo_1099096" data-name="Grupo 1099096" clip-path="url(#clip-path-2)">
          <g id="Grupo_1099095" data-name="Grupo 1099095" opacity="0.4" style="mix-blend-mode: overlay;isolation: isolate">
            <g id="Grupo_1099094" data-name="Grupo 1099094">
              <g id="Grupo_1099093" data-name="Grupo 1099093" clip-path="url(#clip-path-3)">
                <path id="Trazado_873247" data-name="Trazado 873247" d="M108.721,0,59.7,28.3l49.024,28.3,49.024-28.3Z" fill="#fff"/>
              </g>
            </g>
          </g>
        </g>
      </g>
      <path id="Trazado_873248" data-name="Trazado 873248" d="M59.7,84.913l49.024,28.3V56.609L59.7,28.3Z" fill="#d4a5ad"/>
      <g id="Grupo_1099102" data-name="Grupo 1099102">
        <g id="Grupo_1099101" data-name="Grupo 1099101" clip-path="url(#clip-path-2)">
          <g id="Grupo_1099100" data-name="Grupo 1099100" opacity="0.4" style="mix-blend-mode: overlay;isolation: isolate">
            <g id="Grupo_1099099" data-name="Grupo 1099099">
              <g id="Grupo_1099098" data-name="Grupo 1099098" clip-path="url(#clip-path-5)">
                <path id="Trazado_873249" data-name="Trazado 873249" d="M59.7,28.3V84.912l49.024,28.305V56.608Z"/>
              </g>
            </g>
          </g>
        </g>
      </g>
      <path id="Trazado_873250" data-name="Trazado 873250" d="M108.721,56.609v56.608l49.025-28.3V28.3Z" fill="#d4a5ad"/>
      <path id="Trazado_873251" data-name="Trazado 873251" d="M137.445,71.9l3.668-2.157V72.9l-3.668,2.157V82.13l-3.377,1.987V77.045l-12.039,7.079v-2.28l11.838-28.071,3.578-2.1Zm-11.6,6.823,8.226-4.837V58.949l-.4,1.071Z" fill="#2b3d46"/>
      <path id="Trazado_873252" data-name="Trazado 873252" d="M137.445,71.9l3.668-2.157V72.9l-3.668,2.157V82.13l-3.377,1.987V77.045l-12.039,7.079v-2.28l11.838-28.071,3.578-2.1Zm-11.6,6.823,8.226-4.837V58.949l-.4,1.071Z" fill="none" stroke="#2b3d46" stroke-miterlimit="10" stroke-width="0.5"/>
      <g id="Grupo_1099104" data-name="Grupo 1099104">
        <g id="Grupo_1099103" data-name="Grupo 1099103" clip-path="url(#clip-path-2)">
          <path id="Trazado_873253" data-name="Trazado 873253" d="M144.562,75.915a4.166,4.166,0,0,1,.518-1.979,4.011,4.011,0,0,1,1.551-1.582q1.037-.607,1.572-.254a1.517,1.517,0,0,1,.535,1.359,3.945,3.945,0,0,1-.535,1.926,4.161,4.161,0,0,1-1.572,1.572q-1.033.609-1.551.265a1.458,1.458,0,0,1-.518-1.307" fill="#2b3d46"/>
          <path id="Trazado_873254" data-name="Trazado 873254" d="M144.562,75.915a4.166,4.166,0,0,1,.518-1.979,4.011,4.011,0,0,1,1.551-1.582q1.037-.607,1.572-.254a1.517,1.517,0,0,1,.535,1.359,3.945,3.945,0,0,1-.535,1.926,4.161,4.161,0,0,1-1.572,1.572q-1.033.609-1.551.265A1.458,1.458,0,0,1,144.562,75.915Z" fill="none" stroke="#2b3d46" stroke-miterlimit="10" stroke-width="0.5"/>
        </g>
      </g>
      <g id="Grupo_1099147" data-name="Grupo 1099147" transform="translate(-3.76 35.986)">
        <path id="Trazado_873289" data-name="Trazado 873289" d="M40.25,24.334l-1.893-.756a11.93,11.93,0,0,0-1.1-2.647l.8-1.873a1.466,1.466,0,0,0-.22-1.543A14.224,14.224,0,0,0,36.1,15.776a1.464,1.464,0,0,0-1.542-.221l-1.874.8a12,12,0,0,0-2.647-1.1l-.756-1.892a1.509,1.509,0,0,0-.412-.564V5.5c0-3.575-7.437-5.5-14.436-5.5S0,1.925,0,5.5V30.246c0,3.575,7.437,5.5,14.436,5.5.378,0,.743-.013,1.112-.023a1.417,1.417,0,0,0,.23.383,14.321,14.321,0,0,0,1.738,1.738,1.466,1.466,0,0,0,1.542.221l1.874-.8a12,12,0,0,0,2.647,1.1l.756,1.892a1.5,1.5,0,0,0,1.237.932c.428.038.857.057,1.274.057a12.043,12.043,0,0,0,1.2-.057,1.5,1.5,0,0,0,1.237-.933l.756-1.89a12,12,0,0,0,2.647-1.1l1.872.8a1.469,1.469,0,0,0,1.543-.221,14.269,14.269,0,0,0,1.738-1.738,1.465,1.465,0,0,0,.221-1.541l-.8-1.875a11.93,11.93,0,0,0,1.094-2.649l1.894-.756a1.5,1.5,0,0,0,.929-1.23,12.566,12.566,0,0,0,0-2.486A1.5,1.5,0,0,0,40.25,24.334ZM14.436,1.375c7.7,0,13.061,2.174,13.061,4.124S22.134,9.624,14.436,9.624,1.375,7.45,1.375,5.5,6.737,1.375,14.436,1.375ZM1.375,7.947C3.843,9.943,9.258,11,14.436,11S25.028,9.943,27.5,7.947v4.459a13.021,13.021,0,0,0-1.925.025,1.5,1.5,0,0,0-1.237.933l-.756,1.89a12,12,0,0,0-2.647,1.1l-1.872-.8a1.463,1.463,0,0,0-1.544.221,14.355,14.355,0,0,0-1.737,1.738,1.417,1.417,0,0,0-.211.333c-.375.011-.75.026-1.131.026-7.7,0-13.061-2.174-13.061-4.124Zm0,8.249c2.468,2,7.883,3.051,13.061,3.051.4,0,.8-.016,1.191-.029l.73,1.71a11.93,11.93,0,0,0-1.1,2.649l-1.894.756a1.5,1.5,0,0,0-.929,1.23c-.016.165-.015.331-.025.5C5.784,25.709,1.375,23.722,1.375,22ZM15.649,34.344c-.4.014-.8.027-1.213.027-7.7,0-13.061-2.174-13.061-4.124V24.4c1.8,1.5,5.4,2.761,11.029,3.036.01.206.01.412.031.619a1.5,1.5,0,0,0,.932,1.237l1.89.756a11.93,11.93,0,0,0,1.1,2.647Zm24.165-6.42a.123.123,0,0,1-.074.084l-2.212.883a.687.687,0,0,0-.412.474A10.569,10.569,0,0,1,35.9,32.283a.687.687,0,0,0-.043.625L36.8,35.1a.107.107,0,0,1-.008.115A12.992,12.992,0,0,1,35.208,36.8a.109.109,0,0,1-.109,0l-2.191-.936a.687.687,0,0,0-.624.043,10.562,10.562,0,0,1-2.918,1.213.687.687,0,0,0-.474.412l-.883,2.21a.119.119,0,0,1-.091.077,12.158,12.158,0,0,1-2.227,0,.118.118,0,0,1-.083-.075l-.883-2.212a.687.687,0,0,0-.474-.412,10.562,10.562,0,0,1-2.919-1.211.687.687,0,0,0-.624-.043l-2.193.936a.105.105,0,0,1-.116-.01,12.979,12.979,0,0,1-1.578-1.581.108.108,0,0,1,0-.108l.936-2.193a.687.687,0,0,0-.043-.625A10.569,10.569,0,0,1,16.5,29.365a.687.687,0,0,0-.412-.474l-2.209-.882a.125.125,0,0,1-.077-.085v-.008a11.209,11.209,0,0,1,0-2.227.123.123,0,0,1,.074-.084l2.212-.883a.687.687,0,0,0,.412-.474,10.569,10.569,0,0,1,1.211-2.919.687.687,0,0,0,.043-.625l-.937-2.194a.107.107,0,0,1,.008-.115,13.091,13.091,0,0,1,1.581-1.581.11.11,0,0,1,.109,0l2.191.936a.682.682,0,0,0,.624-.043A10.562,10.562,0,0,1,24.252,16.5a.687.687,0,0,0,.474-.412l.883-2.21A.119.119,0,0,1,25.7,13.8a12.036,12.036,0,0,1,2.227,0,.118.118,0,0,1,.083.075l.883,2.212a.687.687,0,0,0,.474.412,10.562,10.562,0,0,1,2.919,1.211.682.682,0,0,0,.624.043l2.193-.936a.106.106,0,0,1,.116.01A12.93,12.93,0,0,1,36.8,18.407a.108.108,0,0,1,0,.108l-.936,2.193a.687.687,0,0,0,.043.625,10.569,10.569,0,0,1,1.211,2.919.687.687,0,0,0,.412.474l2.209.882a.124.124,0,0,1,.078.093,11.209,11.209,0,0,1,0,2.225Z" fill="#fff"/>
        <path id="Trazado_873290" data-name="Trazado 873290" d="M34.936,26a8.936,8.936,0,1,0,8.936,8.936A8.936,8.936,0,0,0,34.936,26Zm0,16.5A7.561,7.561,0,1,1,42.5,34.936,7.561,7.561,0,0,1,34.936,42.5Z" transform="translate(-8.127 -8.127)" fill="#fff"/>
        <path id="Trazado_873291" data-name="Trazado 873291" d="M36.5,31A5.5,5.5,0,1,0,42,36.5,5.5,5.5,0,0,0,36.5,31Zm0,9.624A4.124,4.124,0,1,1,40.624,36.5,4.124,4.124,0,0,1,36.5,40.624Z" transform="translate(-9.69 -9.69)" fill="#fff"/>
        <path id="Trazado_873292" data-name="Trazado 873292" d="M4.4,18.51c.23.108.474.212.727.312a.687.687,0,1,0,.5-1.279q-.34-.134-.648-.279A.688.688,0,0,0,4.4,18.51Z" transform="translate(-1.25 -5.376)" fill="#fff"/>
        <path id="Trazado_873293" data-name="Trazado 873293" d="M9.525,20.2q.347.082.708.154a.656.656,0,0,0,.137.013.687.687,0,0,0,.137-1.361c-.227-.045-.449-.094-.667-.144A.687.687,0,1,0,9.529,20.2Z" transform="translate(-2.807 -5.889)" fill="#fff"/>
      </g>
    </g>
  </g>
</svg>
