<svg xmlns="http://www.w3.org/2000/svg" xmlns:xlink="http://www.w3.org/1999/xlink" width="133" height="133" viewBox="0 0 133 133">
  <defs>
    <filter id="Elipse_11473" x="0" y="0" width="133" height="133" filterUnits="userSpaceOnUse">
      <feOffset dx="4" dy="13" input="SourceAlpha"/>
      <feGaussianBlur stdDeviation="6.5" result="blur"/>
      <feFlood flood-opacity="0.11"/>
      <feComposite operator="in" in2="blur"/>
      <feComposite in="SourceGraphic"/>
    </filter>
  </defs>
  <g id="Grupo_1098911" data-name="Grupo 1098911" transform="translate(-1174.833 -392.5)">
    <g transform="matrix(1, 0, 0, 1, 1174.83, 392.5)" filter="url(#Elipse_11473)">
      <circle id="Elipse_11473-2" data-name="Elipse 11473" cx="47" cy="47" r="47" transform="translate(15.5 6.5)" fill="#f1c12c"/>
    </g>
    <g id="seguro-de-salud" transform="translate(1196.582 410)">
      <g id="Grupo_1098905" data-name="Grupo 1098905" transform="translate(5.819 1.067)">
        <g id="Grupo_1098903" data-name="Grupo 1098903" transform="translate(0)">
          <g id="Grupo_1098902" data-name="Grupo 1098902">
            <path id="Trazado_873045" data-name="Trazado 873045" d="M46.927,78.192C82.613,63.578,81.594,22.454,81.594,22.454,70.378,11.238,46.927,7.5,46.927,7.5S23.477,11.238,12.261,22.454c0,0-1.02,41.124,34.666,55.738Z" transform="translate(-12.258 -7.5)" fill="#a2c6fe"/>
            <path id="Trazado_873046" data-name="Trazado 873046" d="M46.927,78.231C11.241,63.616,12.261,22.493,12.261,22.493,23.233,11.52,45.916,7.7,46.894,7.545c-.761.148-14.78,2.941-24.659,10.531a11.527,11.527,0,0,0-4.445,10.115C18.787,40,23.63,66.976,46.927,78.231Z" transform="translate(-12.258 -7.539)" fill="#7898d5"/>
            <path id="Trazado_873047" data-name="Trazado 873047" d="M93.456,116.334c-11.035-5.372-18.9-14.468-23.388-27.08A66.228,66.228,0,0,1,66.5,72.228c7.851-6.02,20.91-9.452,26.947-10.575,6.039,1.134,19.128,4.584,26.96,10.578a66.234,66.234,0,0,1-3.566,17.023C112.351,101.865,104.49,110.962,93.456,116.334Z" transform="translate(-58.786 -53.95)" fill="#f5f0f0"/>
            <path id="Trazado_873048" data-name="Trazado 873048" d="M93.456,116.334c-11.035-5.372-18.895-14.468-23.388-27.081A66.2,66.2,0,0,1,66.5,72.227c7.852-6.02,20.91-9.452,26.947-10.575A70.877,70.877,0,0,0,80.16,66.034a15.141,15.141,0,0,0-8.623,16.923c.42,2,.952,4.119,1.625,6.3C77.06,101.865,83.881,110.961,93.456,116.334Z" transform="translate(-58.786 -53.949)" fill="#e8ded8"/>
          </g>
        </g>
        <g id="Grupo_1098904" data-name="Grupo 1098904" transform="translate(21.236 19.575)">
          <path id="Trazado_873049" data-name="Trazado 873049" d="M186.506,152.949q-2.105-.091-4.21-.147a1.594,1.594,0,0,1-1.552-1.552q-.057-2.105-.147-4.21a1.583,1.583,0,0,0-1.264-1.488,22.228,22.228,0,0,0-8.687,0,1.583,1.583,0,0,0-1.264,1.488q-.091,2.105-.147,4.21a1.594,1.594,0,0,1-1.552,1.552q-2.105.057-4.21.147a1.583,1.583,0,0,0-1.488,1.264,22.228,22.228,0,0,0,0,8.687,1.583,1.583,0,0,0,1.488,1.264q2.105.091,4.21.147a1.594,1.594,0,0,1,1.552,1.552q.057,2.105.147,4.21a1.583,1.583,0,0,0,1.264,1.488,22.228,22.228,0,0,0,8.687,0,1.583,1.583,0,0,0,1.264-1.488q.091-2.105.147-4.21a1.594,1.594,0,0,1,1.552-1.552q2.105-.057,4.21-.147a1.583,1.583,0,0,0,1.488-1.264,22.228,22.228,0,0,0,0-8.687,1.583,1.583,0,0,0-1.488-1.264Z" transform="translate(-161.555 -145.123)" fill="#dd636e"/>
        </g>
      </g>
      <g id="Grupo_1098906" data-name="Grupo 1098906" transform="translate(4.751 0)">
        <path id="Trazado_873050" data-name="Trazado 873050" d="M76.221,15.995a1.067,1.067,0,0,0-.312-.728C71.136,10.495,63.746,6.476,53.942,3.323A98.434,98.434,0,0,0,40.656.014a1.064,1.064,0,0,0-.336,0A98.434,98.434,0,0,0,27.034,3.323C17.23,6.476,9.84,10.494,5.067,15.267a1.067,1.067,0,0,0-.312.728A70.777,70.777,0,0,0,8.765,38.76,59.92,59.92,0,0,0,19.2,57.567,52.948,52.948,0,0,0,40.084,72.746a1.066,1.066,0,0,0,.809,0A52.951,52.951,0,0,0,61.779,57.567,59.922,59.922,0,0,0,72.211,38.76a70.769,70.769,0,0,0,4.01-22.765ZM70.172,38.128a57.753,57.753,0,0,1-10.06,18.107A50.779,50.779,0,0,1,40.488,70.6a50.78,50.78,0,0,1-19.624-14.37A57.757,57.757,0,0,1,10.8,38.128,71.127,71.127,0,0,1,6.886,16.47c10.46-10.119,31.5-13.96,33.6-14.321,2.1.361,23.142,4.2,33.6,14.321A71.133,71.133,0,0,1,70.172,38.128Z" transform="translate(-4.751 0)"/>
        <path id="Trazado_873051" data-name="Trazado 873051" d="M86.816,54.168c-1.8.336-17.9,3.491-27.4,10.778A1.067,1.067,0,0,0,59,65.87a66.869,66.869,0,0,0,3.625,17.306c4.586,12.871,12.636,22.184,23.926,27.681a1.066,1.066,0,0,0,.934,0c11.29-5.5,19.34-14.81,23.926-27.681a66.873,66.873,0,0,0,3.625-17.3,1.067,1.067,0,0,0-.416-.925,40.119,40.119,0,0,0-6.376-3.9,1.067,1.067,0,0,0-.956,1.908,39.152,39.152,0,0,1,5.575,3.342A64.7,64.7,0,0,1,109.4,82.46c-4.328,12.147-11.857,20.975-22.383,26.248-10.526-5.272-18.055-14.1-22.383-26.248a65.744,65.744,0,0,1-3.462-16.167,51.637,51.637,0,0,1,13.4-6.619A89.8,89.8,0,0,1,87.01,56.3a89.523,89.523,0,0,1,16.47,4.918,1.067,1.067,0,1,0,.818-1.97,91.685,91.685,0,0,0-17.09-5.082,1.071,1.071,0,0,0-.392,0Z" transform="translate(-51.281 -46.448)"/>
        <path id="Trazado_873052" data-name="Trazado 873052" d="M180.032,156.679c-1.336.058-2.746.108-4.193.147a2.661,2.661,0,0,0-2.59,2.588c-.039,1.417-.088,2.828-.146,4.194a.518.518,0,0,1-.405.487,21.257,21.257,0,0,1-8.274,0,.518.518,0,0,1-.406-.487c-.058-1.366-.107-2.777-.146-4.193a2.661,2.661,0,0,0-2.59-2.588q-1.035-.028-2.071-.064a1.067,1.067,0,0,0-.075,2.132q1.044.036,2.088.064a.528.528,0,0,1,.514.513c.039,1.428.088,2.85.147,4.227a2.64,2.64,0,0,0,2.124,2.489,23.377,23.377,0,0,0,9.1,0,2.639,2.639,0,0,0,2.123-2.489c.059-1.376.108-2.8.147-4.227a.528.528,0,0,1,.515-.513c1.458-.04,2.88-.09,4.227-.148a2.639,2.639,0,0,0,2.488-2.124,23.372,23.372,0,0,0,0-9.1,2.639,2.639,0,0,0-2.488-2.124c-1.377-.06-2.8-.11-4.226-.147a.53.53,0,0,1-.516-.515c-.039-1.428-.088-2.85-.147-4.227a2.639,2.639,0,0,0-2.124-2.489,23.384,23.384,0,0,0-9.1,0,2.639,2.639,0,0,0-2.123,2.489c-.059,1.376-.108,2.8-.147,4.227a.53.53,0,0,1-.513.514c-1.429.038-2.852.087-4.228.147a2.639,2.639,0,0,0-2.488,2.123,23.349,23.349,0,0,0-.045,8.868,1.067,1.067,0,1,0,2.1-.393A21.229,21.229,0,0,1,156.6,148a.518.518,0,0,1,.488-.405c1.365-.059,2.775-.109,4.194-.146a2.664,2.664,0,0,0,2.588-2.589c.039-1.417.088-2.828.146-4.193a.518.518,0,0,1,.405-.487,21.257,21.257,0,0,1,8.274,0,.518.518,0,0,1,.406.487c.058,1.365.107,2.776.146,4.193a2.665,2.665,0,0,0,2.59,2.59c1.417.037,2.827.086,4.192.146a.518.518,0,0,1,.487.405,21.245,21.245,0,0,1,0,8.273.518.518,0,0,1-.487.405Z" transform="translate(-132.825 -118.062)"/>
      </g>
    </g>
  </g>
</svg>
