<svg xmlns="http://www.w3.org/2000/svg" xmlns:xlink="http://www.w3.org/1999/xlink" width="114" height="114" viewBox="0 0 114 114">
  <defs>
    <filter id="Elipse_11472" x="0" y="0" width="114" height="114" filterUnits="userSpaceOnUse">
      <feOffset dx="4" dy="13" input="SourceAlpha"/>
      <feGaussianBlur stdDeviation="6.5" result="blur"/>
      <feFlood flood-opacity="0.11"/>
      <feComposite operator="in" in2="blur"/>
      <feComposite in="SourceGraphic"/>
    </filter>
  </defs>
  <g id="Grupo_1098909" data-name="Grupo 1098909" transform="translate(-918.833 -170.5)">
    <g transform="matrix(1, 0, 0, 1, 918.83, 170.5)" filter="url(#Elipse_11472)">
      <circle id="Elipse_11472-2" data-name="Elipse 11472" cx="37.5" cy="37.5" r="37.5" transform="translate(15.5 6.5)" fill="#f1c12c"/>
    </g>
    <g id="salud-mental-" transform="translate(943.333 180.533)">
      <g id="Grupo_1098896" data-name="Grupo 1098896" transform="translate(0 6.467)">
        <path id="Trazado_872999" data-name="Trazado 872999" d="M208.592,13.968h0a3.964,3.964,0,0,1,3.964,3.965v.7H214.9a4.326,4.326,0,0,1,4.326,4.326h0a4.32,4.32,0,0,1-1.766,3.487h2.866a6.268,6.268,0,0,1,6.268,6.268h0a6.27,6.27,0,0,1-5.006,6.141,4.319,4.319,0,0,1,1.775,3.493h0a4.326,4.326,0,0,1-4.326,4.326H215.61a5.492,5.492,0,1,1-10.983,0V17.933A3.965,3.965,0,0,1,208.592,13.968Z" transform="translate(-181.825 -13.132)" fill="#fe93bb"/>
        <path id="Trazado_873000" data-name="Trazado 873000" d="M211.666,51.94a5.5,5.5,0,0,1-7.038-5.27V17.933a3.965,3.965,0,0,1,5.512-3.651,3.965,3.965,0,0,0-2.418,3.651V46.67A5.494,5.494,0,0,0,211.666,51.94Z" transform="translate(-181.825 -13.132)" fill="#fe76a8"/>
        <path id="Trazado_873001" data-name="Trazado 873001" d="M29.467,17.933V46.67a5.492,5.492,0,0,1-10.983,0H15.057a4.326,4.326,0,0,1-2.551-7.82,6.269,6.269,0,0,1,1.261-12.409h2.866a4.326,4.326,0,0,1,2.56-7.814h2.344v-.7a3.965,3.965,0,1,1,7.929,0Z" transform="translate(-6.664 -13.132)" fill="#fe93bb"/>
        <path id="Trazado_873002" data-name="Trazado 873002" d="M112.891,293.588a5.5,5.5,0,0,1-6.826-5.411v-2.322h.264a2.4,2.4,0,0,1,2.4,2.4h0A5.493,5.493,0,0,0,112.891,293.588Z" transform="translate(-94.246 -254.722)" fill="#fe76a8"/>
        <path id="Trazado_873003" data-name="Trazado 873003" d="M13.846,135.085a3.231,3.231,0,0,0,3.231,3.231H12.506a6.268,6.268,0,0,1,1.261-12.408h3.31a2.973,2.973,0,0,0,0,5.947A3.231,3.231,0,0,0,13.846,135.085Z" transform="translate(-6.664 -112.597)" fill="#fe76a8"/>
        <path id="Trazado_873004" data-name="Trazado 873004" d="M86.46,14.646A2.931,2.931,0,0,0,82.9,17.158q0,.017,0,.034a1.6,1.6,0,0,1-1.583,1.438h-.691a4.374,4.374,0,0,0-4.4,4.253,4.308,4.308,0,0,0,.481,2.058,4.356,4.356,0,0,0,1.284,1.5H75.378a4.354,4.354,0,0,1-1.284-1.5,4.327,4.327,0,0,1,3.844-6.311h2.344v-.623A4.012,4.012,0,0,1,84.19,13.97,3.936,3.936,0,0,1,86.46,14.646Z" transform="translate(-65.409 -13.133)" fill="#fe76a8"/>
        <path id="Trazado_873005" data-name="Trazado 873005" d="M45.349,245.08H40.82a4.326,4.326,0,0,1-2.551-7.82H42.8a4.326,4.326,0,0,0,2.551,7.82Z" transform="translate(-32.427 -211.542)" fill="#fe76a8"/>
        <path id="Trazado_873006" data-name="Trazado 873006" d="M77.105,14.21a.836.836,0,0,1-.617-1.4A5.174,5.174,0,0,1,80.3,11.13H81.81a4.8,4.8,0,0,1,9.6.14.836.836,0,1,1-1.672,0,3.129,3.129,0,1,0-6.258,0v.7a.836.836,0,0,1-.836.836H80.3a3.5,3.5,0,0,0-2.577,1.137A.834.834,0,0,1,77.105,14.21Z" transform="translate(-67.771 -6.47)"/>
        <path id="Trazado_873007" data-name="Trazado 873007" d="M17.311,122.928a6.337,6.337,0,0,1-6.273-5.491H8.393a5.159,5.159,0,0,1-4.113-8.277A7.1,7.1,0,0,1,7.1,95.537h1q-.083-.139-.158-.282a5.093,5.093,0,0,1-.522-1.633.836.836,0,0,1,1.655-.235,3.426,3.426,0,0,0,.351,1.1A3.529,3.529,0,0,0,10.464,95.7a.836.836,0,0,1-.5,1.509H7.1A5.433,5.433,0,0,0,6.01,107.963a.836.836,0,0,1,.326,1.494A3.5,3.5,0,0,0,4.9,112.275a3.49,3.49,0,0,0,3.49,3.49h3.425a.836.836,0,0,1,.836.836,4.662,4.662,0,0,0,4.657,4.656,4.6,4.6,0,0,0,2.1-.5.836.836,0,0,1,.755,1.491A6.342,6.342,0,0,1,17.311,122.928Z" transform="translate(0 -83.063)"/>
        <path id="Trazado_873008" data-name="Trazado 873008" d="M66.869,100.246H60.1a.836.836,0,1,1,0-1.672h6.768a3.754,3.754,0,0,0,0-7.508h-.426a.836.836,0,1,1,0-1.672h.426a5.425,5.425,0,1,1,0,10.851Z" transform="translate(-52.662 -80.154)"/>
        <path id="Trazado_873009" data-name="Trazado 873009" d="M57.592,238.543a.836.836,0,0,1-.836-.836v-1.847a4.434,4.434,0,0,0-4.429-4.429H45.762a.836.836,0,1,1,0-1.672h6.565a6.107,6.107,0,0,1,6.1,6.1v1.847A.836.836,0,0,1,57.592,238.543Z" transform="translate(-39.92 -204.877)"/>
        <path id="Línea_562" data-name="Línea 562" d="M-4.05-5.828H-6.664A.836.836,0,0,1-7.5-6.664.836.836,0,0,1-6.664-7.5H-4.05a.836.836,0,0,1,.836.836A.836.836,0,0,1-4.05-5.828Z" transform="translate(16.633 19.974)"/>
        <path id="Línea_563" data-name="Línea 563" d="M-6.664-3.425A.836.836,0,0,1-7.5-4.26v-2.4A.836.836,0,0,1-6.664-7.5a.836.836,0,0,1,.836.836v2.4A.836.836,0,0,1-6.664-3.425Z" transform="translate(18.483 37.798)"/>
        <path id="Trazado_873010" data-name="Trazado 873010" d="M159.179,205.923a.836.836,0,0,1-.781-.538,3.413,3.413,0,0,0-3.172-2.183h-.6a.836.836,0,0,1,0-1.672h.6a5.094,5.094,0,0,1,4.733,3.259.836.836,0,0,1-.781,1.134Z" transform="translate(-136.652 -179.793)"/>
        <path id="Trazado_873011" data-name="Trazado 873011" d="M164.243,55.348a5.07,5.07,0,0,1-5.065-5.064.836.836,0,0,1,1.672,0,3.4,3.4,0,0,0,3.393,3.392.836.836,0,0,1,0,1.672Z" transform="translate(-141.44 -44.658)"/>
        <path id="Trazado_873012" data-name="Trazado 873012" d="M197.966,32.279a.836.836,0,0,1-.836-.836V11.268a4.8,4.8,0,0,1,9.6-.139h1.511a5.161,5.161,0,0,1,4.586,7.531q-.074.143-.157.282h1a7.107,7.107,0,0,1,6.612,9.7.836.836,0,0,1-1.555-.612,5.436,5.436,0,0,0-5.057-7.421H210.8a.836.836,0,0,1-.5-1.509,3.532,3.532,0,0,0,1.038-1.213,3.441,3.441,0,0,0,.389-1.6,3.5,3.5,0,0,0-3.491-3.49h-2.345a.836.836,0,0,1-.836-.836v-.7a3.129,3.129,0,1,0-6.257,0V31.443A.836.836,0,0,1,197.966,32.279Z" transform="translate(-175.163 -6.467)"/>
        <path id="Trazado_873013" data-name="Trazado 873013" d="M245.265,100.246H238.5a5.425,5.425,0,1,1,0-10.851h.426a.836.836,0,1,1,0,1.672H238.5a3.754,3.754,0,1,0,0,7.508h6.768a.836.836,0,1,1,0,1.672Z" transform="translate(-207.1 -80.154)"/>
        <path id="Línea_564" data-name="Línea 564" d="M-4.05-5.828H-6.664A.836.836,0,0,1-7.5-6.664.836.836,0,0,1-6.664-7.5H-4.05a.836.836,0,0,1,.836.836A.836.836,0,0,1-4.05-5.828Z" transform="translate(39.686 19.974)"/>
        <path id="Trazado_873014" data-name="Trazado 873014" d="M197.964,55.348a.836.836,0,1,1,0-1.672,3.4,3.4,0,0,0,3.393-3.392.836.836,0,0,1,1.672,0A5.07,5.07,0,0,1,197.964,55.348Z" transform="translate(-175.161 -44.658)"/>
      </g>
      <g id="Grupo_1098897" data-name="Grupo 1098897" transform="translate(19.367 27.333)">
        <path id="Trazado_873015" data-name="Trazado 873015" d="M214.382,204.1h0a10.009,10.009,0,0,0-14.155,0l-.921.921-.921-.921a10.009,10.009,0,0,0-14.155,0h0a10.009,10.009,0,0,0,0,14.155l11.584,11.584a4.939,4.939,0,0,0,6.985,0l11.584-11.584A10.009,10.009,0,0,0,214.382,204.1Z" transform="translate(-180.463 -200.336)" fill="#fd4755"/>
        <path id="Trazado_873015_-_Contorno" data-name="Trazado 873015 - Contorno" d="M190.863,200.666a10.081,10.081,0,0,1,3.787.737,10.016,10.016,0,0,1,1.751.921,10.139,10.139,0,0,1,1.579,1.29l.882.882.882-.882a10.14,10.14,0,0,1,1.579-1.29,10.01,10.01,0,0,1,3.616-1.474,10.094,10.094,0,0,1,5.71.553,10.016,10.016,0,0,1,1.751.921,10.163,10.163,0,0,1,2.868,2.869,10.009,10.009,0,0,1,1.474,3.616,10.094,10.094,0,0,1-.553,5.71,10.013,10.013,0,0,1-.921,1.751,10.137,10.137,0,0,1-1.29,1.579l-11.584,11.584a4.991,4.991,0,0,1-7.064,0l-11.584-11.584a10.139,10.139,0,0,1-1.29-1.579,10.009,10.009,0,0,1-1.474-3.616,10.094,10.094,0,0,1,.553-5.71,10.014,10.014,0,0,1,.921-1.751,10.163,10.163,0,0,1,2.868-2.869,10.01,10.01,0,0,1,3.616-1.474A10.137,10.137,0,0,1,190.863,200.666Zm8,3.988-.961-.961a10.026,10.026,0,0,0-1.561-1.275,9.9,9.9,0,0,0-3.576-1.458,9.982,9.982,0,0,0-5.647.547,9.9,9.9,0,0,0-1.731.911,10.051,10.051,0,0,0-2.837,2.837,9.9,9.9,0,0,0-1.458,3.576,9.982,9.982,0,0,0,.547,5.647,9.9,9.9,0,0,0,.911,1.731,10.026,10.026,0,0,0,1.275,1.561l11.584,11.584a4.879,4.879,0,0,0,6.906,0L213.9,217.769a10.027,10.027,0,0,0,1.275-1.561,9.9,9.9,0,0,0,1.458-3.576,9.982,9.982,0,0,0-.547-5.647,9.9,9.9,0,0,0-.911-1.731,10.051,10.051,0,0,0-2.837-2.837,9.9,9.9,0,0,0-3.576-1.458,9.982,9.982,0,0,0-5.647.547,9.9,9.9,0,0,0-1.731.911,10.03,10.03,0,0,0-1.561,1.275Z" transform="translate(-180.018 -199.891)" fill="#fe646f"/>
        <path id="Trazado_873016" data-name="Trazado 873016" d="M199.92,231.246a4.927,4.927,0,0,1-4.1-1.409l-11.584-11.584a10.01,10.01,0,0,1,9.531-16.782,10.019,10.019,0,0,0-5.627,9.009,9.967,9.967,0,0,0,1.521,5.293l8.68,13.894A4.92,4.92,0,0,0,199.92,231.246Z" transform="translate(-180.47 -200.337)" fill="#fb2b3a"/>
        <path id="Trazado_873017" data-name="Trazado 873017" d="M175.572,209.621a.836.836,0,0,1-.758-.483,10.925,10.925,0,0,1-1.014-4.587,10.845,10.845,0,0,1,18.513-7.668l.331.331.331-.331a10.906,10.906,0,0,1,15.163-.17.836.836,0,1,1-1.156,1.208,9.225,9.225,0,0,0-12.825.144l-.921.921a.836.836,0,0,1-1.182,0l-.922-.922a9.176,9.176,0,0,0-14.8,10.366.836.836,0,0,1-.757,1.189Z" transform="translate(-173.8 -193.713)"/>
        <path id="Trazado_873018" data-name="Trazado 873018" d="M229.866,273.012a5.737,5.737,0,0,1-4.083-1.691l-9.847-9.847a.836.836,0,0,1,1.182-1.182l9.847,9.847a4.1,4.1,0,0,0,5.8,0l11.584-11.584a9.234,9.234,0,0,0,1.907-10.194.836.836,0,1,1,1.529-.675,10.916,10.916,0,0,1-2.254,12.051l-11.584,11.584A5.737,5.737,0,0,1,229.866,273.012Z" transform="translate(-211.022 -241.229)"/>
      </g>
      <g id="Grupo_1098898" data-name="Grupo 1098898" transform="translate(6.603 40.714)">
        <path id="Trazado_873019" data-name="Trazado 873019" d="M75.573,340.98a2.741,2.741,0,0,1-2.216-1.128l-6.066-8.33a2.741,2.741,0,1,1,4.432-3.228L75.1,332.93l4.89-10.1a2.741,2.741,0,1,1,4.935,2.389l-6.882,14.213a2.742,2.742,0,0,1-2.223,1.536Q75.7,340.98,75.573,340.98Z" transform="translate(-65.929 -320.449)" fill="#6fd7a3"/>
        <path id="Trazado_873020" data-name="Trazado 873020" d="M68.9,335.161a3.588,3.588,0,0,1-2.892-1.472l-6.066-8.33a3.577,3.577,0,0,1,5.784-4.211l2.554,3.508,4.282-8.844A3.577,3.577,0,0,1,79,318.931l-4.83,9.972a.836.836,0,0,1-1.5-.729L77.5,318.2a1.906,1.906,0,0,0-3.431-1.66l-4.89,10.1a.836.836,0,0,1-1.428.128l-3.374-4.635a1.906,1.906,0,1,0-3.082,2.243l6.067,8.33a1.912,1.912,0,0,0,1.541.784c.054,0,.11,0,.164-.007a1.918,1.918,0,0,0,1.551-1.068l.359-.741a.836.836,0,0,1,1.5.728l-.359.741a3.6,3.6,0,0,1-2.9,2C69.118,335.157,69.009,335.161,68.9,335.161Z" transform="translate(-59.258 -313.796)"/>
      </g>
    </g>
  </g>
</svg>
