<svg xmlns="http://www.w3.org/2000/svg" width="190" height="115" viewBox="0 0 190 115">
  <g id="Grupo_1099003" data-name="Grupo 1099003" transform="translate(-1229.667 -391)">
    <rect id="Rectángulo_401021" data-name="Rectángulo 401021" width="162" height="90" rx="10" transform="translate(1257.667 391)" fill="#77af8f"/>
    <circle id="Elipse_11479" data-name="Elipse 11479" cx="41.5" cy="41.5" r="41.5" transform="translate(1229.667 423)" fill="#f1ebe0"/>
    <g id="Grupo_1099255" data-name="Grupo 1099255" transform="translate(1281.245 375.551)">
      <path id="Trazado_873524" data-name="Trazado 873524" d="M247.926,44.7a1.931,1.931,0,0,0,1.931-1.931V32.937a1.931,1.931,0,1,0-3.861,0v9.834A1.931,1.931,0,0,0,247.926,44.7Z" transform="translate(-198.505)" fill="#59836b"/>
      <path id="Trazado_873525" data-name="Trazado 873525" d="M158.068,71.886a1.931,1.931,0,1,0,3.266-2.059l-5.144-8.161a1.93,1.93,0,1,0-3.266,2.059Z" transform="translate(-123.162 -24.014)" fill="#59836b"/>
      <path id="Trazado_873526" data-name="Trazado 873526" d="M313.649,72.491a1.93,1.93,0,0,0,2.662-.605l5.138-8.161a1.931,1.931,0,1,0-3.267-2.057l-5.138,8.161A1.931,1.931,0,0,0,313.649,72.491Z" transform="translate(-252.369 -24.014)" fill="#59836b"/>
      <path id="Trazado_873527" data-name="Trazado 873527" d="M98.222,146.091l-3.354-5.926a1.93,1.93,0,0,0-3.36,1.9l3.353,5.923a.952.952,0,0,1,.083.729.91.91,0,0,1-.432.553l-5.17,2.864a.979.979,0,0,1-1.309-.348l-1.313-2.323-.017-.03L73.125,125.42a.94.94,0,0,1-.085-.722.9.9,0,0,1,.43-.55l5.176-2.864a.961.961,0,0,1,1.3.349l3.026,5.346a1.931,1.931,0,0,0,3.36-1.9l-3.025-5.344a4.833,4.833,0,0,0-6.534-1.829L71.6,120.769a4.8,4.8,0,0,0-1.95,6.34l-2.851.826a11.226,11.226,0,0,1-2.361.542h0a4.82,4.82,0,0,1-1.465-.441c-.4-.151-.893-.338-1.5-.551l-5.051-1.766a11.573,11.573,0,0,0-5.879-.757l-8.613.771c-3.927.348-6.43,1.234-7.812,2.77L29.2,127.082a4.795,4.795,0,0,0-1.961-6.312L22.07,117.9a4.836,4.836,0,0,0-6.538,1.827L.627,146.089a4.8,4.8,0,0,0,1.832,6.562l5.173,2.865a4.841,4.841,0,0,0,6.538-1.827l.547-.967a9.068,9.068,0,0,1,3.6,2.74A6.48,6.48,0,0,0,22.5,166.11a6.473,6.473,0,0,0,5.7,7.119,6.471,6.471,0,0,0,5.7,7.119,6.492,6.492,0,0,0,10.509,5.746l4.042-3.234a6.509,6.509,0,0,0,.875-.844l2.309,1.844a6.487,6.487,0,0,0,10.421-3.821,6.453,6.453,0,0,0,2.115.354,6.682,6.682,0,0,0,.735-.041,6.477,6.477,0,0,0,5.736-7.124,6.466,6.466,0,0,0,5.7-7.119,6.489,6.489,0,0,0,4.191-10.648,9.03,9.03,0,0,1,3.593-2.74l.548.969a4.842,4.842,0,0,0,6.539,1.826l5.17-2.864a4.809,4.809,0,0,0,1.84-6.56Zm-87.412,5.7a.978.978,0,0,1-1.308.35l-5.173-2.865a.908.908,0,0,1-.43-.551.947.947,0,0,1,.087-.729l14.907-26.362a.943.943,0,0,1,.826-.472.99.99,0,0,1,.48.124l5.171,2.865h0a.9.9,0,0,1,.43.55.943.943,0,0,1-.087.725ZM24.9,161.722a2.628,2.628,0,0,1-3.284-4.1l7.228-5.777a2.639,2.639,0,0,1,3.7.413,2.629,2.629,0,0,1-.411,3.685c-.012.009-.022.02-.034.03l-7.2,5.751Zm2,6.706a2.636,2.636,0,0,1,.411-3.69h0l10.411-8.318a2.638,2.638,0,0,1,3.7.413,2.637,2.637,0,0,1-.414,3.693L30.6,168.838a2.639,2.639,0,0,1-3.7-.411Zm7.463,8.087a2.627,2.627,0,0,1-1.352-4.659h0l7.2-5.755.026-.019a2.637,2.637,0,0,1,3.7.41,2.636,2.636,0,0,1-.414,3.693L36.3,175.96A2.621,2.621,0,0,1,34.361,176.515Zm12.649,1.567a2.606,2.606,0,0,1-.968,1.761L42,183.078a2.638,2.638,0,0,1-3.7-.41,2.636,2.636,0,0,1,.409-3.689h0l4.041-3.231.007,0a2.639,2.639,0,0,1,3.7.413A2.6,2.6,0,0,1,47.01,178.082Zm30.634-16.77a2.647,2.647,0,0,1-3.7.41h0l-5.166-4.127a1.93,1.93,0,1,0-2.41,3.016l5.164,4.126a2.628,2.628,0,1,1-3.286,4.1l-5.6-4.472a1.93,1.93,0,0,0-2.408,3.018l5.6,4.469a2.632,2.632,0,0,1-3.289,4.108l-2.788-2.23-.014-.012-2.356-1.883-.44-.352a1.93,1.93,0,0,0-2.411,3.015l2.8,2.242a2.63,2.63,0,0,1-3.293,4.1L50.865,178.3a6.46,6.46,0,0,0-3.711-6.381,6.479,6.479,0,0,0-2.516-9.663,6.489,6.489,0,0,0-7.813-9.758,6.438,6.438,0,0,0-1.268-2.657,6.506,6.506,0,0,0-9.126-1.018l-5.169,4.132a12.72,12.72,0,0,0-4.637-3.611l10.633-18.808,5.662,1.64a6.314,6.314,0,0,0,.157.959c1.371,5.635,6.559,8.26,13.54,6.854,5.882-1.184,8.3.58,13.127,4.092.5.364,1.02.743,1.565,1.133,3.469,2.488,7.175,5.413,9.661,7.4l6.267,5.008a2.636,2.636,0,0,1,.408,3.693Zm-.06-8.357-4.205-3.361c-2.52-2.01-6.279-4.976-9.82-7.517-.537-.384-1.048-.757-1.541-1.116-5-3.642-8.616-6.273-16.162-4.756-2.31.465-7.813,1.01-9.026-3.98-.171-.7,0-.947.077-1.05.258-.36,1.3-1.236,5.36-1.6l8.622-.772a7.906,7.906,0,0,1,4.254.556l5.052,1.766c.562.2,1.011.366,1.407.516,2.433.921,3.077.921,6.273,0l3.724-1.079,10.619,18.782A12.686,12.686,0,0,0,77.584,152.956Z" transform="translate(0 -69.635)" fill="#59836b"/>
      <path id="Trazado_873528" data-name="Trazado 873528" d="M452.5,195.448a1.932,1.932,0,1,0-1.931-1.933v.005A1.928,1.928,0,0,0,452.5,195.448Z" transform="translate(-363.585 -129.577)" fill="#59836b"/>
    </g>
  </g>
</svg>
