<svg xmlns="http://www.w3.org/2000/svg" width="85" height="41.375" viewBox="0 0 85 41.375">
  <g id="Grupo_1098953" data-name="Grupo 1098953" transform="translate(-704 -6538)">
    <path id="Trazado_872910" data-name="Trazado 872910" d="M3.394,1.7A1.7,1.7,0,1,1,1.7,0a1.7,1.7,0,0,1,1.7,1.7" transform="translate(705 6539)" fill="#f1c12c"/>
    <path id="Trazado_872910_-_Contorno" data-name="Trazado 872910 - Contorno" d="M1.7,4.394a2.7,2.7,0,1,1,2.7-2.7A2.7,2.7,0,0,1,1.7,4.394ZM1.7,1a.7.7,0,1,0,.7.7A.7.7,0,0,0,1.7,1Z" transform="translate(705 6539)" fill="#f1c12c"/>
    <path id="Trazado_872911" data-name="Trazado 872911" d="M32.348,1.7a1.7,1.7,0,1,1-1.7-1.7,1.7,1.7,0,0,1,1.7,1.7" transform="translate(691.953 6539)" fill="#f1c12c"/>
    <path id="Trazado_872911_-_Contorno" data-name="Trazado 872911 - Contorno" d="M30.651,4.394a2.7,2.7,0,1,1,2.7-2.7A2.7,2.7,0,0,1,30.651,4.394Zm0-3.394a.7.7,0,1,0,.7.7A.7.7,0,0,0,30.651,1Z" transform="translate(691.968 6539)" fill="#f1c12c"/>
    <path id="Trazado_872912" data-name="Trazado 872912" d="M61.3,1.7A1.7,1.7,0,1,1,59.6,0a1.7,1.7,0,0,1,1.7,1.7" transform="translate(678.931 6539)" fill="#f1c12c"/>
    <path id="Trazado_872912_-_Contorno" data-name="Trazado 872912 - Contorno" d="M59.6,4.394a2.7,2.7,0,1,1,2.7-2.7A2.7,2.7,0,0,1,59.6,4.394ZM59.6,1a.7.7,0,1,0,.7.7A.7.7,0,0,0,59.6,1Z" transform="translate(678.936 6539)" fill="#f1c12c"/>
    <path id="Trazado_872913" data-name="Trazado 872913" d="M90.254,1.7a1.7,1.7,0,1,1-1.7-1.7,1.7,1.7,0,0,1,1.7,1.7" transform="translate(665.908 6539)" fill="#f1c12c"/>
    <path id="Trazado_872913_-_Contorno" data-name="Trazado 872913 - Contorno" d="M88.557,4.394a2.7,2.7,0,1,1,2.7-2.7A2.7,2.7,0,0,1,88.557,4.394Zm0-3.394a.7.7,0,1,0,.7.7A.7.7,0,0,0,88.557,1Z" transform="translate(665.904 6539)" fill="#f1c12c"/>
    <path id="Trazado_872914" data-name="Trazado 872914" d="M119.207,1.7a1.7,1.7,0,1,1-1.7-1.7,1.7,1.7,0,0,1,1.7,1.7" transform="translate(652.886 6539)" fill="#f1c12c"/>
    <path id="Trazado_872914_-_Contorno" data-name="Trazado 872914 - Contorno" d="M117.51,4.394a2.7,2.7,0,1,1,2.7-2.7A2.7,2.7,0,0,1,117.51,4.394Zm0-3.394a.7.7,0,1,0,.7.7A.7.7,0,0,0,117.51,1Z" transform="translate(652.872 6539)" fill="#f1c12c"/>
    <path id="Trazado_872915" data-name="Trazado 872915" d="M148.161,1.7a1.7,1.7,0,1,1-1.7-1.7,1.7,1.7,0,0,1,1.7,1.7" transform="translate(639.839 6539)" fill="#f1c12c"/>
    <path id="Trazado_872915_-_Contorno" data-name="Trazado 872915 - Contorno" d="M146.464,4.394a2.7,2.7,0,1,1,2.7-2.7A2.7,2.7,0,0,1,146.464,4.394Zm0-3.394a.7.7,0,1,0,.7.7A.7.7,0,0,0,146.464,1Z" transform="translate(639.839 6539)" fill="#f1c12c"/>
    <path id="Trazado_872916" data-name="Trazado 872916" d="M3.394,33.612a1.7,1.7,0,1,1-1.7-1.7,1.7,1.7,0,0,1,1.7,1.7" transform="translate(705 6525.076)" fill="#f1c12c"/>
    <path id="Trazado_872916_-_Contorno" data-name="Trazado 872916 - Contorno" d="M1.7,36.309a2.7,2.7,0,1,1,2.7-2.7A2.7,2.7,0,0,1,1.7,36.309Zm0-3.394a.7.7,0,1,0,.7.7A.7.7,0,0,0,1.7,32.915Z" transform="translate(705 6525.076)" fill="#f1c12c"/>
    <path id="Trazado_872917" data-name="Trazado 872917" d="M32.348,33.612a1.7,1.7,0,1,1-1.7-1.7,1.7,1.7,0,0,1,1.7,1.7" transform="translate(691.953 6525.076)" fill="#f1c12c"/>
    <path id="Trazado_872917_-_Contorno" data-name="Trazado 872917 - Contorno" d="M30.651,36.309a2.7,2.7,0,1,1,2.7-2.7A2.7,2.7,0,0,1,30.651,36.309Zm0-3.394a.7.7,0,1,0,.7.7A.7.7,0,0,0,30.651,32.915Z" transform="translate(691.968 6525.076)" fill="#f1c12c"/>
    <path id="Trazado_872918" data-name="Trazado 872918" d="M61.3,33.612a1.7,1.7,0,1,1-1.7-1.7,1.7,1.7,0,0,1,1.7,1.7" transform="translate(678.931 6525.076)" fill="#f1c12c"/>
    <path id="Trazado_872918_-_Contorno" data-name="Trazado 872918 - Contorno" d="M59.6,36.309a2.7,2.7,0,1,1,2.7-2.7A2.7,2.7,0,0,1,59.6,36.309Zm0-3.394a.7.7,0,1,0,.7.7A.7.7,0,0,0,59.6,32.915Z" transform="translate(678.936 6525.076)" fill="#f1c12c"/>
    <path id="Trazado_872919" data-name="Trazado 872919" d="M90.254,33.612a1.7,1.7,0,1,1-1.7-1.7,1.7,1.7,0,0,1,1.7,1.7" transform="translate(665.908 6525.076)" fill="#f1c12c"/>
    <path id="Trazado_872919_-_Contorno" data-name="Trazado 872919 - Contorno" d="M88.557,36.309a2.7,2.7,0,1,1,2.7-2.7A2.7,2.7,0,0,1,88.557,36.309Zm0-3.394a.7.7,0,1,0,.7.7A.7.7,0,0,0,88.557,32.915Z" transform="translate(665.904 6525.076)" fill="#f1c12c"/>
    <path id="Trazado_872920" data-name="Trazado 872920" d="M119.207,33.612a1.7,1.7,0,1,1-1.7-1.7,1.7,1.7,0,0,1,1.7,1.7" transform="translate(652.886 6525.076)" fill="#f1c12c"/>
    <path id="Trazado_872920_-_Contorno" data-name="Trazado 872920 - Contorno" d="M117.51,36.309a2.7,2.7,0,1,1,2.7-2.7A2.7,2.7,0,0,1,117.51,36.309Zm0-3.394a.7.7,0,1,0,.7.7A.7.7,0,0,0,117.51,32.915Z" transform="translate(652.872 6525.076)" fill="#f1c12c"/>
    <path id="Trazado_872921" data-name="Trazado 872921" d="M148.161,33.612a1.7,1.7,0,1,1-1.7-1.7,1.7,1.7,0,0,1,1.7,1.7" transform="translate(639.839 6525.076)" fill="#f1c12c"/>
    <path id="Trazado_872921_-_Contorno" data-name="Trazado 872921 - Contorno" d="M146.464,36.309a2.7,2.7,0,1,1,2.7-2.7A2.7,2.7,0,0,1,146.464,36.309Zm0-3.394a.7.7,0,1,0,.7.7A.7.7,0,0,0,146.464,32.915Z" transform="translate(639.839 6525.076)" fill="#f1c12c"/>
    <path id="Trazado_872922" data-name="Trazado 872922" d="M3.394,65.527a1.7,1.7,0,1,1-1.7-1.7,1.7,1.7,0,0,1,1.7,1.7" transform="translate(705 6511.151)" fill="#f1c12c"/>
    <path id="Trazado_872922_-_Contorno" data-name="Trazado 872922 - Contorno" d="M1.7,68.224a2.7,2.7,0,1,1,2.7-2.7A2.7,2.7,0,0,1,1.7,68.224Zm0-3.394a.7.7,0,1,0,.7.7A.7.7,0,0,0,1.7,64.83Z" transform="translate(705 6511.151)" fill="#f1c12c"/>
    <path id="Trazado_872923" data-name="Trazado 872923" d="M32.348,65.527a1.7,1.7,0,1,1-1.7-1.7,1.7,1.7,0,0,1,1.7,1.7" transform="translate(691.953 6511.151)" fill="#f1c12c"/>
    <path id="Trazado_872923_-_Contorno" data-name="Trazado 872923 - Contorno" d="M30.651,68.224a2.7,2.7,0,1,1,2.7-2.7A2.7,2.7,0,0,1,30.651,68.224Zm0-3.394a.7.7,0,1,0,.7.7A.7.7,0,0,0,30.651,64.83Z" transform="translate(691.968 6511.151)" fill="#f1c12c"/>
    <path id="Trazado_872924" data-name="Trazado 872924" d="M61.3,65.527a1.7,1.7,0,1,1-1.7-1.7,1.7,1.7,0,0,1,1.7,1.7" transform="translate(678.931 6511.151)" fill="#f1c12c"/>
    <path id="Trazado_872924_-_Contorno" data-name="Trazado 872924 - Contorno" d="M59.6,68.224a2.7,2.7,0,1,1,2.7-2.7A2.7,2.7,0,0,1,59.6,68.224Zm0-3.394a.7.7,0,1,0,.7.7A.7.7,0,0,0,59.6,64.83Z" transform="translate(678.936 6511.151)" fill="#f1c12c"/>
    <path id="Trazado_872925" data-name="Trazado 872925" d="M90.254,65.527a1.7,1.7,0,1,1-1.7-1.7,1.7,1.7,0,0,1,1.7,1.7" transform="translate(665.908 6511.151)" fill="#f1c12c"/>
    <path id="Trazado_872925_-_Contorno" data-name="Trazado 872925 - Contorno" d="M88.557,68.224a2.7,2.7,0,1,1,2.7-2.7A2.7,2.7,0,0,1,88.557,68.224Zm0-3.394a.7.7,0,1,0,.7.7A.7.7,0,0,0,88.557,64.83Z" transform="translate(665.904 6511.151)" fill="#f1c12c"/>
    <path id="Trazado_872926" data-name="Trazado 872926" d="M119.207,65.527a1.7,1.7,0,1,1-1.7-1.7,1.7,1.7,0,0,1,1.7,1.7" transform="translate(652.886 6511.151)" fill="#f1c12c"/>
    <path id="Trazado_872926_-_Contorno" data-name="Trazado 872926 - Contorno" d="M117.51,68.224a2.7,2.7,0,1,1,2.7-2.7A2.7,2.7,0,0,1,117.51,68.224Zm0-3.394a.7.7,0,1,0,.7.7A.7.7,0,0,0,117.51,64.83Z" transform="translate(652.872 6511.151)" fill="#f1c12c"/>
    <path id="Trazado_872927" data-name="Trazado 872927" d="M148.161,65.527a1.7,1.7,0,1,1-1.7-1.7,1.7,1.7,0,0,1,1.7,1.7" transform="translate(639.839 6511.151)" fill="#f1c12c"/>
    <path id="Trazado_872927_-_Contorno" data-name="Trazado 872927 - Contorno" d="M146.464,68.224a2.7,2.7,0,1,1,2.7-2.7A2.7,2.7,0,0,1,146.464,68.224Zm0-3.394a.7.7,0,1,0,.7.7A.7.7,0,0,0,146.464,64.83Z" transform="translate(639.839 6511.151)" fill="#f1c12c"/>
  </g>
</svg>
