<svg xmlns="http://www.w3.org/2000/svg" width="80" height="80" viewBox="0 0 80 80">
  <g id="Grupo_1099195" data-name="Grupo 1099195" transform="translate(-200 -485)">
    <rect id="Rectángulo_401023" data-name="Rectángulo 401023" width="80" height="80" rx="10" transform="translate(200 485)" fill="#daf2e4"/>
    <g id="Grupo_1099194" data-name="Grupo 1099194" transform="translate(208.828 412.869)">
      <g id="Grupo_1099189" data-name="Grupo 1099189" transform="translate(17.57 92.184)">
        <g id="Grupo_1099188" data-name="Grupo 1099188" transform="translate(0 0)">
          <path id="Trazado_873384" data-name="Trazado 873384" d="M168.636,114.658l-5.307-2.359a1.04,1.04,0,0,1-.617-.949v-1.457a7.734,7.734,0,0,0,2.928-6.059v-2.051a1.892,1.892,0,0,0,.976-1.654v-.2a7.755,7.755,0,0,0-7.746-7.746h-1.952a7.755,7.755,0,0,0-7.746,7.746v1.806a1.915,1.915,0,0,0,.729,1.534,1.781,1.781,0,0,0,.247.16v.4a7.734,7.734,0,0,0,2.928,6.059v1.457a1.04,1.04,0,0,1-.617.949l-5.307,2.359a4.822,4.822,0,0,0-2.861,4.4v12.1a.913.913,0,0,0,1.826,0v-12.1a2.991,2.991,0,0,1,.018-.314l2.445,2.445a2,2,0,0,1,.59,1.425v8.548a.913.913,0,1,0,1.826,0v-8.548a3.816,3.816,0,0,0-1.125-2.716l-2.915-2.915a2.983,2.983,0,0,1,.936-.658l5.217-2.319,3.869,3.869v13.287a.913.913,0,0,0,1.826,0V117.878l3.869-3.869,5.217,2.319a2.982,2.982,0,0,1,.936.658l-2.915,2.915a3.816,3.816,0,0,0-1.125,2.716v8.548a.913.913,0,1,0,1.826,0v-8.548a2,2,0,0,1,.59-1.425l2.445-2.445a2.983,2.983,0,0,1,.019.314v12.1a.913.913,0,0,0,1.826,0v-12.1A4.822,4.822,0,0,0,168.636,114.658Zm-10.741,1.55-3.395-3.4a2.861,2.861,0,0,0,.4-1.463v-.372a7.739,7.739,0,0,0,5.982,0v.372a2.86,2.86,0,0,0,.4,1.463Zm0-6.454a5.926,5.926,0,0,1-5.919-5.919v-.411a5.4,5.4,0,0,0,1.659-1.077A.913.913,0,0,0,152.395,101a3.28,3.28,0,0,1-1.356.81l-.024,0a.185.185,0,0,1-.015-.083V99.93a5.926,5.926,0,0,1,5.919-5.919h1.952a5.926,5.926,0,0,1,5.919,5.919v.2a.059.059,0,0,1-.041.06c-5.469,1.08-8.211-.956-9.137-1.881A.913.913,0,0,0,154.32,99.6c2.836,2.836,6.974,2.887,9.493,2.584v1.65A5.926,5.926,0,0,1,157.894,109.754Z" transform="translate(-144.292 -92.184)" fill="#59836b"/>
        </g>
      </g>
      <g id="Grupo_1099191" data-name="Grupo 1099191" transform="translate(0 97.064)">
        <g id="Grupo_1099190" data-name="Grupo 1099190" transform="translate(0 0)">
          <path id="Trazado_873385" data-name="Trazado 873385" d="M16.468,144.892v-1.952a6.768,6.768,0,0,0-3.1-5.687,3.841,3.841,0,1,0-7.332,0,6.768,6.768,0,0,0-3.1,5.686v1.952a6.766,6.766,0,0,0,2.928,5.57v2.008a1.033,1.033,0,0,1-.574.929l-3.159,1.579A3.821,3.821,0,0,0,0,158.414v7.951a.913.913,0,0,0,1.826,0v-7.556L3.314,160.3a2,2,0,0,1,.59,1.425v4.644a.913.913,0,0,0,1.826,0v-4.644a3.817,3.817,0,0,0-1.125-2.716l-2.071-2.071-.031-.028a2.038,2.038,0,0,1,.436-.295L6.1,155.033a2.908,2.908,0,0,0,.453-.283l2.233,2.233v9.383a.913.913,0,1,0,1.826,0v-9.383l2.233-2.233a2.9,2.9,0,0,0,.453.283l.871.436a.913.913,0,1,0,.817-1.633l-.871-.436a1.033,1.033,0,0,1-.574-.929v-2.008A6.766,6.766,0,0,0,16.468,144.892Zm-6.77-10.8a2.017,2.017,0,0,1,2.015,2.015,2.047,2.047,0,0,1-.032.36,6.769,6.769,0,0,0-3.963,0,2,2,0,0,1,1.98-2.374Zm0,3.9a4.949,4.949,0,0,1,4.943,4.943v.331a5.733,5.733,0,0,1-6.165-1.855.913.913,0,0,0-1.376-.1,5.974,5.974,0,0,1-2.342,1.5A4.948,4.948,0,0,1,9.7,138Zm0,17.317-2.11-2.11a2.892,2.892,0,0,0,.1-.733v-1.115a6.782,6.782,0,0,0,4.03,0v1.115a2.891,2.891,0,0,0,.1.733Zm0-5.478a4.949,4.949,0,0,1-4.943-4.943V144.7a7.323,7.323,0,0,0,2.935-1.462,8.239,8.239,0,0,0,1.694,1.233,7.264,7.264,0,0,0,3.49.9,7.652,7.652,0,0,0,1.761-.211A4.949,4.949,0,0,1,9.7,149.835Z" transform="translate(0 -132.265)" fill="#59836b"/>
        </g>
      </g>
      <g id="Grupo_1099193" data-name="Grupo 1099193" transform="translate(43.924 99.017)">
        <g id="Grupo_1099192" data-name="Grupo 1099192" transform="translate(0 0)">
          <path id="Trazado_873386" data-name="Trazado 873386" d="M377.022,167.107l-5.111-2.555a1.033,1.033,0,0,1-.574-.929v-1.294A5.78,5.78,0,0,0,373.29,158v-1.04h.063a.913.913,0,0,0,.913-.913v-1.952a5.8,5.8,0,0,0-5.794-5.794H366.52a5.8,5.8,0,0,0-5.794,5.794v1.952a.913.913,0,0,0,.913.913l.063,0V158a5.78,5.78,0,0,0,1.952,4.332v1.294a1.033,1.033,0,0,1-.574.929.913.913,0,1,0,.817,1.634,2.907,2.907,0,0,0,.453-.283l2.233,2.233v12.311a.913.913,0,1,0,1.827,0V168.135l2.233-2.233a2.9,2.9,0,0,0,.453.283l4.945,2.473-1.5,1.5a3.817,3.817,0,0,0-1.125,2.716v7.572a.913.913,0,1,0,1.826,0v-7.572a2,2,0,0,1,.59-1.425l1.421-1.421a2.034,2.034,0,0,1,.067.514v9.9a.913.913,0,1,0,1.826,0v-9.9A3.82,3.82,0,0,0,377.022,167.107Zm-14.47-12.164v-.851h0a3.972,3.972,0,0,1,3.967-3.967h1.952a3.972,3.972,0,0,1,3.967,3.967v1.014a13.967,13.967,0,0,1-6.389-1.774.913.913,0,0,0-1.152.114A5.981,5.981,0,0,1,362.552,154.943Zm4.943,11.523-2.11-2.11a2.892,2.892,0,0,0,.1-.733v-.194a5.789,5.789,0,0,0,4.03,0v.194a2.888,2.888,0,0,0,.1.733Zm0-4.5A3.972,3.972,0,0,1,363.529,158v-1.472h0a7.728,7.728,0,0,0,2.143-1.308,16.225,16.225,0,0,0,5.791,1.646V158A3.972,3.972,0,0,1,367.5,161.963Z" transform="translate(-360.726 -148.298)" fill="#59836b"/>
        </g>
      </g>
    </g>
  </g>
</svg>
