<svg xmlns="http://www.w3.org/2000/svg" width="295" height="91" viewBox="0 0 295 91">
  <g id="Grupo_1099187" data-name="Grupo 1099187" transform="translate(-1125 -391)">
    <rect id="Rect치ngulo_400990" data-name="Rect치ngulo 400990" width="295" height="91" rx="10" transform="translate(1125 391)" fill="#effaf4"/>
    <path id="Rect치ngulo_401153" data-name="Rect치ngulo 401153" d="M0,0H295a0,0,0,0,1,0,0V9a10,10,0,0,1-10,10H10A10,10,0,0,1,0,9V0A0,0,0,0,1,0,0Z" transform="translate(1125 463)" fill="#daf2e4"/>
    <circle id="Elipse_11495" data-name="Elipse 11495" cx="32.5" cy="32.5" r="32.5" transform="translate(1215.667 398)" fill="#f1ebe0"/>
    <circle id="Elipse_11496" data-name="Elipse 11496" cx="9.5" cy="9.5" r="9.5" transform="translate(1282.667 431)" fill="#f1ebe0"/>
    <g id="Grupo_1099186" data-name="Grupo 1099186" transform="translate(1179.354 402.852)">
      <path id="Trazado_873373" data-name="Trazado 873373" d="M114.834,5.915h-9.042A2.962,2.962,0,0,0,103,3.943H97.976a4.93,4.93,0,0,0-9.66,0H83.287A2.962,2.962,0,0,0,80.5,5.915H71.457A2.961,2.961,0,0,0,68.5,8.872V64.341A2.961,2.961,0,0,0,71.457,67.3h33.518V65.327H71.457a.987.987,0,0,1-.986-.986V8.872a.987.987,0,0,1,.986-.986H80.33V9.858H72.443v5.915h1.972V11.83H80.5A2.962,2.962,0,0,0,83.287,13.8H103a2.962,2.962,0,0,0,2.788-1.972h6.085V53.5H103.99v7.887H74.415V17.745H72.443V63.355h32.94l8.464-8.464V9.858h-7.887V7.887h8.873a.987.987,0,0,1,.986.986V64.341a.987.987,0,0,1-.986.986H110.89V67.3h3.943a2.961,2.961,0,0,0,2.957-2.957V8.872A2.961,2.961,0,0,0,114.834,5.915Zm-4.352,49.554-4.521,4.521V55.469Zm-6.493-44.625a.987.987,0,0,1-.986.986H83.287a.987.987,0,0,1-.986-.986V6.9a.987.987,0,0,1,.986-.986h6.9V4.929a2.957,2.957,0,1,1,5.915,0v.986H103a.987.987,0,0,1,.986.986v3.943Z" fill="#77af8f"/>
      <path id="Trazado_873374" data-name="Trazado 873374" d="M361,497h1.972v1.972H361Z" transform="translate(-254.053 -431.673)" fill="#77af8f"/>
      <path id="Trazado_873375" data-name="Trazado 873375" d="M199.943,127.5v3.943H196v7.887h3.943v3.943h7.887V139.33h3.943v-7.887H207.83V127.5Zm9.858,5.915v3.943h-3.943V141.3h-3.943v-3.943h-3.943v-3.943h3.943v-3.943h3.943v3.943Z" transform="translate(-110.741 -110.741)" fill="#77af8f"/>
      <path id="Trazado_873376" data-name="Trazado 873376" d="M143.5,343.413h5.915V337.5H143.5Zm1.972-3.943h1.972v1.972h-1.972Z" transform="translate(-65.142 -293.136)" fill="#77af8f"/>
      <path id="Trazado_873377" data-name="Trazado 873377" d="M218.5,285h19.717v1.972H218.5Z" transform="translate(-130.283 -247.538)" fill="#77af8f"/>
      <path id="Trazado_873378" data-name="Trazado 873378" d="M149.415,270H143.5v5.915h5.915Zm-1.972,3.943h-1.972v-1.972h1.972Z" transform="translate(-65.142 -234.51)" fill="#77af8f"/>
      <path id="Trazado_873379" data-name="Trazado 873379" d="M218.5,420h13.8v1.972H218.5Z" transform="translate(-130.283 -364.791)" fill="#77af8f"/>
      <path id="Trazado_873380" data-name="Trazado 873380" d="M218.5,352.5h19.717v1.972H218.5Z" transform="translate(-130.283 -306.165)" fill="#77af8f"/>
      <path id="Trazado_873381" data-name="Trazado 873381" d="M143.5,410.912h5.915V405H143.5Zm1.972-3.943h1.972v1.972h-1.972Z" transform="translate(-65.142 -351.763)" fill="#77af8f"/>
      <path id="Trazado_873382" data-name="Trazado 873382" d="M368.5,140.112h1.972v1.972H368.5Z" transform="translate(-260.567 -121.695)" fill="#77af8f"/>
      <path id="Trazado_873383" data-name="Trazado 873383" d="M368.5,110.112h1.972v1.972H368.5Z" transform="translate(-260.567 -95.639)" fill="#77af8f"/>
    </g>
  </g>
</svg>
