<svg xmlns="http://www.w3.org/2000/svg" width="190" height="91" viewBox="0 0 190 91">
  <g id="Grupo_1099257" data-name="Grupo 1099257" transform="translate(-1230.339 -391)">
    <path id="Rectángulo_401073" data-name="Rectángulo 401073" d="M20,0H190a0,0,0,0,1,0,0V64a0,0,0,0,1,0,0H20A20,20,0,0,1,0,44V20A20,20,0,0,1,20,0Z" transform="translate(1230.339 418)" fill="#daf2e4"/>
    <circle id="Elipse_11499" data-name="Elipse 11499" cx="20.5" cy="20.5" r="20.5" transform="translate(1335.339 401)" fill="#f1ebe0"/>
    <g id="Grupo_1099256" data-name="Grupo 1099256" transform="translate(1285.339 391)">
      <path id="Trazado_873529" data-name="Trazado 873529" d="M2.33,406.484H50.71v-2.33H40.847v-2.44a6.6,6.6,0,0,1,6.586-6.6,6.76,6.76,0,0,1,.85.054l3.636.464.3-2.311-3.636-.464a9.086,9.086,0,0,0-1.145-.073,8.92,8.92,0,0,0-7.751,4.521,8.92,8.92,0,0,0-7.751-4.521,9.056,9.056,0,0,0-1.145.073L2.019,396.528v7.626H0v6.989H9.086v-2.33H2.33Zm2.019-7.9,26.732-3.413a6.745,6.745,0,0,1,.85-.054,6.6,6.6,0,0,1,6.587,6.6v2.44H4.349Z" transform="translate(0 -331.779)" fill="#59836b"/>
      <path id="Trazado_873530" data-name="Trazado 873530" d="M139.43,401.053l-22.819-2.913-.3,2.311L137.1,403.1v5.575H115.124v2.33h24v2.33H73.5v2.33h67.949V408.68H139.43Z" transform="translate(-62.085 -336.304)" fill="#59836b"/>
      <path id="Trazado_873531" data-name="Trazado 873531" d="M45.2,288.861V284.2h4.659v-8.542H45.2V271H36.659v4.659H32V284.2h4.659v4.659ZM34.33,281.872v-3.883h4.659V273.33h3.883v4.659h4.659v3.883H42.872v4.659H38.989v-4.659Z" transform="translate(-27.03 -228.91)" fill="#59836b"/>
      <path id="Trazado_873532" data-name="Trazado 873532" d="M409.2,4.659V0h-8.542V4.659H396V13.2h4.659v4.659H409.2V13.2h4.659V4.659Zm2.33,6.213h-4.659v4.659h-3.883V10.872H398.33V6.989h4.659V2.33h3.883V6.989h4.659Z" transform="translate(-334.496)" fill="#59836b"/>
      <path id="Trazado_873533" data-name="Trazado 873533" d="M20.5,219h2.33v2.33H20.5Z" transform="translate(-17.316 -184.987)" fill="#59836b"/>
      <path id="Trazado_873534" data-name="Trazado 873534" d="M475.5,219h2.33v2.33H475.5Z" transform="translate(-401.649 -184.987)" fill="#59836b"/>
      <path id="Trazado_873535" data-name="Trazado 873535" d="M91.286,92.863a12.22,12.22,0,0,1,19.933-13.335l2.809,2.82,2.809-2.82a12.137,12.137,0,0,1,8.657-3.6c.4,0,.814.02,1.218.06l.23-2.318c-.48-.048-.967-.072-1.448-.072a14.451,14.451,0,0,0-10.307,4.281l-1.158,1.163-1.158-1.163A14.551,14.551,0,0,0,89.136,93.76Z" transform="translate(-74.344 -62.172)" fill="#59836b"/>
      <path id="Trazado_873536" data-name="Trazado 873536" d="M359.517,91.083a12.177,12.177,0,0,1-.942,4.714l2.15.9a14.555,14.555,0,0,0-9.493-19.618l-.628,2.243a12.222,12.222,0,0,1,8.912,11.764Z" transform="translate(-296.152 -65.105)" fill="#59836b"/>
      <path id="Trazado_873537" data-name="Trazado 873537" d="M175.612,248.851l-1.65-1.644-16.348,16.411-16.348-16.411-1.651,1.644,18,18.068Z" transform="translate(-117.932 -208.813)" fill="#59836b"/>
      <path id="Trazado_873538" data-name="Trazado 873538" d="M73.119,154.087l6.3,15.407,5.152-17.578,4.029,12.5,4.884-6.447h20.7v-2.33H92.321l-2.881,3.8-4.979-15.453-5.409,18.455-5.508-13.481-4.123,6.676H50.5v2.33H70.719Z" transform="translate(-42.657 -121.629)" fill="#59836b"/>
      <path id="Trazado_873539" data-name="Trazado 873539" d="M157.5,106h2.33v2.33H157.5Z" transform="translate(-133.038 -89.537)" fill="#59836b"/>
      <path id="Trazado_873540" data-name="Trazado 873540" d="M127.5,130h2.33v2.33H127.5Z" transform="translate(-107.698 -109.809)" fill="#59836b"/>
    </g>
  </g>
</svg>
