<svg xmlns="http://www.w3.org/2000/svg" xmlns:xlink="http://www.w3.org/1999/xlink" width="295.339" height="215" viewBox="0 0 295.339 215">
  <defs>
    <clipPath id="clip-path">
      <rect id="Rectángulo_401163" data-name="Rectángulo 401163" width="295" height="190.199" fill="none"/>
    </clipPath>
    <clipPath id="clip-path-2">
      <path id="Trazado_873503" data-name="Trazado 873503" d="M151.891,0q-2.3,0-4.509.044c-26.62.5-58.672,3.815-83.7,12.108C23.088,25.6-12.57,65.58,4.276,108.675c5.992,15.33,19.008,27.968,34.442,36.771s33.214,14.032,51.218,17.618a323.2,323.2,0,0,0,128.194-.654c24.217-5.05,49.126-13.8,63.9-31.514,15.662-18.775,16-44.807,5.63-66-11.247-22.988-34.789-46.463-53.282-53.116C211.732,3.637,178.369.034,152.628,0Z" transform="translate(0)" fill="none"/>
    </clipPath>
    <clipPath id="clip-path-3">
      <rect id="Rectángulo_401159" data-name="Rectángulo 401159" width="3.899" height="4.291" fill="none"/>
    </clipPath>
    <clipPath id="clip-path-4">
      <rect id="Rectángulo_401160" data-name="Rectángulo 401160" width="19.554" height="5.681" fill="none"/>
    </clipPath>
    <clipPath id="clip-path-5">
      <rect id="Rectángulo_401161" data-name="Rectángulo 401161" width="7.027" height="5.539" fill="none"/>
    </clipPath>
  </defs>
  <g id="Grupo_1099213" data-name="Grupo 1099213" transform="translate(-1125 -391)">
    <rect id="Rectángulo_401124" data-name="Rectángulo 401124" width="295" height="215" rx="10" transform="translate(1125.339 391)" fill="#effaf4"/>
    <g id="Grupo_1099212" data-name="Grupo 1099212" transform="translate(1125 415.801)">
      <g id="Grupo_1099211" data-name="Grupo 1099211" clip-path="url(#clip-path)">
        <g id="Grupo_1099210" data-name="Grupo 1099210" transform="translate(0)">
          <g id="Grupo_1099209" data-name="Grupo 1099209" clip-path="url(#clip-path-2)">
            <path id="Trazado_873387" data-name="Trazado 873387" d="M279.051,61.38c-11.894-13.94-28.872-24.565-47.365-31.218-24.22-8.713-50.936-11.12-77.238-10.631-26.62.495-53.415,3.913-78.442,12.206-40.6,13.452-87.7,44.209-70.858,87.3,5.992,15.33,19.008,27.968,34.442,36.771S72.8,169.845,90.808,173.431A323.207,323.207,0,0,0,219,172.777c24.218-5.051,49.127-13.8,63.9-31.515,15.662-18.776,16.635-45.131,5.63-66a76.218,76.218,0,0,0-9.482-13.886" transform="translate(-0.872 -10.367)" fill="#daf2e4"/>
            <path id="Trazado_873388" data-name="Trazado 873388" d="M130.374,349.694c.014-7.151.1-23.865.048-25.32a121.036,121.036,0,0,1,.71-18.218l17.254-.535,9.136,43.4s-.02.238-.056.676Z" transform="translate(-69.398 -162.718)" fill="#313858"/>
            <path id="Trazado_873389" data-name="Trazado 873389" d="M162.4,350.151c-3.95-16.689-7.484-43.342-7.484-43.342l40.543-.329s1.512,25.709,2.455,43.671Z" transform="translate(-82.481 -163.175)" fill="#313858"/>
            <path id="Trazado_873390" data-name="Trazado 873390" d="M182.721,70.24s1.9,15.15,2.3,16.09c.891,2.083,6.357,8.428,6.357,8.428s-16.728,9.174-21.737,9.174S166.391,92.2,166.391,92.2s3.531-2.313,4.233-3.95c1.041-2.431,2.655-13.461,2.655-13.461Z" transform="translate(-88.431 -37.397)" fill="#fec4ad"/>
            <path id="Trazado_873391" data-name="Trazado 873391" d="M176.358,88.3a39.265,39.265,0,0,0,6.028-1.853c.356-.139.707-.292,1.058-.447.8-.449,1.6-.918,2.366-1.442.285-.193,1.769-1.37,1.864-1.373.5-.5.982-1.022,1.455-1.553.04-.045.084-.083.125-.128-.677-4.751-1.495-11.27-1.495-11.27l-9.442,4.551s-1.614,11.03-2.655,13.461c-.029.067-.069.137-.107.206.346-.064.673-.124.8-.153" transform="translate(-93.468 -37.397)" fill="#f7a281"/>
            <path id="Trazado_873392" data-name="Trazado 873392" d="M156.9,206.119c-6.872-.283-14.864-.684-21.5-2.378.108-20.83.9-58.083,1.511-62.528.955-6.918,1.727-16.37,1.727-16.37l10.96-10.1,4.533,3.721,19.329-5.726,9.388,7.566c-7.055,27.691.729,55.55,0,84.036-4.554.481-7.462,2.54-25.947,1.778" transform="translate(-72.09 -60.024)" fill="#6eafcf"/>
            <path id="Trazado_873393" data-name="Trazado 873393" d="M144.073,116.395s-4.968,17.387-1.443,35.483c1,5.161.728,22.465.728,22.465s.613,38.457-.538,42.167-.609,7.754-7.919,7.7c-6.936-.055-7.093-3.724-7.093-3.724s1.95-43.318,2.272-52.942-1.036-39.9,1.068-43.024c1.651-2.452,12.925-8.121,12.925-8.121" transform="translate(-68.047 -61.971)" fill="#fff"/>
            <path id="Trazado_873394" data-name="Trazado 873394" d="M155.06,115.552s-1.941,5.1-1.941,7.606-.679,15.4-.633,24.553c.022,4.408.368,17.677.368,17.677s-7.192-28.326-6.669-29.778c.551-1.528,3.938-5.747,3.938-5.747s-1.383-4.879-1.844-6.249,1.183-2.9,2.409-4.682c.988-1.434,4.373-3.38,4.373-3.38" transform="translate(-77.817 -61.522)" fill="#c0e7fa"/>
            <path id="Trazado_873395" data-name="Trazado 873395" d="M197.866,111.791s-8.459,17.752-9.567,23.055c-3.2,15.317-4.555,27.637-4.555,27.637s-3.6,47.434-1.9,53.665c1.867,6.842,4.236,7.906,12.923,8.065,9.238.169,18.119-4.032,18.119-4.032s-3.273-36.813-3.273-47.422,4.973-39.6-.652-51.363c-1.353-2.83-11.091-9.6-11.091-9.6" transform="translate(-96.572 -59.519)" fill="#fff"/>
            <path id="Trazado_873396" data-name="Trazado 873396" d="M201.116,111.9s-9.285,12.346-10.873,16.317-3.9,14.482-4.381,34.8c0,0,3.12-11.294,5.315-15.98,3.146-6.715,5.386-10.153,5.171-11.218-.309-1.529-2.36-3.038-2.889-4.775a29.98,29.98,0,0,1,7.656-5.025s1.859-7.194,2.13-9.614-2.13-4.51-2.13-4.51" transform="translate(-98.956 -59.575)" fill="#c0e7fa"/>
            <rect id="Rectángulo_401157" data-name="Rectángulo 401157" width="13.286" height="2.173" transform="translate(94.036 125.169)" fill="#c0e7fa"/>
            <rect id="Rectángulo_401158" data-name="Rectángulo 401158" width="10.087" height="2.173" transform="translate(62.654 125.169)" fill="#c0e7fa"/>
            <path id="Trazado_873397" data-name="Trazado 873397" d="M192.362,107.557l-16.9,8.149s5.549,6.97,8.218,6.79c4.4-.3,11.9-12.91,11.9-12.91Z" transform="translate(-93.417 -57.265)" fill="#5f97b3"/>
            <path id="Trazado_873398" data-name="Trazado 873398" d="M167.946,118.463s-3.7,5.95-5.5,5.295c-2.231-.812-.362-9.552-.362-9.552l4.095-1.47Z" transform="translate(-85.904 -60.023)" fill="#5f97b3"/>
            <path id="Trazado_873399" data-name="Trazado 873399" d="M161.719,36.179a8.969,8.969,0,0,0-2.75,8.32c.5,2.44,2.3,7.875,2.3,7.875s1.932-8.336,3.216-11.282,3.4-6.823,3.4-6.823Z" transform="translate(-84.553 -18.246)" fill="#313131"/>
            <path id="Trazado_873400" data-name="Trazado 873400" d="M166.535,37.64c-1.672.927-4.546,2.9-4.7,4.4a57.9,57.9,0,0,0-.676,8.468c.173,2.582-.379,5.366.019,8.383s2.66,8.674,4.71,10.19c3.3,2.444,8-.707,11-2.716,3.482-2.337,4.773-4.4,4.576-10.846,0,0,2.27-11.849,1.63-13.631-1.555-4.333-10.59-2.495-13.172-2.878s-3.383-1.369-3.383-1.369" transform="translate(-85.735 -20.04)" fill="#fec4ad"/>
            <path id="Trazado_873401" data-name="Trazado 873401" d="M180.757,35.065c.866,1.406-1.969,3.144-2.193,4.43a16.742,16.742,0,0,0,.217,5.568l.968,2.462s-.47,5.406-.03,7.179c.362,1.46,10.012-8.766,7.469-19.549a4.1,4.1,0,0,0-5.377-3.285c-.709-4.774-2.878-6.719-12.3-6.5s-11.051,7.762-11.051,7.762c1.583,1.022.673,3.964,5.609,4.271,9.048.563,10.421-3.251,14-3.866a2.628,2.628,0,0,1,2.683,1.527" transform="translate(-84.369 -13.499)" fill="#313131"/>
            <path id="Trazado_873402" data-name="Trazado 873402" d="M202.051,69.822a10.516,10.516,0,0,1,2.114-3.435c1.152-1.131,2.882-1.156,3.325.638.54,2.185-1.433,3.576-1.544,4.857-.124,1.439-2.76,2.733-3.72,2.26Z" transform="translate(-107.576 -34.924)" fill="#fec4ad"/>
            <g id="Grupo_1099199" data-name="Grupo 1099199" transform="translate(95.349 32.494)" opacity="0.52">
              <g id="Grupo_1099198" data-name="Grupo 1099198">
                <g id="Grupo_1099197" data-name="Grupo 1099197" clip-path="url(#clip-path-3)">
                  <path id="Trazado_873403" data-name="Trazado 873403" d="M206.2,69.669c.833-.51,1.452.184,1.583.943s-.095.31-.619-.187-1.278.53-1.312,1.247c-.046.989-.569,2.162-1.438,2.111s-.381-.284-.119-1.305-.048-.014.357-.992a3.332,3.332,0,0,1,1.547-1.817" transform="translate(-203.92 -69.494)" fill="#965545"/>
                </g>
              </g>
            </g>
            <path id="Trazado_873404" data-name="Trazado 873404" d="M211.634,169.73c1.009-11.3,1.1-22.623,1.934-29.718,1.859-15.828,5.022-17.393,5.022-17.393s6.692,2.34,9.119,18.357c.714,4.715,1.64,15.314.385,30.155-.989,11.7-2.841,13.146-5.693,14.377-3.888,1.679-11.274,3.114-14.654.059,2.135-7.4,3.426-5.471,3.886-15.837" transform="translate(-110.609 -65.284)" fill="#fff"/>
            <path id="Trazado_873405" data-name="Trazado 873405" d="M218.591,122.619s6.8,3.017,9.226,19.034c.714,4.715,1.533,14.637.278,29.478-.989,11.7-2.842,13.146-5.693,14.377-3.888,1.679-11.274,3.114-14.654.059" transform="translate(-110.609 -65.284)" fill="none" stroke="#c0e7fa" stroke-linecap="round" stroke-linejoin="round" stroke-width="1.843"/>
            <path id="Trazado_873406" data-name="Trazado 873406" d="M124.35,170.361c.553-10.452,1.9-20.865,2.072-27.434.385-14.6-.9-15.566-.9-15.566s-5.538,2.751-8.536,12.914a178,178,0,0,0-6.218,29.521c-1.089,10.255.524,13.027,2.663,14.449,3.161,2.1,13.2.577,15.752.25-.978-7.157-5.744-4.6-4.838-14.134" transform="translate(-58.791 -67.809)" fill="#fff"/>
            <path id="Trazado_873407" data-name="Trazado 873407" d="M125.527,127.361s-5.538,2.751-8.536,12.914a178.051,178.051,0,0,0-6.218,29.521c-1.089,10.255.524,13.027,2.663,14.449,3.161,2.1,21.28-.364,23.833-.691" transform="translate(-58.791 -67.809)" fill="none" stroke="#c0e7fa" stroke-linecap="round" stroke-linejoin="round" stroke-width="1.843"/>
            <path id="Trazado_873408" data-name="Trazado 873408" d="M140.876,202.637c-.2-11.449.393-12.862,1.346-23.832" transform="translate(-74.984 -95.199)" fill="none" stroke="#c0e7fa" stroke-linecap="round" stroke-linejoin="round" stroke-width="1.843"/>
            <path id="Trazado_873409" data-name="Trazado 873409" d="M225.987,188.436q-.437-15.137.22-29.173" transform="translate(-120.228 -84.794)" fill="none" stroke="#c0e7fa" stroke-linecap="round" stroke-linejoin="round" stroke-width="1.843"/>
            <path id="Trazado_873410" data-name="Trazado 873410" d="M194.621,235.008c4.1.762,4.282-8.522,4.282-8.522s-6.645-4.7-7.188-.937c-.55,3.815,2.906,9.459,2.906,9.459" transform="translate(-102.041 -119.308)" fill="#808194"/>
            <path id="Trazado_873411" data-name="Trazado 873411" d="M187.871,216.274c2.048.134,6.186-2.8,9.371-.246a32.929,32.929,0,0,1,5.309,5.37s-6.754-.583-10.488,1.2a40.841,40.841,0,0,0-7.442,4.934Z" transform="translate(-98.295 -114.459)" fill="#edbda6"/>
            <path id="Trazado_873412" data-name="Trazado 873412" d="M150.946,214.729c-1.053,1.794.408,8.924.757,10.878,0,0-11.575,4.066-21.24,4.516-11.86.552-14.757-.646-16.855-2.916-2.065-2.234,2.459-16.084,8.085-12.909a23.3,23.3,0,0,0,14.938,2.061c5.748-1.086,14.315-1.63,14.315-1.63" transform="translate(-60.216 -113.846)" fill="#fff"/>
            <path id="Trazado_873413" data-name="Trazado 873413" d="M163.426,217.384c5.748-1.086,14.315-1.63,14.315-1.63-1.053,1.795,2.827,13.362,3.176,15.317" transform="translate(-87.011 -114.871)" fill="none" stroke="#c0e7fa" stroke-linecap="round" stroke-linejoin="round" stroke-width="1.843"/>
            <path id="Trazado_873414" data-name="Trazado 873414" d="M149.7,211.047c-1.915-.374-6.141-3.928-9.48-2.3a28.158,28.158,0,0,0-5.617,3.63s7.325,1.767,10.242,4.371a42.824,42.824,0,0,1,5.729,6.719Z" transform="translate(-71.663 -110.915)" fill="#edbda6"/>
            <path id="Trazado_873415" data-name="Trazado 873415" d="M161.007,214.051c-2.581.887-4.417,3.5-4.865,12.945,0,0,9.922,5.568,17.022,8.036,11.675,3.391,18.466.724,21.575-.9s4.139-17.166-2.4-16.577c-2.274.2-11.952,3.416-18.225.975-5.644-2.2-13.1-4.477-13.1-4.477" transform="translate(-83.133 -113.964)" fill="#fff"/>
            <path id="Trazado_873416" data-name="Trazado 873416" d="M216.621,216.99c-1.522-1.209-3.022-1.472-4.68-2.05s-9.375-.779-10.184.171c0,0,5.6,3.7,6.628,5.275.619,1.047,1.2,2.415,1.886,2.814s1.261.174,1.47-.383a1.676,1.676,0,0,0-.067-.853,5.967,5.967,0,0,1,1.2.851c1.075.986,2.007,1.139,2.031.535a6.889,6.889,0,0,0-1.044-2.191,15.61,15.61,0,0,1,1.534,1.6c.623.783,1.764,1.082,1.738.107s-1.075-2.585-1.972-3.634a5.842,5.842,0,0,0-1.413-1.212c.416.219,1.079.562,1.524.751.811.346,2.793,1.736,3.238.834s-.355-1.4-1.883-2.61" transform="translate(-107.419 -114.178)" fill="#edbda6"/>
            <path id="Trazado_873417" data-name="Trazado 873417" d="M134.829,218.541a33.521,33.521,0,0,0-14.8-4.49" transform="translate(-63.907 -113.964)" fill="none" stroke="#c0e7fa" stroke-linecap="round" stroke-linejoin="round" stroke-width="1.843"/>
            <path id="Trazado_873418" data-name="Trazado 873418" d="M193.1,236.949c-6.915,3.117-16.409,1.164-22.089-1.065-3.79-1.486-7.182-3.491-10.677-5.19a22.482,22.482,0,0,1-4.19-2.323s.061-7.991,2.8-11.276" transform="translate(-83.133 -115.584)" fill="none" stroke="#c0e7fa" stroke-linecap="round" stroke-linejoin="round" stroke-width="1.843"/>
            <path id="Trazado_873419" data-name="Trazado 873419" d="M164.436,212.62c3.542,1.074,14.2,7.482,21.45,6.59" transform="translate(-87.549 -113.202)" fill="none" stroke="#c0e7fa" stroke-linecap="round" stroke-linejoin="round" stroke-width="1.843"/>
            <path id="Trazado_873420" data-name="Trazado 873420" d="M457.882,52.4c-.353,5.881-3.167,15.08-4.446,16.214,0,0-1.715,1.235-7.95.558-6.485-.7-7.727-3.295-7.727-3.295s-7.1-10.5-4.875-19.631,3.565-12.37,8.407-13.852,10.538,1.872,10.538,1.872S458.2,47.108,457.882,52.4" transform="translate(-230.245 -17.046)" fill="#20000c"/>
            <path id="Trazado_873421" data-name="Trazado 873421" d="M428.872,103.772l-.23-8.853,5.833-3.139a7.684,7.684,0,0,0,1.836-1.067c2.246-2.366,2.263-12.044,2.263-12.044l8.278-.231s.028,9.08,2.734,12.217c.648.75,3.828,2.835,3.9,2.532l3.15,4.225-.8,6.647c-8.979-.546-17.967-.538-26.961-.285" transform="translate(-228.216 -41.761)" fill="#edbda6"/>
            <path id="Trazado_873422" data-name="Trazado 873422" d="M451.711,89.3q-.891.176-1.789.32l-.038,0c-1.078.1-2.153.2-3.235.257-.136.007-.272.01-.408.017,1.688-3.234,1.7-11.226,1.7-11.226l8.278-.231a37.011,37.011,0,0,0,1.293,9.387,49.232,49.232,0,0,1-5.8,1.472" transform="translate(-237.586 -41.761)" fill="#f7a281"/>
            <path id="Trazado_873423" data-name="Trazado 873423" d="M437.016,111.318l1.684-4.558L449,111.4l6.323-4.641,1.953,8.222,4.447,57.306-22.812,1.018Z" transform="translate(-232.675 -56.84)" fill="#6eafcf"/>
            <path id="Trazado_873424" data-name="Trazado 873424" d="M400.315,147.053c.736-6.52,4.06-15.889,4.06-15.889l-.874-15.221a23.091,23.091,0,0,0-5.482,5.354c-2.285,3.329-8.889,24.612-9.8,31.609s.766,6.645,3.165,6.245c.634-.106,2.88,2.079,5.837,1.822.977-4.651,1.8-9.343,3.1-13.92" transform="translate(-206.559 -61.729)" fill="#fff"/>
            <path id="Trazado_873425" data-name="Trazado 873425" d="M421.873,226.168a183.718,183.718,0,0,0,33.81,2.616c.628,2.733,1.4,5.691,2.354,8.957,5.285,18.188-1.9,57.252-1.9,57.252a46.824,46.824,0,0,1-20.251,2.791c-.9-.056-1.829-.13-2.8-.23-4.782-.479-8.106-.6-14.107-2.76,0,0-5.164-29.708-1.364-51.353,1.178-6.707,2.97-12.042,4.258-17.273" transform="translate(-221.602 -120.416)" fill="#313858"/>
            <path id="Trazado_873426" data-name="Trazado 873426" d="M470.09,224.079s-1.245-22.692-1.654-30.256c-1.734-32.067-.053-44.539-.074-50.466-.015-4.136,1.674-11.721,1.674-11.721l2.567-25.727,8.67,3.331c.66,2,4.569,20.471,4.029,24.145-.377,2.586.139,23.86,3.024,40.329,1.876,10.711.068,37.631-1.4,49.591-5.43.328-9.52,1.785-16.834.775" transform="translate(-248.985 -56.388)" fill="#fff"/>
            <path id="Trazado_873427" data-name="Trazado 873427" d="M413.911,221.4c-.7-9.038-3.175-32.016-1.4-42.142,2.676-15.246,5.275-46.507,4.363-49.628-1.181-4.04-2.118-7.061-2.118-7.061s.822-10.129,1.476-12.124l8.383-4.242,2.564-.584,12.064,36.612.047,2.276s.824,67.829-2.234,79.419c-.34,1.716-17.34,1.472-23.149-2.524" transform="translate(-219.294 -56.233)" fill="#fff"/>
            <path id="Trazado_873428" data-name="Trazado 873428" d="M432.908,253.327s-7.757,9.007-12.711,7.142l-.306-1.865a13.063,13.063,0,0,0,6.508-2.778,14.719,14.719,0,0,0,4-4.458Z" transform="translate(-223.557 -133.832)" fill="#c0e7fa"/>
            <path id="Trazado_873429" data-name="Trazado 873429" d="M437.065,106.238l-2.612,1.481,1.491,10.676,3.459-.917.02,6.335c6.66,3.507,11.387,17.371,11.387,17.371s-3.343-14.2-5.431-19.107c-5.521-12.968-8.313-15.838-8.313-15.838" transform="translate(-231.31 -56.563)" fill="#c0e7fa"/>
            <path id="Trazado_873430" data-name="Trazado 873430" d="M414.377,164.5l.221,1.774-37.839-20.061,2.764-3.378,19.468-10.463Z" transform="translate(-200.593 -70.475)" fill="#5f97b3"/>
            <path id="Trazado_873431" data-name="Trazado 873431" d="M414.6,168.29,392.7,180l-15.944-31.775,22.453-12.067Z" transform="translate(-200.593 -72.495)" fill="#6eafcf"/>
            <path id="Trazado_873432" data-name="Trazado 873432" d="M419.722,181.055a3.57,3.57,0,0,0,3.832,1.219s-.351-5.3-2.288-3.833-1.544,2.615-1.544,2.615" transform="translate(-223.45 -94.868)" fill="#5f97b3"/>
            <path id="Trazado_873433" data-name="Trazado 873433" d="M415.959,156.466c.882-1.493,0-3.592,2.244-6.475s3.086-6.006,3.928-5.039-.842,5.039-.842,5.039,1.824-3.922,2.946-3.328.842,2.674.842,2.674,1.122-1.067,1.824.655a3.033,3.033,0,0,1,0,2.762s1.543-.446,1.683.891-.7,1.634-.7,1.634,1.262,1.782-.281,2.376-5.05,1.634-6.032,2.229a43.28,43.28,0,0,0-4.3,4.377l-2.852-5.121s.757-1.351,1.538-2.673" transform="translate(-220.645 -77.08)" fill="#edbda6"/>
            <path id="Trazado_873434" data-name="Trazado 873434" d="M401.412,172.074c1.324,4.87,3.2,7.01,5.487,6.946,0,0,0,1.595-5.487,7.722-4.189,4.678-8,6.994-10.1,6.994s-3.448-6-2.7-9.9,3.682-3.57,6.541-6.249c2.58-2.417,6.255-5.518,6.255-5.518" transform="translate(-206.794 -91.615)" fill="#fff"/>
            <path id="Trazado_873435" data-name="Trazado 873435" d="M390.739,180.67c1.273-.967,2.98-1.5,4.662-3.078,2.58-2.416,6.255-5.517,6.255-5.517,1.324,4.869,3.2,7.01,5.487,6.946,0,0,0,1.595-5.487,7.722-4.189,4.677-8,6.994-10.1,6.994-1.275,0-2.273-2.212-2.693-4.822" transform="translate(-207.039 -91.615)" fill="none" stroke="#c0e7fa" stroke-linecap="round" stroke-linejoin="round" stroke-width="1.843"/>
            <path id="Trazado_873436" data-name="Trazado 873436" d="M463.613,127.144a.774.774,0,1,1-.774-.774.774.774,0,0,1,.774.774" transform="translate(-246.011 -67.281)" fill="#fff"/>
            <path id="Trazado_873437" data-name="Trazado 873437" d="M465.908,145.266a.774.774,0,1,1-.774-.774.774.774,0,0,1,.774.774" transform="translate(-247.233 -76.93)" fill="#fff"/>
            <path id="Trazado_873438" data-name="Trazado 873438" d="M438.751,51.566a16.693,16.693,0,0,0,.743,3.783c.293.873.622,1.492.93,2.248.612,1.513,4.016,4.96,6.417,6.12a4.455,4.455,0,0,0,2.553.085c3.068-.841,6.367-5.112,7.4-7.349a23.614,23.614,0,0,0,1.379-7.558c.141-2.856.361-6.642.237-8.852-.336-5.925-4.652-7.233-9.17-6.611-5.19.718-10.655,3.988-10.669,5.741a111.71,111.71,0,0,0,.184,12.395" transform="translate(-233.457 -17.724)" fill="#edbda6"/>
            <path id="Trazado_873439" data-name="Trazado 873439" d="M429.668,65.257a26.265,26.265,0,0,0,4.989-1.806,17.532,17.532,0,0,1,1.991-.979,23.422,23.422,0,0,1-2.383-14.785c1.583-9.3,6.156-7.353,11.624-8.739,2.482-.628,4.569-5.714,4.75-6,1.588-2.525-.868-5.265-.8-5.275a9.647,9.647,0,0,0-4.715-1.661c-6.794-1.082-11.915,3.771-13.6,8.508-2.139,6.031-.783,13.861-.551,19.331.315,7.436-1.358,11.451-1.3,11.408" transform="translate(-228.762 -13.767)" fill="#3d2716"/>
            <path id="Trazado_873440" data-name="Trazado 873440" d="M471.11,35.418a4.725,4.725,0,0,1,.209,1.248c-.119,3.817,3.448,6.94,3.536,7.226,1.258,3.942-1.365,15.162-2.864,20.6a42.275,42.275,0,0,0,6.921,2.658,39.106,39.106,0,0,1-.451-11.751c1.58-13.568,1.843-15.668-.286-20.271-1.407-3.058-4.654-5.532-6.322-5.451a1.915,1.915,0,0,0-.255.028,1.789,1.789,0,0,0-.191.039c-1.492.506-.675,3.935-.3,5.678" transform="translate(-250.526 -15.797)" fill="#3d2716"/>
            <path id="Trazado_873441" data-name="Trazado 873441" d="M471.367,103.477l4.074,1.763L477.7,114.9l-2.781-.472,1.871,7.046c-3.737,4.283-7.359,18.239-7.359,18.239s1.2-11.812,1.983-19.475c1.447-14.133-.05-16.762-.05-16.762" transform="translate(-249.935 -55.093)" fill="#c0e7fa"/>
            <path id="Trazado_873442" data-name="Trazado 873442" d="M469.434,181.4c.319,13.644.027,55.814.337,66.941" transform="translate(-249.935 -96.583)" fill="none" stroke="#c0e7fa" stroke-linecap="round" stroke-linejoin="round" stroke-width="1.843"/>
            <path id="Trazado_873443" data-name="Trazado 873443" d="M462.647,108.667s4.168-3.409,4.672-7.042l2.022,1.759s1.643,9.125-.7,10.058c-3.267,1.3-6-4.775-6-4.775" transform="translate(-246.321 -54.107)" fill="#5f97b3"/>
            <path id="Trazado_873444" data-name="Trazado 873444" d="M450.918,108.667s-5.88-2.187-8.278-7.042l-2.023,1.759s2.191,10.631,5.178,10.785c4.224.218,5.123-5.5,5.123-5.5" transform="translate(-234.593 -54.107)" fill="#5f97b3"/>
            <path id="Trazado_873445" data-name="Trazado 873445" d="M490.706,249.786a15.448,15.448,0,0,0,2.418.98,4.594,4.594,0,0,0,.876-2.1c.037-1.415,3.339-8.176,3.339-8.176l-5.286-2.2c-.7.953-3.008,5.428-4.035,6.356a4.926,4.926,0,0,0-1.17,2.568,36.713,36.713,0,0,0,3.858,2.574" transform="translate(-259.206 -126.869)" fill="#edbda6"/>
            <path id="Trazado_873446" data-name="Trazado 873446" d="M509.838,145.794c-2.312-8.079-7.563-25.618-8.844-27.855-2.143-3.739-6.891-4.907-6.891-4.907L493.067,130.8s4.312,14.77,7.367,20.666a66.845,66.845,0,0,1-3.037,10.719c-2.062,4.971-5.647,14.266-5.647,14.266,1.192.329,5.366,3.805,5.978,4.7,0,0,6.076-9.143,9.147-13.967,4.712-7.4,5.062-14.056,2.963-21.391" transform="translate(-261.816 -60.18)" fill="#fff"/>
            <path id="Trazado_873447" data-name="Trazado 873447" d="M493.068,151.039s4.312,14.77,7.367,20.667a66.844,66.844,0,0,1-3.037,10.719c-2.062,4.971-5.647,14.266-5.647,14.266,1.192.329,5.366,3.805,5.978,4.7,0,0,6.076-9.143,9.147-13.967" transform="translate(-261.817 -80.416)" fill="none" stroke="#c0e7fa" stroke-linecap="round" stroke-linejoin="round" stroke-width="1.843"/>
            <line id="Línea_567" data-name="Línea 567" x1="1.469" y2="5.869" transform="translate(238.518 85.917)" fill="none" stroke="#c0e7fa" stroke-linecap="round" stroke-linejoin="round" stroke-width="1.843"/>
            <path id="Trazado_873448" data-name="Trazado 873448" d="M482.484,253.327s7.757,9.007,12.711,7.142l.306-1.865a13.063,13.063,0,0,1-6.508-2.778,14.719,14.719,0,0,1-4-4.458Z" transform="translate(-256.883 -133.832)" fill="#c0e7fa"/>
            <path id="Trazado_873449" data-name="Trazado 873449" d="M298.584,92.485c.431-7.7,15.392-7.7,21.627-5.4a8.121,8.121,0,0,1,5.442,8.468" transform="translate(-158.971 -45.654)" fill="none" stroke="#313858" stroke-miterlimit="10" stroke-width="2.369"/>
            <path id="Trazado_873450" data-name="Trazado 873450" d="M328.7,84.486c-1.264,5.623-2.536,10.829-3.778,15.662H296.213c-1.122-5.222-2.385-10.859-3.814-16.962,2.936-1.466,6.846-1.961,8.145-4.558.48-.959.609-4.443.633-6.257a43.839,43.839,0,0,0-.227-5.537h15.815a76.016,76.016,0,0,0-.159,8.47c.115,2,.4,3.7,1.006,4.267,1.894,1.79,7.377,3.135,11.092,4.916" transform="translate(-155.678 -35.583)" fill="#edbda6"/>
            <path id="Trazado_873451" data-name="Trazado 873451" d="M351.828,318.752c.206-20.7-3.293-40.085-3.206-42.958.391-12.972-.3-26.169-.3-26.169l-22.7-8.173L323.1,292.374s.912,11.906,2,26.378Z" transform="translate(-172.025 -128.554)" fill="#313858"/>
            <path id="Trazado_873452" data-name="Trazado 873452" d="M266.955,318.752H295.6c.594-4.826.989-7.962.989-7.962l-3.433-69.338-21.671,10.418s-4.74,46.181-4.534,66.881" transform="translate(-142.128 -128.554)" fill="#313858"/>
            <path id="Trazado_873453" data-name="Trazado 873453" d="M269.723,193.594c18.408-.31,32.151,2.546,50.311.223-.613-16.954-.607-41.652.858-52.889,2.082-15.975,3.346-28.817,3.346-28.817L307.078,102.2l-4.03,2.138-6.793.941-8.115-.342-4.738-1.522-12.465,8.693a92.217,92.217,0,0,0-.769,28.817c1.447,11.1.356,36.174-.444,52.666" transform="translate(-143.436 -54.415)" fill="#6eafcf"/>
            <path id="Trazado_873454" data-name="Trazado 873454" d="M309.459,78.627a3.843,3.843,0,0,1-.317.518c5.1.391,12.79-.615,16.416-3.3-.014-.18-.028-.361-.038-.546a76.089,76.089,0,0,1,.16-8.47H309.864a43.734,43.734,0,0,1,.227,5.538c-.023,1.813-.152,5.3-.633,6.257" transform="translate(-164.593 -35.583)" fill="#f7a281"/>
            <path id="Trazado_873455" data-name="Trazado 873455" d="M261.258,121.334c1.582,16.139,3.727,26.786,3.479,41.612-.164,9.866-2.317,54.2-2.317,54.2s13.5-.187,23.929-4.736c7.023-3.062,6.093-24.457,5.69-47.97-.3-17.562-13.094-35.522-14.174-47.35-.452-4.943,1.288-18.935,1.288-18.935l-11.612,5.794Z" transform="translate(-139.098 -52.258)" fill="#fff"/>
            <path id="Trazado_873456" data-name="Trazado 873456" d="M353.678,116.316c-.463,14.826-.078,21.777-.375,24.56-1.028,9.618-1.942,15.012-1.894,23.317.1,17.537,3.887,51.148,3.887,51.148s-19.444,1.624-26.358-4.325c-7.751-6.669-4.933-47.027-3.644-54.4,2.719-15.546,8.967-19.764,11.228-35.065a105.165,105.165,0,0,0,.517-25.266l14.273,6.181Z" transform="translate(-172.353 -51.264)" fill="#fff"/>
            <path id="Trazado_873457" data-name="Trazado 873457" d="M300.159,96.946l2.591-2.012a25.75,25.75,0,0,0,2.609,2.341c4.878,3.48,7.575,3.791,7.575,3.791s-4.986,3.99-7.309,3.672c-4.271-.585-5.466-7.792-5.466-7.792" transform="translate(-159.81 -50.544)" fill="#5f97b3"/>
            <path id="Trazado_873458" data-name="Trazado 873458" d="M338.282,95.976l-1.655-1.912a36.723,36.723,0,0,1-3.142,2.879c-4.788,3.419-7.435,3.724-7.435,3.724s4.894,3.92,7.173,3.607c4.192-.575,5.058-8.3,5.058-8.3" transform="translate(-173.595 -50.081)" fill="#5f97b3"/>
            <path id="Trazado_873459" data-name="Trazado 873459" d="M336.61,251.33a1.649,1.649,0,1,1-1.65-1.65,1.65,1.65,0,0,1,1.65,1.65" transform="translate(-177.461 -132.934)" fill="#c0e7fa"/>
            <path id="Trazado_873460" data-name="Trazado 873460" d="M337.133,288.037a1.649,1.649,0,1,1-1.65-1.65,1.65,1.65,0,0,1,1.65,1.65" transform="translate(-177.739 -152.477)" fill="#c0e7fa"/>
            <path id="Trazado_873461" data-name="Trazado 873461" d="M295.362,94.847s-1.45,6.442.817,17.383c1.43,6.9,1.98,11.514,3.424,16.941a116.266,116.266,0,0,1,4,25.24l-16.054-42.738,2.755-3.394-5.506-2.658s4.411-7.822,6.533-9.339a7.074,7.074,0,0,1,4.034-1.437" transform="translate(-151.63 -50.498)" fill="#c0e7fa"/>
            <path id="Trazado_873462" data-name="Trazado 873462" d="M337.04,94.064s1.044,6.58-1.078,18.064-4.684,22.139-5.822,26.083c-3.152,10.931-3.314,16.685-3.314,16.685s15.209-40.508,18.2-45.613l-3.031-2.307,3.454-2.653s-3.284-7.181-5.406-8.7-3-1.562-3-1.562" transform="translate(-174.008 -50.081)" fill="#c0e7fa"/>
            <path id="Trazado_873463" data-name="Trazado 873463" d="M365.913,156.668c.645-10.6.3-21.638.948-28.817,1.506-16.694,5.086-18.345,5.086-18.345s5.986,2.779,8.875,19.3c.812,4.645,3.374,14.566,2.177,28.163-.9,10.24-2.724,11.609-5.547,12.87-3.869,1.728-11.346,3.545-14.975,1.192,1.922-6.651,3.354-5.038,3.436-14.368" transform="translate(-192.989 -58.303)" fill="#fff"/>
            <path id="Trazado_873464" data-name="Trazado 873464" d="M371.947,109.506s5.986,2.779,8.875,19.3c.812,4.645,3.374,14.566,2.177,28.163-.9,10.24-2.724,11.61-5.547,12.87-3.869,1.727-11.346,3.545-14.975,1.192" transform="translate(-192.989 -58.303)" fill="none" stroke="#c0e7fa" stroke-linecap="round" stroke-linejoin="round" stroke-width="1.843"/>
            <path id="Trazado_873465" data-name="Trazado 873465" d="M264.419,157.221c-.645-10.6-.3-21.638-.948-28.817-1.506-16.694-3.361-17.859-3.361-17.859s-7.078,3.176-9.472,14.988c-.937,4.622-3.665,18.718-3.3,31.994.279,10.276,2.732,12.823,5.592,14,4.158,1.708,16.144.021,19.091-.5-1.922-6.651-7.515-4.475-7.6-13.805" transform="translate(-131.668 -58.856)" fill="#fff"/>
            <path id="Trazado_873466" data-name="Trazado 873466" d="M260.11,110.545s-7.078,3.176-9.472,14.988c-.937,4.622-3.665,18.718-3.3,31.994.279,10.276,2.733,12.823,5.592,14,4.158,1.708,16.144.021,19.091-.5" transform="translate(-131.667 -58.856)" fill="none" stroke="#c0e7fa" stroke-linecap="round" stroke-linejoin="round" stroke-width="1.843"/>
            <path id="Trazado_873467" data-name="Trazado 873467" d="M284.356,193.981c-1.642-11.153-1.1-12.6-1.305-23.883" transform="translate(-150.701 -90.563)" fill="none" stroke="#c0e7fa" stroke-linecap="round" stroke-linejoin="round" stroke-width="1.843"/>
            <path id="Trazado_873468" data-name="Trazado 873468" d="M379.65,176.2q-.924-14.035-.666-28.113" transform="translate(-201.748 -78.845)" fill="none" stroke="#c0e7fa" stroke-linecap="round" stroke-linejoin="round" stroke-width="1.843"/>
            <path id="Trazado_873469" data-name="Trazado 873469" d="M347.428,222.061c4.4.364,4.154-7.956,4.154-7.956s-7.5-3.941-7.863-.4,3.709,8.361,3.709,8.361" transform="translate(-182.99 -112.993)" fill="#808194"/>
            <path id="Trazado_873470" data-name="Trazado 873470" d="M339.677,204.779c2.274.009,6.658-2.969,10.24-.756a32.032,32.032,0,0,1,5.848,4.6s-7.187-.113-11.121,1.749a45.607,45.607,0,0,0-7.806,4.994Z" transform="translate(-179.338 -108.189)" fill="#edbda6"/>
            <path id="Trazado_873471" data-name="Trazado 873471" d="M296.363,204.56c-1.054,1.745,3.845,12.054,4.32,13.762a177.576,177.576,0,0,1-21.968,2.575c-12.522.538-21.64-.019-24.521-1.984s.626-15.905,8.057-13.068a34.17,34.17,0,0,0,18.02,1.094c6.505-1.378,16.092-2.38,16.092-2.38" transform="translate(-134.803 -108.911)" fill="#fff"/>
            <path id="Trazado_873472" data-name="Trazado 873472" d="M311.107,206.939c6.505-1.377,16.092-2.38,16.092-2.38-1.054,1.745,3.845,12.054,4.32,13.762" transform="translate(-165.639 -108.911)" fill="none" stroke="#c0e7fa" stroke-linecap="round" stroke-linejoin="round" stroke-width="1.843"/>
            <path id="Trazado_873473" data-name="Trazado 873473" d="M294.417,202.006c-2.26-.252-7.609-3.5-11.42-1.709a32.031,32.031,0,0,0-6.338,3.9s8.984,1.258,12.678,3.558a45.628,45.628,0,0,1,7.181,5.858Z" transform="translate(-147.298 -106.357)" fill="#edbda6"/>
            <path id="Trazado_873474" data-name="Trazado 873474" d="M309.2,204.485c-2.915,1-4.8,3.62-4.363,12.525a112.463,112.463,0,0,0,19.435,4.979c12.377,1.973,19.186.01,22.273-1.612s3.947-15.283-2.777-14.39c-2.366.314-12.5,3.814-19.439,1.958-6.424-1.717-15.129-3.46-15.129-3.46" transform="translate(-162.265 -108.871)" fill="#fff"/>
            <path id="Trazado_873475" data-name="Trazado 873475" d="M352.338,197.729a53.624,53.624,0,0,0,7.855-2.978,16.4,16.4,0,0,1,4.933-2.269c2.053-.423,3.011-.721,3.437.126s-2.878,1.466-3.66,1.636a6.225,6.225,0,0,0-2.019,1.45s2.639-.408,4.1-.465,2.462-.279,3.26.254-.221,1.191-1.275,1.2a6.776,6.776,0,0,0-2.312.6,7.327,7.327,0,0,1,2.326.484c.467.354-.18.889-1.7,1.116a18.219,18.219,0,0,0-2.483.526s-.536,1.155-2.526,1.023-9.936-2.7-9.936-2.7" transform="translate(-187.591 -102.259)" fill="#edbda6"/>
            <path id="Trazado_873476" data-name="Trazado 873476" d="M372.146,206.416c-2.984.492-5.5.894-7.607,1.219l.031.232a9.189,9.189,0,0,1-.023,1.073,28.47,28.47,0,0,0,4.876-.421,22.434,22.434,0,0,0,2.712-.741c.961-.39,1.6-1.625.01-1.363" transform="translate(-194.087 -109.88)" fill="#edbda6"/>
            <path id="Trazado_873477" data-name="Trazado 873477" d="M278.723,211.71a51.316,51.316,0,0,0-18.65-2.69" transform="translate(-138.467 -111.263)" fill="none" stroke="#c0e7fa" stroke-linecap="round" stroke-linejoin="round" stroke-width="1.843"/>
            <path id="Trazado_873478" data-name="Trazado 873478" d="M264.978,239.934c10.483.465,20.595-1.274,30.075-1.987" transform="translate(-141.079 -126.687)" fill="none" stroke="#c0e7fa" stroke-linecap="round" stroke-linejoin="round" stroke-width="1.843"/>
            <path id="Trazado_873479" data-name="Trazado 873479" d="M346.814,222.731c-6.721,3.372-16.557,2.9-22.727,1.712-4.211-.81-8.13-2.135-12.2-3.2-2.554-.671-4.329-1.09-6.991-1.556,0,0-1.194-7.326,1.461-10.707" transform="translate(-162.19 -111.263)" fill="none" stroke="#c0e7fa" stroke-linecap="round" stroke-linejoin="round" stroke-width="1.843"/>
            <path id="Trazado_873480" data-name="Trazado 873480" d="M314.637,204.56c4.221.656,16.841,5.447,24.551,3.889" transform="translate(-167.518 -108.911)" fill="none" stroke="#c0e7fa" stroke-linecap="round" stroke-linejoin="round" stroke-width="1.843"/>
            <path id="Trazado_873481" data-name="Trazado 873481" d="M346.7,51.155s-.192-4.166,3.3-4.059c2.228.068,2.4,2.11.664,4.745-.731,1.11-.8,3.618-1.712,4.425-1.1.981-2.027-.533-2.362-1.222-.555-1.141.11-3.888.11-3.888" transform="translate(-184.41 -25.073)" fill="#edbda6"/>
            <path id="Trazado_873482" data-name="Trazado 873482" d="M350.658,51.2c1.234-.685,2.6-.548,1.782.822s-1.371,1.782-1.3,3.291a1.258,1.258,0,0,1-1.165,1.44Z" transform="translate(-186.332 -27.045)" fill="#e7a699"/>
            <path id="Trazado_873483" data-name="Trazado 873483" d="M301.011,51.155s.192-4.166-3.3-4.059c-2.228.068-2.4,2.11-.665,4.745.731,1.11.805,3.618,1.712,4.425,1.1.981,2.026-.533,2.361-1.222.555-1.141-.11-3.888-.11-3.888" transform="translate(-157.53 -25.073)" fill="#edbda6"/>
            <path id="Trazado_873484" data-name="Trazado 873484" d="M300.99,51.2c-1.234-.685-2.605-.548-1.782.822s1.371,1.782,1.3,3.291a1.258,1.258,0,0,0,1.165,1.44Z" transform="translate(-159.17 -27.045)" fill="#e7a699"/>
            <path id="Trazado_873485" data-name="Trazado 873485" d="M325.285,22.166a39.345,39.345,0,0,1-.7,4.238c-.083.483-.174,1.036-.265,1.677-.721,5-1.636,11.8-2.031,12.815-.652,1.682-4.224,4.407-5.921,5.4s-5.963.793-7.659-.2-5.534-3.517-6.186-5.2c-.4-1.033-1.349-8.029-2.075-13.113-.083-.58-.163-1.08-.24-1.522a38.155,38.155,0,0,1-.688-4.095c-.26-4.225,4.495-10.369,12.886-10.369,9.924,0,13.146,6.145,12.883,10.369" transform="translate(-159.462 -6.281)" fill="#edbda6"/>
            <g id="Grupo_1099202" data-name="Grupo 1099202" transform="translate(143.465 7.024)" style="mix-blend-mode: multiply;isolation: isolate">
              <g id="Grupo_1099201" data-name="Grupo 1099201">
                <g id="Grupo_1099200" data-name="Grupo 1099200" clip-path="url(#clip-path-4)">
                  <path id="Trazado_873486" data-name="Trazado 873486" d="M306.823,20.7a60.458,60.458,0,0,1,16.865-1.234l2.689-1.8a24.048,24.048,0,0,0-10.951-2.646c-6.2.046-8.6,5.681-8.6,5.681" transform="translate(-306.823 -15.022)" fill="#e1d2e3"/>
                </g>
              </g>
            </g>
            <path id="Trazado_873487" data-name="Trazado 873487" d="M323.949,21.249c-.136.38-.26.721-.368,1.017l.044.066c-.083.483-.174,1.036-.265,1.677-.175,1.218-.362,2.541-.551,3.862L321.4,29.6a57.516,57.516,0,0,0,1.291-7.379l-.008-.016a16.455,16.455,0,0,1-1.5-6.523l-.522-3.371-2.25.1c-.324-.332-5.206-.153-9.447.173-5.38.415-6.993,2.331-6.993,2.331-.313,2.021-.716,5.093-1.742,6.862l-.058.1-.079.137c.251,1.274.361,5.067,1.117,7.156l-1.13-1.3c-.2-1.424-.4-2.856-.591-4.161-.027-.186-.052-.351-.078-.521l-.008.013s-.227-.771-.541-1.865c-.232-.807-.807-4.937-.945-5.52q-.067-.274-.116-.53c-.494-2.59.56-12.21,15.38-11.04.177.014.351.036.525.061,4.885.644,7.125,2.945,7.125,2.945L322.5,10.2c2.777.415,3.074,2.023,2.437,5.189-.028.138-.71,5.078-.989,5.86" transform="translate(-158.506 -2.209)" fill="#422129"/>
            <path id="Trazado_873488" data-name="Trazado 873488" d="M280.892,102l.083.877-.042-.438.042.438c-.041,0-5.392.258-7.711,3.576-2.522,3.609-6.51,13.911-5.475,16.035,1.145,2.349,6.12,4.49,6.17,4.511l-.345.81c-.217-.093-5.33-2.295-6.617-4.936-1.354-2.778,3.269-13.668,5.545-16.925,2.557-3.66,8.166-3.931,8.349-3.948" transform="translate(-142.024 -54.309)" fill="#313858"/>
            <path id="Trazado_873489" data-name="Trazado 873489" d="M272.475,113.223a37.462,37.462,0,0,1,3.384-6.766c2.319-3.318,7.67-3.572,7.711-3.576l-.042-.439-.042-.439c-.183.018-5.792.288-8.349,3.948a40.477,40.477,0,0,0-3.51,7.021q.424.123.847.25" transform="translate(-144.619 -54.309)" fill="#313858"/>
            <path id="Trazado_873490" data-name="Trazado 873490" d="M272.475,113.223a37.462,37.462,0,0,1,3.384-6.766c2.319-3.318,7.67-3.572,7.711-3.576l-.042-.439-.042-.439c-.183.018-5.792.288-8.349,3.948a40.477,40.477,0,0,0-3.51,7.021Q272.052,113.1,272.475,113.223Z" transform="translate(-144.619 -54.309)" fill="none" stroke="#313858" stroke-linecap="round" stroke-linejoin="round" stroke-width="0.554"/>
            <path id="Trazado_873491" data-name="Trazado 873491" d="M280.813,153.767l1.284-.018a1.166,1.166,0,1,1-.32,2.283l-1.23-.371a.209.209,0,0,1-.147-.23l.208-1.484a.21.21,0,0,1,.2-.18" transform="translate(-149.289 -81.858)" fill="#313858"/>
            <path id="Trazado_873492" data-name="Trazado 873492" d="M298.421,102.257l-.321.82.16-.41-.161.41c.038.015,5.113,1.731,6.429,5.56,1.431,4.164,2.429,15.165.85,16.922-1.747,1.944-7.119,2.633-7.174,2.639l.109.874c.234-.029,5.755-.738,7.719-2.923,2.066-2.3.62-14.04-.671-17.8-1.451-4.222-6.769-6.027-6.94-6.094" transform="translate(-158.713 -54.443)" fill="#313858"/>
            <path id="Trazado_873493" data-name="Trazado 873493" d="M305.92,116.073a37.45,37.45,0,0,0-1.391-7.436c-1.316-3.829-6.391-5.546-6.429-5.561l.161-.41.16-.41c.171.067,5.489,1.872,6.94,6.094a40.519,40.519,0,0,1,1.441,7.716q-.442,0-.883.007" transform="translate(-158.714 -54.443)" fill="#313858"/>
            <path id="Trazado_873494" data-name="Trazado 873494" d="M305.92,116.073a37.45,37.45,0,0,0-1.391-7.436c-1.316-3.829-6.391-5.546-6.429-5.561l.161-.41.16-.41c.171.067,5.489,1.872,6.94,6.094a40.519,40.519,0,0,1,1.441,7.716Q306.361,116.068,305.92,116.073Z" transform="translate(-158.714 -54.443)" fill="none" stroke="#313858" stroke-linecap="round" stroke-linejoin="round" stroke-width="0.554"/>
            <path id="Trazado_873495" data-name="Trazado 873495" d="M297.539,156.034l-1.194-.36a1.181,1.181,0,0,0-1.342.576,1.169,1.169,0,0,0,1.06,1.695l1.211-.017a.209.209,0,0,0,.2-.18l.209-1.484a.21.21,0,0,0-.147-.23" transform="translate(-156.997 -82.861)" fill="#313858"/>
            <path id="Trazado_873496" data-name="Trazado 873496" d="M294.559,100.529l1.125,0a.323.323,0,0,1,.09.013l1.081.312a.322.322,0,0,0,.384-.179l.17-.383a.322.322,0,0,0-.043-.333l-.049-.061a1.93,1.93,0,0,1-.425-1.113l-.064-1.262a.322.322,0,0,0-.3-.3l-.31-.023-.043-.006-.3-.064a.323.323,0,0,0-.371.211l-.409,1.2a1.93,1.93,0,0,1-.714.953l-.064.045a.322.322,0,0,0-.133.308l.058.415a.322.322,0,0,0,.32.278" transform="translate(-156.626 -51.706)" fill="#313858"/>
            <g id="Grupo_1099205" data-name="Grupo 1099205" transform="translate(155.054 20.124)" opacity="0.3">
              <g id="Grupo_1099204" data-name="Grupo 1099204">
                <g id="Grupo_1099203" data-name="Grupo 1099203" clip-path="url(#clip-path-5)">
                  <path id="Trazado_873497" data-name="Trazado 873497" d="M338.409,45.869a3.526,3.526,0,0,1-3.6,2.707c-2.675,0-2.749-1.741-3-2.769a4.645,4.645,0,0,1-.135-2.084c.244-.6.947-.618,3.056-.66s3.27-.07,3.611.24.419,1.02.071,2.566" transform="translate(-331.608 -43.038)" fill="#fff"/>
                </g>
              </g>
            </g>
            <g id="Grupo_1099208" data-name="Grupo 1099208" transform="translate(143.754 20.124)" opacity="0.3">
              <g id="Grupo_1099207" data-name="Grupo 1099207">
                <g id="Grupo_1099206" data-name="Grupo 1099206" clip-path="url(#clip-path-5)">
                  <path id="Trazado_873498" data-name="Trazado 873498" d="M307.738,43.3c.34-.31,1.5-.283,3.611-.24s2.812.057,3.056.66a4.65,4.65,0,0,1-.135,2.084c-.252,1.029-.326,2.771-3,2.769a3.526,3.526,0,0,1-3.6-2.707c-.349-1.546-.27-2.255.071-2.566" transform="translate(-307.441 -43.038)" fill="#fff"/>
                </g>
              </g>
            </g>
            <path id="Trazado_873499" data-name="Trazado 873499" d="M325.471,42.043c-.045-.462-2.334-.668-3.976-.7a24.42,24.42,0,0,0-5.4.223c-.874.3-.73.625-1.837.625-.97,0-1.015-.324-1.889-.625a24.421,24.421,0,0,0-5.4-.223c-1.643.032-3.931.238-3.977.7a2.642,2.642,0,0,0,.092.894c.071.252.89.389,1.033.457.31.148.213,1.159.7,2.26.628,1.421,2.1,2.539,5.061,2.29,2.722-.228,2.669-3.107,3.008-3.881.29-.662.14-.877,1.374-.877,1.211,0,1.04.215,1.33.877.339.774.286,3.653,3.008,3.881,2.965.248,4.367-.851,4.995-2.273.486-1.1.456-2.13.765-2.278.143-.068.962-.2,1.033-.457a2.642,2.642,0,0,0,.091-.894m-13.58,2.845c-.252,1.028-.326,2.771-3,2.769a3.526,3.526,0,0,1-3.6-2.707c-.349-1.546-.27-2.255.07-2.566s1.5-.283,3.611-.24,2.812.056,3.056.66a4.653,4.653,0,0,1-.135,2.084m11.273.062a3.526,3.526,0,0,1-3.6,2.707c-2.675,0-2.749-1.741-3-2.769a4.645,4.645,0,0,1-.135-2.084c.244-.6.947-.618,3.056-.66s3.27-.07,3.611.24.419,1.02.071,2.566" transform="translate(-161.309 -21.994)" fill="#133a50"/>
            <path id="Trazado_873500" data-name="Trazado 873500" d="M351.527,96.072c4.384,10.938-2.289,26.038-2.289,26.038" transform="translate(-185.94 -51.15)" fill="none" stroke="#313858" stroke-miterlimit="10" stroke-width="2.369"/>
            <path id="Trazado_873501" data-name="Trazado 873501" d="M347.035,152.73a3.085,3.085,0,1,1-3.085-3.085,3.085,3.085,0,0,1,3.085,3.085" transform="translate(-181.482 -79.673)" fill="#fff"/>
            <path id="Trazado_873502" data-name="Trazado 873502" d="M347.035,152.73a3.085,3.085,0,1,1-3.085-3.085A3.085,3.085,0,0,1,347.035,152.73Z" transform="translate(-181.482 -79.673)" fill="none" stroke="#313858" stroke-miterlimit="10" stroke-width="2.28"/>
            <line id="Línea_568" data-name="Línea 568" y2="34.062" transform="translate(152.941 110.875)" fill="none" stroke="#c0e7fa" stroke-linecap="round" stroke-linejoin="round" stroke-width="1.843"/>
          </g>
        </g>
      </g>
    </g>
  </g>
</svg>
