<svg xmlns="http://www.w3.org/2000/svg" xmlns:xlink="http://www.w3.org/1999/xlink" width="1326" height="594" viewBox="0 0 1326 594">
  <defs>
    <clipPath id="clip-path">
      <rect id="Rectángulo_400924" data-name="Rectángulo 400924" width="1326" height="594" transform="translate(137 1027)" fill="#fff"/>
    </clipPath>
    <clipPath id="clip-path-2">
      <path id="Trazado_872907" data-name="Trazado 872907" d="M23.74,0H1625.588a23.74,23.74,0,0,1,23.74,23.74V609.752a23.74,23.74,0,0,1-23.74,23.74H23.74A23.74,23.74,0,0,1,0,609.752V23.74A23.74,23.74,0,0,1,23.74,0Z" fill="#f1ebe0"/>
    </clipPath>
    <clipPath id="clip-path-3">
      <rect id="Rectángulo_400955" data-name="Rectángulo 400955" width="539.128" height="436.845" fill="none"/>
    </clipPath>
    <clipPath id="clip-path-4">
      <rect id="Rectángulo_400958" data-name="Rectángulo 400958" width="114.07" height="313.465" fill="#59836b"/>
    </clipPath>
    <clipPath id="clip-path-5">
      <rect id="Rectángulo_400954" data-name="Rectángulo 400954" width="212.462" height="410.138" fill="none"/>
    </clipPath>
  </defs>
  <g id="Enmascarar_grupo_1098649" data-name="Enmascarar grupo 1098649" transform="translate(-137 -1027)" clip-path="url(#clip-path)">
    <g id="Grupo_1098717" data-name="Grupo 1098717" transform="translate(-243.333 917.508)">
      <path id="Trazado_870126" data-name="Trazado 870126" d="M23.74,0H1625.588a23.74,23.74,0,0,1,23.74,23.74V609.752a23.74,23.74,0,0,1-23.74,23.74H23.74A23.74,23.74,0,0,1,0,609.752V23.74A23.74,23.74,0,0,1,23.74,0Z" transform="translate(144.333 70)" fill="#daf2e4"/>
      <g id="Enmascarar_grupo_1098655" data-name="Enmascarar grupo 1098655" transform="translate(144.333 70)" clip-path="url(#clip-path-2)">
        <path id="Trazado_872973" data-name="Trazado 872973" d="M0,1.106,1671.591,0V94.014H0Z" transform="translate(0 539.477)" fill="#effaf4"/>
        <path id="Trazado_872908" data-name="Trazado 872908" d="M499.894,0C775.978,0,999.788,223.81,999.788,499.894S775.978,999.788,499.894,999.788,0,775.978,0,499.894,223.81,0,499.894,0Z" transform="translate(1001.994 -419.91)" fill="#95dbb3"/>
        <path id="Trazado_872976" data-name="Trazado 872976" d="M263.643,0C409.248,0,527.285,118.037,527.285,263.643S409.248,527.285,263.643,527.285,0,409.248,0,263.643,118.037,0,263.643,0Z" transform="translate(1454.407 -263.643)" fill="#5fb985"/>
        <path id="Trazado_872975" data-name="Trazado 872975" d="M189.923,0C294.814,0,379.845,85.031,379.845,189.923S294.814,379.845,189.923,379.845,0,294.814,0,189.923,85.031,0,189.923,0Z" transform="translate(48.106 -219.912)" fill="#fff"/>
        <path id="Trazado_872974" data-name="Trazado 872974" d="M332.365,0c183.56,0,332.365,148.8,332.365,332.365s-148.8,332.365-332.365,332.365S0,515.924,0,332.365,148.8,0,332.365,0Z" transform="translate(1180.769 369.849)" fill="#fff"/>
        <ellipse id="Elipse_11441" data-name="Elipse 11441" cx="364.5" cy="365" rx="364.5" ry="365" transform="translate(1090 310)" fill="#effaf4" opacity="0.332"/>
        <ellipse id="Elipse_11469" data-name="Elipse 11469" cx="347" cy="346.5" rx="347" ry="346.5" transform="translate(955.328 263.643)" fill="#f1ebe0" opacity="0.332"/>
        <ellipse id="Elipse_11466" data-name="Elipse 11466" cx="332.5" cy="332" rx="332.5" ry="332" transform="translate(-180 404)" fill="#effaf4"/>
        <g id="Grupo_1098885" data-name="Grupo 1098885" transform="translate(1243.57 391.444)">
          <g id="Grupo_1098884" data-name="Grupo 1098884" clip-path="url(#clip-path-3)">
            <path id="Trazado_872982" data-name="Trazado 872982" d="M486.992,216.394C486.992,96.884,390.11,0,270.6,0S54.2,96.884,54.2,216.394,151.088,432.788,270.6,432.788s216.394-96.882,216.394-216.394m-336.241,0A119.848,119.848,0,1,1,270.6,336.241,119.846,119.846,0,0,1,150.75,216.394" transform="translate(52.136)" fill="#b9e4d7"/>
            <path id="Trazado_872983" data-name="Trazado 872983" d="M200.12,419H200.1a.836.836,0,0,1-.836-.836,1.119,1.119,0,0,1,2.146,0,.827.827,0,0,1-.828.836h-.016a.828.828,0,0,1-.222-.029.888.888,0,0,1-.23.031m-13.311-.437a1.035,1.035,0,0,1-.22-.026.849.849,0,1,1,.22.026m27.077-.029a.835.835,0,0,1-.2-1.646.864.864,0,0,1,1.054.808.839.839,0,0,1-.755.834c-.031,0-.065,0-.1,0m-40.334-1.287a.923.923,0,0,1-.22-.027.842.842,0,1,1,.22.027m53.586-.061a.836.836,0,0,1-.2-1.648.868.868,0,0,1,1.053.81.836.836,0,0,1-.755.832.826.826,0,0,1-.1.006m-66.724-2.138a.781.781,0,0,1-.165-.016.839.839,0,0,1-.687-.822.871.871,0,0,1,1.116-.791.835.835,0,0,1-.265,1.628m79.857-.09a.846.846,0,1,1,.281-.047.989.989,0,0,1-.281.047m-93.037-3.015a.836.836,0,0,1,.406-1.622Zm105.989-.09a.835.835,0,0,1-.2-1.646.845.845,0,0,1,1.014.575.829.829,0,0,1-.532,1.024c-.022.008-.057.018-.078.024a.888.888,0,0,1-.2.024M134.51,408a.836.836,0,0,1,.406-1.622Zm131.43-.12a.837.837,0,1,1,.81-1.073.828.828,0,0,1-.53,1.024.6.6,0,0,1-.078.024.89.89,0,0,1-.2.026m-143.66-4.648a.825.825,0,0,1-.263-.041,1.033,1.033,0,0,1-.214-.106.841.841,0,1,1,.477.147m156.063-.161a.836.836,0,0,1-.463-1.53,1.034,1.034,0,0,1,.214-.106.837.837,0,1,1,.249,1.636m-168.158-5.458a.816.816,0,0,1-.406-.106.836.836,0,0,1,.657-1.53.99.99,0,0,1,.214.106.835.835,0,0,1-.465,1.53m180.213-.175a.847.847,0,1,1,.479-.149,1.094,1.094,0,0,1-.214.108.886.886,0,0,1-.265.041M98.5,391.2a.829.829,0,0,1-.4-.106.836.836,0,0,1,.655-1.532,1.2,1.2,0,0,1,.214.106A.837.837,0,0,1,98.5,391.2m203.556-.182a.848.848,0,1,1,.479-.149,1.084,1.084,0,0,1-.214.106.832.832,0,0,1-.265.043m-214.72-6.984a.949.949,0,0,1-.526-.157,1,1,0,0,1-.141-.114.835.835,0,0,1,1.181-1.181.767.767,0,0,1,.175,1.11.809.809,0,0,1-.689.341m225.927-.21a.836.836,0,0,1-.591-1.426,1.121,1.121,0,0,1,.139-.116.836.836,0,1,1,.451,1.542m-236.652-7.7a.949.949,0,0,1-.526-.157,1.007,1.007,0,0,1-.141-.116.835.835,0,1,1,1.181-1.181.769.769,0,0,1,.175,1.112.814.814,0,0,1-.689.341m247.352-.224a.836.836,0,0,1-.59-1.426,1.013,1.013,0,0,1,.141-.116.835.835,0,0,1,.961,1.365.823.823,0,0,1-.512.177m-257.587-8.4a.816.816,0,0,1-.461-.141.9.9,0,0,1-.245-.241.84.84,0,1,1,.706.383m267.741-.22a.836.836,0,0,1-.694-1.3.871.871,0,0,1,.243-.243.835.835,0,0,1,1.014,1.322.824.824,0,0,1-.563.22M56.786,358.224a.826.826,0,0,1-.583-.241l-.01-.012a.835.835,0,0,1,1.181-1.181.838.838,0,0,1-.589,1.434m286.887-.23a.836.836,0,0,1-.59-1.426.843.843,0,0,1,1.187-.008.831.831,0,0,1,.006,1.177l-.012.012a.833.833,0,0,1-.591.245M47.857,348.349a.841.841,0,1,1,.451-1.544.963.963,0,0,1,.243.245.834.834,0,0,1-.694,1.3M352.6,348.1a.841.841,0,1,1,.477-1.544.839.839,0,0,1,.231,1.159.963.963,0,0,1-.243.245.842.842,0,0,1-.465.139m-313-10.2a.841.841,0,1,1,.581-1.44,1,1,0,0,1,.114.141.836.836,0,0,1-.694,1.3m321.253-.273a.836.836,0,0,1-.59-1.426.768.768,0,0,1,1.112-.175.9.9,0,0,1,.184,1.214,1.011,1.011,0,0,1-.116.141.833.833,0,0,1-.591.245m-328.8-10.7a.835.835,0,0,1-.694-.373.944.944,0,0,1-.106-.214.838.838,0,1,1,.8.587m336.337-.3a.829.829,0,0,1-.265-.041.837.837,0,0,1-.528-1.057.946.946,0,0,1,.106-.214.836.836,0,1,1,.687,1.312M25.251,315.486a.836.836,0,0,1-.7-.371,1.276,1.276,0,0,1-.106-.214.842.842,0,1,1,.8.585m349.919-.326a.836.836,0,0,1-.793-1.1,1.035,1.035,0,0,1,.106-.214.837.837,0,1,1,.687,1.314M19.234,303.614a.841.841,0,1,1,.691-1.312,1.135,1.135,0,0,1,.1.214.838.838,0,0,1-.53,1.057.886.886,0,0,1-.265.041m361.939-.361a.845.845,0,1,1,.8-.587,1.2,1.2,0,0,1-.1.214.838.838,0,0,1-.7.373M14.033,291.371a.842.842,0,1,1,.689-1.314,1.265,1.265,0,0,1,.1.214.838.838,0,0,1-.53,1.057.829.829,0,0,1-.263.043m372.331-.4a.837.837,0,0,1-.747-1.21.793.793,0,0,1,1.038-.481.877.877,0,0,1,.51,1.1,1,1,0,0,1-.053.126.838.838,0,0,1-.747.463M9.654,278.781a.826.826,0,0,1-.787-.565c-.008-.022-.018-.057-.024-.078a.836.836,0,0,1,1.622-.4.845.845,0,0,1-.575,1.014.912.912,0,0,1-.237.033m381.064-.426a.8.8,0,0,1-.2-.026.838.838,0,0,1-.61-1.012l1.622.4a.835.835,0,0,1-.81.634m.8-.589h0ZM6.141,265.939a.839.839,0,0,1-.795-.571.965.965,0,0,1-.045-.281.837.837,0,1,1,1.1.81.826.826,0,0,1-.263.041m388.065-.441a.836.836,0,0,1-.836-.836.968.968,0,0,1,.047-.281.837.837,0,1,1,.789,1.116M3.494,252.885a.836.836,0,0,1-.793-.571.965.965,0,0,1-.045-.281.842.842,0,1,1,.838.851m393.329-.449a.835.835,0,0,1-.836-.836.964.964,0,0,1,.045-.281.837.837,0,1,1,.791,1.116M1.728,239.682a.843.843,0,1,1,.81-1.054,1.019,1.019,0,0,1,.026.22.834.834,0,0,1-.836.834m396.831-.453a.9.9,0,0,1-.2-.024.843.843,0,1,1,1.04-.828.9.9,0,0,1-.027.218.835.835,0,0,1-.81.634M.842,226.384a.828.828,0,0,1-.834-.828v-.016a.835.835,0,1,1,1.67,0,.842.842,0,0,1-.836.844m398.573-.447a.84.84,0,1,1,.836-.851v.016a.836.836,0,0,1-.836.836M.836,213.059A.828.828,0,0,1,0,212.234v-.018a.836.836,0,1,1,.836.844m398.555-.447a.839.839,0,1,1,.836-.851v.018a.834.834,0,0,1-.836.834M1.7,199.778h0a.835.835,0,0,1-.836-.836,1.034,1.034,0,0,1,.026-.22.837.837,0,1,1,.81,1.055m396.788-.455a.839.839,0,0,1-.812-.634,1,1,0,0,1-.026-.218.836.836,0,1,1,1.04.826.792.792,0,0,1-.2.026M3.453,186.573a.82.82,0,0,1-.263-.043.843.843,0,1,1,1.1-.81.965.965,0,0,1-.045.281.84.84,0,0,1-.795.573m393.258-.449a.843.843,0,1,1,.791-1.116.964.964,0,0,1,.045.281.835.835,0,0,1-.836.836M6.086,173.514a.844.844,0,1,1,.84-.851.915.915,0,0,1-.047.281.836.836,0,0,1-.793.571m387.965-.443a.843.843,0,1,1,.791-1.116.99.99,0,0,1,.045.283.834.834,0,0,1-.836.834m-3.531-12.844a.84.84,0,0,1-.235-1.646.823.823,0,0,1,1.024.53l.024.078a.841.841,0,0,1-.61,1.014.887.887,0,0,1-.2.024M10.4,160.011l-1.622-.4a.836.836,0,0,1,1.622.4m3.559-11.9a.914.914,0,0,1-.292-.049.878.878,0,0,1-.51-1.1c.014-.039.035-.09.053-.128a.836.836,0,0,1,1.495.747.767.767,0,0,1-.746.532m372.169-.455a.84.84,0,0,1-.747-.463.893.893,0,0,1,.5-1.118.781.781,0,0,1,1.016.424.836.836,0,0,1-.773,1.158M19.159,135.772a.887.887,0,0,1-.265-.041.837.837,0,0,1-.528-1.057.938.938,0,0,1,.1-.214.837.837,0,1,1,.689,1.312m361.755-.361a.835.835,0,0,1-.694-.373,1.086,1.086,0,0,1-.106-.214.837.837,0,1,1,1.263.445.818.818,0,0,1-.463.141M25.176,123.872a.837.837,0,0,1-.73-1.242.836.836,0,0,1,1.532.655,1.2,1.2,0,0,1-.106.214.841.841,0,0,1-.7.373m349.711-.328a.841.841,0,1,1,.687-1.312.943.943,0,0,1,.106.214.831.831,0,0,1-.793,1.1M31.974,112.4a.844.844,0,1,1,.8-.585,1.033,1.033,0,0,1-.106.214.833.833,0,0,1-.694.371m336.1-.3a.842.842,0,1,1,.687-1.314,1.086,1.086,0,0,1,.106.214.838.838,0,0,1-.53,1.057.829.829,0,0,1-.263.043M39.512,101.493a.859.859,0,0,1-.683-1.377.955.955,0,0,1,.114-.139.835.835,0,0,1,1.181,1.181.72.72,0,0,1-.612.335m321.006-.349a.833.833,0,0,1-.59-.245,1.115,1.115,0,0,1-.114-.141.836.836,0,1,1,.7.386M47.783,90.956a.834.834,0,0,1-.694-1.3.877.877,0,0,1,.243-.245.838.838,0,1,1,.451,1.544m304.465-.249a.844.844,0,0,1-.465-.141.9.9,0,0,1-.243-.245.838.838,0,1,1,.708.386M56.723,81.062a.832.832,0,0,1-.594-1.416l.012-.012a.835.835,0,0,1,1.181,1.181.842.842,0,0,1-.6.247M343.3,80.839a.834.834,0,0,1-.591-.245A.846.846,0,0,1,342.7,79.4a.831.831,0,0,1,1.177,0l.012.012a.836.836,0,0,1-.591,1.426M66.291,71.8A.844.844,0,1,1,67,71.42a.9.9,0,0,1-.243.243.84.84,0,0,1-.463.139m267.42-.218a.84.84,0,1,1,.449-1.542.932.932,0,0,1,.245.243.836.836,0,0,1-.694,1.3M76.455,63.194a.846.846,0,1,1,.6-.255,1,1,0,0,1-.141.114.832.832,0,0,1-.461.141m247.073-.206a.841.841,0,0,1-.592-.245.77.77,0,0,1-.175-1.11.893.893,0,0,1,1.216-.186,1.138,1.138,0,0,1,.141.116.836.836,0,0,1-.591,1.426M87.165,55.278a.846.846,0,1,1,.6-.255,1.119,1.119,0,0,1-.139.116.84.84,0,0,1-.463.139m225.628-.192a.84.84,0,0,1-.591-.245.77.77,0,0,1-.175-1.11.891.891,0,0,1,1.216-.184.972.972,0,0,1,.141.114.836.836,0,0,1-.592,1.426M98.375,48.1a.836.836,0,0,1-.465-1.53,1.15,1.15,0,0,1,.214-.108.838.838,0,1,1,.251,1.638m203.183-.184a.832.832,0,0,1-.265-.043,1.033,1.033,0,0,1-.214-.106.838.838,0,1,1,.479.149m-191.52-6.231a.837.837,0,0,1-.465-1.532,1.143,1.143,0,0,1,.214-.106.836.836,0,0,1,.653,1.532.827.827,0,0,1-.4.106m179.825-.175a.832.832,0,0,1-.265-.043,1.033,1.033,0,0,1-.214-.106.838.838,0,1,1,.479.149M122.1,36.063a.845.845,0,1,1,.479-.147.979.979,0,0,1-.214.1.832.832,0,0,1-.265.043M277.762,35.9a.816.816,0,0,1-.351-.077.836.836,0,0,1,.6-1.558.938.938,0,0,1,.214.1.835.835,0,0,1-.463,1.53M134.518,31.263a.84.84,0,0,1-.808-.6.828.828,0,0,1,.53-1.024.6.6,0,0,1,.078-.024.836.836,0,1,1,.406,1.622.922.922,0,0,1-.206.024m130.791-.145a.9.9,0,0,1-.2-.024l.4-1.622a.835.835,0,0,1-.2,1.646m-118.068-3.81a.843.843,0,0,1-.81-.6.834.834,0,0,1,.532-1.026c.02-.006.057-.018.076-.022a.835.835,0,1,1,.406,1.62.819.819,0,0,1-.2.026m105.338-.116a.8.8,0,0,1-.2-.026l.4-1.622a.837.837,0,0,1-.2,1.648m-92.4-2.97a.835.835,0,0,1-.263-1.628.866.866,0,0,1,1.116.789.84.84,0,0,1-.685.824.982.982,0,0,1-.169.016m79.433-.09a.986.986,0,0,1-.281-.045.844.844,0,1,1,.281.045M173.318,22a.838.838,0,1,1,.22-.026,1.034,1.034,0,0,1-.22.026m53.154-.059c-.029,0-.063,0-.1,0a.837.837,0,0,1-.755-.834.867.867,0,0,1,1.055-.808.835.835,0,0,1-.2,1.646m-39.9-1.273a.838.838,0,1,1,.22-.026,1.019,1.019,0,0,1-.22.026m26.646-.029a.815.815,0,0,1-.1-.006.837.837,0,0,1-.755-.832.87.87,0,0,1,1.053-.81.836.836,0,0,1-.2,1.648M199.9,20.221a.841.841,0,0,1-.844-.836.829.829,0,0,1,.828-.836h.016a.836.836,0,1,1,0,1.671" transform="translate(0 17.842)"/>
            <path id="Trazado_872984" data-name="Trazado 872984" d="M191.782,395.631a1.046,1.046,0,0,1,1.055-1.038.968.968,0,0,1,.216.018.84.84,0,0,1,.218-.018,1.023,1.023,0,0,1,1.052,1.038,1.07,1.07,0,0,1-1.052,1.052,1.044,1.044,0,0,1-.218-.033,1.026,1.026,0,0,1-.216.033,1.05,1.05,0,0,1-1.055-1.052m-12.315.567h0a1.039,1.039,0,1,1,.151-2.072,1.022,1.022,0,0,1,.969,1.1,1.061,1.061,0,0,1-1.054.985c-.018,0-.033-.016-.067-.016m26.053-.985a1.047,1.047,0,1,1,1.118.952.1.1,0,0,1-.067.016,1.053,1.053,0,0,1-1.052-.967m-39.339-.436a1.046,1.046,0,1,1,1.169-.885,1.027,1.027,0,0,1-1.02.885Zm52.574-.951a1.038,1.038,0,1,1,1.187.883h-.151a1.029,1.029,0,0,1-1.036-.883m-65.742-1.438a1.047,1.047,0,0,1-.8-1.238,1.063,1.063,0,0,1,1.254-.8,1.036,1.036,0,0,1,.8,1.234,1.069,1.069,0,0,1-1.02.82,1.157,1.157,0,0,1-.233-.016m78.827-.887a1.062,1.062,0,0,1,.8-1.254,1.048,1.048,0,0,1,1.238.8,1.036,1.036,0,0,1-.785,1.238,1.216,1.216,0,0,1-.235.033,1.05,1.05,0,0,1-1.018-.82m-91.779-2.441v-.016a1.039,1.039,0,1,1,1.3-.7,1.054,1.054,0,0,1-1,.753,1.741,1.741,0,0,1-.3-.035m104.663-.836a1.047,1.047,0,1,1,1.3.7.869.869,0,0,1-.3.035,1.055,1.055,0,0,1-1-.738m-117.348-3.441h0a1.048,1.048,0,0,1,.751-1.956,1.05,1.05,0,0,1,.6,1.354,1.024,1.024,0,0,1-.969.669,1.059,1.059,0,0,1-.385-.067m129.965-.751a1.045,1.045,0,0,1,.62-1.354h-.018a1.048,1.048,0,1,1,.751,1.956,1,1,0,0,1-.367.067,1.064,1.064,0,0,1-.987-.669m-142.3-4.43h0a1.04,1.04,0,1,1,.869-1.889,1.039,1.039,0,0,1,.518,1.387,1.069,1.069,0,0,1-.951.6.974.974,0,0,1-.436-.1m154.58-.685a1.031,1.031,0,0,1,.5-1.387,1.046,1.046,0,0,1,1.385.518,1.032,1.032,0,0,1-.5,1.371,1.1,1.1,0,0,1-.451.1,1.018,1.018,0,0,1-.936-.6m-166.512-5.381H103.1a1.043,1.043,0,1,1,1.018-1.821,1.058,1.058,0,0,1,.418,1.418,1.078,1.078,0,0,1-.92.536,1.09,1.09,0,0,1-.5-.133m178.377-.585a1.061,1.061,0,0,1,.4-1.438,1.052,1.052,0,0,1,1.018,1.84,1.148,1.148,0,0,1-.518.133,1.031,1.031,0,0,1-.9-.536M91.647,366.635a1.068,1.068,0,0,1-.316-1.454,1.05,1.05,0,0,1,1.454-.3,1.05,1.05,0,0,1-.567,1.923,1.121,1.121,0,0,1-.571-.169m201.239-.518a1.046,1.046,0,0,1,1.756-1.136,1.03,1.03,0,0,1-.3,1.436,1.045,1.045,0,0,1-.567.167,1.02,1.02,0,0,1-.887-.467m-212.168-7.2a1.045,1.045,0,0,1,1.254-1.672v.016a1.022,1.022,0,0,1,.2,1.454,1.051,1.051,0,0,1-.836.418.974.974,0,0,1-.62-.216m223.066-.42a1.041,1.041,0,0,1,.2-1.469,1.026,1.026,0,0,1,1.454.2,1.058,1.058,0,0,1-.184,1.471,1.164,1.164,0,0,1-.636.218,1.046,1.046,0,0,1-.834-.42M70.359,350.425a1.041,1.041,0,1,1,1.387-1.554,1.051,1.051,0,0,1,.1,1.471,1.066,1.066,0,0,1-.785.351,1.017,1.017,0,0,1-.7-.269m243.734-.316a1.048,1.048,0,0,1,1.571-1.387,1.049,1.049,0,0,1-.084,1.469,1.025,1.025,0,0,1-.7.269,1.072,1.072,0,0,1-.785-.351M60.648,341.233h0a1.046,1.046,0,1,1,1.489-1.469,1.044,1.044,0,0,1-.736,1.787,1.1,1.1,0,0,1-.753-.318m263.139-.249a1.046,1.046,0,1,1,1.469-1.489,1.034,1.034,0,0,1,0,1.471.983.983,0,0,1-.734.318,1.036,1.036,0,0,1-.736-.3m1.469-.018h.018l-.018.018ZM51.625,331.357h0A1.042,1.042,0,1,1,53.211,330a1.035,1.035,0,0,1-.116,1.471,1.014,1.014,0,0,1-.669.251,1.032,1.032,0,0,1-.8-.369m281.168-.151a1.049,1.049,0,0,1-.116-1.469,1.019,1.019,0,0,1,1.469-.116,1.037,1.037,0,0,1,.133,1.469h-.016a1.062,1.062,0,0,1-.787.367,1.044,1.044,0,0,1-.685-.251M43.337,320.863a1.041,1.041,0,1,1,1.687-1.22v-.016a1.063,1.063,0,0,1-.235,1.469,1.045,1.045,0,0,1-.616.2,1.018,1.018,0,0,1-.836-.434M341.1,320.8a1.041,1.041,0,1,1,1.218-1.687,1.062,1.062,0,0,1,.235,1.469v-.018a1.028,1.028,0,0,1-.853.436,1,1,0,0,1-.6-.2M35.817,309.816h0a1.069,1.069,0,0,1,.332-1.454,1.051,1.051,0,0,1,1.438.335,1.047,1.047,0,0,1-1.77,1.118m312.787,0a1.031,1.031,0,0,1-.32-1.438,1.048,1.048,0,0,1,1.438-.332,1.03,1.03,0,0,1,.318,1.436h.016a1.075,1.075,0,0,1-.9.5,1,1,0,0,1-.551-.169M29.131,298.253a1.043,1.043,0,1,1,1.4.418,1.013,1.013,0,0,1-1.4-.418m326.191.082a1.056,1.056,0,0,1-.436-1.42,1.039,1.039,0,1,1,.92,1.538,1.214,1.214,0,0,1-.485-.118M23.283,286.219a1.04,1.04,0,1,1,1.369.536.911.911,0,0,1-.418.1,1.025,1.025,0,0,1-.951-.636m337.887.151a1.043,1.043,0,1,1,1.387-.534,1.021,1.021,0,0,1-.969.618.982.982,0,0,1-.418-.084M18.317,273.82a1.058,1.058,0,0,1,.636-1.336,1.029,1.029,0,0,1,1.338.634,1.041,1.041,0,0,1-.636,1.336,1.06,1.06,0,0,1-.351.051,1.081,1.081,0,0,1-.987-.685m347.834.2a1.046,1.046,0,1,1,.7-1.972,1.05,1.05,0,0,1-.349,2.038.853.853,0,0,1-.351-.067M14.289,261.07a1.041,1.041,0,1,1,2.007-.553,1.058,1.058,0,0,1-.718,1.289,2.023,2.023,0,0,1-.284.031,1.021,1.021,0,0,1-1-.767m355.938.283a1.025,1.025,0,0,1-.736-1.269,1.04,1.04,0,1,1,2.005.551,1.052,1.052,0,0,1-1,.769.716.716,0,0,1-.267-.051M11.184,248.067a1.04,1.04,0,1,1,2.038-.418,1.028,1.028,0,0,1-.82,1.222.884.884,0,0,1-.2.031,1.049,1.049,0,0,1-1.018-.836m362.169.369a1.049,1.049,0,0,1-.82-1.236v.016a1.04,1.04,0,1,1,1.02,1.238.769.769,0,0,1-.2-.018M9.028,234.866a1.029,1.029,0,0,1,.9-1.169,1.044,1.044,0,1,1,.267,2.072h-.133a1.043,1.043,0,0,1-1.036-.9m366.513.451a1.043,1.043,0,1,1,.251-2.072,1.029,1.029,0,0,1,.9,1.169,1.042,1.042,0,0,1-1.036.918c-.033,0-.082-.016-.118-.016M7.825,221.547h0a1.032,1.032,0,0,1,.985-1.1,1.046,1.046,0,1,1,.116,2.089H8.877a1.057,1.057,0,0,1-1.052-.987m368.953.536a1.064,1.064,0,1,1,.051,0ZM8.61,209.232a1.061,1.061,0,0,1-1.036-1.071,1.044,1.044,0,0,1,2.087.051,1.032,1.032,0,0,1-1.052,1.02m367.384-1.473h0a1.044,1.044,0,1,1,1.067,1.02h-.031a1.047,1.047,0,0,1-1.036-1.02M9.228,195.945a1.05,1.05,0,0,1-.953-1.136,1.035,1.035,0,0,1,1.136-.936,1.05,1.05,0,0,1,.953,1.136v-.016a1.052,1.052,0,0,1-1.052.951Zm366.028-1.387a1.049,1.049,0,0,1,2.089-.2,1.036,1.036,0,0,1-.951,1.136c-.033,0-.051.018-.082.018a1.069,1.069,0,0,1-1.055-.953M10.8,182.743a1.033,1.033,0,0,1-.851-1.2,1.017,1.017,0,0,1,1.187-.853A1.031,1.031,0,0,1,12,181.874v.018a1.039,1.039,0,0,1-1.02.867.74.74,0,0,1-.184-.016m362.789-1.3a1.066,1.066,0,0,1,.869-1.2,1.042,1.042,0,1,1,.335,2.056.616.616,0,0,1-.169.016,1.055,1.055,0,0,1-1.036-.869M13.32,169.691a1.111,1.111,0,1,1,.251.018,1.219,1.219,0,0,1-.251-.018m357.659-1.22h-.016a1.048,1.048,0,1,1,1.269.769.648.648,0,0,1-.251.033,1.018,1.018,0,0,1-1-.8M16.8,156.857a1.12,1.12,0,1,1,.318.033,1.792,1.792,0,0,1-.318-.033m350.624-1.12h0a1.037,1.037,0,0,1,.685-1.3,1.022,1.022,0,0,1,1.3.669,1.055,1.055,0,0,1-.667,1.32,1.142,1.142,0,0,1-.318.049,1.035,1.035,0,0,1-1-.736M21.193,144.274a1.046,1.046,0,1,1,1.354-.585,1.026,1.026,0,0,1-.969.669,1.165,1.165,0,0,1-.385-.084m341.766-.985a1.034,1.034,0,0,1,.567-1.356,1.046,1.046,0,1,1,.785,1.94,1.159,1.159,0,0,1-.383.082,1.022,1.022,0,0,1-.969-.667M26.49,132.057a1.036,1.036,0,0,1-.485-1.387,1.058,1.058,0,0,1,1.4-.485,1.049,1.049,0,0,1-.453,1.989.944.944,0,0,1-.467-.118m331.1-.836h0a1.05,1.05,0,1,1,1.4.485,1.11,1.11,0,0,1-.453.1,1.053,1.053,0,0,1-.952-.587M32.674,120.276a1.048,1.048,0,0,1-.385-1.438,1.045,1.045,0,0,1,1.8,1.054,1.058,1.058,0,0,1-.9.518,1.1,1.1,0,0,1-.518-.133m318.7-.718a1.042,1.042,0,0,1,.385-1.422,1.019,1.019,0,0,1,1.42.369,1.04,1.04,0,0,1-.367,1.436,1.2,1.2,0,0,1-.536.133,1.056,1.056,0,0,1-.9-.516m-311.7-10.6a1.048,1.048,0,1,1,1.438-.284,1,1,0,0,1-.853.451,1.026,1.026,0,0,1-.585-.167m304.665-.585h0a1.045,1.045,0,1,1,1.721-1.187,1.055,1.055,0,0,1-.267,1.454.983.983,0,0,1-.6.184,1.07,1.07,0,0,1-.853-.451M47.464,98.184a1.053,1.053,0,0,1,1.3-1.654A1.041,1.041,0,0,1,48.934,98a1.024,1.024,0,0,1-.818.4,1.083,1.083,0,0,1-.651-.218M336.5,97.715a1.041,1.041,0,0,1,1.638-1.285,1.034,1.034,0,0,1-.818,1.687,1.028,1.028,0,0,1-.82-.4M56.02,87.988a1.046,1.046,0,1,1,1.487-.067h-.018a1.041,1.041,0,0,1-.767.335,1.025,1.025,0,0,1-.7-.269m271.91-.332h0a1.038,1.038,0,0,1,.049-1.473,1.057,1.057,0,0,1,1.489.069,1.033,1.033,0,0,1-.769,1.736,1,1,0,0,1-.769-.332M65.294,78.448a1.055,1.055,0,0,1,.033-1.487,1.034,1.034,0,0,1,1.471.031,1.057,1.057,0,0,1-.033,1.489,1.094,1.094,0,0,1-.718.284,1.009,1.009,0,0,1-.753-.318m253.345-.218a1.034,1.034,0,0,1-.033-1.469,1.048,1.048,0,0,1,1.471-.051,1.037,1.037,0,0,1-.718,1.8,1.013,1.013,0,0,1-.72-.284M75.2,69.59a1.039,1.039,0,0,1,.151-1.469,1.056,1.056,0,0,1,1.471.133,1.037,1.037,0,0,1-.151,1.469A1.067,1.067,0,0,1,75.2,69.59m233.511-.082V69.49a1.017,1.017,0,0,1-.151-1.454,1.045,1.045,0,1,1,.8,1.7,1.116,1.116,0,0,1-.651-.233M85.732,61.452A1.047,1.047,0,0,1,85.983,60v.02a1.025,1.025,0,0,1,1.454.233,1.061,1.061,0,0,1-.251,1.469,1.093,1.093,0,0,1-.6.184,1.024,1.024,0,0,1-.853-.451m212.435.049h.018a1.032,1.032,0,0,1-.267-1.454,1.05,1.05,0,0,1,1.721,1.2,1.083,1.083,0,0,1-.869.436,1.011,1.011,0,0,1-.6-.184M96.813,54.115a1.054,1.054,0,0,1,.351-1.436v.016a1.035,1.035,0,0,1,1.436.353,1.016,1.016,0,0,1-.351,1.418,1.047,1.047,0,0,1-1.436-.351m190.276.167h0a1.055,1.055,0,0,1-.351-1.436,1.038,1.038,0,0,1,1.438-.351v-.018a1.058,1.058,0,0,1-.553,1.956,1.02,1.02,0,0,1-.534-.151M108.393,47.6a1.047,1.047,0,0,1,.469-1.4,1.036,1.036,0,0,1,1.4.451,1.053,1.053,0,0,1-.469,1.4.93.93,0,0,1-.467.114,1.028,1.028,0,0,1-.936-.567m167.114.267v.018a1.054,1.054,0,0,1-.453-1.42,1.031,1.031,0,0,1,1.387-.451,1.053,1.053,0,0,1,.469,1.4,1.033,1.033,0,0,1-.934.567.956.956,0,0,1-.469-.118m-155.1-5.931a1.051,1.051,0,0,1,.569-1.371,1.035,1.035,0,0,1,1.369.551,1.051,1.051,0,0,1-.567,1.371,1.133,1.133,0,0,1-.4.082,1.071,1.071,0,0,1-.969-.634m143.084.383a1.04,1.04,0,0,1-.569-1.352,1.05,1.05,0,1,1,.971,1.436.869.869,0,0,1-.4-.084M132.807,37.153a1.042,1.042,0,1,1,1.32.653,1.058,1.058,0,0,1-.332.049,1.042,1.042,0,0,1-.989-.7m118.3.5h0a1.037,1.037,0,1,1,1.32-.649,1.077,1.077,0,0,1-1,.718.716.716,0,0,1-.318-.069M145.541,33.278a1.037,1.037,0,1,1,1.271.749.742.742,0,0,1-.267.035,1.039,1.039,0,0,1-1-.785m92.884.634a1.045,1.045,0,0,1-.769-1.271,1.053,1.053,0,0,1,2.04.52,1.052,1.052,0,0,1-1.02.785.648.648,0,0,1-.251-.033m-79.914-3.559a1.032,1.032,0,0,1,.836-1.22,1.044,1.044,0,1,1,.367,2.056.733.733,0,0,1-.184.016,1.025,1.025,0,0,1-1.018-.851m66.979.751a1.038,1.038,0,0,1-.836-1.2,1.044,1.044,0,1,1,2.056.369,1.039,1.039,0,0,1-1.02.853.761.761,0,0,1-.2-.018m-53.845-2.741a1.032,1.032,0,0,1,.938-1.154,1.041,1.041,0,1,1,.216,2.072h-.1a1.047,1.047,0,0,1-1.052-.918m40.759.869h0a1.039,1.039,0,0,1-.92-1.154,1.043,1.043,0,0,1,2.074.218,1.062,1.062,0,0,1-1.038.951c-.031,0-.067-.016-.116-.016m-27.489-1.9a1.025,1.025,0,0,1,1-1.087,1.045,1.045,0,1,1,.067,2.089h-.033a1.045,1.045,0,0,1-1.036-1m14.3.985a1.046,1.046,0,0,1-1.018-1.085,1.068,1.068,0,0,1,1.085-1,1.045,1.045,0,0,1-.033,2.089Z" transform="translate(7.285 25.222)"/>
            <path id="Trazado_872985" data-name="Trazado 872985" d="M185.721,374.442a.86.86,0,0,1-.2.016,1.245,1.245,0,1,1,0-2.49.86.86,0,0,1,.2.016.89.89,0,0,1,.218-.033,1.254,1.254,0,0,1,0,2.507,1.1,1.1,0,0,1-.218-.016m-13.568-.5.016.018a1.257,1.257,0,0,1,.182-2.507,1.256,1.256,0,0,1-.082,2.507.3.3,0,0,1-.116-.018m25.8-1.169a1.236,1.236,0,0,1,1.136-1.356,1.258,1.258,0,1,1,.2,2.507h-.1a1.253,1.253,0,0,1-1.238-1.152m-39.07-.369h0a1.241,1.241,0,1,1,.2.018c-.067,0-.133-.018-.2-.018m52.256-1.12a1.25,1.25,0,0,1,1.036-1.436v.018a1.252,1.252,0,1,1,.4,2.472c-.067,0-.133.018-.2.018a1.255,1.255,0,0,1-1.236-1.071M145.764,369.8h0a1.247,1.247,0,1,1,.585-2.425,1.245,1.245,0,0,1-.3,2.456.93.93,0,0,1-.284-.031m78.411-1.02a1.236,1.236,0,0,1,.918-1.5,1.263,1.263,0,0,1,1.52.92,1.248,1.248,0,0,1-.936,1.5v.018a1.551,1.551,0,0,1-.284.033,1.247,1.247,0,0,1-1.218-.969M132.9,366.185a1.254,1.254,0,1,1,1.571-.818,1.232,1.232,0,0,1-1.187.869,1.351,1.351,0,0,1-.385-.051m104.062-.934a1.258,1.258,0,1,1,2.39-.787,1.259,1.259,0,0,1-.8,1.587,1.071,1.071,0,0,1-.383.067,1.27,1.27,0,0,1-1.2-.867m-116.63-3.694h0a1.252,1.252,0,0,1-.667-1.638,1.239,1.239,0,0,1,1.636-.685,1.253,1.253,0,0,1-.485,2.407,1.69,1.69,0,0,1-.485-.084m129.1-.836a1.259,1.259,0,1,1,1.638.669,1.177,1.177,0,0,1-.467.1,1.252,1.252,0,0,1-1.171-.769M108.18,355.942h0a1.262,1.262,0,1,1,.567.133,1.173,1.173,0,0,1-.567-.133m153.311-.718a1.268,1.268,0,0,1,.551-1.689,1.253,1.253,0,0,1,1.687.551,1.267,1.267,0,0,1-.536,1.689,1.435,1.435,0,0,1-.583.131,1.274,1.274,0,0,1-1.12-.683M96.515,349.391h0a1.27,1.27,0,0,1-.418-1.723,1.286,1.286,0,0,1,1.738-.418,1.266,1.266,0,0,1,.4,1.738,1.242,1.242,0,0,1-1.069.585,1.174,1.174,0,0,1-.651-.182m176.588-.6a1.252,1.252,0,0,1,.4-1.723,1.27,1.27,0,0,1,1.738.4,1.283,1.283,0,0,1-.418,1.738,1.315,1.315,0,0,1-.651.184,1.265,1.265,0,0,1-1.071-.6M85.4,341.954a1.25,1.25,0,1,1,1.469-2.023,1.245,1.245,0,0,1-.736,2.256,1.166,1.166,0,0,1-.734-.233m198.763-.485a1.242,1.242,0,0,1,.284-1.738,1.22,1.22,0,0,1,1.738.269,1.24,1.24,0,0,1-.267,1.754,1.328,1.328,0,0,1-.736.233,1.283,1.283,0,0,1-1.02-.518m-209.274-7.8a1.263,1.263,0,1,1,.818.3,1.3,1.3,0,0,1-.818-.3m219.739-.351a1.259,1.259,0,0,1,.131-1.77h.018a1.228,1.228,0,0,1,1.754.131,1.246,1.246,0,0,1-.133,1.756,1.173,1.173,0,0,1-.818.318,1.268,1.268,0,0,1-.952-.436m-229.55-8.722a1.261,1.261,0,0,1,0-1.772,1.23,1.23,0,0,1,1.772,0,1.261,1.261,0,0,1,0,1.772,1.313,1.313,0,0,1-.885.367,1.284,1.284,0,0,1-.887-.367m239.342-.251a1.253,1.253,0,0,1,1.772-1.772,1.247,1.247,0,0,1,0,1.772,1.214,1.214,0,0,1-.887.367,1.235,1.235,0,0,1-.885-.367M56.007,314.765h-.018a1.257,1.257,0,1,1,1.774.133,1.171,1.171,0,0,1-.8.318,1.187,1.187,0,0,1-.951-.451m257.489-.116a1.251,1.251,0,1,1,1.772-.135,1.275,1.275,0,0,1-.953.436,1.244,1.244,0,0,1-.818-.3M47.718,304.271a1.273,1.273,0,1,1,1.018.516,1.19,1.19,0,0,1-1.018-.516m274.068,0a1.256,1.256,0,0,1-.286-1.756,1.271,1.271,0,0,1,1.756-.283,1.256,1.256,0,0,1,.267,1.754,1.229,1.229,0,0,1-1,.518,1.166,1.166,0,0,1-.734-.233m-281.5-11.1a1.249,1.249,0,1,1,1.719.4,1.167,1.167,0,0,1-.651.184,1.22,1.22,0,0,1-1.067-.587m288.939.1a1.257,1.257,0,1,1,1.32-2.14,1.26,1.26,0,0,1-.669,2.325,1.321,1.321,0,0,1-.651-.184M33.73,281.509a1.256,1.256,0,1,1,1.689.551,1.191,1.191,0,0,1-.569.133,1.26,1.26,0,0,1-1.12-.685m302.06.216a1.247,1.247,0,1,1,1.136-2.221,1.23,1.23,0,0,1,.551,1.67,1.277,1.277,0,0,1-1.12.687,1.154,1.154,0,0,1-.567-.135M28.131,269.377a1.255,1.255,0,0,1,.669-1.638,1.274,1.274,0,0,1,1.638.685,1.248,1.248,0,0,1-.685,1.638,1.186,1.186,0,0,1-.469.1,1.264,1.264,0,0,1-1.154-.785m313.292.316a1.259,1.259,0,0,1-.687-1.636v.016a1.269,1.269,0,1,1,.687,1.62M23.5,256.861h0a1.25,1.25,0,1,1,1.569.8,1.508,1.508,0,0,1-.383.051,1.24,1.24,0,0,1-1.187-.851m322.6.4a1.244,1.244,0,0,1-.818-1.571,1.255,1.255,0,1,1,1.187,1.638.978.978,0,0,1-.369-.067M19.86,243.991a1.278,1.278,0,0,1,.936-1.52,1.255,1.255,0,0,1,.585,2.441,1.736,1.736,0,0,1-.3.033,1.265,1.265,0,0,1-1.22-.953m329.9.52a1.279,1.279,0,0,1-.934-1.52,1.255,1.255,0,0,1,1.52-.92,1.238,1.238,0,0,1,.918,1.5,1.264,1.264,0,0,1-1.22.969,2.026,2.026,0,0,1-.284-.031M17.268,230.874h0a1.242,1.242,0,0,1,1.038-1.438,1.252,1.252,0,1,1,.385,2.474.732.732,0,0,1-.184.016,1.255,1.255,0,0,1-1.238-1.052m335.131.618a1.225,1.225,0,0,1-1.036-1.42,1.259,1.259,0,0,1,1.422-1.054,1.274,1.274,0,0,1,1.052,1.438,1.252,1.252,0,0,1-1.236,1.052.887.887,0,0,1-.2-.016m-336.7-13.9a1.257,1.257,0,1,1,1.354,1.154h-.1a1.255,1.255,0,0,1-1.254-1.154m338.321.736a1.253,1.253,0,0,1-1.152-1.338,1.249,1.249,0,0,1,2.492.184,1.244,1.244,0,0,1-1.238,1.154ZM15.181,204.234h0a1.253,1.253,0,0,1,2.505,0,1.253,1.253,0,1,1-2.505,0m338.172-.418a1.254,1.254,0,1,1,1.254,1.254,1.25,1.25,0,0,1-1.254-1.254M16.835,192.22a1.313,1.313,0,1,1,.1,0Zm335.982-1.571a1.25,1.25,0,1,1,1.356,1.154h-.1a1.258,1.258,0,0,1-1.254-1.154M18.273,179.019a1.233,1.233,0,0,1-1.036-1.42,1.248,1.248,0,0,1,1.42-1.053,1.271,1.271,0,0,1,1.052,1.436,1.252,1.252,0,0,1-1.236,1.054.86.86,0,0,1-.2-.016m332.99-1.456a1.249,1.249,0,0,1,1.038-1.436,1.273,1.273,0,0,1,1.436,1.054,1.248,1.248,0,0,1-1.036,1.436h-.2a1.254,1.254,0,0,1-1.238-1.054M20.745,165.984a1.255,1.255,0,1,1,.587-2.441,1.246,1.246,0,0,1,.918,1.5v.018a1.248,1.248,0,0,1-1.22.951.942.942,0,0,1-.284-.031m327.947-1.338h0a1.246,1.246,0,1,1,2.423-.585h.016a1.286,1.286,0,0,1-.934,1.52,2,2,0,0,1-.3.033,1.243,1.243,0,0,1-1.2-.969M24.239,153.183a1.295,1.295,0,1,1,.385.049,1.506,1.506,0,0,1-.385-.049m320.858-1.2h0a1.249,1.249,0,1,1,1.571.8,1.433,1.433,0,0,1-.385.067,1.236,1.236,0,0,1-1.187-.867m-316.364-11.3a1.262,1.262,0,0,1-.685-1.638,1.246,1.246,0,0,1,1.638-.685A1.261,1.261,0,0,1,30.372,140a1.247,1.247,0,0,1-1.154.769,1.192,1.192,0,0,1-.485-.084m311.785-1.054a1.248,1.248,0,1,1,1.638.685,1.229,1.229,0,0,1-.485.1,1.264,1.264,0,0,1-1.154-.787M34.2,128.566a1.248,1.248,0,1,1,1.138-2.221,1.241,1.241,0,0,1-.567,2.354,1.193,1.193,0,0,1-.571-.133M334.97,127.7a1.26,1.26,0,1,1,1.687.536,1.139,1.139,0,0,1-.567.133,1.257,1.257,0,0,1-1.12-.669M40.616,116.934a1.237,1.237,0,0,1-.418-1.721,1.252,1.252,0,1,1,1.069,1.9,1.133,1.133,0,0,1-.651-.184m287.9-.718a1.246,1.246,0,0,1,.4-1.721,1.23,1.23,0,0,1,1.721.418,1.249,1.249,0,0,1-.4,1.721,1.314,1.314,0,0,1-.649.184,1.236,1.236,0,0,1-1.071-.6m-280.6-10.378a1.221,1.221,0,0,1-.284-1.736v-.018a1.255,1.255,0,1,1,1,1.987,1.162,1.162,0,0,1-.72-.233m273.248-.551h0a1.257,1.257,0,0,1,.284-1.754,1.27,1.27,0,0,1,1.754.267h-.016a1.24,1.24,0,0,1-.267,1.756,1.225,1.225,0,0,1-.738.233,1.264,1.264,0,0,1-1.018-.5M56.056,95.361a1.252,1.252,0,0,1-.149-1.772,1.25,1.25,0,1,1,1.9,1.62,1.226,1.226,0,0,1-.951.451,1.248,1.248,0,0,1-.8-.3m256.937-.4h0a1.257,1.257,0,0,1,1.907-1.638,1.252,1.252,0,0,1-.133,1.773,1.265,1.265,0,0,1-1.773-.135M64.981,85.535a1.253,1.253,0,0,1,1.772-1.772,1.23,1.23,0,0,1,0,1.772,1.185,1.185,0,0,1-.887.369,1.241,1.241,0,0,1-.885-.369M304.038,85.3a1.283,1.283,0,0,1,0-1.789,1.253,1.253,0,0,1,1.772,1.772,1.239,1.239,0,0,1-.887.367,1.293,1.293,0,0,1-.885-.349M74.656,76.443a1.256,1.256,0,1,1,1.772.133,1.3,1.3,0,0,1-.818.3,1.273,1.273,0,0,1-.953-.434m219.688-.082h0a1.257,1.257,0,0,1,1.638-1.907h-.016a1.254,1.254,0,0,1-.8,2.207,1.279,1.279,0,0,1-.82-.3M85,68.139a1.257,1.257,0,1,1,2.038-1.471,1.234,1.234,0,0,1-.284,1.736,1.208,1.208,0,0,1-.734.251A1.29,1.29,0,0,1,85,68.139m199,.067a1.25,1.25,0,1,1,1.469-2.023v-.018a1.276,1.276,0,0,1,.284,1.756,1.238,1.238,0,0,1-1.02.518,1.166,1.166,0,0,1-.734-.233M95.982,60.668a1.249,1.249,0,1,1,2.121-1.32,1.249,1.249,0,0,1-.4,1.721,1.18,1.18,0,0,1-.651.184,1.221,1.221,0,0,1-1.069-.585m177.055.216a1.24,1.24,0,0,1-.418-1.721,1.253,1.253,0,0,1,2.14,1.3,1.221,1.221,0,0,1-1.069.6,1.143,1.143,0,0,1-.653-.184M107.494,54.068a1.254,1.254,0,0,1,.536-1.689V52.4a1.244,1.244,0,0,1,1.687.534,1.259,1.259,0,0,1-.534,1.687,1.186,1.186,0,0,1-.569.133,1.239,1.239,0,0,1-1.12-.683m154.031.383a1.245,1.245,0,0,1-.536-1.687,1.229,1.229,0,0,1,1.67-.551,1.253,1.253,0,0,1-.567,2.372,1.432,1.432,0,0,1-.567-.133M119.477,48.418a1.258,1.258,0,1,1,1.654.669,1.318,1.318,0,0,1-.485.1,1.251,1.251,0,0,1-1.169-.767m130.08.518h-.016a1.25,1.25,0,1,1,.969-2.305v-.016a1.262,1.262,0,0,1-.485,2.421,1.193,1.193,0,0,1-.469-.1M131.893,43.722a1.249,1.249,0,1,1,1.571.8,1.659,1.659,0,0,1-.386.065,1.253,1.253,0,0,1-1.185-.869m105.281.669a1.255,1.255,0,0,1,.769-2.39,1.261,1.261,0,0,1-.383,2.458,1.065,1.065,0,0,1-.387-.069m-92.546-4.377a1.247,1.247,0,0,1,.936-1.5v-.018a1.257,1.257,0,0,1,1.5.936,1.236,1.236,0,0,1-.918,1.5.923.923,0,0,1-.3.033,1.264,1.264,0,0,1-1.22-.951m79.863.836h0a1.262,1.262,0,0,1,.569-2.458,1.253,1.253,0,0,1,.936,1.52,1.266,1.266,0,0,1-1.22.969,1.778,1.778,0,0,1-.284-.031m-66.862-3.527a1.249,1.249,0,0,1,1.036-1.438,1.265,1.265,0,0,1,1.438,1.054,1.226,1.226,0,0,1-1.036,1.42.862.862,0,0,1-.2.016,1.254,1.254,0,0,1-1.238-1.052m53.927.985a1.26,1.26,0,0,1,.385-2.49,1.275,1.275,0,0,1,1.054,1.438,1.254,1.254,0,0,1-1.238,1.052ZM170.8,35.666a1.25,1.25,0,1,1,1.356,1.156h-.1a1.258,1.258,0,0,1-1.254-1.156m27.676,1.12h0a1.258,1.258,0,0,1,.2-2.507,1.277,1.277,0,0,1,1.154,1.356,1.253,1.253,0,0,1-1.252,1.152Zm-14.424-1.738a1.266,1.266,0,0,1,1.254-1.269,1.254,1.254,0,1,1-1.254,1.269" transform="translate(14.602 32.49)"/>
            <path id="Trazado_872986" data-name="Trazado 872986" d="M176.708,350.673a1.484,1.484,0,0,1,1.471-1.469v.018h.167c.051,0,.118-.018.184-.018A1.472,1.472,0,0,1,180,350.673a1.454,1.454,0,0,1-1.454,1.454h-.367a1.47,1.47,0,0,1-1.471-1.454m-11.881.9a1.468,1.468,0,0,1,.249-2.925,1.466,1.466,0,0,1-.133,2.925Zm25.484-1.369a1.459,1.459,0,1,1,1.587,1.336h-.133a1.455,1.455,0,0,1-1.454-1.336m-38.739-.333a1.5,1.5,0,1,1,.235.016,1.209,1.209,0,0,1-.235-.016m51.873-1.254a1.469,1.469,0,1,1,1.7,1.187,1.627,1.627,0,0,1-.267.016,1.48,1.48,0,0,1-1.438-1.2m-64.939-1.587a1.53,1.53,0,1,1,.367.033,1.362,1.362,0,0,1-.367-.033m77.909-1.138a1.461,1.461,0,1,1,2.823-.751,1.473,1.473,0,0,1-1.038,1.789,1.6,1.6,0,0,1-.383.049,1.442,1.442,0,0,1-1.4-1.087m-90.679-2.841v.016a1.464,1.464,0,1,1,1.872-.885,1.494,1.494,0,0,1-1.387.969,1.338,1.338,0,0,1-.485-.1m103.344-.985a1.467,1.467,0,1,1,1.872.867,1.289,1.289,0,0,1-.485.084,1.481,1.481,0,0,1-1.387-.951M113.356,338a1.459,1.459,0,1,1,.6.133,1.279,1.279,0,0,1-.6-.133m128.024-.851a1.455,1.455,0,0,1,.7-1.938V335.2a1.485,1.485,0,0,1,1.954.718,1.459,1.459,0,0,1-.718,1.94,1.38,1.38,0,0,1-.618.133,1.426,1.426,0,0,1-1.32-.836m-139.923-5.246a1.46,1.46,0,0,1-.551-1.989,1.458,1.458,0,1,1,2.539,1.436,1.472,1.472,0,0,1-1.269.738,1.4,1.4,0,0,1-.718-.184M253.2,331.19a1.463,1.463,0,0,1,2.539-1.456,1.482,1.482,0,0,1-.534,2.005,1.494,1.494,0,0,1-2.005-.549M90.126,324.8h0a1.473,1.473,0,0,1-.385-2.038,1.467,1.467,0,1,1,1.2,2.289,1.48,1.48,0,0,1-.82-.251m174.334-.567a1.478,1.478,0,0,1,.385-2.04,1.467,1.467,0,0,1,1.654,2.423,1.48,1.48,0,0,1-.836.253,1.462,1.462,0,0,1-1.2-.636M79.448,316.748h0a1.475,1.475,0,0,1-.2-2.054,1.46,1.46,0,1,1,1.136,2.39,1.528,1.528,0,0,1-.936-.335m195.657-.4a1.46,1.46,0,1,1,2.056.184,1.425,1.425,0,0,1-.936.351,1.442,1.442,0,0,1-1.12-.536m-205.6-8.538a1.459,1.459,0,1,1,2.038-2.089,1.469,1.469,0,0,1,.033,2.072,1.454,1.454,0,0,1-1.054.434,1.432,1.432,0,0,1-1.018-.416m215.511-.253a1.459,1.459,0,0,1,2.087-2.038,1.475,1.475,0,0,1-.016,2.074,1.508,1.508,0,0,1-1.02.418,1.434,1.434,0,0,1-1.052-.453M60.365,298.066h0a1.456,1.456,0,1,1,2.054.151,1.463,1.463,0,0,1-.953.351,1.418,1.418,0,0,1-1.1-.5m233.792-.082a1.476,1.476,0,0,1-.167-2.074,1.464,1.464,0,1,1,1.12,2.425,1.433,1.433,0,0,1-.953-.351M52.076,287.572a1.464,1.464,0,0,1,.334-2.038,1.436,1.436,0,0,1,2.038.333,1.47,1.47,0,0,1-.334,2.038,1.475,1.475,0,0,1-2.038-.333m250.352.067a1.461,1.461,0,1,1,2.038-.335,1.435,1.435,0,0,1-1.185.6,1.472,1.472,0,0,1-.853-.267M44.721,276.409a1.465,1.465,0,0,1,.5-2.007,1.462,1.462,0,1,1,1.5,2.507,1.341,1.341,0,0,1-.736.218,1.519,1.519,0,0,1-1.271-.718m265.077.216a1.457,1.457,0,1,1,1.487-2.505,1.452,1.452,0,0,1,.52,1.989,1.48,1.48,0,0,1-1.273.718,1.458,1.458,0,0,1-.734-.2M38.373,264.659h0a1.46,1.46,0,1,1,1.954.669,1.541,1.541,0,0,1-.653.151,1.443,1.443,0,0,1-1.3-.82m277.81.367a1.473,1.473,0,0,1-.685-1.954h.016a1.458,1.458,0,1,1,1.3,2.089,1.38,1.38,0,0,1-.636-.135M33.04,252.394a1.466,1.466,0,0,1,2.743-1.036,1.485,1.485,0,0,1-.855,1.887,1.808,1.808,0,0,1-.516.084,1.477,1.477,0,0,1-1.371-.936m288.507.518a1.454,1.454,0,0,1-.836-1.889h-.02a1.48,1.48,0,0,1,1.889-.851,1.458,1.458,0,0,1-.518,2.825,1.39,1.39,0,0,1-.516-.084M28.795,239.726h0a1.489,1.489,0,0,1,1-1.821,1.463,1.463,0,0,1,1.8,1h.016a1.486,1.486,0,0,1-1,1.821,1.911,1.911,0,0,1-.418.051,1.465,1.465,0,0,1-1.4-1.054m297.045.651a1.47,1.47,0,0,1-1-1.8,1.46,1.46,0,1,1,2.807.8,1.464,1.464,0,0,1-1.4,1.054,1.572,1.572,0,0,1-.4-.051M25.67,226.725h0a1.466,1.466,0,1,1,1.723,1.154,1.76,1.76,0,0,1-.284.033,1.469,1.469,0,0,1-1.438-1.187m303.38.8a1.415,1.415,0,1,1,.267.033,1.553,1.553,0,0,1-.267-.033M23.667,213.506h.016a1.454,1.454,0,1,1,1.6,1.3h-.169a1.462,1.462,0,0,1-1.452-1.3m307.439.951a1.488,1.488,0,0,1-1.3-1.62,1.471,1.471,0,0,1,2.925.318h-.018a1.434,1.434,0,0,1-1.436,1.3ZM22.813,200.171a1.456,1.456,0,0,1,1.438-1.487,1.44,1.44,0,0,1,1.485,1.42,1.47,1.47,0,0,1-1.436,1.5h-.018a1.467,1.467,0,0,1-1.469-1.436m309.244,1.069a1.463,1.463,0,1,1,1.487-1.42V199.8a1.462,1.462,0,0,1-1.454,1.438ZM24.451,188.355a1.457,1.457,0,1,1,1.554-1.369V187a1.447,1.447,0,0,1-1.454,1.354Zm305.87-1.721A1.464,1.464,0,1,1,331.873,188h-.1a1.47,1.47,0,0,1-1.452-1.369M25.736,175.187a1.471,1.471,0,1,1,1.656-1.238,1.459,1.459,0,0,1-1.454,1.254c-.067,0-.133-.016-.2-.016M328.9,173.6a1.479,1.479,0,0,1,1.238-1.67,1.458,1.458,0,0,1,1.654,1.236,1.443,1.443,0,0,1-1.22,1.656,1.018,1.018,0,0,1-.218.016A1.472,1.472,0,0,1,328.9,173.6M28.128,162.153a1.435,1.435,0,0,1-1.071-1.754,1.462,1.462,0,0,1,1.756-1.089,1.467,1.467,0,0,1-.334,2.894,1.344,1.344,0,0,1-.351-.051m298.248-1.42a1.461,1.461,0,1,1,2.841-.685,1.447,1.447,0,0,1-1.069,1.754,1.278,1.278,0,0,1-.351.051,1.478,1.478,0,0,1-1.42-1.12M31.653,149.4a1.469,1.469,0,0,1,.918-2.79,1.465,1.465,0,0,1-.467,2.858,2.112,2.112,0,0,1-.451-.069m291.079-1.269a1.464,1.464,0,0,1,2.774-.936,1.453,1.453,0,0,1-.92,1.856,1.442,1.442,0,0,1-1.854-.92M36.266,136.968a1.459,1.459,0,1,1,1.169-2.674,1.455,1.455,0,0,1-.585,2.79,1.427,1.427,0,0,1-.585-.116M318.02,135.9h.016a1.453,1.453,0,0,1,.753-1.923,1.46,1.46,0,1,1,.585,2.807,1.489,1.489,0,0,1-1.354-.885M41.931,125a1.465,1.465,0,1,1,1.4-2.572,1.458,1.458,0,0,1,.585,1.972,1.474,1.474,0,0,1-1.285.769,1.54,1.54,0,0,1-.7-.169m270.339-.885a1.452,1.452,0,1,1,1.289.769,1.466,1.466,0,0,1-1.289-.769M48.615,113.556a1.433,1.433,0,1,1,.8.251,1.425,1.425,0,0,1-.8-.251m256.922-.687h0a1.46,1.46,0,0,1,2.441-1.6,1.475,1.475,0,0,1-.418,2.021,1.432,1.432,0,0,1-.8.235,1.487,1.487,0,0,1-1.22-.653M56.253,102.744a1.463,1.463,0,0,1-.235-2.056,1.444,1.444,0,0,1,2.038-.251,1.455,1.455,0,0,1-.9,2.607,1.5,1.5,0,0,1-.9-.3m241.6-.5h0a1.458,1.458,0,1,1,2.289-1.8,1.441,1.441,0,0,1-.233,2.038,1.414,1.414,0,0,1-.9.318,1.446,1.446,0,0,1-1.154-.551M64.793,92.615a1.465,1.465,0,1,1,2.072-.067,1.491,1.491,0,0,1-2.072.067m224.483-.3a1.466,1.466,0,0,1,2.14-2.005H291.4a1.44,1.44,0,0,1-.051,2.056,1.477,1.477,0,0,1-2.074-.051M74.168,83.241a1.439,1.439,0,0,1,.1-2.056,1.461,1.461,0,1,1,.987,2.541,1.376,1.376,0,0,1-1.085-.485m205.716-.1a1.462,1.462,0,0,1,1.956-2.174,1.456,1.456,0,0,1,.118,2.056,1.425,1.425,0,0,1-1.087.5,1.5,1.5,0,0,1-.987-.385M84.294,74.717A1.462,1.462,0,1,1,86.35,75a1.492,1.492,0,0,1-.885.3,1.44,1.44,0,0,1-1.171-.587m185.463.1a1.463,1.463,0,1,1,2.038-.284,1.472,1.472,0,0,1-1.169.569,1.43,1.43,0,0,1-.869-.284M95.123,67.1a1.462,1.462,0,0,1,.451-2.021v.016a1.465,1.465,0,0,1,1.571,2.474,1.5,1.5,0,0,1-.785.218,1.431,1.431,0,0,1-1.238-.687m163.822.284h0a1.443,1.443,0,0,1-.467-2.005,1.46,1.46,0,1,1,1.236,2.238,1.425,1.425,0,0,1-.769-.233M106.555,60.429a1.464,1.464,0,1,1,1.972.636,1.542,1.542,0,0,1-.669.151,1.463,1.463,0,0,1-1.3-.787m140.978.485h0a1.464,1.464,0,1,1,1.97-.634,1.485,1.485,0,0,1-1.3.785,1.555,1.555,0,0,1-.667-.151m-129-6.133a1.457,1.457,0,1,1,1.9.785,1.313,1.313,0,0,1-.567.118,1.425,1.425,0,0,1-1.338-.9m117.063.671a1.47,1.47,0,0,1-.8-1.907,1.441,1.441,0,0,1,1.9-.8,1.456,1.456,0,0,1-.551,2.807,1.6,1.6,0,0,1-.551-.1M130.952,50.17a1.442,1.442,0,0,1,.953-1.823,1.463,1.463,0,0,1,1.838.951,1.489,1.489,0,0,1-.971,1.84,1.324,1.324,0,0,1-.434.067,1.446,1.446,0,0,1-1.387-1.036m92.281.867h.016a1.467,1.467,0,0,1,.853-2.807,1.489,1.489,0,0,1,.969,1.838,1.472,1.472,0,0,1-1.4,1.02,1.928,1.928,0,0,1-.434-.051M143.7,46.659a1.47,1.47,0,0,1,1.122-1.738,1.486,1.486,0,0,1,1.754,1.12,1.467,1.467,0,0,1-1.12,1.738,1.026,1.026,0,0,1-.318.033,1.481,1.481,0,0,1-1.438-1.154m66.846,1.054V47.7a1.455,1.455,0,1,1,.618-2.843,1.435,1.435,0,0,1,1.12,1.738,1.459,1.459,0,0,1-1.42,1.154,1.963,1.963,0,0,1-.318-.033m-53.81-3.443a1.456,1.456,0,0,1,1.254-1.638h.016a1.466,1.466,0,0,1,.369,2.909c-.069,0-.118.016-.184.016a1.473,1.473,0,0,1-1.454-1.287m40.893,1.222h0a1.466,1.466,0,1,1,1.636-1.271,1.485,1.485,0,0,1-1.452,1.287.733.733,0,0,1-.184-.016m-27.707-2.474a1.426,1.426,0,0,1,1.387-1.522,1.456,1.456,0,0,1,.133,2.909h-.067a1.441,1.441,0,0,1-1.454-1.387m13.235-.151a1.469,1.469,0,0,1,1.52-1.4v.016a1.455,1.455,0,1,1-.118,2.907V44.4a1.486,1.486,0,0,1-1.4-1.538" transform="translate(21.942 39.88)"/>
            <path id="Trazado_872987" data-name="Trazado 872987" d="M169.184,328.185a1.677,1.677,0,0,1,1.672-1.671.432.432,0,0,1,.149.018.438.438,0,0,1,.151-.018h.016a1.672,1.672,0,0,1,0,3.343h-.316a1.675,1.675,0,0,1-1.672-1.672M157.7,329.254a1.752,1.752,0,1,1,.167,0Zm24.782-1.536a1.679,1.679,0,1,1,1.838,1.5c-.067,0-.118.016-.167.016a1.686,1.686,0,0,1-1.672-1.52m-37.819-.3v.018a1.7,1.7,0,0,1-1.336-1.956,1.675,1.675,0,1,1,1.654,1.972,1.039,1.039,0,0,1-.318-.033m50.72-1.387a1.675,1.675,0,1,1,1.956,1.338,1.975,1.975,0,0,1-.3.031,1.681,1.681,0,0,1-1.656-1.369m-63.519-1.654h0a1.669,1.669,0,0,1,.918-3.21,1.669,1.669,0,0,1-.469,3.276,1.372,1.372,0,0,1-.449-.067m76.2-1.22a1.672,1.672,0,1,1,2.074,1.136,2.276,2.276,0,0,1-.469.069,1.7,1.7,0,0,1-1.6-1.2M119.4,320.13a1.669,1.669,0,0,1,1.22-3.108,1.67,1.67,0,0,1,.951,2.174,1.7,1.7,0,0,1-1.554,1.052,1.547,1.547,0,0,1-.618-.118m101.02-1.052a1.686,1.686,0,0,1,.953-2.174,1.667,1.667,0,0,1,2.156.936,1.65,1.65,0,0,1-.936,2.172,1.5,1.5,0,0,1-.6.118,1.7,1.7,0,0,1-1.571-1.052m-113.036-4.345v.018a1.729,1.729,0,1,1,.769.165,1.586,1.586,0,0,1-.769-.182m124.968-.869a1.647,1.647,0,0,1,.72-2.238,1.67,1.67,0,1,1,1.52,2.974,1.739,1.739,0,0,1-.753.182,1.64,1.64,0,0,1-1.487-.918M95.938,308.231a1.67,1.67,0,0,1-.52-2.305,1.693,1.693,0,0,1,2.305-.518,1.677,1.677,0,0,1-.883,3.092,1.612,1.612,0,0,1-.9-.269m147.778-.685a1.655,1.655,0,0,1,.516-2.289v-.018a1.694,1.694,0,0,1,2.309.52,1.658,1.658,0,0,1-.52,2.305,1.567,1.567,0,0,1-.887.269,1.69,1.69,0,0,1-1.418-.787M85.158,300.7h0a1.659,1.659,0,1,1,1.018.351,1.641,1.641,0,0,1-1.018-.351m169.3-.485a1.692,1.692,0,0,1,.283-2.358,1.681,1.681,0,1,1,1.038,3.009,1.669,1.669,0,0,1-1.32-.651M75.115,292.173a1.668,1.668,0,1,1,2.354-.084,1.659,1.659,0,0,1-2.354.084m189.34-.286a1.672,1.672,0,1,1,2.356.084v-.018a1.633,1.633,0,0,1-1.138.453,1.656,1.656,0,0,1-1.218-.52M65.906,282.762a1.675,1.675,0,1,1,2.356.133,1.623,1.623,0,0,1-1.1.42,1.673,1.673,0,0,1-1.254-.553m207.724-.082a1.687,1.687,0,0,1-.135-2.374A1.675,1.675,0,0,1,276,282.529a1.721,1.721,0,0,1-1.254.569,1.785,1.785,0,0,1-1.118-.418m-216-10.143h0a1.673,1.673,0,1,1,2.69-1.989,1.681,1.681,0,0,1-.367,2.34,1.642,1.642,0,0,1-.987.332,1.659,1.659,0,0,1-1.336-.683m224.284.1a1.657,1.657,0,1,1,.985.333,1.71,1.71,0,0,1-.985-.333M50.331,261.572a1.664,1.664,0,0,1,.569-2.29,1.668,1.668,0,1,1,1.721,2.858,1.61,1.61,0,0,1-.851.251,1.693,1.693,0,0,1-1.438-.82m238.906.32a1.673,1.673,0,1,1,.853.233,1.79,1.79,0,0,1-.853-.233M44.1,249.976h0a1.667,1.667,0,1,1,2.223.785,1.579,1.579,0,0,1-.718.167,1.667,1.667,0,0,1-1.5-.952m251.423.518a1.7,1.7,0,0,1-.8-2.238,1.674,1.674,0,1,1,1.5,2.39,1.777,1.777,0,0,1-.7-.151M38.986,237.861h0a1.666,1.666,0,1,1,2.136.985,1.711,1.711,0,0,1-.585.1,1.65,1.65,0,0,1-1.552-1.085m261.7.683a1.673,1.673,0,1,1,2.156-.985,1.691,1.691,0,0,1-1.569,1.087,1.8,1.8,0,0,1-.587-.1m-265.66-13.25a1.671,1.671,0,0,1,1.185-2.038,1.676,1.676,0,1,1,.853,3.241,1.8,1.8,0,0,1-.418.049,1.673,1.673,0,0,1-1.62-1.252m269.7.885a1.666,1.666,0,1,1,2.023-1.187,1.637,1.637,0,0,1-1.6,1.236,1.8,1.8,0,0,1-.418-.049M32.266,212.424h0a1.678,1.678,0,1,1,1.923,1.371,1.574,1.574,0,0,1-.269.033,1.682,1.682,0,0,1-1.654-1.4m275.3,1.071a1.7,1.7,0,1,1,.267.016c-.1,0-.184-.016-.267-.016M30.744,199.358a1.668,1.668,0,1,1,1.789,1.554h-.118a1.669,1.669,0,0,1-1.671-1.554m278.465,1.218a1.666,1.666,0,1,1,.218-3.325,1.673,1.673,0,0,1-.1,3.341.25.25,0,0,1-.116-.016M32.064,187.909a1.7,1.7,0,0,1-1.636-1.721,1.672,1.672,0,0,1,3.343.084,1.68,1.68,0,0,1-1.671,1.636Zm275.857-1.954h0a1.671,1.671,0,0,1,3.341-.084,1.69,1.69,0,0,1-1.62,1.722h-.051a1.679,1.679,0,0,1-1.67-1.638M32.8,174.908a1.619,1.619,0,1,1,.2.018.769.769,0,0,1-.2-.018m274.217-1.772H307a1.674,1.674,0,1,1,3.325-.385v-.016a1.7,1.7,0,0,1-1.454,1.872h-.216a1.646,1.646,0,0,1-1.638-1.471M34.756,162.058a1.666,1.666,0,0,1-1.285-1.989v.018a1.664,1.664,0,1,1,1.636,2,1.331,1.331,0,0,1-.351-.031M304.9,160.468a1.675,1.675,0,1,1,1.987,1.289,2.655,2.655,0,0,1-.349.031,1.675,1.675,0,0,1-1.638-1.32m-267-11.028a1.673,1.673,0,0,1,1-3.192,1.669,1.669,0,0,1-.5,3.259,1.755,1.755,0,0,1-.5-.067m263.721-1.4a1.665,1.665,0,1,1,2.089,1.1,1.694,1.694,0,0,1-.5.067,1.659,1.659,0,0,1-1.587-1.169M42.227,137.156a1.663,1.663,0,0,1-.9-2.172,1.675,1.675,0,1,1,1.536,2.307,1.472,1.472,0,0,1-.634-.135m254.95-1.169a1.669,1.669,0,1,1,2.187.887,1.521,1.521,0,0,1-.651.133,1.664,1.664,0,0,1-1.536-1.02M47.69,125.359a1.68,1.68,0,0,1-.685-2.274,1.68,1.68,0,1,1,.685,2.274m243.921-.953a1.671,1.671,0,1,1,2.256.685,1.652,1.652,0,0,1-2.256-.685M54.243,114.112a1.672,1.672,0,0,1-.487-2.307v-.016a1.676,1.676,0,1,1,2.792,1.856,1.665,1.665,0,0,1-1.387.751,1.685,1.685,0,0,1-.918-.284m230.751-.718a1.648,1.648,0,0,1,.449-2.307,1.669,1.669,0,1,1,1.856,2.774,1.69,1.69,0,0,1-.918.284,1.642,1.642,0,0,1-1.387-.751m-223.2-9.86a1.69,1.69,0,0,1-.233-2.356,1.669,1.669,0,1,1,2.592,2.105,1.685,1.685,0,0,1-2.358.251m215.562-.485a1.688,1.688,0,1,1,1.3.618,1.7,1.7,0,0,1-1.3-.618M70.334,93.707a1.666,1.666,0,1,1,2.358-.033,1.694,1.694,0,0,1-1.2.5,1.626,1.626,0,0,1-1.156-.469M268.8,93.458a1.673,1.673,0,0,1,2.392-2.34,1.673,1.673,0,0,1-2.392,2.34M79.727,84.716a1.668,1.668,0,0,1,.182-2.356h.018a1.648,1.648,0,0,1,2.339.184,1.67,1.67,0,1,1-2.539,2.172M259.392,84.7h0a1.666,1.666,0,1,1,2.156-2.541,1.666,1.666,0,1,1-2.156,2.541M89.921,76.629a1.669,1.669,0,1,1,2.323.418h.016a1.739,1.739,0,0,1-.969.3,1.684,1.684,0,0,1-1.369-.718m159.277.233a1.657,1.657,0,0,1-.4-2.323,1.669,1.669,0,0,1,2.741,1.9,1.7,1.7,0,0,1-1.387.72,1.616,1.616,0,0,1-.951-.3m-148.365-7.32a1.648,1.648,0,0,1,.618-2.272,1.676,1.676,0,0,1,2.291.616,1.7,1.7,0,0,1-.636,2.289,1.732,1.732,0,0,1-.82.2,1.66,1.66,0,0,1-1.454-.836m137.484.485h.018a1.692,1.692,0,0,1-.634-2.289,1.668,1.668,0,0,1,2.27-.636,1.667,1.667,0,0,1-.818,3.125,1.864,1.864,0,0,1-.836-.2M112.347,63.51a1.676,1.676,0,1,1,2.223.836,1.769,1.769,0,0,1-.7.151,1.678,1.678,0,0,1-1.52-.987m114.507.7a1.668,1.668,0,1,1,2.223-.836,1.7,1.7,0,0,1-1.538.987,1.76,1.76,0,0,1-.685-.151M124.379,58.58a1.679,1.679,0,1,1,2.14,1.036,1.561,1.561,0,0,1-.551.1,1.681,1.681,0,0,1-1.589-1.136m90.526.936a1.682,1.682,0,1,1,.536.082,1.446,1.446,0,0,1-.536-.082M136.829,54.8a1.688,1.688,0,0,1,1.254-2.005,1.665,1.665,0,1,1,.769,3.241,1.523,1.523,0,0,1-.385.051,1.709,1.709,0,0,1-1.638-1.287m65.71,1.169h.018a1.672,1.672,0,1,1,.751-3.259h.016a1.678,1.678,0,0,1-.385,3.31,1.647,1.647,0,0,1-.4-.051m-52.958-3.743A1.686,1.686,0,0,1,151,50.34a1.671,1.671,0,1,1,.469,3.31,1.084,1.084,0,0,1-.233.016,1.671,1.671,0,0,1-1.654-1.436m40.34,1.369h0a1.645,1.645,0,0,1-1.418-1.872,1.67,1.67,0,0,1,1.872-1.436h.016a1.7,1.7,0,0,1,1.422,1.889,1.673,1.673,0,0,1-1.656,1.438.894.894,0,0,1-.235-.02M162.515,50.86a1.689,1.689,0,0,1,1.6-1.756H164.1a1.681,1.681,0,0,1,1.756,1.589,1.659,1.659,0,0,1-1.589,1.754h-.082a1.683,1.683,0,0,1-1.672-1.587m14.606,1.569a1.65,1.65,0,0,1-1.587-1.736,1.664,1.664,0,1,1,3.325.149,1.659,1.659,0,0,1-1.654,1.587Z" transform="translate(29.267 47.213)"/>
            <path id="Trazado_872988" data-name="Trazado 872988" d="M161.656,305.783a1.888,1.888,0,0,1,1.891-1.887h.265a1.879,1.879,0,1,1,.018,3.759h-.283a1.884,1.884,0,0,1-1.891-1.872m-11.23,1.187a1.873,1.873,0,0,1,.386-3.725,1.876,1.876,0,0,1-.184,3.743.79.79,0,0,1-.2-.018m24.433-1.687a1.9,1.9,0,0,1,1.671-2.074,1.883,1.883,0,0,1,.4,3.745h-.2a1.882,1.882,0,0,1-1.872-1.672m-37.4-.335a1.9,1.9,0,1,1,.383.035,2.829,2.829,0,0,1-.383-.035m50.217-1.5a1.864,1.864,0,0,1,1.436-2.238,1.879,1.879,0,1,1,.787,3.675,1.551,1.551,0,0,1-.385.051,1.874,1.874,0,0,1-1.838-1.487m-62.918-1.887h0a1.9,1.9,0,0,1-1.2-2.376,1.879,1.879,0,1,1,1.789,2.458,2.388,2.388,0,0,1-.585-.082m75.451-1.289a1.881,1.881,0,1,1,2.374,1.2,2.216,2.216,0,0,1-.585.086,1.9,1.9,0,0,1-1.789-1.289m-87.718-3.425a1.875,1.875,0,1,1,.769.167,2.129,2.129,0,0,1-.769-.167m99.868-1.052a1.881,1.881,0,1,1,2.474.934,1.768,1.768,0,0,1-.769.169,1.864,1.864,0,0,1-1.7-1.1m-111.566-4.914v-.016a1.877,1.877,0,1,1,2.574-.687,1.879,1.879,0,0,1-2.574.7m123.163-.82a1.876,1.876,0,1,1,3.243-1.887,1.861,1.861,0,0,1-.669,2.556,1.822,1.822,0,0,1-.953.269,1.868,1.868,0,0,1-1.62-.938M89.782,283.708a1.892,1.892,0,0,1-.418-2.623,1.878,1.878,0,1,1,1.52,2.974,1.925,1.925,0,0,1-1.1-.351m145.1-.569a1.884,1.884,0,0,1,3.043-2.223,1.878,1.878,0,0,1-1.52,2.992,1.877,1.877,0,0,1-1.522-.769m-155.314-7.7a1.867,1.867,0,1,1,1.254.485,1.933,1.933,0,0,1-1.254-.485m165.474-.3a1.881,1.881,0,1,1,2.658.133,1.946,1.946,0,0,1-1.269.485,1.906,1.906,0,0,1-1.389-.618M70.3,266.144a1.87,1.87,0,1,1,2.639.151,1.847,1.847,0,0,1-1.252.467,1.817,1.817,0,0,1-1.387-.618m184.025-.051a1.879,1.879,0,1,1,1.254.487,1.792,1.792,0,0,1-1.254-.487M62.006,255.95a1.884,1.884,0,1,1,2.625.418,1.9,1.9,0,0,1-2.625-.418m200.589.2a1.885,1.885,0,0,1-.418-2.623,1.885,1.885,0,1,1,1.52,2.992,1.819,1.819,0,0,1-1.1-.369M54.855,244.936a1.845,1.845,0,0,1,.685-2.554,1.871,1.871,0,0,1,1.872,3.241,1.71,1.71,0,0,1-.936.251,1.845,1.845,0,0,1-1.62-.938m214.942.469a1.889,1.889,0,1,1,.952.251,1.9,1.9,0,0,1-.952-.251M48.873,233.24v.018a1.885,1.885,0,1,1,2.488.951,2.087,2.087,0,0,1-.769.151,1.887,1.887,0,0,1-1.719-1.12m226.972.718a1.882,1.882,0,0,1,1.522-3.443,1.887,1.887,0,0,1-.769,3.61,2.049,2.049,0,0,1-.753-.167M44.159,220.99h0a1.863,1.863,0,1,1,1.789,1.3,1.886,1.886,0,0,1-1.789-1.3m236.483.951a1.878,1.878,0,0,1,1.154-3.575,1.863,1.863,0,0,1,1.22,2.356,1.893,1.893,0,0,1-1.787,1.3,1.729,1.729,0,0,1-.587-.084M40.767,208.3a1.88,1.88,0,1,1,3.677-.785,1.87,1.87,0,0,1-1.454,2.223,1.633,1.633,0,0,1-.385.051,1.876,1.876,0,0,1-1.838-1.489m243.385,1.187a1.886,1.886,0,1,1,2.223-1.469h.018a1.926,1.926,0,0,1-1.856,1.5,3.112,3.112,0,0,1-.385-.035M38.713,195.321h0a1.881,1.881,0,1,1,2.072,1.671.858.858,0,0,1-.2.016,1.88,1.88,0,0,1-1.872-1.687m247.628,1.4a1.877,1.877,0,0,1-1.687-2.056,1.881,1.881,0,1,1,3.743.385,1.884,1.884,0,0,1-1.872,1.687.8.8,0,0,1-.184-.016M38.026,182.22a1.88,1.88,0,1,1,1.889,1.872,1.886,1.886,0,0,1-1.889-1.872m247.262-.284a1.88,1.88,0,1,1,1.889,1.889,1.9,1.9,0,0,1-1.889-1.889m-243.5.267h0v0Zm-1.4-11.045a1.874,1.874,0,1,1,.385-3.728,1.855,1.855,0,0,1,1.672,2.056,1.878,1.878,0,0,1-1.854,1.687.888.888,0,0,1-.2-.016m244.236-1.938a1.881,1.881,0,0,1,1.671-2.074,1.882,1.882,0,1,1,.4,3.743.775.775,0,0,1-.2.018,1.884,1.884,0,0,1-1.872-1.687M42.187,158.356a1.878,1.878,0,1,1,.769-3.677,1.873,1.873,0,0,1-.385,3.708,3.212,3.212,0,0,1-.385-.031m240.428-1.723h0a1.884,1.884,0,0,1,1.452-2.223,1.88,1.88,0,0,1,.787,3.677,3.063,3.063,0,0,1-.4.035,1.885,1.885,0,0,1-1.836-1.489M45.33,145.806a1.887,1.887,0,0,1,1.152-3.594,1.881,1.881,0,0,1,1.2,2.374,1.86,1.86,0,0,1-1.789,1.3,2.248,2.248,0,0,1-.567-.082m233.976-1.471a1.88,1.88,0,1,1,2.372,1.2,1.737,1.737,0,0,1-.585.1,1.912,1.912,0,0,1-1.787-1.3m-229.53-10.7a1.871,1.871,0,0,1-.953-2.472v-.018a1.877,1.877,0,1,1,3.425,1.538,1.85,1.85,0,0,1-1.7,1.118,1.754,1.754,0,0,1-.769-.167m224.951-1.185a1.877,1.877,0,1,1,2.49.934,1.818,1.818,0,0,1-.769.169,1.905,1.905,0,0,1-1.721-1.1M55.473,122.024a1.891,1.891,0,1,1,.936.251,1.9,1.9,0,0,1-.936-.251m213.439-.918a1.883,1.883,0,1,1,2.574.685,1.757,1.757,0,0,1-.938.251,1.888,1.888,0,0,1-1.636-.936M62.357,111.064a1.879,1.879,0,1,1,2.625-.418,1.858,1.858,0,0,1-2.625.418m199.6-.62h0a1.876,1.876,0,0,1,3.023-2.223,1.891,1.891,0,0,1-.4,2.641,1.93,1.93,0,0,1-1.1.351,1.873,1.873,0,0,1-1.52-.769M70.345,100.885A1.881,1.881,0,1,1,73,100.734v.018a1.886,1.886,0,0,1-2.658.133m183.574-.334a1.886,1.886,0,1,1,1.387.618,1.854,1.854,0,0,1-1.387-.618M79.352,91.592a1.881,1.881,0,1,1,2.658.135,1.944,1.944,0,0,1-1.271.485,1.907,1.907,0,0,1-1.387-.62M244.9,91.561a1.865,1.865,0,1,1,1.254.485,1.88,1.88,0,0,1-1.254-.485M89.264,83.288a1.883,1.883,0,1,1,2.641.4h-.018a1.829,1.829,0,0,1-1.1.367,1.9,1.9,0,0,1-1.52-.769m145.724.251a1.856,1.856,0,0,1-.418-2.623,1.878,1.878,0,1,1,3.041,2.205,1.848,1.848,0,0,1-1.522.785,1.815,1.815,0,0,1-1.1-.367M100.009,76.052a1.877,1.877,0,1,1,2.558.685,1.93,1.93,0,0,1-.938.249,1.843,1.843,0,0,1-1.62-.934m124.283.551h0a1.883,1.883,0,0,1,1.887-3.259,1.881,1.881,0,0,1-.952,3.51,1.919,1.919,0,0,1-.936-.251M111.423,69.986a1.885,1.885,0,1,1,2.492.953,1.855,1.855,0,0,1-.769.165,1.894,1.894,0,0,1-1.722-1.118m101.522.836a1.857,1.857,0,1,1,.753.167,1.688,1.688,0,0,1-.753-.167m-89.505-5.666a1.873,1.873,0,1,1,2.354,1.2,2.189,2.189,0,0,1-.583.084,1.857,1.857,0,0,1-1.772-1.287m77.591,1.12h.016a1.879,1.879,0,1,1,2.356-1.22,1.858,1.858,0,0,1-1.787,1.3,1.83,1.83,0,0,1-.585-.082m-65.159-4.663a1.88,1.88,0,1,1,2.238,1.436h-.016a1.355,1.355,0,0,1-.383.051,1.892,1.892,0,0,1-1.84-1.487M188.729,63a1.914,1.914,0,1,1,.385.033,2.624,2.624,0,0,1-.385-.033m-40.108-3.61a1.88,1.88,0,0,1,1.671-2.072,1.881,1.881,0,1,1,.385,3.743c-.067,0-.133.016-.2.016a1.88,1.88,0,0,1-1.856-1.687m27.507,1.638h0a1.873,1.873,0,1,1,.386-3.726,1.875,1.875,0,0,1-.184,3.741.87.87,0,0,1-.2-.016m-14.6-2.507a1.872,1.872,0,0,1,1.87-1.887h.018a1.879,1.879,0,1,1-1.887,1.887" transform="translate(36.575 54.473)"/>
            <path id="Trazado_872989" data-name="Trazado 872989" d="M156.364,285.286a.544.544,0,0,1-.167.018,2.09,2.09,0,0,1,0-4.181h.316a2.09,2.09,0,0,1,.018,4.181.484.484,0,0,1-.167-.018m-13.237-.753a2.063,2.063,0,1,1,.233.018,1.049,1.049,0,0,1-.233-.018m24.131-1.856a2.1,2.1,0,1,1,2.34,1.825c-.082,0-.167.016-.251.016a2.108,2.108,0,0,1-2.089-1.84m-37.03-.449v.016a2.122,2.122,0,1,1,.5.051,1.737,1.737,0,0,1-.5-.067m49.731-1.6a2.071,2.071,0,0,1,1.522-2.523h.016a2.089,2.089,0,0,1,.987,4.059,2.571,2.571,0,0,1-.5.053,2.085,2.085,0,0,1-2.023-1.589m-62.265-2.205a2.094,2.094,0,0,1,1.452-3.928,2.092,2.092,0,0,1,1.238,2.69,2.12,2.12,0,0,1-1.956,1.373,2.251,2.251,0,0,1-.734-.135m74.615-1.336A2.089,2.089,0,1,1,195,278.3a2.4,2.4,0,0,1-.736.131,2.075,2.075,0,0,1-1.956-1.352m-86.6-3.963a2.065,2.065,0,0,1-.9-2.809,2.1,2.1,0,0,1,2.807-.9,2.089,2.089,0,0,1-.951,3.945,1.937,1.937,0,0,1-.951-.235m98.428-1.036a2.118,2.118,0,0,1,.9-2.823,2.1,2.1,0,0,1,1.923,3.726,2.165,2.165,0,0,1-.953.235,2.115,2.115,0,0,1-1.872-1.138m-109.709-5.63a2.088,2.088,0,0,1,2.339-3.459,2.109,2.109,0,0,1,.567,2.906,2.146,2.146,0,0,1-1.738.92,2.065,2.065,0,0,1-1.167-.367m120.871-.72a2.093,2.093,0,1,1,2.907.553,2.026,2.026,0,0,1-1.169.349,2.11,2.11,0,0,1-1.738-.9M84.037,258.5v.014a2.08,2.08,0,1,1,1.354.5,2,2,0,0,1-1.354-.516m141.612-.4a2.071,2.071,0,0,1,.2-2.941,2.084,2.084,0,1,1,2.741,3.139v.02a2.147,2.147,0,0,1-1.369.5,2.08,2.08,0,0,1-1.571-.716M74.628,249.388h0a2.1,2.1,0,0,1,.133-2.957,2.088,2.088,0,0,1,2.825,3.076,2.107,2.107,0,0,1-2.958-.12m160.379-.1a2.088,2.088,0,1,1,2.958-.135,2.118,2.118,0,0,1-1.554.687,2.078,2.078,0,0,1-1.4-.551M66.374,239.23h0a2.089,2.089,0,1,1,3.39-2.441,2.086,2.086,0,0,1-.485,2.909,2.047,2.047,0,0,1-1.2.4,2.082,2.082,0,0,1-1.7-.865m176.906.232a2.091,2.091,0,1,1,2.923-.485h-.016a2.09,2.09,0,0,1-1.7.869,2.133,2.133,0,0,1-1.2-.385M59.371,228.167a2.073,2.073,0,0,1,.82-2.843,2.091,2.091,0,1,1,2.021,3.661,2.181,2.181,0,0,1-1,.251,2.106,2.106,0,0,1-1.838-1.069m190.96.551a2.081,2.081,0,0,1-.818-2.841,2.086,2.086,0,0,1,3.659,2,2.082,2.082,0,0,1-1.836,1.089,2.182,2.182,0,0,1-1-.251M53.722,216.351h0a2.091,2.091,0,1,1,1.938,1.3,2.092,2.092,0,0,1-1.938-1.3m202.341.851a2.091,2.091,0,1,1,2.725-1.152,2.121,2.121,0,0,1-1.94,1.3,2.085,2.085,0,0,1-.785-.153M49.528,203.952h0A2.1,2.1,0,0,1,51,201.376a2.086,2.086,0,0,1,1.085,4.028,1.977,1.977,0,0,1-.551.082,2.084,2.084,0,0,1-2.005-1.534m210.863,1.138a2.086,2.086,0,0,1,1.087-4.028,2.092,2.092,0,0,1-.551,4.11,2.238,2.238,0,0,1-.536-.082M46.836,191.133h0a2.087,2.087,0,1,1,2.374,1.756,1.754,1.754,0,0,1-.316.033,2.085,2.085,0,0,1-2.058-1.789m216.4,1.436a2.108,2.108,0,1,1,.3.02,1.533,1.533,0,0,1-.3-.02M45.667,178.1a2.106,2.106,0,0,1,2.038-2.156,2.09,2.09,0,0,1,.118,4.179h-.067a2.112,2.112,0,0,1-2.089-2.023m218.9,1.687a2.089,2.089,0,1,1,2.156-2.04,2.1,2.1,0,0,1-2.089,2.04ZM47.941,167.269a2.2,2.2,0,1,1,.182,0Zm214.206-2.221a2.089,2.089,0,1,1,2.272,1.889c-.067,0-.133.016-.184.016a2.092,2.092,0,0,1-2.087-1.9M49.577,154.519a2.09,2.09,0,1,1,.853-4.092,2.094,2.094,0,0,1-.418,4.143,1.828,1.828,0,0,1-.436-.051m210.7-1.938h0a2.091,2.091,0,1,1,2.474,1.62,1.851,1.851,0,0,1-.436.033,2.071,2.071,0,0,1-2.038-1.654M52.7,142.05a2.089,2.089,0,1,1,2.641-1.318,2.075,2.075,0,0,1-1.972,1.422,2.274,2.274,0,0,1-.669-.1m204.23-1.619h0a2.09,2.09,0,1,1,2.656,1.3,1.889,1.889,0,0,1-.667.116,2.112,2.112,0,0,1-1.989-1.42M57.3,130.037a2.087,2.087,0,1,1,.9.2,1.911,1.911,0,0,1-.9-.2m194.872-1.269a2.092,2.092,0,0,1,3.775-1.8,2.112,2.112,0,0,1-.985,2.79,2.181,2.181,0,0,1-.9.2,2.091,2.091,0,0,1-1.887-1.187M63.281,118.674a2.1,2.1,0,1,1,2.874-.653h.018a2.118,2.118,0,0,1-2.892.653m182.789-.92h0a2.081,2.081,0,1,1,3.51-2.238h.018a2.084,2.084,0,0,1-1.773,3.208,2.046,2.046,0,0,1-1.754-.969m-175.5-9.676a2.09,2.09,0,1,1,2.939-.3,2.118,2.118,0,0,1-1.619.769,2.054,2.054,0,0,1-1.32-.469m168.115-.534a2.111,2.111,0,0,1,.3-2.943,2.09,2.09,0,1,1,2.639,3.243,2.054,2.054,0,0,1-1.32.469,2.121,2.121,0,0,1-1.62-.769M79.058,98.436a2.1,2.1,0,0,1,.031-2.958h.018a2.086,2.086,0,0,1,2.907,2.992,2.113,2.113,0,0,1-2.957-.033m151.1-.167h0a2.1,2.1,0,1,1,1.454.585,2.121,2.121,0,0,1-1.454-.585M88.616,89.847a2.081,2.081,0,1,1,1.656.818,2.1,2.1,0,0,1-1.656-.818m131.987.2a2.092,2.092,0,1,1,2.925-.4,2.031,2.031,0,0,1-1.656.836,2.115,2.115,0,0,1-1.269-.436m-121.491-7.6a2.089,2.089,0,1,1,1.8,1.02,2.091,2.091,0,0,1-1.8-1.02m111.029.567h0a2.085,2.085,0,1,1,2.123-3.59,2.086,2.086,0,1,1-2.123,3.59m-99.717-6.684a2.083,2.083,0,1,1,2.743,1.071,2.124,2.124,0,0,1-.836.182,2.069,2.069,0,0,1-1.907-1.254m88.5.938h0a2.081,2.081,0,1,1,2.758-1.071,2.077,2.077,0,0,1-2.758,1.071m-76.553-5.648a2.09,2.09,0,0,1,3.992-1.238A2.113,2.113,0,0,1,124.979,73a2.674,2.674,0,0,1-.618.082,2.092,2.092,0,0,1-1.987-1.469M187.095,72.9a2.112,2.112,0,1,1,.62.084,2.7,2.7,0,0,1-.62-.084m-52.3-4.561a2.088,2.088,0,1,1,2.439,1.687,2.8,2.8,0,0,1-.383.033,2.092,2.092,0,0,1-2.056-1.721m40.057,1.636a2.184,2.184,0,1,1,.369.018,2.691,2.691,0,0,1-.369-.018m-27.323-3.408a2.078,2.078,0,0,1,1.954-2.205,2.092,2.092,0,1,1,.251,4.177h-.118a2.087,2.087,0,0,1-2.087-1.972m14.806,1.938a2.084,2.084,0,0,1,.249-4.161h-.016a2.09,2.09,0,0,1-.118,4.177.336.336,0,0,1-.116-.016" transform="translate(43.925 61.887)"/>
            <path id="Trazado_872990" data-name="Trazado 872990" d="M148.975,263.111a.72.72,0,0,1-.182.016,2.3,2.3,0,1,1,0-4.6h.351a2.283,2.283,0,0,1,2.305,2.274,2.322,2.322,0,0,1-2.289,2.323.735.735,0,0,1-.184-.016m-13.2-.871h0a2.293,2.293,0,1,1,.618-4.544,2.29,2.29,0,0,1-.3,4.561,2.014,2.014,0,0,1-.318-.018m23.8-2a2.3,2.3,0,1,1,2.607,1.954h-.016a1.852,1.852,0,0,1-.32.018,2.3,2.3,0,0,1-2.272-1.972m-36.565-.638a2.3,2.3,0,0,1-1.6-2.823,2.3,2.3,0,1,1,2.223,2.909,1.977,1.977,0,0,1-.618-.086m49.082-1.687a2.3,2.3,0,1,1,2.841,1.589,1.972,1.972,0,0,1-.618.082,2.315,2.315,0,0,1-2.223-1.672m-61.38-2.672a2.3,2.3,0,1,1,1.821-4.23v.018a2.3,2.3,0,0,1,1.2,3.025,2.34,2.34,0,0,1-2.123,1.369,2.438,2.438,0,0,1-.9-.182m73.479-1.338a2.3,2.3,0,1,1,3.025,1.187,2.328,2.328,0,0,1-3.025-1.187m-85.078-4.679a2.3,2.3,0,0,1-.751-3.159,2.285,2.285,0,1,1,.751,3.159m96.492-.936a2.3,2.3,0,1,1,3.159.751,2.222,2.222,0,0,1-1.2.336,2.294,2.294,0,0,1-1.956-1.087m-107.137-6.6h0a2.293,2.293,0,1,1,2.892-3.559h.016a2.321,2.321,0,0,1,.318,3.243,2.279,2.279,0,0,1-1.772.836,2.249,2.249,0,0,1-1.454-.52m117.681-.536a2.3,2.3,0,1,1,1.789.853,2.3,2.3,0,0,1-1.789-.853M78.922,232.794a2.322,2.322,0,1,1,1.687.72,2.3,2.3,0,0,1-1.687-.72m136.717-.131a2.294,2.294,0,1,1,3.241-.118,2.3,2.3,0,0,1-1.687.734,2.237,2.237,0,0,1-1.554-.616M70.684,222.685a2.312,2.312,0,1,1,1.872.969,2.3,2.3,0,0,1-1.872-.969m153.209.267a2.29,2.29,0,1,1,3.192-.551,2.293,2.293,0,0,1-3.192.551M63.9,211.555h0a2.3,2.3,0,1,1,4.079-2.123,2.286,2.286,0,0,1-.987,3.092,2.176,2.176,0,0,1-1.052.267,2.285,2.285,0,0,1-2.04-1.236m166.847.669a2.295,2.295,0,1,1,3.108-.987,2.326,2.326,0,0,1-2.054,1.238,2.409,2.409,0,0,1-1.054-.251M58.683,199.59h0a2.3,2.3,0,1,1,2.943,1.385,2.131,2.131,0,0,1-.787.135,2.3,2.3,0,0,1-2.156-1.52m177.408,1.069a2.281,2.281,0,1,1,.753.133,2.439,2.439,0,0,1-.753-.133M55.158,187.023a2.294,2.294,0,1,1,2.725,1.789,2.557,2.557,0,0,1-.485.049,2.313,2.313,0,0,1-2.24-1.838m184.628,1.438a2.28,2.28,0,1,1,.451.049,2.09,2.09,0,0,1-.451-.049m-186.4-14.355a2.3,2.3,0,0,1,4.595-.318h-.016a2.287,2.287,0,0,1-2.121,2.456h-.169a2.288,2.288,0,0,1-2.289-2.138m188.388,1.77a2.118,2.118,0,1,1,.149.018c-.049,0-.1-.018-.149-.018M55.527,163.51a2.116,2.116,0,1,1,.149.018c-.049,0-.1-.018-.149-.018m184.059-2.49a2.3,2.3,0,1,1,2.456,2.123.542.542,0,0,1-.167.016,2.322,2.322,0,0,1-2.289-2.138M56.914,150.86a2.3,2.3,0,0,1-1.789-2.707v-.016a2.3,2.3,0,1,1,2.24,2.772,2.064,2.064,0,0,1-.451-.049m180.967-2.14a2.3,2.3,0,1,1,2.725,1.772,2.363,2.363,0,0,1-.469.051,2.3,2.3,0,0,1-2.256-1.823M60.021,138.492a2.3,2.3,0,1,1,1.538-4.328,2.322,2.322,0,0,1,1.4,2.941,2.3,2.3,0,0,1-2.172,1.52,2.039,2.039,0,0,1-.769-.133m174.485-1.721h0a2.3,2.3,0,1,1,2.941,1.387,2.084,2.084,0,0,1-.769.133,2.3,2.3,0,0,1-2.172-1.52M64.8,126.676a2.295,2.295,0,1,1,3.092-.985v.018a2.282,2.282,0,0,1-2.038,1.236,2.17,2.17,0,0,1-1.054-.269m164.725-1.269v-.016a2.3,2.3,0,0,1,.969-3.092,2.3,2.3,0,1,1,2.14,4.077,2.488,2.488,0,0,1-1.071.253,2.317,2.317,0,0,1-2.038-1.222M71.153,115.633a2.25,2.25,0,1,1,1.318.434,2.306,2.306,0,0,1-1.318-.434m151.888-.82a2.3,2.3,0,1,1,3.21.551,2.342,2.342,0,0,1-1.338.418,2.286,2.286,0,0,1-1.872-.969m-144.1-9.258a2.294,2.294,0,1,1,3.243-.118,2.306,2.306,0,0,1-1.687.736,2.247,2.247,0,0,1-1.556-.618M215.17,105.2a2.3,2.3,0,1,1,3.259.1,2.332,2.332,0,0,1-1.571.636,2.306,2.306,0,0,1-1.687-.736M88.013,96.63a2.316,2.316,0,1,1,1.787.836,2.309,2.309,0,0,1-1.787-.836m118.066.118h0a2.3,2.3,0,1,1,3.225-.333,2.32,2.32,0,0,1-1.787.851,2.236,2.236,0,0,1-1.438-.518M98.207,89.011a2.3,2.3,0,1,1,3.159.769,2.358,2.358,0,0,1-1.187.333,2.315,2.315,0,0,1-1.972-1.1m97.712.585a2.288,2.288,0,0,1-.769-3.157,2.3,2.3,0,1,1,3.928,2.388,2.286,2.286,0,0,1-1.974,1.1,2.216,2.216,0,0,1-1.185-.335M109.354,82.86a2.3,2.3,0,1,1,3.025,1.187,2.5,2.5,0,0,1-.92.184,2.3,2.3,0,0,1-2.105-1.371M184.889,83.9h0a2.3,2.3,0,1,1,.9.184,2.108,2.108,0,0,1-.9-.184m-63.654-5.631a2.278,2.278,0,0,1,1.589-2.825,2.3,2.3,0,1,1,1.234,4.428l.02-.016a2.119,2.119,0,0,1-.638.1,2.3,2.3,0,0,1-2.205-1.687m51.94,1.5a2.3,2.3,0,1,1,.6.082,2.527,2.527,0,0,1-.6-.082m-39.539-4.414a2.293,2.293,0,1,1,2.59,1.974,2.146,2.146,0,0,1-.316.016,2.287,2.287,0,0,1-2.274-1.989m27.374,1.923a2.325,2.325,0,1,1,.3.016,1.91,1.91,0,0,1-.3-.016m-12.4-.818a2.3,2.3,0,1,1,2.289-2.291,2.307,2.307,0,0,1-2.289,2.291" transform="translate(51.329 69.122)"/>
            <path id="Trazado_872991" data-name="Trazado 872991" d="M138.93,238.346a2.506,2.506,0,0,1,2.507-2.507h.131c.067,0,.133-.016.184-.016a2.528,2.528,0,0,1,2.523,2.507,2.5,2.5,0,0,1-2.507,2.505h-.332v.018a2.514,2.514,0,0,1-2.507-2.507m-10.763,1.4h0a2.5,2.5,0,0,1-2.074-2.874,2.507,2.507,0,1,1,2.492,2.923,1.786,1.786,0,0,1-.418-.049m23.98-2.107a2.509,2.509,0,1,1,2.892,2.058,1.866,1.866,0,0,1-.418.031,2.509,2.509,0,0,1-2.474-2.089m-36.9-1.136a2.519,2.519,0,0,1-1.554-3.192,2.508,2.508,0,0,1,4.746,1.622,2.54,2.54,0,0,1-2.372,1.7,2.771,2.771,0,0,1-.82-.135m49.5-1.67a2.511,2.511,0,1,1,3.192,1.554,2.769,2.769,0,0,1-.82.133,2.527,2.527,0,0,1-2.372-1.687m-61.7-3.694h0a2.511,2.511,0,1,1,1.187.3,2.511,2.511,0,0,1-1.187-.3m73.663-1.154a2.512,2.512,0,1,1,2.207,1.3,2.516,2.516,0,0,1-2.207-1.3M91.9,223.858a2.507,2.507,0,0,1,3.076-3.959,2.5,2.5,0,0,1-1.538,4.477,2.479,2.479,0,0,1-1.538-.518m95.807-.636a2.506,2.506,0,1,1,3.51.436,2.525,2.525,0,0,1-1.538.534,2.491,2.491,0,0,1-1.972-.969M82.094,214.835a2.532,2.532,0,1,1,1.856.8,2.508,2.508,0,0,1-1.856-.8m115.359-.084A2.5,2.5,0,1,1,201,214.6h-.016a2.5,2.5,0,0,1-1.84.818,2.432,2.432,0,0,1-1.687-.667M73.907,204.339a2.509,2.509,0,1,1,3.474.718,2.48,2.48,0,0,1-1.369.418,2.515,2.515,0,0,1-2.105-1.136m131.768.451A2.5,2.5,0,0,1,208.4,200.6a2.507,2.507,0,0,1-1.367,4.612,2.391,2.391,0,0,1-1.356-.418M67.556,192.641a2.5,2.5,0,1,1,3.308,1.287,2.776,2.776,0,0,1-1.02.2,2.505,2.505,0,0,1-2.288-1.487m144.6.987a2.475,2.475,0,1,1,.987.216,2.57,2.57,0,0,1-.987-.216M63.227,180.04a2.5,2.5,0,0,1,4.848-1.236,2.511,2.511,0,0,1-1.807,3.059,2.622,2.622,0,0,1-.618.067,2.5,2.5,0,0,1-2.423-1.889m153.479,1.487a2.493,2.493,0,0,1-1.84-3.023v-.016a2.507,2.507,0,1,1,2.441,3.125,2.425,2.425,0,0,1-.6-.086M61.037,166.905a2.5,2.5,0,1,1,2.692,2.289c-.067,0-.133.018-.2.018a2.51,2.51,0,0,1-2.492-2.307m158.141,1.956a2.4,2.4,0,1,1,.184.016c-.051,0-.118-.016-.184-.016M63.311,156.293A2.506,2.506,0,1,1,66.016,154v-.016a2.509,2.509,0,0,1-2.505,2.305Zm153.511-2.625a2.507,2.507,0,1,1,2.723,2.291h-.218a2.523,2.523,0,0,1-2.505-2.291M65,143.492a2.474,2.474,0,1,1,.6.082,2.457,2.457,0,0,1-.6-.082m149.75-2.138h0a2.509,2.509,0,1,1,3.059,1.8,2.025,2.025,0,0,1-.634.086,2.5,2.5,0,0,1-2.425-1.889M68.775,131.143a2.545,2.545,0,1,1,1,.2,2.659,2.659,0,0,1-1-.2m141.881-1.587h0a2.51,2.51,0,1,1,3.308,1.287,2.679,2.679,0,0,1-1,.2,2.515,2.515,0,0,1-2.305-1.487m-136.1-9.976a2.475,2.475,0,1,1,1.369.418,2.393,2.393,0,0,1-1.369-.418m130.114-.987a2.51,2.51,0,1,1,3.476.718,2.44,2.44,0,0,1-1.371.418,2.52,2.52,0,0,1-2.105-1.136M82.145,109.15a2.508,2.508,0,0,1-.151-3.543,2.5,2.5,0,0,1,3.694,3.376,2.436,2.436,0,0,1-1.838.818,2.528,2.528,0,0,1-1.7-.651m114.823-.383h0a2.514,2.514,0,1,1,3.543.131,2.463,2.463,0,0,1-1.7.669,2.517,2.517,0,0,1-1.838-.8M91.352,100.077a2.5,2.5,0,1,1,3.51.434,2.42,2.42,0,0,1-1.536.536,2.468,2.468,0,0,1-1.974-.969m96.409.249a2.506,2.506,0,1,1,3.525-.449,2.475,2.475,0,0,1-1.987.969,2.51,2.51,0,0,1-1.538-.52M101.9,92.657a2.508,2.508,0,1,1,3.408,1,2.625,2.625,0,0,1-1.2.3,2.5,2.5,0,0,1-2.2-1.3m75.4.851a2.5,2.5,0,1,1,3.39-1.018,2.523,2.523,0,0,1-2.223,1.32,2.442,2.442,0,0,1-1.167-.3m-63.772-6.433a2.51,2.51,0,1,1,3.192,1.536,2.318,2.318,0,0,1-.818.151,2.526,2.526,0,0,1-2.374-1.687m52.307,1.438h0a2.524,2.524,0,1,1,.818.133,2.383,2.383,0,0,1-.818-.133m-39.89-5.032a2.5,2.5,0,1,1,2.874,2.056,3.083,3.083,0,0,1-.418.033,2.491,2.491,0,0,1-2.456-2.089m27.774,2h.018a2.483,2.483,0,1,1,.4.035,3.636,3.636,0,0,1-.418-.035m-12.45-.985a2.507,2.507,0,1,1,2.507-2.523,2.5,2.5,0,0,1-2.507,2.523" transform="translate(58.685 76.454)"/>
            <path id="Trazado_872992" data-name="Trazado 872992" d="M131.514,215.864a2.725,2.725,0,0,1,2.727-2.723v.016h.082a.66.66,0,0,1,.167-.016,2.715,2.715,0,1,1,.016,5.43h-.265a2.713,2.713,0,0,1-2.727-2.707m-10.094,1.471a2.719,2.719,0,1,1,.536.051,3.111,3.111,0,0,1-.536-.051m22.712-2.191a2.71,2.71,0,1,1,3.192,2.125,2.091,2.091,0,0,1-.534.067,2.715,2.715,0,0,1-2.658-2.191m-35.045-1.554a2.675,2.675,0,1,1,1.036.218,2.507,2.507,0,0,1-1.036-.218m46.992-1.552a2.72,2.72,0,1,1,3.561,1.454,2.973,2.973,0,0,1-1.054.216,2.738,2.738,0,0,1-2.507-1.67m-58.355-4.512h0a2.731,2.731,0,0,1-.736-3.777,2.716,2.716,0,1,1,2.256,4.228,2.791,2.791,0,0,1-1.52-.451m69.469-.887a2.721,2.721,0,1,1,3.777.72,2.682,2.682,0,0,1-1.52.467,2.748,2.748,0,0,1-2.256-1.187M87.78,199.353h0a2.721,2.721,0,1,1,1.923.787,2.718,2.718,0,0,1-1.923-.787m89.272-.184a2.728,2.728,0,1,1,1.907.785,2.721,2.721,0,0,1-1.907-.785m-97.459-9.774h0a2.717,2.717,0,1,1,3.777.749,2.82,2.82,0,0,1-1.52.453,2.7,2.7,0,0,1-2.256-1.2m105.683.534a2.71,2.71,0,1,1,1.487.451,2.7,2.7,0,0,1-1.487-.451M73.509,178.048a2.715,2.715,0,0,1,5.013-2.089v.016a2.72,2.72,0,0,1-1.469,3.543,2.867,2.867,0,0,1-1.036.2,2.722,2.722,0,0,1-2.507-1.671m118.015,1.218a2.712,2.712,0,1,1,3.543-1.469h.018a2.733,2.733,0,0,1-2.523,1.687,2.616,2.616,0,0,1-1.038-.218M69.749,165.731v-.018a2.718,2.718,0,0,1,5.332-1.053,2.7,2.7,0,0,1-2.123,3.192,2.865,2.865,0,0,1-.534.051,2.735,2.735,0,0,1-2.676-2.172m125.839,1.854a2.615,2.615,0,1,1,.516.067,1.874,1.874,0,0,1-.516-.067M68.495,152.912a2.716,2.716,0,1,1,2.727,2.707,2.71,2.71,0,0,1-2.727-2.707m126.057-.267a2.7,2.7,0,0,1,2.707-2.723,2.715,2.715,0,1,1-2.707,2.723M71.871,143.27a2.637,2.637,0,1,1,.536.067,1.928,1.928,0,0,1-.536-.067m121.493-2.39a2.71,2.71,0,1,1,5.313-1.069h.018a2.749,2.749,0,0,1-2.138,3.21,3.108,3.108,0,0,1-.536.049,2.7,2.7,0,0,1-2.656-2.189M74.93,131.3a2.717,2.717,0,0,1-1.487-3.541,2.72,2.72,0,1,1,2.505,3.741,2.781,2.781,0,0,1-1.018-.2M189.9,129.6a2.719,2.719,0,0,1,5.014-2.105,2.71,2.71,0,0,1-2.507,3.761A2.7,2.7,0,0,1,189.9,129.6M80.26,120.157a2.741,2.741,0,1,1,1.5.453,2.749,2.749,0,0,1-1.5-.453m104.029-.969h.018a2.7,2.7,0,1,1-.018,0m-96.607-8.924a2.718,2.718,0,1,1,3.843,0,2.775,2.775,0,0,1-1.923.787,2.67,2.67,0,0,1-1.921-.787m89.088-.182a2.726,2.726,0,1,1,1.923.785,2.751,2.751,0,0,1-1.923-.785m-79.9-8.071a2.733,2.733,0,0,1,.734-3.779h.018a2.716,2.716,0,0,1,3.025,4.512,2.822,2.822,0,0,1-1.522.453,2.744,2.744,0,0,1-2.254-1.187m70.738.585a2.711,2.711,0,1,1,3.777-.753,2.744,2.744,0,0,1-2.274,1.22,2.784,2.784,0,0,1-1.5-.467M107.5,95.677a2.716,2.716,0,0,1,5.014-2.089,2.737,2.737,0,0,1-1.471,3.559,2.787,2.787,0,0,1-1.036.2,2.7,2.7,0,0,1-2.507-1.67m49.684,1.367a2.725,2.725,0,1,1,1.036.2,2.751,2.751,0,0,1-1.036-.2m-38.036-5.479a2.731,2.731,0,0,1,2.14-3.192,2.717,2.717,0,1,1,1.052,5.33,2.72,2.72,0,0,1-3.192-2.138m26.722,2.089a2.729,2.729,0,0,1-2.138-3.192,2.69,2.69,0,0,1,3.174-2.14h.018a2.717,2.717,0,0,1-.52,5.381,2.889,2.889,0,0,1-.534-.049m-14.488-3.845a2.715,2.715,0,1,1,2.723,2.725,2.714,2.714,0,0,1-2.723-2.725" transform="translate(65.882 83.781)"/>
            <path id="Trazado_872993" data-name="Trazado 872993" d="M123.989,193.383a2.928,2.928,0,0,1,2.925-2.925h.182a2.924,2.924,0,0,1,.018,5.848h-.2a2.916,2.916,0,0,1-2.925-2.923m-10.209,1.2a2.913,2.913,0,1,1,.751.1,2.909,2.909,0,0,1-.751-.1m22.877-2.105a2.925,2.925,0,1,1,3.592,2.056,3.123,3.123,0,0,1-.767.1,2.926,2.926,0,0,1-2.825-2.156m-35.127-2.958h0a2.923,2.923,0,1,1,3.992-1.069,2.946,2.946,0,0,1-2.539,1.454,2.813,2.813,0,0,1-1.454-.385m46.941-1.154a2.977,2.977,0,1,1,2.541,1.438,2.955,2.955,0,0,1-2.541-1.438m-57.453-6.917a2.925,2.925,0,0,1,4.128-4.145,2.924,2.924,0,0,1-2.072,5,2.885,2.885,0,0,1-2.056-.851m67.8-.133a2.927,2.927,0,1,1,2.056.851,2.924,2.924,0,0,1-2.056-.851M82.929,170.94h0a2.924,2.924,0,1,1,3.994,1.069,2.963,2.963,0,0,1-1.471.4,2.92,2.92,0,0,1-2.523-1.471m84.075.918A2.926,2.926,0,1,1,171,170.771a2.962,2.962,0,0,1-2.541,1.473,3,3,0,0,1-1.454-.387M77.848,158.706a2.925,2.925,0,1,1,3.576,2.058,2.928,2.928,0,0,1-3.576-2.058m94.6,1.874a2.924,2.924,0,1,1,.751.1,2.906,2.906,0,0,1-.751-.1m-96.34-15.024a2.924,2.924,0,1,1,2.923,2.923,2.927,2.927,0,0,1-2.923-2.923m95.756-.184h0a2.924,2.924,0,0,1,5.848-.018,2.954,2.954,0,0,1-2.925,2.943,2.917,2.917,0,0,1-2.923-2.925M79.887,136a2.918,2.918,0,1,1,.769.1,3.066,3.066,0,0,1-.769-.1m90.427-2.238h0a2.918,2.918,0,1,1,3.574,2.054,2.819,2.819,0,0,1-.751.1,2.908,2.908,0,0,1-2.823-2.156M83.95,124.163a2.941,2.941,0,1,1,1.452.387,2.894,2.894,0,0,1-1.452-.387m81.835-1.236h0A2.929,2.929,0,1,1,169.779,124a2.9,2.9,0,0,1-1.454.383,2.933,2.933,0,0,1-2.541-1.454m-74.833-9.14a2.924,2.924,0,1,1,4.126-.018,2.868,2.868,0,0,1-2.07.869,2.915,2.915,0,0,1-2.056-.851m67.664-.135a2.922,2.922,0,1,1,2.072.853,2.927,2.927,0,0,1-2.072-.853m-58.239-8.1a2.923,2.923,0,1,1,3.994,1.069,2.9,2.9,0,0,1-1.471.4,2.939,2.939,0,0,1-2.523-1.471m48.915.987a2.931,2.931,0,0,1,2.923-5.081,2.93,2.93,0,0,1-1.469,5.464,3.119,3.119,0,0,1-1.454-.383m-37.685-6.484A2.925,2.925,0,1,1,115.2,102.1a3.129,3.129,0,0,1-.769.1,2.926,2.926,0,0,1-2.823-2.156m26.856,2.005h0a2.915,2.915,0,1,1,.736.1,2.7,2.7,0,0,1-.736-.1m-14.573-4.412a2.924,2.924,0,1,1,2.941,2.925,2.929,2.929,0,0,1-2.941-2.925" transform="translate(73.208 91.104)"/>
            <path id="Trazado_872994" data-name="Trazado 872994" d="M119.656,174.042h-.067a3.133,3.133,0,1,1,0-6.266h.116a3.133,3.133,0,0,1,.035,6.266Zm-13.786-2.725a3.131,3.131,0,1,1,4.092-1.687,3.147,3.147,0,0,1-2.89,1.938,3.005,3.005,0,0,1-1.2-.251m23.462-1.721a3.135,3.135,0,1,1,4.112,1.671,3.2,3.2,0,0,1-1.22.249,3.156,3.156,0,0,1-2.892-1.921m-35.1-6.048a3.15,3.15,0,1,1,2.223.918,3.141,3.141,0,0,1-2.223-.918m46.358-.084a3.132,3.132,0,1,1,4.43-.018,3.1,3.1,0,0,1-2.223.92,3.143,3.143,0,0,1-2.207-.9M86.468,151.932a3.1,3.1,0,1,1,2.89,1.94,3.126,3.126,0,0,1-2.89-1.94m62.216,1.571a3.128,3.128,0,1,1,1.185.233,2.955,2.955,0,0,1-1.185-.233M83.727,138.228a3.134,3.134,0,1,1,3.143,3.125,3.138,3.138,0,0,1-3.143-3.125m65.441-.133a3.133,3.133,0,1,1,3.159,3.125,3.134,3.134,0,0,1-3.159-3.125M88.139,128.6a3.147,3.147,0,1,1,1.2.233,3.319,3.319,0,0,1-1.2-.233m58.757-1.821h0a3.116,3.116,0,1,1,2.89,1.938,3.125,3.125,0,0,1-2.89-1.938m-52.691-9.476a3.122,3.122,0,0,1-.018-4.43h.018a3.126,3.126,0,1,1,2.205,5.348,3.159,3.159,0,0,1-2.205-.918m46.256-.1a3.131,3.131,0,1,1,4.412-4.444,3.155,3.155,0,0,1,.016,4.444,3.191,3.191,0,0,1-2.221.922,3.056,3.056,0,0,1-2.207-.922m-36.347-8.02a3.134,3.134,0,1,1,4.094,1.687,3.338,3.338,0,0,1-1.2.235,3.135,3.135,0,0,1-2.892-1.923m26.738,1.638a3.128,3.128,0,1,1,1.187.233,3.253,3.253,0,0,1-1.187-.233m-14.473-5.348a3.133,3.133,0,1,1,3.143,3.125,3.134,3.134,0,0,1-3.143-3.125" transform="translate(80.533 98.43)"/>
            <path id="Trazado_872995" data-name="Trazado 872995" d="M112.16,151.263h-.031a3.343,3.343,0,0,1-.135-6.684h.184a3.342,3.342,0,1,1,.033,6.684h-.051Zm-13.468-4.895h0a3.34,3.34,0,0,1,4.294-5.116,3.336,3.336,0,0,1-2.156,5.9,3.26,3.26,0,0,1-2.138-.785m22.226-.437a3.366,3.366,0,1,1,2.556,1.171,3.351,3.351,0,0,1-2.556-1.171M91.539,134a3.335,3.335,0,1,1,3.859,2.707,3.655,3.655,0,0,1-.585.049A3.327,3.327,0,0,1,91.539,134m37.332,2.641a3.342,3.342,0,1,1,3.861-2.725V133.9a3.347,3.347,0,0,1-3.292,2.79,3.674,3.674,0,0,1-.569-.049m-33.64-12.167a3.326,3.326,0,1,1,1.656.453,3.279,3.279,0,0,1-1.656-.453m29.194-1.269h0a3.348,3.348,0,0,1,5.784-3.374v.016a3.347,3.347,0,0,1-1.2,4.561,3.286,3.286,0,0,1-1.687.453,3.326,3.326,0,0,1-2.894-1.656M102.953,115a3.338,3.338,0,1,1,4.277,1.991,3.4,3.4,0,0,1-1.136.2A3.323,3.323,0,0,1,102.953,115m14,1.956a3.282,3.282,0,1,1,1.136.218,3.1,3.1,0,0,1-1.136-.218" transform="translate(87.994 106.269)"/>
          </g>
        </g>
        <g id="Grupo_1098889" data-name="Grupo 1098889" transform="translate(1420.703 -94.532)">
          <g id="Grupo_1098889-2" data-name="Grupo 1098889" transform="translate(0 0)" clip-path="url(#clip-path-4)">
            <path id="Trazado_872998" data-name="Trazado 872998" d="M114.07,0V251.58c0,34.124-25.586,61.886-57.035,61.886S0,285.7,0,251.58V0Z" transform="translate(0)" fill="#59836b"/>
          </g>
        </g>
        <g id="Grupo_1098881" data-name="Grupo 1098881" transform="translate(242.797 314.704)">
          <g id="Grupo_1098880" data-name="Grupo 1098880" transform="translate(-111 -471.85)" clip-path="url(#clip-path-5)">
            <path id="Trazado_872978" data-name="Trazado 872978" d="M106.231,410.138A106.351,106.351,0,0,1,0,303.907V0H1.4V303.907a104.834,104.834,0,1,0,209.669,0V0h1.4V303.907A106.351,106.351,0,0,1,106.231,410.138"/>
            <path id="Trazado_872979" data-name="Trazado 872979" d="M102.522,394.749a90.946,90.946,0,0,1-90.844-90.842V0h1.4V303.907a89.447,89.447,0,0,0,178.894,0V0h1.4V303.907a90.945,90.945,0,0,1-90.842,90.842" transform="translate(3.709 0)"/>
            <path id="Trazado_872980" data-name="Trazado 872980" d="M98.812,379.361a75.541,75.541,0,0,1-75.456-75.455V0h1.4V303.907a74.059,74.059,0,0,0,148.117,0V0h1.4V303.907a75.539,75.539,0,0,1-75.455,75.455" transform="translate(7.419 0)"/>
            <path id="Trazado_872981" data-name="Trazado 872981" d="M95.1,363.974a60.135,60.135,0,0,1-60.067-60.067V0h1.4V303.906a58.671,58.671,0,1,0,117.341,0V0h1.4V303.906A60.135,60.135,0,0,1,95.1,363.974" transform="translate(11.129 0)"/>
          </g>
        </g>
      </g>
    </g>
  </g>
</svg>
