<svg xmlns="http://www.w3.org/2000/svg" width="170" height="132" viewBox="0 0 170 132">
  <g id="Grupo_1099254" data-name="Grupo 1099254" transform="translate(-304.667 -3020)">
    <rect id="Rectángulo_400989" data-name="Rectángulo 400989" width="170" height="132" rx="10" transform="translate(304.667 3020)" fill="#77af8f"/>
    <circle id="Elipse_11497" data-name="Elipse 11497" cx="30" cy="30" r="30" transform="translate(345.667 3033)" fill="#d3d3d3" opacity="0.4"/>
    <g id="Grupo_1099214" data-name="Grupo 1099214" transform="translate(345.481 3041.453)">
      <g id="Grupo_1099215" data-name="Grupo 1099215" transform="translate(39.073 65.968)">
        <g id="Grupo_1099214-2" data-name="Grupo 1099214">
          <path id="Trazado_873504" data-name="Trazado 873504" d="M228.941,377.5a1.5,1.5,0,0,0-2.088.32l-.185.251a1.494,1.494,0,0,0,2.406,1.772l.187-.255A1.494,1.494,0,0,0,228.941,377.5Z" transform="translate(-226.377 -377.21)" fill="#fff"/>
        </g>
      </g>
      <g id="Grupo_1099217" data-name="Grupo 1099217" transform="translate(34.92 66.22)">
        <g id="Grupo_1099216" data-name="Grupo 1099216">
          <path id="Trazado_873505" data-name="Trazado 873505" d="M209.424,392.92l-3.843-6.987,3.588-4.886a1.494,1.494,0,1,0-2.408-1.768l-4.152,5.655a1.494,1.494,0,0,0-.1,1.6l4.3,7.823h0a1.494,1.494,0,1,0,2.618-1.44Z" transform="translate(-202.318 -378.668)" fill="#fff"/>
        </g>
      </g>
      <g id="Grupo_1099219" data-name="Grupo 1099219" transform="translate(46.187 66.243)">
        <g id="Grupo_1099218" data-name="Grupo 1099218">
          <path id="Trazado_873506" data-name="Trazado 873506" d="M274.566,385.046l-4.136-5.632a1.494,1.494,0,0,0-2.409,1.769l3.57,4.863-3.816,6.94a1.494,1.494,0,1,0,2.618,1.441l4.277-7.776A1.494,1.494,0,0,0,274.566,385.046Z" transform="translate(-267.591 -378.804)" fill="#fff"/>
        </g>
      </g>
      <g id="Grupo_1099221" data-name="Grupo 1099221" transform="translate(32.044 48.833)">
        <g id="Grupo_1099220" data-name="Grupo 1099220">
          <path id="Trazado_873507" data-name="Trazado 873507" d="M209.137,278.11a1.494,1.494,0,0,0-1.543.092,23.8,23.8,0,0,0-2.451,1.928c-4.021,3.635-7.841,3.143-7.991,3.122a1.454,1.454,0,0,0-.272-.018c-1.589.041-4.454-1.411-7.485-3.792-.464-.364-.939-.711-1.414-1.031a1.494,1.494,0,0,0-2.33,1.238v5.126a1.5,1.5,0,0,0,.56,1.165,1.468,1.468,0,0,0,.13.093l10.595,7.079.005,0,.028.019a1.494,1.494,0,0,0,1.667-.011l.015-.01.018-.012,10.569-7.063c.042-.027.084-.056.124-.087a1.494,1.494,0,0,0,.575-1.178v-5.342A1.494,1.494,0,0,0,209.137,278.11Zm-2.189,5.865-9.154,6.117-9.154-6.117v-1.359c2.229,1.62,5.508,3.607,8.181,3.607h.017c.9.1,5.474.369,10.111-3.7v1.451Z" transform="translate(-185.651 -277.939)" fill="#fff"/>
        </g>
      </g>
      <g id="Grupo_1099223" data-name="Grupo 1099223" transform="translate(39.258 61.29)">
        <g id="Grupo_1099222" data-name="Grupo 1099222">
          <path id="Trazado_873508" data-name="Trazado 873508" d="M233.848,351.359a1.494,1.494,0,0,0-2.678-.639l-3.434,4.678a1.494,1.494,0,1,0,2.409,1.768l3.416-4.653a1.492,1.492,0,0,0,.308-.908A1.528,1.528,0,0,0,233.848,351.359Z" transform="translate(-227.446 -350.11)" fill="#fff"/>
        </g>
      </g>
      <g id="Grupo_1099225" data-name="Grupo 1099225" transform="translate(21.477 1.04)">
        <g id="Grupo_1099224" data-name="Grupo 1099224" transform="translate(0 0)">
          <path id="Trazado_873509" data-name="Trazado 873509" d="M169.906,14.37c-.03-.234-.73-5.285-5.484-7.278a5.136,5.136,0,0,0-.44-3.137,5.862,5.862,0,0,0-4.44-2.888,1.489,1.489,0,0,0-.285-.027H139.2a14.785,14.785,0,0,0-14.768,14.768v7.869a9.015,9.015,0,0,0,1.967,5.629,7.272,7.272,0,0,1,1.52,4.219,1.494,1.494,0,0,0,2.986-.085V23.182a6.572,6.572,0,0,1,5.072-5.123h6.487a7.3,7.3,0,0,0,2.231-.346c1.233-.4,3.19-1.124,4.615-1.665a4.331,4.331,0,0,1,2.971-.037l6.945,2.438a6.352,6.352,0,0,1,4.168,4.807V35.569a1.493,1.493,0,0,0,1.383,1.489c.038,0,.075,0,.113,0a1.5,1.5,0,0,0,1.477-1.273,21.116,21.116,0,0,1,2.526-6.978,6.7,6.7,0,0,0,1.023-3.541V14.559A1.5,1.5,0,0,0,169.906,14.37Zm-2.977,10.9a3.7,3.7,0,0,1-.545,1.918V23.154a1.485,1.485,0,0,0-.009-.161,9.314,9.314,0,0,0-6.127-7.353l-.02-.007-6.955-2.442a7.323,7.323,0,0,0-5.022.064c-1.995.758-3.539,1.315-4.466,1.613a4.312,4.312,0,0,1-1.318.2h-6.607a1.52,1.52,0,0,0-.192.012,9.512,9.512,0,0,0-7.712,7.6,1.5,1.5,0,0,0-.036.325v3.075a6.071,6.071,0,0,1-.5-2.408V15.809A11.793,11.793,0,0,1,139.2,4.029h19.9A3.192,3.192,0,0,1,161.311,5.3a2.9,2.9,0,0,1-.065,2.133,1.494,1.494,0,0,0,1,2.088,6.408,6.408,0,0,1,4.681,5.154v10.6Z" transform="translate(-124.434 -1.04)" fill="#fff"/>
        </g>
      </g>
      <g id="Grupo_1099227" data-name="Grupo 1099227" transform="translate(24.963 12.778)">
        <g id="Grupo_1099226" data-name="Grupo 1099226">
          <path id="Trazado_873510" data-name="Trazado 873510" d="M183.084,79.26a9.313,9.313,0,0,0-6.127-7.353l-.02-.007-6.955-2.442a7.327,7.327,0,0,0-5.022.064c-1.995.758-3.539,1.315-4.466,1.613a4.312,4.312,0,0,1-1.318.2h-6.607a1.521,1.521,0,0,0-.192.012,9.512,9.512,0,0,0-7.712,7.6,1.494,1.494,0,0,0-.036.325V92.122c0,.011,0,.022,0,.033.01.446.326,10.983,7.606,15.8l.038.027.1.066c.415.28.832.585,1.24.9,2.121,1.665,6.118,4.431,9.271,4.431h.017a8.274,8.274,0,0,0,.891.044,14.12,14.12,0,0,0,9.418-3.92,20.837,20.837,0,0,1,2.143-1.684l.112-.078.11-.077c2.429-1.631,6.635-5.84,7.518-15.7,0-.044.006-.089.006-.133V79.421A1.58,1.58,0,0,0,183.084,79.26ZM180.1,91.768c-.814,8.9-4.606,12.35-6.2,13.421-.057.038-.113.077-.168.117l-.083.058a23.808,23.808,0,0,0-2.451,1.928c-4.006,3.622-7.814,3.147-8,3.12a1.5,1.5,0,0,0-.263-.016c-1.589.041-4.454-1.411-7.485-3.792-.464-.364-.939-.711-1.413-1.031l-.037-.026c-.036-.026-.072-.051-.114-.079-5.875-3.889-6.259-12.988-6.272-13.368V79.449a6.571,6.571,0,0,1,5.07-5.123h6.489a7.3,7.3,0,0,0,2.231-.346c1.233-.4,3.19-1.124,4.615-1.665a4.331,4.331,0,0,1,2.971-.037l6.945,2.438a6.352,6.352,0,0,1,4.168,4.807V91.768Z" transform="translate(-144.628 -69.046)" fill="#fff"/>
        </g>
      </g>
      <g id="Grupo_1099229" data-name="Grupo 1099229" transform="translate(39.113 61.291)">
        <g id="Grupo_1099228" data-name="Grupo 1099228">
          <path id="Trazado_873511" data-name="Trazado 873511" d="M233.016,350.939a1.494,1.494,0,0,0-2.541-.216L226.9,355.6a1.494,1.494,0,0,0,2.407,1.771l3.579-4.857a1.547,1.547,0,0,0,.292-.9A1.5,1.5,0,0,0,233.016,350.939Z" transform="translate(-226.606 -350.113)" fill="#fff"/>
        </g>
      </g>
      <g id="Grupo_1099231" data-name="Grupo 1099231" transform="translate(42.703 85.712)">
        <g id="Grupo_1099230" data-name="Grupo 1099230">
          <path id="Trazado_873512" data-name="Trazado 873512" d="M250.322,492.063a1.494,1.494,0,0,0-2.088-.07l-.342.312a1.494,1.494,0,0,0-.3,1.831l.011.019a1.494,1.494,0,0,0,2.361.328l.331-.331A1.494,1.494,0,0,0,250.322,492.063Z" transform="translate(-247.406 -491.602)" fill="#fff"/>
        </g>
      </g>
      <g id="Grupo_1099233" data-name="Grupo 1099233" transform="translate(42.339 85.712)">
        <g id="Grupo_1099232" data-name="Grupo 1099232">
          <path id="Trazado_873513" data-name="Trazado 873513" d="M248.145,492.307l-.342-.312a1.494,1.494,0,0,0-2.065,2.159l.331.331a1.494,1.494,0,0,0,2.366-.338l.011-.019A1.5,1.5,0,0,0,248.145,492.307Z" transform="translate(-245.301 -491.603)" fill="#fff"/>
        </g>
      </g>
      <g id="Grupo_1099235" data-name="Grupo 1099235" transform="translate(42.676 86.035)">
        <g id="Grupo_1099234" data-name="Grupo 1099234">
          <path id="Trazado_873514" data-name="Trazado 873514" d="M249.785,493.876l0,0a1.495,1.495,0,0,0-2.039,0l0,0a1.494,1.494,0,0,0-.047,2.163l.016.016a1.494,1.494,0,0,0,2.11,0l.016-.016a1.495,1.495,0,0,0-.049-2.161Z" transform="translate(-247.252 -493.472)" fill="#fff"/>
        </g>
      </g>
      <g id="Grupo_1099237" data-name="Grupo 1099237" transform="translate(42.721 61.268)">
        <g id="Grupo_1099236" data-name="Grupo 1099236">
          <path id="Trazado_873515" data-name="Trazado 873515" d="M249.461,350.051a1.494,1.494,0,1,0,1.042,1.424v0A1.492,1.492,0,0,0,249.461,350.051Z" transform="translate(-247.512 -349.981)" fill="#fff"/>
        </g>
      </g>
      <g id="Grupo_1099239" data-name="Grupo 1099239" transform="translate(42.692 61.265)">
        <g id="Grupo_1099238" data-name="Grupo 1099238">
          <path id="Trazado_873516" data-name="Trazado 873516" d="M250.051,350.584l-.013-.017a1.494,1.494,0,0,0-2.7.888v.026a1.5,1.5,0,0,0,1.5,1.488,1.511,1.511,0,0,0,.834-.251,1.494,1.494,0,0,0,.377-2.134Z" transform="translate(-247.343 -349.961)" fill="#fff"/>
        </g>
      </g>
      <g id="Grupo_1099241" data-name="Grupo 1099241" transform="translate(42.692 54.175)">
        <g id="Grupo_1099240" data-name="Grupo 1099240">
          <path id="Trazado_873517" data-name="Trazado 873517" d="M266.613,311.906a1.493,1.493,0,0,0-.893-.877l-5.729-2.054a1.447,1.447,0,0,0-.143-.043,1.493,1.493,0,0,0-1.193.207l-10.615,7.093-.009.006.833,1.239-.852-1.227a1.5,1.5,0,0,0-.38,2.131l7.771,10.584a1.494,1.494,0,0,0,1.2.61q.049,0,.1,0a1.494,1.494,0,0,0,1.212-.771l8.605-15.646A1.493,1.493,0,0,0,266.613,311.906Zm-10.184,13.4-5.462-7.439,8.724-5.829,3.371,1.209Z" transform="translate(-247.344 -308.887)" fill="#fff"/>
        </g>
      </g>
      <g id="Grupo_1099243" data-name="Grupo 1099243" transform="translate(26.315 54.175)">
        <g id="Grupo_1099242" data-name="Grupo 1099242">
          <path id="Trazado_873518" data-name="Trazado 873518" d="M171.8,317.24a1.494,1.494,0,0,0-.639-.983l-10.65-7.117a1.5,1.5,0,0,0-1.155-.216,1.478,1.478,0,0,0-.18.052l-5.729,2.054a1.494,1.494,0,0,0-.8,2.126l8.605,15.646a1.5,1.5,0,0,0,1.212.771c.032,0,.065,0,.1,0a1.5,1.5,0,0,0,1.2-.61l4.152-5.655.01-.014,3.609-4.916A1.494,1.494,0,0,0,171.8,317.24Zm-6.3,4.3-.011.014-2.757,3.755-6.633-12.06,3.372-1.209,8.724,5.829Z" transform="translate(-152.461 -308.889)" fill="#fff"/>
        </g>
      </g>
      <g id="Grupo_1099245" data-name="Grupo 1099245" transform="translate(42.713 56.229)">
        <g id="Grupo_1099244" data-name="Grupo 1099244">
          <path id="Trazado_873519" data-name="Trazado 873519" d="M293.051,347.259l-1.927-11.639a10.3,10.3,0,0,0-6.653-8l-18.647-6.746a1.494,1.494,0,0,0-1.845,2.072l3.893,7.808-3.82.059a1.494,1.494,0,0,0-1.3,2.187l1.567,2.992-16.035,14.669-.048.046-.331.331a1.494,1.494,0,0,0-.254,1.773l.012.021a1.5,1.5,0,0,0,1.311.777h38.693a5.46,5.46,0,0,0,5.387-6.352Zm-3.5,2.491a2.469,2.469,0,0,1-1.886.873H252.753l14.431-13.2a1.493,1.493,0,0,0,.315-1.8l-.975-1.861,3.767-.058a1.494,1.494,0,0,0,1.314-2.161l-3.286-6.589,15.135,5.476a7.312,7.312,0,0,1,4.721,5.675l1.927,11.639h0A2.468,2.468,0,0,1,289.55,349.75Z" transform="translate(-247.466 -320.787)" fill="#fff"/>
        </g>
      </g>
      <g id="Grupo_1099247" data-name="Grupo 1099247" transform="translate(42.692 86.049)">
        <g id="Grupo_1099246" data-name="Grupo 1099246">
          <path id="Trazado_873520" data-name="Trazado 873520" d="M249.873,493.958l-.017-.016a1.494,1.494,0,0,0-2.062.054l-.016.016a1.494,1.494,0,0,0,1.06,2.548h.033a1.494,1.494,0,0,0,1-2.6Z" transform="translate(-247.343 -493.556)" fill="#fff"/>
        </g>
      </g>
      <g id="Grupo_1099249" data-name="Grupo 1099249" transform="translate(42.671 86.025)">
        <g id="Grupo_1099248" data-name="Grupo 1099248">
          <path id="Trazado_873521" data-name="Trazado 873521" d="M249.724,493.8a1.495,1.495,0,0,0-2.31.392l-.01.019a1.494,1.494,0,0,0,.236,1.758l.005.006a1.494,1.494,0,0,0,2.081.065l.016-.014a1.493,1.493,0,0,0,.33-.436A1.511,1.511,0,0,0,249.724,493.8Z" transform="translate(-247.22 -493.413)" fill="#fff"/>
        </g>
      </g>
      <g id="Grupo_1099251" data-name="Grupo 1099251" transform="translate(0 56.229)">
        <g id="Grupo_1099250" data-name="Grupo 1099250" transform="translate(0)">
          <path id="Trazado_873522" data-name="Trazado 873522" d="M45.239,351.057l-.006-.006-.012-.012-.331-.331-.048-.046L28.807,335.993,30.374,333a1.494,1.494,0,0,0-1.3-2.187l-3.821-.059,3.893-7.808a1.494,1.494,0,0,0-1.845-2.072L8.654,327.622a10.3,10.3,0,0,0-6.653,8L.074,347.258a5.46,5.46,0,0,0,5.387,6.352H44.186a1.494,1.494,0,0,0,1.053-2.554Zm-39.779-.435a2.472,2.472,0,0,1-2.439-2.876l1.927-11.639a7.312,7.312,0,0,1,4.721-5.675l15.135-5.475-3.286,6.589a1.494,1.494,0,0,0,1.314,2.161l3.767.058-.975,1.861a1.494,1.494,0,0,0,.315,1.8l14.431,13.2Z" transform="translate(0 -320.786)" fill="#fff"/>
        </g>
      </g>
      <g id="Grupo_1099253" data-name="Grupo 1099253" transform="translate(39.073 61.298)">
        <g id="Grupo_1099252" data-name="Grupo 1099252">
          <path id="Trazado_873523" data-name="Trazado 873523" d="M236.575,356.956a1.494,1.494,0,0,0-.245-1.247l-3.636-4.952a1.5,1.5,0,0,0-2.455.082l-3.57,4.843a1.5,1.5,0,0,0-.025,1.742l1.52,2.183-1.619,10.207a1.5,1.5,0,0,0,.167.954l3.469,6.307a1.494,1.494,0,0,0,2.618,0l3.495-6.354a1.5,1.5,0,0,0,.185-.72h0a1.523,1.523,0,0,0-.018-.234l-1.612-10.159,1.5-2.159A1.512,1.512,0,0,0,236.575,356.956Zm-5.085,16.3-1.913-3.478,1.634-10.3a1.493,1.493,0,0,0-.25-1.088l-1.252-1.8,1.786-2.423,1.8,2.445-1.237,1.776a1.494,1.494,0,0,0-.25,1.088l1.626,10.249Z" transform="translate(-226.376 -350.155)" fill="#fff"/>
        </g>
      </g>
    </g>
  </g>
</svg>
