<svg xmlns="http://www.w3.org/2000/svg" width="295" height="140" viewBox="0 0 295 140">
  <g id="Grupo_1099179" data-name="Grupo 1099179" transform="translate(-179.667 -1228)">
    <rect id="Rect치ngulo_400998" data-name="Rect치ngulo 400998" width="295" height="140" rx="10" transform="translate(179.667 1228)" fill="#77af8f"/>
    <path id="Rect치ngulo_401146" data-name="Rect치ngulo 401146" d="M10,0H22A130,130,0,0,1,152,130v10a0,0,0,0,1,0,0H10A10,10,0,0,1,0,130V10A10,10,0,0,1,10,0Z" transform="translate(180 1228)" fill="#daf2e4" opacity="0.4"/>
    <g id="Grupo_1099178" data-name="Grupo 1099178" transform="translate(265 1206.867)">
      <path id="Trazado_873341" data-name="Trazado 873341" d="M119.577,38.5H5.5A5.5,5.5,0,0,0,0,44v7.329H3.664V44A1.834,1.834,0,0,1,5.5,42.166H119.577A1.834,1.834,0,0,1,121.41,44v73.285a1.834,1.834,0,0,1-1.832,1.832H5.5a1.834,1.834,0,0,1-1.832-1.832V54.991H0v62.292a5.5,5.5,0,0,0,5.5,5.5H55.075a12.843,12.843,0,0,1-12.692,10.993h-9.16a5.5,5.5,0,0,0-5.5,5.5v5.5H75.362V141.1H31.39v-1.832a1.834,1.834,0,0,1,1.832-1.832H91.851a1.834,1.834,0,0,1,1.832,1.832V141.1H86.355v3.664H97.348v-5.5a5.5,5.5,0,0,0-5.5-5.5h-9.16A12.843,12.843,0,0,1,70,122.78h49.579a5.5,5.5,0,0,0,5.5-5.5V44A5.5,5.5,0,0,0,119.577,38.5Zm-47.235,95.27H52.731a16.478,16.478,0,0,0,6.037-10.993h7.538a16.479,16.479,0,0,0,6.037,10.993Z" fill="#fff"/>
      <path id="Trazado_873342" data-name="Trazado 873342" d="M30,68.5v69.621H140.417V68.5Zm106.753,65.957H33.664V72.165H136.753Z" transform="translate(-22.671 -22.671)" fill="#fff"/>
      <path id="Trazado_873343" data-name="Trazado 873343" d="M323.5,458.5h3.664v3.664H323.5Z" transform="translate(-244.476 -317.399)" fill="#fff"/>
      <path id="Trazado_873344" data-name="Trazado 873344" d="M106.074,146.483l.567.184.566-.184a26,26,0,0,0,10.745-6.8c3.291-3.506,5.031-7.5,5.031-11.538,0-4.395-2.331-8.13-5.939-9.515-3.373-1.3-7.158-.355-10.4,2.506-3.245-2.862-7.031-3.8-10.4-2.506-3.608,1.386-5.939,5.12-5.939,9.516,0,4.041,1.74,8.031,5.031,11.538a26.008,26.008,0,0,0,10.745,6.8Zm.567-3.678a21.463,21.463,0,0,1-10.929-8.656h3.7l2.04-1.29,3.669,3.554,3.579-2.264h8.869A21.463,21.463,0,0,1,106.641,142.805Zm-9.089-20.758a4.954,4.954,0,0,1,1.788-.331c1.956,0,4.043,1.113,5.94,3.219l1.361,1.511L108,124.935c2.491-2.765,5.308-3.818,7.728-2.889,2.213.85,3.588,3.185,3.588,6.095a10.642,10.642,0,0,1-.267,2.343H107.639l-2.04,1.29-3.669-3.554-3.579,2.264H94.23a10.641,10.641,0,0,1-.267-2.343c0-2.909,1.376-5.245,3.589-6.095Z" transform="translate(-68.24 -60.12)" fill="#fff"/>
      <path id="Trazado_873345" data-name="Trazado 873345" d="M257.306,206.433H295.78V210.1H257.306Z" transform="translate(-194.45 -126.908)" fill="#fff"/>
      <path id="Trazado_873346" data-name="Trazado 873346" d="M257.306,131.434H295.78V135.1H257.306Z" transform="translate(-194.45 -70.23)" fill="#fff"/>
      <path id="Trazado_873347" data-name="Trazado 873347" d="M257.306,168.934H295.78V172.6H257.306Z" transform="translate(-194.45 -98.57)" fill="#fff"/>
      <path id="Trazado_873348" data-name="Trazado 873348" d="M97.2,288.932h29.314V292.6H97.2Z" transform="translate(-73.454 -189.254)" fill="#fff"/>
      <path id="Trazado_873349" data-name="Trazado 873349" d="M97.2,251.433h29.314V255.1H97.2Z" transform="translate(-73.454 -160.915)" fill="#fff"/>
      <path id="Trazado_873350" data-name="Trazado 873350" d="M295.779,256.929h-3.664v3.664h-5.038v-9.16h-3.664v9.16h-5.038v-5.5H274.71v5.5h-5.038v-3.664h-3.664v3.664h-5.038v-9.16H257.3v12.825h38.474Z" transform="translate(-194.45 -160.915)" fill="#fff"/>
      <path id="Trazado_873351" data-name="Trazado 873351" d="M437,128.5h3.664v3.664H437Z" transform="translate(-330.249 -68.014)" fill="#fff"/>
      <path id="Trazado_873352" data-name="Trazado 873352" d="M437,98.5h3.664v3.664H437Z" transform="translate(-330.249 -45.342)" fill="#fff"/>
    </g>
    <circle id="Elipse_11492" data-name="Elipse 11492" cx="26" cy="26" r="26" transform="translate(403.667 1306)" fill="#fff" opacity="0.4"/>
  </g>
</svg>
