<svg xmlns="http://www.w3.org/2000/svg" xmlns:xlink="http://www.w3.org/1999/xlink" width="190" height="113.217" viewBox="0 0 190 113.217">
  <defs>
    <clipPath id="clip-path">
      <rect id="Rectángulo_401114" data-name="Rectángulo 401114" width="190" height="113.217" transform="translate(-32.137)" fill="none"/>
    </clipPath>
    <clipPath id="clip-path-2">
      <rect id="Rectángulo_401110" data-name="Rectángulo 401110" width="157.863" height="113.217" transform="translate(0 0)" fill="none"/>
    </clipPath>
    <clipPath id="clip-path-3">
      <rect id="Rectángulo_401109" data-name="Rectángulo 401109" width="98.048" height="56.609" transform="translate(59.697 0)" fill="none"/>
    </clipPath>
    <clipPath id="clip-path-5">
      <rect id="Rectángulo_401111" data-name="Rectángulo 401111" width="49.024" height="84.913" transform="translate(59.697 28.304)" fill="none"/>
    </clipPath>
  </defs>
  <g id="Grupo_1099107" data-name="Grupo 1099107" transform="translate(32.137)">
    <g id="Grupo_1099120" data-name="Grupo 1099120" clip-path="url(#clip-path)">
      <rect id="Rectángulo_401108" data-name="Rectángulo 401108" width="190" height="56.608" transform="translate(-32.137 28.305)" fill="#d4a5ad"/>
      <path id="Trazado_873255" data-name="Trazado 873255" d="M108.721,0,59.7,28.3l49.024,28.3,49.025-28.3Z" fill="#d4a5ad"/>
      <g id="Grupo_1099112" data-name="Grupo 1099112">
        <g id="Grupo_1099111" data-name="Grupo 1099111" clip-path="url(#clip-path-2)">
          <g id="Grupo_1099110" data-name="Grupo 1099110" opacity="0.4" style="mix-blend-mode: overlay;isolation: isolate">
            <g id="Grupo_1099109" data-name="Grupo 1099109">
              <g id="Grupo_1099108" data-name="Grupo 1099108" clip-path="url(#clip-path-3)">
                <path id="Trazado_873256" data-name="Trazado 873256" d="M108.721,0,59.7,28.3l49.024,28.3,49.024-28.3Z" fill="#fff"/>
              </g>
            </g>
          </g>
        </g>
      </g>
      <path id="Trazado_873257" data-name="Trazado 873257" d="M59.7,84.913l49.024,28.3V56.609L59.7,28.3Z" fill="#d4a5ad"/>
      <g id="Grupo_1099117" data-name="Grupo 1099117">
        <g id="Grupo_1099116" data-name="Grupo 1099116" clip-path="url(#clip-path-2)">
          <g id="Grupo_1099115" data-name="Grupo 1099115" opacity="0.4" style="mix-blend-mode: overlay;isolation: isolate">
            <g id="Grupo_1099114" data-name="Grupo 1099114">
              <g id="Grupo_1099113" data-name="Grupo 1099113" clip-path="url(#clip-path-5)">
                <path id="Trazado_873258" data-name="Trazado 873258" d="M59.7,28.3V84.912l49.024,28.305V56.608Z"/>
              </g>
            </g>
          </g>
        </g>
      </g>
      <path id="Trazado_873259" data-name="Trazado 873259" d="M108.721,56.609v56.608l49.025-28.3V28.3Z" fill="#d4a5ad"/>
      <g id="Grupo_1099119" data-name="Grupo 1099119">
        <g id="Grupo_1099118" data-name="Grupo 1099118" clip-path="url(#clip-path-2)">
          <path id="Trazado_873260" data-name="Trazado 873260" d="M124.807,74.289l1.344-15.979L139.7,50.345v3.577L129,60.211l-.8,8.775a15.9,15.9,0,0,1,4.412-3.912q3.612-2.124,5.738-.623t2.124,6.189a17.766,17.766,0,0,1-2.206,8.713,16.4,16.4,0,0,1-6.165,6.334q-3.5,2.061-5.719,1.125T123.863,82.1l3.177-1.868q.309,2.432,1.617,2.992t3.449-.7a9.507,9.507,0,0,0,3.677-4,12.761,12.761,0,0,0,1.335-5.869q0-3.054-1.444-4.056t-3.84.407a10.526,10.526,0,0,0-3.45,3.136L127.5,73.5Z" fill="#2b3d46"/>
          <path id="Trazado_873261" data-name="Trazado 873261" d="M124.807,74.289l1.344-15.979L139.7,50.345v3.577L129,60.211l-.8,8.775a15.9,15.9,0,0,1,4.412-3.912q3.612-2.124,5.738-.623t2.124,6.189a17.766,17.766,0,0,1-2.206,8.713,16.4,16.4,0,0,1-6.165,6.334q-3.5,2.061-5.719,1.125T123.863,82.1l3.177-1.868q.309,2.432,1.617,2.992t3.449-.7a9.507,9.507,0,0,0,3.677-4,12.761,12.761,0,0,0,1.335-5.869q0-3.054-1.444-4.056t-3.84.407a10.526,10.526,0,0,0-3.45,3.136L127.5,73.5Z" fill="none" stroke="#2b3d46" stroke-miterlimit="10" stroke-width="0.5"/>
          <path id="Trazado_873262" data-name="Trazado 873262" d="M144.562,75.915a4.166,4.166,0,0,1,.518-1.979,4.007,4.007,0,0,1,1.552-1.582q1.035-.607,1.571-.254a1.515,1.515,0,0,1,.535,1.359,3.935,3.935,0,0,1-.535,1.926,4.165,4.165,0,0,1-1.571,1.572q-1.035.609-1.552.265a1.458,1.458,0,0,1-.518-1.307" fill="#2b3d46"/>
          <path id="Trazado_873263" data-name="Trazado 873263" d="M144.562,75.915a4.166,4.166,0,0,1,.518-1.979,4.007,4.007,0,0,1,1.552-1.582q1.035-.607,1.571-.254a1.515,1.515,0,0,1,.535,1.359,3.935,3.935,0,0,1-.535,1.926,4.165,4.165,0,0,1-1.571,1.572q-1.035.609-1.552.265A1.458,1.458,0,0,1,144.562,75.915Z" fill="none" stroke="#2b3d46" stroke-miterlimit="10" stroke-width="0.5"/>
        </g>
      </g>
      <path id="Trazado_873294" data-name="Trazado 873294" d="M65.2,27.8V15.186a3.017,3.017,0,1,0-2.881-4.993L56.858,7.037,51.4,3.885a3.018,3.018,0,1,0-5.768,0L40.169,7.037l-5.461,3.154a3.017,3.017,0,1,0-2.883,4.994V27.8a3.016,3.016,0,1,0,2.882,4.992l5.461,3.154L45.628,39.1a3.018,3.018,0,1,0,5.768,0l5.461-3.152,5.462-3.154A3.016,3.016,0,1,0,65.2,27.8Zm-2.881.889L55.7,24.864V21.513h0V18.118L62.319,14.3a3.014,3.014,0,0,0,1.536.889V27.8A3,3,0,0,0,62.32,28.686ZM48.514,28.5c-3.345,0-5.844-1.288-5.844-2.44v-2.3a5.986,5.986,0,0,0,.946.556,12.76,12.76,0,0,0,9.795,0,6.03,6.03,0,0,0,.944-.555v2.3C54.355,27.214,51.857,28.5,48.514,28.5Zm-13.807.183a3.021,3.021,0,0,0-1.538-.888V15.186a3.024,3.024,0,0,0,1.538-.888l6.618,3.82v3.394h0v3.351Zm13.807-14.2c3.343,0,5.841,1.288,5.841,2.44s-2.5,2.437-5.841,2.437-5.844-1.287-5.844-2.437S45.17,14.481,48.514,14.481Zm-5.843,4.688a6.053,6.053,0,0,0,.949.557,12.719,12.719,0,0,0,9.786,0,6.092,6.092,0,0,0,.949-.557v2.343c0,1.152-2.5,2.44-5.841,2.44s-5.844-1.288-5.844-2.44Zm21.858-8.6a1.672,1.672,0,1,1-1.671,1.673A1.674,1.674,0,0,1,64.529,10.573ZM56.185,8.2l5.461,3.154a3.025,3.025,0,0,0,0,1.775l-5.971,3.447a3.589,3.589,0,0,0-2.268-2.464,11.182,11.182,0,0,0-4.22-.963V5.94a3.012,3.012,0,0,0,1.536-.89ZM48.514,1.326A1.672,1.672,0,1,1,46.841,3a1.673,1.673,0,0,1,1.673-1.67ZM40.841,8.2,46.3,5.05a3.02,3.02,0,0,0,1.538.89v7.212a11.207,11.207,0,0,0-4.221.963,3.591,3.591,0,0,0-2.268,2.464l-5.97-3.446a3.013,3.013,0,0,0,0-1.777ZM30.826,12.246a1.672,1.672,0,1,1,1.671,1.67A1.674,1.674,0,0,1,30.826,12.246ZM32.5,32.409a1.67,1.67,0,1,1,1.673-1.67A1.673,1.673,0,0,1,32.5,32.409Zm8.344,2.369-5.459-3.153a3.019,3.019,0,0,0,0-1.776L41.352,26.4a3.582,3.582,0,0,0,2.264,2.469,11.2,11.2,0,0,0,4.225.961v7.212a3.024,3.024,0,0,0-1.538.888Zm7.673,6.879a1.672,1.672,0,1,1,1.671-1.673A1.675,1.675,0,0,1,48.514,41.657Zm7.671-6.879-5.463,3.153a3.017,3.017,0,0,0-1.535-.888V29.832a11.21,11.21,0,0,0,4.224-.961A3.578,3.578,0,0,0,55.672,26.4l5.972,3.449a3.008,3.008,0,0,0,0,1.773Zm8.344-2.369a1.67,1.67,0,1,1,1.671-1.67A1.673,1.673,0,0,1,64.529,32.409Z" transform="translate(-32.791 34.9)" fill="#fff"/>
    </g>
  </g>
</svg>
