<svg xmlns="http://www.w3.org/2000/svg" xmlns:xlink="http://www.w3.org/1999/xlink" width="190" height="113.217" viewBox="0 0 190 113.217">
  <defs>
    <clipPath id="clip-path">
      <rect id="Rectángulo_401121" data-name="Rectángulo 401121" width="190" height="113.217" transform="translate(-32.137)" fill="none"/>
    </clipPath>
    <clipPath id="clip-path-2">
      <rect id="Rectángulo_401117" data-name="Rectángulo 401117" width="157.863" height="113.217" transform="translate(0 0)" fill="none"/>
    </clipPath>
    <clipPath id="clip-path-3">
      <rect id="Rectángulo_401116" data-name="Rectángulo 401116" width="98.048" height="56.609" transform="translate(59.697 0)" fill="none"/>
    </clipPath>
    <clipPath id="clip-path-5">
      <rect id="Rectángulo_401118" data-name="Rectángulo 401118" width="49.024" height="84.913" transform="translate(59.697 28.304)" fill="none"/>
    </clipPath>
  </defs>
  <g id="Grupo_1099135" data-name="Grupo 1099135" transform="translate(32.137)">
    <g id="Grupo_1099134" data-name="Grupo 1099134" clip-path="url(#clip-path)">
      <rect id="Rectángulo_401115" data-name="Rectángulo 401115" width="190" height="56.608" transform="translate(-32.137 28.305)" fill="#d4a5ad"/>
      <path id="Trazado_873264" data-name="Trazado 873264" d="M108.721,0,59.7,28.3l49.024,28.3,49.025-28.3Z" fill="#d4a5ad"/>
      <g id="Grupo_1099126" data-name="Grupo 1099126">
        <g id="Grupo_1099125" data-name="Grupo 1099125" clip-path="url(#clip-path-2)">
          <g id="Grupo_1099124" data-name="Grupo 1099124" opacity="0.4" style="mix-blend-mode: overlay;isolation: isolate">
            <g id="Grupo_1099123" data-name="Grupo 1099123">
              <g id="Grupo_1099122" data-name="Grupo 1099122" clip-path="url(#clip-path-3)">
                <path id="Trazado_873265" data-name="Trazado 873265" d="M108.721,0,59.7,28.3l49.024,28.3,49.024-28.3Z" fill="#fff"/>
              </g>
            </g>
          </g>
        </g>
      </g>
      <path id="Trazado_873266" data-name="Trazado 873266" d="M59.7,84.913l49.024,28.3V56.609L59.7,28.3Z" fill="#d4a5ad"/>
      <g id="Grupo_1099131" data-name="Grupo 1099131">
        <g id="Grupo_1099130" data-name="Grupo 1099130" clip-path="url(#clip-path-2)">
          <g id="Grupo_1099129" data-name="Grupo 1099129" opacity="0.4" style="mix-blend-mode: overlay;isolation: isolate">
            <g id="Grupo_1099128" data-name="Grupo 1099128">
              <g id="Grupo_1099127" data-name="Grupo 1099127" clip-path="url(#clip-path-5)">
                <path id="Trazado_873267" data-name="Trazado 873267" d="M59.7,28.3V84.912l49.024,28.305V56.608Z"/>
              </g>
            </g>
          </g>
        </g>
      </g>
      <path id="Trazado_873268" data-name="Trazado 873268" d="M108.721,56.609v56.608l49.025-28.3V28.3Z" fill="#d4a5ad"/>
      <g id="Grupo_1099133" data-name="Grupo 1099133">
        <g id="Grupo_1099132" data-name="Grupo 1099132" clip-path="url(#clip-path-2)">
          <path id="Trazado_873269" data-name="Trazado 873269" d="M136.446,52.235V55.52l-.618.363a18,18,0,0,0-6.246,6.352,20.238,20.238,0,0,0-2.687,8.882A14.927,14.927,0,0,1,132.6,65q3.45-2.03,5.511-.437t2.061,6.026a18.367,18.367,0,0,1-2.224,8.839,15.877,15.877,0,0,1-5.965,6.332q-3.795,2.232-6.155.263t-2.36-7.263V77.277a32.67,32.67,0,0,1,3.113-14.688,23.949,23.949,0,0,1,9.27-10Zm-4.412,16.319a10.534,10.534,0,0,0-3.178,3.062,12.929,12.929,0,0,0-2.015,4.177v1.422q0,3.765,1.47,5.2t3.668.145a9.1,9.1,0,0,0,3.568-4.023,13.182,13.182,0,0,0,1.3-5.805q0-3.14-1.317-4.3t-3.5.12" fill="#2b3d46"/>
          <path id="Trazado_873270" data-name="Trazado 873270" d="M136.446,52.235V55.52l-.618.363a18,18,0,0,0-6.246,6.352,20.238,20.238,0,0,0-2.687,8.882A14.927,14.927,0,0,1,132.6,65q3.45-2.03,5.511-.437t2.061,6.026a18.367,18.367,0,0,1-2.224,8.839,15.877,15.877,0,0,1-5.965,6.332q-3.795,2.232-6.155.263t-2.36-7.263V77.277a32.67,32.67,0,0,1,3.113-14.688,23.949,23.949,0,0,1,9.27-10Zm-4.412,16.319a10.534,10.534,0,0,0-3.178,3.062,12.929,12.929,0,0,0-2.015,4.177v1.422q0,3.765,1.47,5.2t3.668.145a9.1,9.1,0,0,0,3.568-4.023,13.182,13.182,0,0,0,1.3-5.805q0-3.14-1.317-4.3T132.034,68.554Z" fill="none" stroke="#2b3d46" stroke-miterlimit="10" stroke-width="0.5"/>
          <path id="Trazado_873271" data-name="Trazado 873271" d="M144.562,75.915a4.166,4.166,0,0,1,.518-1.979,4.007,4.007,0,0,1,1.552-1.582q1.035-.607,1.571-.254a1.515,1.515,0,0,1,.535,1.359,3.935,3.935,0,0,1-.535,1.926,4.165,4.165,0,0,1-1.571,1.572q-1.035.609-1.552.265a1.458,1.458,0,0,1-.518-1.307" fill="#2b3d46"/>
          <path id="Trazado_873272" data-name="Trazado 873272" d="M144.562,75.915a4.166,4.166,0,0,1,.518-1.979,4.007,4.007,0,0,1,1.552-1.582q1.035-.607,1.571-.254a1.515,1.515,0,0,1,.535,1.359,3.935,3.935,0,0,1-.535,1.926,4.165,4.165,0,0,1-1.571,1.572q-1.035.609-1.552.265A1.458,1.458,0,0,1,144.562,75.915Z" fill="none" stroke="#2b3d46" stroke-miterlimit="10" stroke-width="0.5"/>
        </g>
      </g>
    </g>
    <g id="_x30_9_Compare" transform="translate(-12.574 28.605)">
      <g id="Grupo_1099148" data-name="Grupo 1099148" transform="translate(8.753 9.498)">
        <path id="Trazado_873295" data-name="Trazado 873295" d="M52.936,24.938,46.447,18.45a.641.641,0,0,0-.41-.17H39.951V17.152a.649.649,0,0,0-.17-.41L32.708,9.668a.649.649,0,0,0-.41-.17H19.285a2.718,2.718,0,0,0-2.714,2.715v24.47A2.718,2.718,0,0,0,19.285,39.4H31.563v3.866A2.541,2.541,0,0,0,34.1,45.8H50.567a2.541,2.541,0,0,0,2.538-2.538V25.348a.652.652,0,0,0-.17-.41Zm-6.42-4.779,4.718,4.718-5.128.437ZM38.069,16.67l-5.749.44.457-5.733ZM17.731,36.683V12.213a1.556,1.556,0,0,1,1.554-1.555H31.67l-.506,6.359a1.179,1.179,0,0,0,1.175,1.273c.075,0-.083.009,6.453-.51v18.9a1.556,1.556,0,0,1-1.555,1.555H19.285a1.556,1.556,0,0,1-1.554-1.554Zm32.836,7.959H34.1a1.379,1.379,0,0,1-1.378-1.378V39.4h4.513a2.718,2.718,0,0,0,2.715-2.715V19.44h5.457l-.46,5.782a1.13,1.13,0,0,0,1.216,1.215l5.782-.46V43.264a1.379,1.379,0,0,1-1.378,1.378Z" transform="translate(-15.984 -9.498)" fill="#fff"/>
        <path id="Trazado_873296" data-name="Trazado 873296" d="M354.985,265.6h-6a.58.58,0,0,0,0,1.16h6a.58.58,0,1,0,0-1.16Z" transform="translate(-322.904 -246.377)" fill="#fff"/>
        <path id="Trazado_873297" data-name="Trazado 873297" d="M354.985,333.953h-6a.58.58,0,0,0,0,1.16h6a.58.58,0,0,0,0-1.16Z" transform="translate(-322.904 -309.596)" fill="#fff"/>
        <path id="Trazado_873298" data-name="Trazado 873298" d="M325.094,402.3h-8.43a.58.58,0,0,0,0,1.16h8.43a.58.58,0,1,0,0-1.16Z" transform="translate(-293.013 -372.815)" fill="#fff"/>
        <path id="Trazado_873299" data-name="Trazado 873299" d="M343.645,31.727a.58.58,0,0,0,.82,0l1.608-1.607a.57.57,0,0,0,.014-.842L344.47,27.66a.58.58,0,0,0-.82.82l.634.633H335.6a.58.58,0,1,0,0,1.16h8.683l-.633.633A.58.58,0,0,0,343.645,31.727Z" transform="translate(-310.524 -26.14)" fill="#fff"/>
        <path id="Trazado_873300" data-name="Trazado 873300" d="M8.932,446.418l1.617,1.617a.58.58,0,0,0,.82-.82l-.633-.633h8.686a.58.58,0,1,0,0-1.16H10.741l.633-.633a.58.58,0,0,0-.82-.82l-1.608,1.608A.57.57,0,0,0,8.932,446.418Z" transform="translate(-8.753 -411.196)" fill="#fff"/>
        <path id="Trazado_873301" data-name="Trazado 873301" d="M100.265,152.174H88.8a.58.58,0,0,0,0,1.16h11.463a.58.58,0,1,0,0-1.16Z" transform="translate(-82.256 -141.463)" fill="#fff"/>
        <path id="Trazado_873302" data-name="Trazado 873302" d="M100.265,220.524H88.8a.58.58,0,1,0,0,1.16h11.463a.58.58,0,1,0,0-1.16Z" transform="translate(-82.256 -204.682)" fill="#fff"/>
        <path id="Trazado_873303" data-name="Trazado 873303" d="M100.265,288.873H88.8a.58.58,0,0,0,0,1.16h11.463a.58.58,0,1,0,0-1.16Z" transform="translate(-82.256 -267.9)" fill="#fff"/>
      </g>
    </g>
  </g>
</svg>
